G75*
G70*
%OFA0B0*%
%FSLAX24Y24*%
%IPPOS*%
%LPD*%
%AMOC8*
5,1,8,0,0,1.08239X$1,22.5*
%
%ADD10C,0.0160*%
%ADD11C,0.0100*%
%ADD12C,0.0040*%
%ADD13C,0.0060*%
%ADD14C,0.0050*%
%ADD15C,0.0080*%
%ADD16C,0.0010*%
%ADD17C,0.0020*%
%ADD18R,0.0551X0.0256*%
%ADD19R,0.0560X0.0140*%
%ADD20R,0.0240X0.0240*%
%ADD21R,0.0230X0.0180*%
%ADD22C,0.0120*%
%ADD23C,0.0200*%
%ADD24R,0.0200X0.0150*%
%ADD25R,0.0150X0.0200*%
%ADD26C,0.0240*%
%ADD27R,0.0340X0.0240*%
%ADD28R,0.0200X0.0200*%
%ADD29R,0.0197X0.0235*%
%ADD30R,0.0187X0.0235*%
%ADD31R,0.0180X0.0230*%
%ADD32R,0.0140X0.0560*%
%ADD33R,0.0720X0.0230*%
%ADD34R,0.0669X0.0295*%
%ADD35R,0.0690X0.0290*%
%ADD36R,0.0290X0.0690*%
%ADD37R,0.1000X0.0200*%
%ADD38R,0.0210X0.0860*%
%ADD39R,0.0217X0.1496*%
%ADD40C,0.0000*%
D10*
X013725Y010940D02*
X014225Y011440D01*
X019975Y011440D01*
X020725Y011440D01*
X021600Y012315D01*
X021600Y013940D01*
X011675Y013165D02*
X011675Y015465D01*
X011673Y015524D01*
X011667Y015582D01*
X011658Y015641D01*
X011644Y015698D01*
X011627Y015754D01*
X011606Y015809D01*
X011582Y015863D01*
X011554Y015915D01*
X011523Y015965D01*
X011489Y016013D01*
X011452Y016058D01*
X011411Y016101D01*
X011368Y016142D01*
X011323Y016179D01*
X011275Y016213D01*
X011225Y016244D01*
X011173Y016272D01*
X011119Y016296D01*
X011064Y016317D01*
X011008Y016334D01*
X010951Y016348D01*
X010892Y016357D01*
X010834Y016363D01*
X010775Y016365D01*
X010716Y016363D01*
X010658Y016357D01*
X010599Y016348D01*
X010542Y016334D01*
X010486Y016317D01*
X010431Y016296D01*
X010377Y016272D01*
X010325Y016244D01*
X010275Y016213D01*
X010227Y016179D01*
X010182Y016142D01*
X010139Y016101D01*
X010098Y016058D01*
X010061Y016013D01*
X010027Y015965D01*
X009996Y015915D01*
X009968Y015863D01*
X009944Y015809D01*
X009923Y015754D01*
X009906Y015698D01*
X009892Y015641D01*
X009883Y015582D01*
X009877Y015524D01*
X009875Y015465D01*
X009875Y013165D01*
X009877Y013106D01*
X009883Y013048D01*
X009892Y012989D01*
X009906Y012932D01*
X009923Y012876D01*
X009944Y012821D01*
X009968Y012767D01*
X009996Y012715D01*
X010027Y012665D01*
X010061Y012617D01*
X010098Y012572D01*
X010139Y012529D01*
X010182Y012488D01*
X010227Y012451D01*
X010275Y012417D01*
X010325Y012386D01*
X010377Y012358D01*
X010431Y012334D01*
X010486Y012313D01*
X010542Y012296D01*
X010599Y012282D01*
X010658Y012273D01*
X010716Y012267D01*
X010775Y012265D01*
X010834Y012267D01*
X010892Y012273D01*
X010951Y012282D01*
X011008Y012296D01*
X011064Y012313D01*
X011119Y012334D01*
X011173Y012358D01*
X011225Y012386D01*
X011275Y012417D01*
X011323Y012451D01*
X011368Y012488D01*
X011411Y012529D01*
X011452Y012572D01*
X011489Y012617D01*
X011523Y012665D01*
X011554Y012715D01*
X011582Y012767D01*
X011606Y012821D01*
X011627Y012876D01*
X011644Y012932D01*
X011658Y012989D01*
X011667Y013048D01*
X011673Y013106D01*
X011675Y013165D01*
X005175Y017840D02*
X002775Y017840D01*
X002718Y017842D01*
X002662Y017848D01*
X002606Y017857D01*
X002550Y017870D01*
X002496Y017887D01*
X002443Y017907D01*
X002392Y017931D01*
X002342Y017959D01*
X002294Y017989D01*
X002248Y018023D01*
X002205Y018060D01*
X002164Y018099D01*
X002126Y018141D01*
X002091Y018186D01*
X002059Y018233D01*
X002030Y018282D01*
X002004Y018332D01*
X001982Y018385D01*
X001963Y018438D01*
X001948Y018493D01*
X001937Y018549D01*
X001929Y018605D01*
X001925Y018662D01*
X001925Y018718D01*
X001929Y018775D01*
X001937Y018831D01*
X001948Y018887D01*
X001963Y018942D01*
X001982Y018995D01*
X002004Y019048D01*
X002030Y019098D01*
X002059Y019147D01*
X002091Y019194D01*
X002126Y019239D01*
X002164Y019281D01*
X002205Y019320D01*
X002248Y019357D01*
X002294Y019391D01*
X002342Y019421D01*
X002392Y019449D01*
X002443Y019473D01*
X002496Y019493D01*
X002550Y019510D01*
X002606Y019523D01*
X002662Y019532D01*
X002718Y019538D01*
X002775Y019540D01*
X005175Y019540D01*
X005232Y019538D01*
X005288Y019532D01*
X005344Y019523D01*
X005400Y019510D01*
X005454Y019493D01*
X005507Y019473D01*
X005558Y019449D01*
X005608Y019421D01*
X005656Y019391D01*
X005702Y019357D01*
X005745Y019320D01*
X005786Y019281D01*
X005824Y019239D01*
X005859Y019194D01*
X005891Y019147D01*
X005920Y019098D01*
X005946Y019048D01*
X005968Y018995D01*
X005987Y018942D01*
X006002Y018887D01*
X006013Y018831D01*
X006021Y018775D01*
X006025Y018718D01*
X006025Y018662D01*
X006021Y018605D01*
X006013Y018549D01*
X006002Y018493D01*
X005987Y018438D01*
X005968Y018385D01*
X005946Y018332D01*
X005920Y018282D01*
X005891Y018233D01*
X005859Y018186D01*
X005824Y018141D01*
X005786Y018099D01*
X005745Y018060D01*
X005702Y018023D01*
X005656Y017989D01*
X005608Y017959D01*
X005558Y017931D01*
X005507Y017907D01*
X005454Y017887D01*
X005400Y017870D01*
X005344Y017857D01*
X005288Y017848D01*
X005232Y017842D01*
X005175Y017840D01*
D11*
X003430Y003492D02*
X000229Y003492D01*
X006430Y003492D01*
X004979Y003492D01*
X006430Y003492D02*
X006430Y008138D01*
X004979Y008138D01*
X006430Y008138D02*
X000229Y008138D01*
X003430Y008138D01*
X000229Y008138D02*
X000229Y003492D01*
X014175Y003290D02*
X014475Y003290D01*
X014775Y003290D01*
X014775Y003090D02*
X014475Y003090D01*
X014175Y003090D01*
X019800Y003215D02*
X020100Y003215D01*
X020400Y003215D01*
X020400Y003415D02*
X020100Y003415D01*
X019800Y003415D01*
D12*
X018830Y003787D02*
X018753Y003710D01*
X018830Y003787D02*
X018830Y003940D01*
X018753Y004017D01*
X018677Y004017D01*
X018600Y003940D01*
X018600Y003863D01*
X018600Y003940D02*
X018523Y004017D01*
X018446Y004017D01*
X018370Y003940D01*
X018370Y003787D01*
X018446Y003710D01*
X018446Y004170D02*
X018753Y004170D01*
X018830Y004247D01*
X018830Y004401D01*
X018753Y004477D01*
X018753Y004631D02*
X018830Y004708D01*
X018830Y004861D01*
X018753Y004938D01*
X018677Y004938D01*
X018600Y004861D01*
X018600Y004784D01*
X018600Y004861D02*
X018523Y004938D01*
X018446Y004938D01*
X018370Y004861D01*
X018370Y004708D01*
X018446Y004631D01*
X018446Y004477D02*
X018370Y004401D01*
X018370Y004247D01*
X018446Y004170D01*
X021878Y005235D02*
X022185Y005235D01*
X022032Y005235D02*
X022032Y005695D01*
X021878Y005542D01*
X022339Y005695D02*
X022339Y005388D01*
X022492Y005235D01*
X022646Y005388D01*
X022646Y005695D01*
X022799Y005695D02*
X023029Y005695D01*
X023106Y005619D01*
X023106Y005312D01*
X023029Y005235D01*
X022799Y005235D01*
X022799Y005695D01*
X023260Y005619D02*
X023336Y005695D01*
X023490Y005695D01*
X023567Y005619D01*
X023567Y005542D01*
X023260Y005235D01*
X023567Y005235D01*
X023865Y005940D02*
X023865Y007440D01*
X022085Y007440D01*
X022085Y005940D01*
X023865Y005940D01*
X026253Y011298D02*
X026560Y011298D01*
X026407Y011298D02*
X026407Y011758D01*
X026253Y011604D01*
X026335Y011878D02*
X026335Y013378D01*
X028115Y013378D01*
X028115Y011878D01*
X026335Y011878D01*
X026714Y011758D02*
X026714Y011451D01*
X026867Y011298D01*
X027021Y011451D01*
X027021Y011758D01*
X027174Y011758D02*
X027404Y011758D01*
X027481Y011681D01*
X027481Y011374D01*
X027404Y011298D01*
X027174Y011298D01*
X027174Y011758D01*
X027635Y011604D02*
X027788Y011758D01*
X027788Y011298D01*
X027635Y011298D02*
X027942Y011298D01*
X025861Y011854D02*
X025784Y011777D01*
X025630Y011777D01*
X025554Y011854D01*
X025630Y012007D02*
X025861Y012007D01*
X025861Y011854D02*
X025861Y012161D01*
X025784Y012237D01*
X025630Y012237D01*
X025554Y012161D01*
X025554Y012084D01*
X025630Y012007D01*
X025247Y012237D02*
X025247Y011777D01*
X025400Y011777D02*
X025093Y011777D01*
X024940Y011777D02*
X024786Y011930D01*
X024863Y011930D02*
X024633Y011930D01*
X024633Y011777D02*
X024633Y012237D01*
X024863Y012237D01*
X024940Y012161D01*
X024940Y012007D01*
X024863Y011930D01*
X025093Y012084D02*
X025247Y012237D01*
X024479Y011777D02*
X024173Y011777D01*
X024326Y011777D02*
X024326Y012237D01*
X024173Y012084D01*
X024111Y012315D02*
X024035Y012392D01*
X024111Y012315D02*
X024265Y012315D01*
X024342Y012392D01*
X024342Y012469D01*
X024265Y012546D01*
X024188Y012546D01*
X024265Y012546D02*
X024342Y012622D01*
X024342Y012699D01*
X024265Y012776D01*
X024111Y012776D01*
X024035Y012699D01*
X023881Y012776D02*
X023728Y012776D01*
X023804Y012776D02*
X023804Y012392D01*
X023728Y012315D01*
X023651Y012315D01*
X023574Y012392D01*
X023421Y012315D02*
X023267Y012469D01*
X023344Y012469D02*
X023114Y012469D01*
X023114Y012315D02*
X023114Y012776D01*
X023344Y012776D01*
X023421Y012699D01*
X023421Y012546D01*
X023344Y012469D01*
X022757Y012170D02*
X022757Y011710D01*
X022910Y011710D02*
X022603Y011710D01*
X022450Y011787D02*
X022373Y011710D01*
X022220Y011710D01*
X022143Y011787D01*
X022143Y012094D01*
X022220Y012170D01*
X022373Y012170D01*
X022450Y012094D01*
X022603Y012017D02*
X022757Y012170D01*
X021989Y011940D02*
X021683Y011940D01*
X021913Y012170D01*
X021913Y011710D01*
X020785Y012873D02*
X020785Y013632D01*
X020165Y013632D02*
X020165Y012873D01*
X019702Y012170D02*
X019549Y012170D01*
X019472Y012094D01*
X019319Y012094D02*
X019319Y011940D01*
X019242Y011863D01*
X019012Y011863D01*
X019012Y011710D02*
X019012Y012170D01*
X019242Y012170D01*
X019319Y012094D01*
X019165Y011863D02*
X019319Y011710D01*
X019472Y011710D02*
X019779Y012017D01*
X019779Y012094D01*
X019702Y012170D01*
X019779Y011710D02*
X019472Y011710D01*
X018858Y011940D02*
X018551Y011940D01*
X018782Y012170D01*
X018782Y011710D01*
X018771Y012710D02*
X018618Y012710D01*
X018541Y012787D01*
X018387Y012710D02*
X018234Y012863D01*
X018311Y012863D02*
X018080Y012863D01*
X018080Y012710D02*
X018080Y013170D01*
X018311Y013170D01*
X018387Y013094D01*
X018387Y012940D01*
X018311Y012863D01*
X018541Y013094D02*
X018618Y013170D01*
X018771Y013170D01*
X018848Y013094D01*
X018848Y013017D01*
X018771Y012940D01*
X018848Y012863D01*
X018848Y012787D01*
X018771Y012710D01*
X018771Y012940D02*
X018694Y012940D01*
X018058Y013085D02*
X017751Y013085D01*
X017850Y013170D02*
X017620Y012940D01*
X017927Y012940D01*
X017905Y013085D02*
X017905Y013545D01*
X017751Y013392D01*
X017598Y013545D02*
X017291Y013545D01*
X017444Y013545D02*
X017444Y013085D01*
X017137Y013238D02*
X017137Y013545D01*
X016830Y013545D02*
X016830Y013238D01*
X016984Y013085D01*
X017137Y013238D01*
X016677Y013315D02*
X016370Y013315D01*
X016600Y013545D01*
X016600Y013085D01*
X017850Y013170D02*
X017850Y012710D01*
X019907Y014210D02*
X019907Y014670D01*
X019676Y014440D01*
X019983Y014440D01*
X020137Y014363D02*
X020367Y014363D01*
X020444Y014440D01*
X020444Y014594D01*
X020367Y014670D01*
X020137Y014670D01*
X020137Y014210D01*
X020290Y014363D02*
X020444Y014210D01*
X020597Y014440D02*
X020904Y014440D01*
X020827Y014210D02*
X020827Y014670D01*
X020597Y014440D01*
X019643Y015059D02*
X019182Y015059D01*
X019412Y014829D01*
X019412Y015136D01*
X019489Y015289D02*
X019489Y015519D01*
X019412Y015596D01*
X019259Y015596D01*
X019182Y015519D01*
X019182Y015289D01*
X019643Y015289D01*
X019489Y015443D02*
X019643Y015596D01*
X019566Y015750D02*
X019643Y015826D01*
X019643Y015980D01*
X019566Y016057D01*
X019412Y016057D01*
X019336Y015980D01*
X019336Y015903D01*
X019412Y015750D01*
X019182Y015750D01*
X019182Y016057D01*
X018765Y015420D02*
X018611Y015420D01*
X018535Y015344D01*
X018381Y015420D02*
X018074Y015420D01*
X017921Y015420D02*
X017921Y015113D01*
X017767Y014960D01*
X017614Y015113D01*
X017614Y015420D01*
X017384Y015420D02*
X017153Y015190D01*
X017460Y015190D01*
X017384Y014960D02*
X017384Y015420D01*
X018228Y015420D02*
X018228Y014960D01*
X018535Y015037D02*
X018611Y014960D01*
X018765Y014960D01*
X018842Y015037D01*
X018842Y015113D01*
X018765Y015190D01*
X018688Y015190D01*
X018765Y015190D02*
X018842Y015267D01*
X018842Y015344D01*
X018765Y015420D01*
X015806Y015080D02*
X015555Y014903D01*
X015429Y014815D02*
X015216Y014853D01*
X015278Y014897D02*
X015090Y014765D01*
X015178Y014639D02*
X014914Y015017D01*
X015102Y015149D01*
X015209Y015130D01*
X015297Y015004D01*
X015278Y014897D01*
X014920Y014740D02*
X014669Y014564D01*
X014725Y014884D01*
X014989Y014507D01*
X015681Y014991D02*
X015417Y015369D01*
X015379Y015155D01*
X022181Y016728D02*
X022488Y016728D01*
X022641Y016651D02*
X022795Y016497D01*
X022948Y016651D01*
X022948Y016958D01*
X023102Y016958D02*
X023409Y016958D01*
X023255Y016958D02*
X023255Y016497D01*
X023562Y016497D02*
X023869Y016804D01*
X023869Y016881D01*
X023792Y016958D01*
X023639Y016958D01*
X023562Y016881D01*
X023562Y016497D02*
X023869Y016497D01*
X024023Y015606D02*
X024253Y015606D01*
X024330Y015530D01*
X024330Y015376D01*
X024253Y015299D01*
X024023Y015299D01*
X024023Y015146D02*
X024023Y015606D01*
X024176Y015299D02*
X024330Y015146D01*
X024483Y015223D02*
X024560Y015146D01*
X024637Y015146D01*
X024713Y015223D01*
X024713Y015606D01*
X024637Y015606D02*
X024790Y015606D01*
X024944Y015376D02*
X025251Y015376D01*
X025174Y015146D02*
X025174Y015606D01*
X024944Y015376D01*
X025557Y014108D02*
X025557Y013648D01*
X025710Y013648D02*
X025403Y013648D01*
X025864Y013801D02*
X026017Y013648D01*
X026171Y013801D01*
X026171Y014108D01*
X026324Y014108D02*
X026631Y014108D01*
X026478Y014108D02*
X026478Y013648D01*
X026785Y013724D02*
X026861Y013648D01*
X027015Y013648D01*
X027092Y013724D01*
X027092Y013801D01*
X027015Y013878D01*
X026938Y013878D01*
X027015Y013878D02*
X027092Y013954D01*
X027092Y014031D01*
X027015Y014108D01*
X026861Y014108D01*
X026785Y014031D01*
X025864Y014108D02*
X025864Y013801D01*
X025557Y014108D02*
X025403Y013954D01*
X027495Y014863D02*
X027955Y014863D01*
X027955Y014710D02*
X027955Y015017D01*
X027955Y015170D02*
X027495Y015170D01*
X027495Y015401D01*
X027571Y015477D01*
X027725Y015477D01*
X027802Y015401D01*
X027802Y015170D01*
X027802Y015324D02*
X027955Y015477D01*
X027955Y015631D02*
X027955Y015938D01*
X027955Y015784D02*
X027495Y015784D01*
X027648Y015631D01*
X027725Y016091D02*
X027725Y016321D01*
X027802Y016398D01*
X027878Y016398D01*
X027955Y016321D01*
X027955Y016168D01*
X027878Y016091D01*
X027725Y016091D01*
X027571Y016245D01*
X027495Y016398D01*
X027495Y014863D02*
X027648Y014710D01*
X024785Y017460D02*
X024785Y017537D01*
X025092Y017844D01*
X025092Y017920D01*
X024785Y017920D01*
X024631Y017920D02*
X024478Y017920D01*
X024554Y017920D02*
X024554Y017537D01*
X024478Y017460D01*
X024401Y017460D01*
X024324Y017537D01*
X024171Y017460D02*
X024017Y017613D01*
X024094Y017613D02*
X023864Y017613D01*
X023864Y017460D02*
X023864Y017920D01*
X024094Y017920D01*
X024171Y017844D01*
X024171Y017690D01*
X024094Y017613D01*
X022641Y016958D02*
X022641Y016651D01*
X022411Y016497D02*
X022411Y016958D01*
X022181Y016728D01*
X015765Y009858D02*
X015611Y009858D01*
X015535Y009781D01*
X015381Y009858D02*
X015228Y009858D01*
X015304Y009858D02*
X015304Y009474D01*
X015228Y009398D01*
X015151Y009398D01*
X015074Y009474D01*
X014921Y009398D02*
X014767Y009551D01*
X014844Y009551D02*
X014614Y009551D01*
X014614Y009398D02*
X014614Y009858D01*
X014844Y009858D01*
X014921Y009781D01*
X014921Y009628D01*
X014844Y009551D01*
X015535Y009398D02*
X015842Y009704D01*
X015842Y009781D01*
X015765Y009858D01*
X015842Y009398D02*
X015535Y009398D01*
X009768Y004938D02*
X009768Y004631D01*
X009461Y004938D01*
X009384Y004938D01*
X009307Y004861D01*
X009307Y004708D01*
X009384Y004631D01*
X009384Y004477D02*
X009307Y004401D01*
X009307Y004247D01*
X009384Y004170D01*
X009691Y004170D01*
X009768Y004247D01*
X009768Y004401D01*
X009691Y004477D01*
X009691Y004017D02*
X009768Y003940D01*
X009768Y003787D01*
X009691Y003710D01*
X009537Y003863D02*
X009537Y003940D01*
X009614Y004017D01*
X009691Y004017D01*
X009537Y003940D02*
X009461Y004017D01*
X009384Y004017D01*
X009307Y003940D01*
X009307Y003787D01*
X009384Y003710D01*
X011157Y003353D02*
X011157Y003237D01*
X011216Y003178D01*
X011216Y003053D02*
X011332Y003053D01*
X011391Y002994D01*
X011391Y002819D01*
X011508Y002819D02*
X011157Y002819D01*
X011157Y002994D01*
X011216Y003053D01*
X011391Y002936D02*
X011508Y003053D01*
X011508Y003178D02*
X011274Y003412D01*
X011216Y003412D01*
X011157Y003353D01*
X011508Y003412D02*
X011508Y003178D01*
X011449Y002694D02*
X011391Y002694D01*
X011332Y002635D01*
X011332Y002577D01*
X011332Y002635D02*
X011274Y002694D01*
X011216Y002694D01*
X011157Y002635D01*
X011157Y002518D01*
X011216Y002460D01*
X011449Y002460D02*
X011508Y002518D01*
X011508Y002635D01*
X011449Y002694D01*
X008709Y001738D02*
X008476Y001738D01*
X008592Y001738D02*
X008592Y002088D01*
X008476Y001971D01*
X008350Y001913D02*
X008292Y001855D01*
X008117Y001855D01*
X008233Y001855D02*
X008350Y001738D01*
X008350Y001913D02*
X008350Y002030D01*
X008292Y002088D01*
X008117Y002088D01*
X008117Y001738D01*
X007991Y001796D02*
X007933Y001738D01*
X007816Y001738D01*
X007757Y001796D01*
X007874Y001913D02*
X007933Y001913D01*
X007991Y001855D01*
X007991Y001796D01*
X007933Y001913D02*
X007991Y001971D01*
X007991Y002030D01*
X007933Y002088D01*
X007816Y002088D01*
X007757Y002030D01*
X007734Y001160D02*
X007792Y001102D01*
X007792Y001044D01*
X007734Y000985D01*
X007792Y000927D01*
X007792Y000868D01*
X007734Y000810D01*
X007617Y000810D01*
X007559Y000868D01*
X007675Y000985D02*
X007734Y000985D01*
X007734Y001160D02*
X007617Y001160D01*
X007559Y001102D01*
X007918Y001160D02*
X008093Y001160D01*
X008151Y001102D01*
X008151Y000985D01*
X008093Y000927D01*
X007918Y000927D01*
X008034Y000927D02*
X008151Y000810D01*
X008277Y000810D02*
X008510Y000810D01*
X008394Y000810D02*
X008394Y001160D01*
X008277Y001044D01*
X008636Y001044D02*
X008636Y000810D01*
X008636Y000985D02*
X008869Y000985D01*
X008869Y001044D02*
X008869Y000810D01*
X008869Y001044D02*
X008753Y001160D01*
X008636Y001044D01*
X007918Y001160D02*
X007918Y000810D01*
X004646Y009585D02*
X004416Y009585D01*
X004416Y010045D01*
X004646Y010045D01*
X004723Y009969D01*
X004723Y009892D01*
X004646Y009815D01*
X004416Y009815D01*
X004262Y009738D02*
X004262Y009662D01*
X004186Y009585D01*
X004032Y009585D01*
X003955Y009662D01*
X003802Y009662D02*
X003802Y010045D01*
X003955Y009969D02*
X003955Y009892D01*
X004032Y009815D01*
X004186Y009815D01*
X004262Y009738D01*
X004262Y009969D02*
X004186Y010045D01*
X004032Y010045D01*
X003955Y009969D01*
X003495Y010045D02*
X003495Y009662D01*
X003572Y009585D01*
X003725Y009585D01*
X003802Y009662D01*
X004646Y009585D02*
X004723Y009662D01*
X004723Y009738D01*
X004646Y009815D01*
D13*
X008125Y007378D02*
X008125Y006878D01*
X008127Y006852D01*
X008132Y006826D01*
X008140Y006801D01*
X008152Y006778D01*
X008166Y006756D01*
X008184Y006737D01*
X008203Y006719D01*
X008225Y006705D01*
X008248Y006693D01*
X008273Y006685D01*
X008299Y006680D01*
X008325Y006678D01*
X009625Y006678D01*
X009651Y006680D01*
X009677Y006685D01*
X009702Y006693D01*
X009725Y006705D01*
X009747Y006719D01*
X009766Y006737D01*
X009784Y006756D01*
X009798Y006778D01*
X009810Y006801D01*
X009818Y006826D01*
X009823Y006852D01*
X009825Y006878D01*
X009825Y007378D01*
X009823Y007404D01*
X009818Y007430D01*
X009810Y007455D01*
X009798Y007478D01*
X009784Y007500D01*
X009766Y007519D01*
X009747Y007537D01*
X009725Y007551D01*
X009702Y007563D01*
X009677Y007571D01*
X009651Y007576D01*
X009625Y007578D01*
X008325Y007578D01*
X008299Y007576D01*
X008273Y007571D01*
X008248Y007563D01*
X008225Y007551D01*
X008203Y007537D01*
X008184Y007519D01*
X008166Y007500D01*
X008152Y007478D01*
X008140Y007455D01*
X008132Y007430D01*
X008127Y007404D01*
X008125Y007378D01*
X008475Y007128D02*
X008855Y007128D01*
X009105Y007128D02*
X009475Y007128D01*
X011225Y005790D02*
X011225Y005090D01*
X011227Y005073D01*
X011231Y005056D01*
X011238Y005040D01*
X011248Y005026D01*
X011261Y005013D01*
X011275Y005003D01*
X011291Y004996D01*
X011308Y004992D01*
X011325Y004990D01*
X011475Y004990D01*
X011525Y005040D01*
X013425Y005040D01*
X013475Y004990D01*
X013625Y004990D01*
X013642Y004992D01*
X013659Y004996D01*
X013675Y005003D01*
X013689Y005013D01*
X013702Y005026D01*
X013712Y005040D01*
X013719Y005056D01*
X013723Y005073D01*
X013725Y005090D01*
X013725Y005790D01*
X013723Y005807D01*
X013719Y005824D01*
X013712Y005840D01*
X013702Y005854D01*
X013689Y005867D01*
X013675Y005877D01*
X013659Y005884D01*
X013642Y005888D01*
X013625Y005890D01*
X013475Y005890D01*
X013425Y005840D01*
X011525Y005840D01*
X011475Y005890D01*
X011325Y005890D01*
X011308Y005888D01*
X011291Y005884D01*
X011275Y005877D01*
X011261Y005867D01*
X011248Y005854D01*
X011238Y005840D01*
X011231Y005824D01*
X011227Y005807D01*
X011225Y005790D01*
X009038Y004215D02*
X008038Y004215D01*
X008038Y004015D01*
X008538Y004015D01*
X009038Y004015D01*
X009038Y004215D01*
X006938Y004315D02*
X006940Y004395D01*
X006946Y004474D01*
X006956Y004553D01*
X006970Y004632D01*
X006987Y004710D01*
X007009Y004787D01*
X007034Y004862D01*
X007064Y004936D01*
X007096Y005009D01*
X007133Y005080D01*
X007173Y005149D01*
X007216Y005216D01*
X007263Y005281D01*
X007312Y005343D01*
X007365Y005403D01*
X007421Y005460D01*
X007479Y005515D01*
X007540Y005566D01*
X007604Y005614D01*
X007670Y005659D01*
X007738Y005701D01*
X007808Y005739D01*
X007880Y005773D01*
X007953Y005804D01*
X008028Y005832D01*
X008105Y005855D01*
X008182Y005875D01*
X008260Y005891D01*
X008339Y005903D01*
X008418Y005911D01*
X008498Y005915D01*
X008578Y005915D01*
X008658Y005911D01*
X008737Y005903D01*
X008816Y005891D01*
X008894Y005875D01*
X008971Y005855D01*
X009048Y005832D01*
X009123Y005804D01*
X009196Y005773D01*
X009268Y005739D01*
X009338Y005701D01*
X009406Y005659D01*
X009472Y005614D01*
X009536Y005566D01*
X009597Y005515D01*
X009655Y005460D01*
X009711Y005403D01*
X009764Y005343D01*
X009813Y005281D01*
X009860Y005216D01*
X009903Y005149D01*
X009943Y005080D01*
X009980Y005009D01*
X010012Y004936D01*
X010042Y004862D01*
X010067Y004787D01*
X010089Y004710D01*
X010106Y004632D01*
X010120Y004553D01*
X010130Y004474D01*
X010136Y004395D01*
X010138Y004315D01*
X010136Y004235D01*
X010130Y004156D01*
X010120Y004077D01*
X010106Y003998D01*
X010089Y003920D01*
X010067Y003843D01*
X010042Y003768D01*
X010012Y003694D01*
X009980Y003621D01*
X009943Y003550D01*
X009903Y003481D01*
X009860Y003414D01*
X009813Y003349D01*
X009764Y003287D01*
X009711Y003227D01*
X009655Y003170D01*
X009597Y003115D01*
X009536Y003064D01*
X009472Y003016D01*
X009406Y002971D01*
X009338Y002929D01*
X009268Y002891D01*
X009196Y002857D01*
X009123Y002826D01*
X009048Y002798D01*
X008971Y002775D01*
X008894Y002755D01*
X008816Y002739D01*
X008737Y002727D01*
X008658Y002719D01*
X008578Y002715D01*
X008498Y002715D01*
X008418Y002719D01*
X008339Y002727D01*
X008260Y002739D01*
X008182Y002755D01*
X008105Y002775D01*
X008028Y002798D01*
X007953Y002826D01*
X007880Y002857D01*
X007808Y002891D01*
X007738Y002929D01*
X007670Y002971D01*
X007604Y003016D01*
X007540Y003064D01*
X007479Y003115D01*
X007421Y003170D01*
X007365Y003227D01*
X007312Y003287D01*
X007263Y003349D01*
X007216Y003414D01*
X007173Y003481D01*
X007133Y003550D01*
X007096Y003621D01*
X007064Y003694D01*
X007034Y003768D01*
X007009Y003843D01*
X006987Y003920D01*
X006970Y003998D01*
X006956Y004077D01*
X006946Y004156D01*
X006940Y004235D01*
X006938Y004315D01*
X008088Y003265D02*
X008088Y002965D01*
X008238Y003115D02*
X007938Y003115D01*
X008538Y003665D02*
X008538Y004015D01*
X008538Y004565D02*
X008538Y004965D01*
X010888Y003840D02*
X010888Y003690D01*
X010938Y003640D01*
X010938Y002240D01*
X010888Y002190D01*
X010888Y002040D01*
X010890Y002023D01*
X010894Y002006D01*
X010901Y001990D01*
X010911Y001976D01*
X010924Y001963D01*
X010938Y001953D01*
X010954Y001946D01*
X010971Y001942D01*
X010988Y001940D01*
X011588Y001940D01*
X011605Y001942D01*
X011622Y001946D01*
X011638Y001953D01*
X011652Y001963D01*
X011665Y001976D01*
X011675Y001990D01*
X011682Y002006D01*
X011686Y002023D01*
X011688Y002040D01*
X011688Y002190D01*
X011638Y002240D01*
X011638Y003640D01*
X011688Y003690D01*
X011688Y003840D01*
X011686Y003857D01*
X011682Y003874D01*
X011675Y003890D01*
X011665Y003904D01*
X011652Y003917D01*
X011638Y003927D01*
X011622Y003934D01*
X011605Y003938D01*
X011588Y003940D01*
X010988Y003940D01*
X010971Y003938D01*
X010954Y003934D01*
X010938Y003927D01*
X010924Y003917D01*
X010911Y003904D01*
X010901Y003890D01*
X010894Y003874D01*
X010890Y003857D01*
X010888Y003840D01*
X009250Y002340D02*
X009100Y002340D01*
X009050Y002290D01*
X007650Y002290D01*
X007600Y002340D01*
X007450Y002340D01*
X007433Y002338D01*
X007416Y002334D01*
X007400Y002327D01*
X007386Y002317D01*
X007373Y002304D01*
X007363Y002290D01*
X007356Y002274D01*
X007352Y002257D01*
X007350Y002240D01*
X007350Y001640D01*
X007352Y001623D01*
X007356Y001606D01*
X007363Y001590D01*
X007373Y001576D01*
X007386Y001563D01*
X007400Y001553D01*
X007416Y001546D01*
X007433Y001542D01*
X007450Y001540D01*
X007600Y001540D01*
X007650Y001590D01*
X009050Y001590D01*
X009100Y001540D01*
X009250Y001540D01*
X009267Y001542D01*
X009284Y001546D01*
X009300Y001553D01*
X009314Y001563D01*
X009327Y001576D01*
X009337Y001590D01*
X009344Y001606D01*
X009348Y001623D01*
X009350Y001640D01*
X009350Y002240D01*
X009348Y002257D01*
X009344Y002274D01*
X009337Y002290D01*
X009327Y002304D01*
X009314Y002317D01*
X009300Y002327D01*
X009284Y002334D01*
X009267Y002338D01*
X009250Y002340D01*
X009250Y001403D02*
X009100Y001403D01*
X009050Y001353D01*
X007650Y001353D01*
X007600Y001403D01*
X007450Y001403D01*
X007433Y001401D01*
X007416Y001397D01*
X007400Y001390D01*
X007386Y001380D01*
X007373Y001367D01*
X007363Y001353D01*
X007356Y001337D01*
X007352Y001320D01*
X007350Y001303D01*
X007350Y000703D01*
X007352Y000686D01*
X007356Y000669D01*
X007363Y000653D01*
X007373Y000639D01*
X007386Y000626D01*
X007400Y000616D01*
X007416Y000609D01*
X007433Y000605D01*
X007450Y000603D01*
X007600Y000603D01*
X007650Y000653D01*
X009050Y000653D01*
X009100Y000603D01*
X009250Y000603D01*
X009267Y000605D01*
X009284Y000609D01*
X009300Y000616D01*
X009314Y000626D01*
X009327Y000639D01*
X009337Y000653D01*
X009344Y000669D01*
X009348Y000686D01*
X009350Y000703D01*
X009350Y001303D01*
X009348Y001320D01*
X009344Y001337D01*
X009337Y001353D01*
X009327Y001367D01*
X009314Y001380D01*
X009300Y001390D01*
X009284Y001397D01*
X009267Y001401D01*
X009250Y001403D01*
X013975Y002340D02*
X013975Y004040D01*
X013977Y004057D01*
X013981Y004074D01*
X013988Y004090D01*
X013998Y004104D01*
X014011Y004117D01*
X014025Y004127D01*
X014041Y004134D01*
X014058Y004138D01*
X014075Y004140D01*
X014875Y004140D01*
X014892Y004138D01*
X014909Y004134D01*
X014925Y004127D01*
X014939Y004117D01*
X014952Y004104D01*
X014962Y004090D01*
X014969Y004074D01*
X014973Y004057D01*
X014975Y004040D01*
X014975Y002340D01*
X014973Y002323D01*
X014969Y002306D01*
X014962Y002290D01*
X014952Y002276D01*
X014939Y002263D01*
X014925Y002253D01*
X014909Y002246D01*
X014892Y002242D01*
X014875Y002240D01*
X014075Y002240D01*
X014058Y002242D01*
X014041Y002246D01*
X014025Y002253D01*
X014011Y002263D01*
X013998Y002276D01*
X013988Y002290D01*
X013981Y002306D01*
X013977Y002323D01*
X013975Y002340D01*
X014475Y002890D02*
X014475Y003040D01*
X014475Y003090D01*
X014475Y003290D02*
X014475Y003340D01*
X014475Y003490D01*
X017125Y003115D02*
X017425Y003115D01*
X017275Y002965D02*
X017275Y003265D01*
X017725Y003665D02*
X017725Y004015D01*
X017225Y004015D01*
X017225Y004215D01*
X018225Y004215D01*
X018225Y004015D01*
X017725Y004015D01*
X016125Y004315D02*
X016127Y004395D01*
X016133Y004474D01*
X016143Y004553D01*
X016157Y004632D01*
X016174Y004710D01*
X016196Y004787D01*
X016221Y004862D01*
X016251Y004936D01*
X016283Y005009D01*
X016320Y005080D01*
X016360Y005149D01*
X016403Y005216D01*
X016450Y005281D01*
X016499Y005343D01*
X016552Y005403D01*
X016608Y005460D01*
X016666Y005515D01*
X016727Y005566D01*
X016791Y005614D01*
X016857Y005659D01*
X016925Y005701D01*
X016995Y005739D01*
X017067Y005773D01*
X017140Y005804D01*
X017215Y005832D01*
X017292Y005855D01*
X017369Y005875D01*
X017447Y005891D01*
X017526Y005903D01*
X017605Y005911D01*
X017685Y005915D01*
X017765Y005915D01*
X017845Y005911D01*
X017924Y005903D01*
X018003Y005891D01*
X018081Y005875D01*
X018158Y005855D01*
X018235Y005832D01*
X018310Y005804D01*
X018383Y005773D01*
X018455Y005739D01*
X018525Y005701D01*
X018593Y005659D01*
X018659Y005614D01*
X018723Y005566D01*
X018784Y005515D01*
X018842Y005460D01*
X018898Y005403D01*
X018951Y005343D01*
X019000Y005281D01*
X019047Y005216D01*
X019090Y005149D01*
X019130Y005080D01*
X019167Y005009D01*
X019199Y004936D01*
X019229Y004862D01*
X019254Y004787D01*
X019276Y004710D01*
X019293Y004632D01*
X019307Y004553D01*
X019317Y004474D01*
X019323Y004395D01*
X019325Y004315D01*
X019323Y004235D01*
X019317Y004156D01*
X019307Y004077D01*
X019293Y003998D01*
X019276Y003920D01*
X019254Y003843D01*
X019229Y003768D01*
X019199Y003694D01*
X019167Y003621D01*
X019130Y003550D01*
X019090Y003481D01*
X019047Y003414D01*
X019000Y003349D01*
X018951Y003287D01*
X018898Y003227D01*
X018842Y003170D01*
X018784Y003115D01*
X018723Y003064D01*
X018659Y003016D01*
X018593Y002971D01*
X018525Y002929D01*
X018455Y002891D01*
X018383Y002857D01*
X018310Y002826D01*
X018235Y002798D01*
X018158Y002775D01*
X018081Y002755D01*
X018003Y002739D01*
X017924Y002727D01*
X017845Y002719D01*
X017765Y002715D01*
X017685Y002715D01*
X017605Y002719D01*
X017526Y002727D01*
X017447Y002739D01*
X017369Y002755D01*
X017292Y002775D01*
X017215Y002798D01*
X017140Y002826D01*
X017067Y002857D01*
X016995Y002891D01*
X016925Y002929D01*
X016857Y002971D01*
X016791Y003016D01*
X016727Y003064D01*
X016666Y003115D01*
X016608Y003170D01*
X016552Y003227D01*
X016499Y003287D01*
X016450Y003349D01*
X016403Y003414D01*
X016360Y003481D01*
X016320Y003550D01*
X016283Y003621D01*
X016251Y003694D01*
X016221Y003768D01*
X016196Y003843D01*
X016174Y003920D01*
X016157Y003998D01*
X016143Y004077D01*
X016133Y004156D01*
X016127Y004235D01*
X016125Y004315D01*
X017725Y004565D02*
X017725Y004965D01*
X019600Y004165D02*
X019600Y002465D01*
X019602Y002448D01*
X019606Y002431D01*
X019613Y002415D01*
X019623Y002401D01*
X019636Y002388D01*
X019650Y002378D01*
X019666Y002371D01*
X019683Y002367D01*
X019700Y002365D01*
X020500Y002365D01*
X020517Y002367D01*
X020534Y002371D01*
X020550Y002378D01*
X020564Y002388D01*
X020577Y002401D01*
X020587Y002415D01*
X020594Y002431D01*
X020598Y002448D01*
X020600Y002465D01*
X020600Y004165D01*
X020598Y004182D01*
X020594Y004199D01*
X020587Y004215D01*
X020577Y004229D01*
X020564Y004242D01*
X020550Y004252D01*
X020534Y004259D01*
X020517Y004263D01*
X020500Y004265D01*
X019700Y004265D01*
X019683Y004263D01*
X019666Y004259D01*
X019650Y004252D01*
X019636Y004242D01*
X019623Y004229D01*
X019613Y004215D01*
X019606Y004199D01*
X019602Y004182D01*
X019600Y004165D01*
X020100Y003615D02*
X020100Y003465D01*
X020100Y003415D01*
X020100Y003215D02*
X020100Y003165D01*
X020100Y003015D01*
X026900Y003065D02*
X026900Y003215D01*
X026900Y003615D01*
X026900Y004565D01*
X026900Y004915D01*
X026900Y005065D01*
X027100Y005265D01*
X027700Y005265D01*
X027800Y005265D01*
X027800Y005365D01*
X028400Y005365D01*
X028400Y005265D01*
X028500Y005265D01*
X029100Y005265D01*
X029300Y005065D01*
X029300Y004915D01*
X029300Y004565D01*
X029300Y003565D01*
X029300Y003215D01*
X029300Y003065D01*
X029100Y002865D01*
X028500Y002865D01*
X028400Y002865D01*
X028400Y002765D01*
X027800Y002765D01*
X027800Y002865D01*
X027700Y002865D01*
X027100Y002865D01*
X026900Y003065D01*
X027100Y003215D02*
X027102Y003243D01*
X027108Y003270D01*
X027117Y003296D01*
X027130Y003321D01*
X027147Y003344D01*
X027166Y003364D01*
X027188Y003381D01*
X027212Y003395D01*
X027238Y003405D01*
X027265Y003412D01*
X027293Y003415D01*
X027321Y003414D01*
X027348Y003409D01*
X027375Y003400D01*
X027400Y003388D01*
X027423Y003373D01*
X027444Y003354D01*
X027462Y003333D01*
X027477Y003309D01*
X027488Y003283D01*
X027496Y003257D01*
X027500Y003229D01*
X027500Y003201D01*
X027496Y003173D01*
X027488Y003147D01*
X027477Y003121D01*
X027462Y003097D01*
X027444Y003076D01*
X027423Y003057D01*
X027400Y003042D01*
X027375Y003030D01*
X027348Y003021D01*
X027321Y003016D01*
X027293Y003015D01*
X027265Y003018D01*
X027238Y003025D01*
X027212Y003035D01*
X027188Y003049D01*
X027166Y003066D01*
X027147Y003086D01*
X027130Y003109D01*
X027117Y003134D01*
X027108Y003160D01*
X027102Y003187D01*
X027100Y003215D01*
X027250Y003565D02*
X027250Y004565D01*
X027050Y004915D02*
X027052Y004943D01*
X027058Y004970D01*
X027067Y004996D01*
X027080Y005021D01*
X027097Y005044D01*
X027116Y005064D01*
X027138Y005081D01*
X027162Y005095D01*
X027188Y005105D01*
X027215Y005112D01*
X027243Y005115D01*
X027271Y005114D01*
X027298Y005109D01*
X027325Y005100D01*
X027350Y005088D01*
X027373Y005073D01*
X027394Y005054D01*
X027412Y005033D01*
X027427Y005009D01*
X027438Y004983D01*
X027446Y004957D01*
X027450Y004929D01*
X027450Y004901D01*
X027446Y004873D01*
X027438Y004847D01*
X027427Y004821D01*
X027412Y004797D01*
X027394Y004776D01*
X027373Y004757D01*
X027350Y004742D01*
X027325Y004730D01*
X027298Y004721D01*
X027271Y004716D01*
X027243Y004715D01*
X027215Y004718D01*
X027188Y004725D01*
X027162Y004735D01*
X027138Y004749D01*
X027116Y004766D01*
X027097Y004786D01*
X027080Y004809D01*
X027067Y004834D01*
X027058Y004860D01*
X027052Y004887D01*
X027050Y004915D01*
X027600Y005015D02*
X027900Y005015D01*
X027950Y004915D02*
X028300Y005015D01*
X028600Y005015D01*
X028750Y004915D02*
X028752Y004943D01*
X028758Y004970D01*
X028767Y004996D01*
X028780Y005021D01*
X028797Y005044D01*
X028816Y005064D01*
X028838Y005081D01*
X028862Y005095D01*
X028888Y005105D01*
X028915Y005112D01*
X028943Y005115D01*
X028971Y005114D01*
X028998Y005109D01*
X029025Y005100D01*
X029050Y005088D01*
X029073Y005073D01*
X029094Y005054D01*
X029112Y005033D01*
X029127Y005009D01*
X029138Y004983D01*
X029146Y004957D01*
X029150Y004929D01*
X029150Y004901D01*
X029146Y004873D01*
X029138Y004847D01*
X029127Y004821D01*
X029112Y004797D01*
X029094Y004776D01*
X029073Y004757D01*
X029050Y004742D01*
X029025Y004730D01*
X028998Y004721D01*
X028971Y004716D01*
X028943Y004715D01*
X028915Y004718D01*
X028888Y004725D01*
X028862Y004735D01*
X028838Y004749D01*
X028816Y004766D01*
X028797Y004786D01*
X028780Y004809D01*
X028767Y004834D01*
X028758Y004860D01*
X028752Y004887D01*
X028750Y004915D01*
X029000Y004565D02*
X029000Y003565D01*
X028750Y003215D02*
X028752Y003243D01*
X028758Y003270D01*
X028767Y003296D01*
X028780Y003321D01*
X028797Y003344D01*
X028816Y003364D01*
X028838Y003381D01*
X028862Y003395D01*
X028888Y003405D01*
X028915Y003412D01*
X028943Y003415D01*
X028971Y003414D01*
X028998Y003409D01*
X029025Y003400D01*
X029050Y003388D01*
X029073Y003373D01*
X029094Y003354D01*
X029112Y003333D01*
X029127Y003309D01*
X029138Y003283D01*
X029146Y003257D01*
X029150Y003229D01*
X029150Y003201D01*
X029146Y003173D01*
X029138Y003147D01*
X029127Y003121D01*
X029112Y003097D01*
X029094Y003076D01*
X029073Y003057D01*
X029050Y003042D01*
X029025Y003030D01*
X028998Y003021D01*
X028971Y003016D01*
X028943Y003015D01*
X028915Y003018D01*
X028888Y003025D01*
X028862Y003035D01*
X028838Y003049D01*
X028816Y003066D01*
X028797Y003086D01*
X028780Y003109D01*
X028767Y003134D01*
X028758Y003160D01*
X028752Y003187D01*
X028750Y003215D01*
X028000Y004065D02*
X028002Y004085D01*
X028008Y004103D01*
X028017Y004121D01*
X028029Y004136D01*
X028044Y004148D01*
X028062Y004157D01*
X028080Y004163D01*
X028100Y004165D01*
X028120Y004163D01*
X028138Y004157D01*
X028156Y004148D01*
X028171Y004136D01*
X028183Y004121D01*
X028192Y004103D01*
X028198Y004085D01*
X028200Y004065D01*
X028198Y004045D01*
X028192Y004027D01*
X028183Y004009D01*
X028171Y003994D01*
X028156Y003982D01*
X028138Y003973D01*
X028120Y003967D01*
X028100Y003965D01*
X028080Y003967D01*
X028062Y003973D01*
X028044Y003982D01*
X028029Y003994D01*
X028017Y004009D01*
X028008Y004027D01*
X028002Y004045D01*
X028000Y004065D01*
X027400Y004065D02*
X027402Y004117D01*
X027408Y004169D01*
X027418Y004221D01*
X027431Y004271D01*
X027448Y004321D01*
X027469Y004369D01*
X027494Y004415D01*
X027522Y004459D01*
X027553Y004501D01*
X027587Y004541D01*
X027624Y004578D01*
X027664Y004612D01*
X027706Y004643D01*
X027750Y004671D01*
X027796Y004696D01*
X027844Y004717D01*
X027894Y004734D01*
X027944Y004747D01*
X027996Y004757D01*
X028048Y004763D01*
X028100Y004765D01*
X028152Y004763D01*
X028204Y004757D01*
X028256Y004747D01*
X028306Y004734D01*
X028356Y004717D01*
X028404Y004696D01*
X028450Y004671D01*
X028494Y004643D01*
X028536Y004612D01*
X028576Y004578D01*
X028613Y004541D01*
X028647Y004501D01*
X028678Y004459D01*
X028706Y004415D01*
X028731Y004369D01*
X028752Y004321D01*
X028769Y004271D01*
X028782Y004221D01*
X028792Y004169D01*
X028798Y004117D01*
X028800Y004065D01*
X028798Y004013D01*
X028792Y003961D01*
X028782Y003909D01*
X028769Y003859D01*
X028752Y003809D01*
X028731Y003761D01*
X028706Y003715D01*
X028678Y003671D01*
X028647Y003629D01*
X028613Y003589D01*
X028576Y003552D01*
X028536Y003518D01*
X028494Y003487D01*
X028450Y003459D01*
X028404Y003434D01*
X028356Y003413D01*
X028306Y003396D01*
X028256Y003383D01*
X028204Y003373D01*
X028152Y003367D01*
X028100Y003365D01*
X028048Y003367D01*
X027996Y003373D01*
X027944Y003383D01*
X027894Y003396D01*
X027844Y003413D01*
X027796Y003434D01*
X027750Y003459D01*
X027706Y003487D01*
X027664Y003518D01*
X027624Y003552D01*
X027587Y003589D01*
X027553Y003629D01*
X027522Y003671D01*
X027494Y003715D01*
X027469Y003761D01*
X027448Y003809D01*
X027431Y003859D01*
X027418Y003909D01*
X027408Y003961D01*
X027402Y004013D01*
X027400Y004065D01*
X027800Y007515D02*
X028400Y007515D01*
X028400Y007615D01*
X028500Y007615D01*
X029100Y007615D01*
X029300Y007815D01*
X029300Y007965D01*
X029300Y008315D01*
X029300Y009265D01*
X029300Y009665D01*
X029300Y009815D01*
X029100Y010015D01*
X028500Y010015D01*
X028400Y010015D01*
X028400Y010115D01*
X027800Y010115D01*
X027800Y010015D01*
X027700Y010015D01*
X027100Y010015D01*
X026900Y009815D01*
X026900Y009665D01*
X026900Y009315D01*
X026900Y008315D01*
X026900Y007965D01*
X026900Y007815D01*
X027100Y007615D01*
X027700Y007615D01*
X027800Y007615D01*
X027800Y007515D01*
X027900Y007865D02*
X027600Y007865D01*
X027900Y007865D02*
X028250Y007965D01*
X028300Y007865D02*
X028600Y007865D01*
X028750Y007965D02*
X028752Y007993D01*
X028758Y008020D01*
X028767Y008046D01*
X028780Y008071D01*
X028797Y008094D01*
X028816Y008114D01*
X028838Y008131D01*
X028862Y008145D01*
X028888Y008155D01*
X028915Y008162D01*
X028943Y008165D01*
X028971Y008164D01*
X028998Y008159D01*
X029025Y008150D01*
X029050Y008138D01*
X029073Y008123D01*
X029094Y008104D01*
X029112Y008083D01*
X029127Y008059D01*
X029138Y008033D01*
X029146Y008007D01*
X029150Y007979D01*
X029150Y007951D01*
X029146Y007923D01*
X029138Y007897D01*
X029127Y007871D01*
X029112Y007847D01*
X029094Y007826D01*
X029073Y007807D01*
X029050Y007792D01*
X029025Y007780D01*
X028998Y007771D01*
X028971Y007766D01*
X028943Y007765D01*
X028915Y007768D01*
X028888Y007775D01*
X028862Y007785D01*
X028838Y007799D01*
X028816Y007816D01*
X028797Y007836D01*
X028780Y007859D01*
X028767Y007884D01*
X028758Y007910D01*
X028752Y007937D01*
X028750Y007965D01*
X028950Y008315D02*
X028950Y009315D01*
X028700Y009665D02*
X028702Y009693D01*
X028708Y009720D01*
X028717Y009746D01*
X028730Y009771D01*
X028747Y009794D01*
X028766Y009814D01*
X028788Y009831D01*
X028812Y009845D01*
X028838Y009855D01*
X028865Y009862D01*
X028893Y009865D01*
X028921Y009864D01*
X028948Y009859D01*
X028975Y009850D01*
X029000Y009838D01*
X029023Y009823D01*
X029044Y009804D01*
X029062Y009783D01*
X029077Y009759D01*
X029088Y009733D01*
X029096Y009707D01*
X029100Y009679D01*
X029100Y009651D01*
X029096Y009623D01*
X029088Y009597D01*
X029077Y009571D01*
X029062Y009547D01*
X029044Y009526D01*
X029023Y009507D01*
X029000Y009492D01*
X028975Y009480D01*
X028948Y009471D01*
X028921Y009466D01*
X028893Y009465D01*
X028865Y009468D01*
X028838Y009475D01*
X028812Y009485D01*
X028788Y009499D01*
X028766Y009516D01*
X028747Y009536D01*
X028730Y009559D01*
X028717Y009584D01*
X028708Y009610D01*
X028702Y009637D01*
X028700Y009665D01*
X028000Y008815D02*
X028002Y008835D01*
X028008Y008853D01*
X028017Y008871D01*
X028029Y008886D01*
X028044Y008898D01*
X028062Y008907D01*
X028080Y008913D01*
X028100Y008915D01*
X028120Y008913D01*
X028138Y008907D01*
X028156Y008898D01*
X028171Y008886D01*
X028183Y008871D01*
X028192Y008853D01*
X028198Y008835D01*
X028200Y008815D01*
X028198Y008795D01*
X028192Y008777D01*
X028183Y008759D01*
X028171Y008744D01*
X028156Y008732D01*
X028138Y008723D01*
X028120Y008717D01*
X028100Y008715D01*
X028080Y008717D01*
X028062Y008723D01*
X028044Y008732D01*
X028029Y008744D01*
X028017Y008759D01*
X028008Y008777D01*
X028002Y008795D01*
X028000Y008815D01*
X027400Y008815D02*
X027402Y008867D01*
X027408Y008919D01*
X027418Y008971D01*
X027431Y009021D01*
X027448Y009071D01*
X027469Y009119D01*
X027494Y009165D01*
X027522Y009209D01*
X027553Y009251D01*
X027587Y009291D01*
X027624Y009328D01*
X027664Y009362D01*
X027706Y009393D01*
X027750Y009421D01*
X027796Y009446D01*
X027844Y009467D01*
X027894Y009484D01*
X027944Y009497D01*
X027996Y009507D01*
X028048Y009513D01*
X028100Y009515D01*
X028152Y009513D01*
X028204Y009507D01*
X028256Y009497D01*
X028306Y009484D01*
X028356Y009467D01*
X028404Y009446D01*
X028450Y009421D01*
X028494Y009393D01*
X028536Y009362D01*
X028576Y009328D01*
X028613Y009291D01*
X028647Y009251D01*
X028678Y009209D01*
X028706Y009165D01*
X028731Y009119D01*
X028752Y009071D01*
X028769Y009021D01*
X028782Y008971D01*
X028792Y008919D01*
X028798Y008867D01*
X028800Y008815D01*
X028798Y008763D01*
X028792Y008711D01*
X028782Y008659D01*
X028769Y008609D01*
X028752Y008559D01*
X028731Y008511D01*
X028706Y008465D01*
X028678Y008421D01*
X028647Y008379D01*
X028613Y008339D01*
X028576Y008302D01*
X028536Y008268D01*
X028494Y008237D01*
X028450Y008209D01*
X028404Y008184D01*
X028356Y008163D01*
X028306Y008146D01*
X028256Y008133D01*
X028204Y008123D01*
X028152Y008117D01*
X028100Y008115D01*
X028048Y008117D01*
X027996Y008123D01*
X027944Y008133D01*
X027894Y008146D01*
X027844Y008163D01*
X027796Y008184D01*
X027750Y008209D01*
X027706Y008237D01*
X027664Y008268D01*
X027624Y008302D01*
X027587Y008339D01*
X027553Y008379D01*
X027522Y008421D01*
X027494Y008465D01*
X027469Y008511D01*
X027448Y008559D01*
X027431Y008609D01*
X027418Y008659D01*
X027408Y008711D01*
X027402Y008763D01*
X027400Y008815D01*
X027200Y009315D02*
X027200Y008315D01*
X027050Y007965D02*
X027052Y007993D01*
X027058Y008020D01*
X027067Y008046D01*
X027080Y008071D01*
X027097Y008094D01*
X027116Y008114D01*
X027138Y008131D01*
X027162Y008145D01*
X027188Y008155D01*
X027215Y008162D01*
X027243Y008165D01*
X027271Y008164D01*
X027298Y008159D01*
X027325Y008150D01*
X027350Y008138D01*
X027373Y008123D01*
X027394Y008104D01*
X027412Y008083D01*
X027427Y008059D01*
X027438Y008033D01*
X027446Y008007D01*
X027450Y007979D01*
X027450Y007951D01*
X027446Y007923D01*
X027438Y007897D01*
X027427Y007871D01*
X027412Y007847D01*
X027394Y007826D01*
X027373Y007807D01*
X027350Y007792D01*
X027325Y007780D01*
X027298Y007771D01*
X027271Y007766D01*
X027243Y007765D01*
X027215Y007768D01*
X027188Y007775D01*
X027162Y007785D01*
X027138Y007799D01*
X027116Y007816D01*
X027097Y007836D01*
X027080Y007859D01*
X027067Y007884D01*
X027058Y007910D01*
X027052Y007937D01*
X027050Y007965D01*
X025038Y008503D02*
X024788Y008253D01*
X024288Y008253D01*
X024038Y008503D01*
X024038Y009003D01*
X024288Y009253D01*
X024038Y009503D01*
X024038Y010003D01*
X024288Y010253D01*
X024788Y010253D01*
X025038Y010003D01*
X025038Y009503D01*
X024788Y009253D01*
X025038Y009003D01*
X025038Y008503D01*
X024788Y009253D02*
X024288Y009253D01*
X021350Y009815D02*
X021352Y009878D01*
X021358Y009940D01*
X021368Y010002D01*
X021381Y010064D01*
X021399Y010124D01*
X021420Y010183D01*
X021445Y010241D01*
X021474Y010297D01*
X021506Y010351D01*
X021541Y010403D01*
X021579Y010452D01*
X021621Y010500D01*
X021665Y010544D01*
X021713Y010586D01*
X021762Y010624D01*
X021814Y010659D01*
X021868Y010691D01*
X021924Y010720D01*
X021982Y010745D01*
X022041Y010766D01*
X022101Y010784D01*
X022163Y010797D01*
X022225Y010807D01*
X022287Y010813D01*
X022350Y010815D01*
X022413Y010813D01*
X022475Y010807D01*
X022537Y010797D01*
X022599Y010784D01*
X022659Y010766D01*
X022718Y010745D01*
X022776Y010720D01*
X022832Y010691D01*
X022886Y010659D01*
X022938Y010624D01*
X022987Y010586D01*
X023035Y010544D01*
X023079Y010500D01*
X023121Y010452D01*
X023159Y010403D01*
X023194Y010351D01*
X023226Y010297D01*
X023255Y010241D01*
X023280Y010183D01*
X023301Y010124D01*
X023319Y010064D01*
X023332Y010002D01*
X023342Y009940D01*
X023348Y009878D01*
X023350Y009815D01*
X023348Y009752D01*
X023342Y009690D01*
X023332Y009628D01*
X023319Y009566D01*
X023301Y009506D01*
X023280Y009447D01*
X023255Y009389D01*
X023226Y009333D01*
X023194Y009279D01*
X023159Y009227D01*
X023121Y009178D01*
X023079Y009130D01*
X023035Y009086D01*
X022987Y009044D01*
X022938Y009006D01*
X022886Y008971D01*
X022832Y008939D01*
X022776Y008910D01*
X022718Y008885D01*
X022659Y008864D01*
X022599Y008846D01*
X022537Y008833D01*
X022475Y008823D01*
X022413Y008817D01*
X022350Y008815D01*
X022287Y008817D01*
X022225Y008823D01*
X022163Y008833D01*
X022101Y008846D01*
X022041Y008864D01*
X021982Y008885D01*
X021924Y008910D01*
X021868Y008939D01*
X021814Y008971D01*
X021762Y009006D01*
X021713Y009044D01*
X021665Y009086D01*
X021621Y009130D01*
X021579Y009178D01*
X021541Y009227D01*
X021506Y009279D01*
X021474Y009333D01*
X021445Y009389D01*
X021420Y009447D01*
X021399Y009506D01*
X021381Y009566D01*
X021368Y009628D01*
X021358Y009690D01*
X021352Y009752D01*
X021350Y009815D01*
X018850Y009815D02*
X018852Y009878D01*
X018858Y009940D01*
X018868Y010002D01*
X018881Y010064D01*
X018899Y010124D01*
X018920Y010183D01*
X018945Y010241D01*
X018974Y010297D01*
X019006Y010351D01*
X019041Y010403D01*
X019079Y010452D01*
X019121Y010500D01*
X019165Y010544D01*
X019213Y010586D01*
X019262Y010624D01*
X019314Y010659D01*
X019368Y010691D01*
X019424Y010720D01*
X019482Y010745D01*
X019541Y010766D01*
X019601Y010784D01*
X019663Y010797D01*
X019725Y010807D01*
X019787Y010813D01*
X019850Y010815D01*
X019913Y010813D01*
X019975Y010807D01*
X020037Y010797D01*
X020099Y010784D01*
X020159Y010766D01*
X020218Y010745D01*
X020276Y010720D01*
X020332Y010691D01*
X020386Y010659D01*
X020438Y010624D01*
X020487Y010586D01*
X020535Y010544D01*
X020579Y010500D01*
X020621Y010452D01*
X020659Y010403D01*
X020694Y010351D01*
X020726Y010297D01*
X020755Y010241D01*
X020780Y010183D01*
X020801Y010124D01*
X020819Y010064D01*
X020832Y010002D01*
X020842Y009940D01*
X020848Y009878D01*
X020850Y009815D01*
X020848Y009752D01*
X020842Y009690D01*
X020832Y009628D01*
X020819Y009566D01*
X020801Y009506D01*
X020780Y009447D01*
X020755Y009389D01*
X020726Y009333D01*
X020694Y009279D01*
X020659Y009227D01*
X020621Y009178D01*
X020579Y009130D01*
X020535Y009086D01*
X020487Y009044D01*
X020438Y009006D01*
X020386Y008971D01*
X020332Y008939D01*
X020276Y008910D01*
X020218Y008885D01*
X020159Y008864D01*
X020099Y008846D01*
X020037Y008833D01*
X019975Y008823D01*
X019913Y008817D01*
X019850Y008815D01*
X019787Y008817D01*
X019725Y008823D01*
X019663Y008833D01*
X019601Y008846D01*
X019541Y008864D01*
X019482Y008885D01*
X019424Y008910D01*
X019368Y008939D01*
X019314Y008971D01*
X019262Y009006D01*
X019213Y009044D01*
X019165Y009086D01*
X019121Y009130D01*
X019079Y009178D01*
X019041Y009227D01*
X019006Y009279D01*
X018974Y009333D01*
X018945Y009389D01*
X018920Y009447D01*
X018899Y009506D01*
X018881Y009566D01*
X018868Y009628D01*
X018858Y009690D01*
X018852Y009752D01*
X018850Y009815D01*
X016350Y009815D02*
X016352Y009878D01*
X016358Y009940D01*
X016368Y010002D01*
X016381Y010064D01*
X016399Y010124D01*
X016420Y010183D01*
X016445Y010241D01*
X016474Y010297D01*
X016506Y010351D01*
X016541Y010403D01*
X016579Y010452D01*
X016621Y010500D01*
X016665Y010544D01*
X016713Y010586D01*
X016762Y010624D01*
X016814Y010659D01*
X016868Y010691D01*
X016924Y010720D01*
X016982Y010745D01*
X017041Y010766D01*
X017101Y010784D01*
X017163Y010797D01*
X017225Y010807D01*
X017287Y010813D01*
X017350Y010815D01*
X017413Y010813D01*
X017475Y010807D01*
X017537Y010797D01*
X017599Y010784D01*
X017659Y010766D01*
X017718Y010745D01*
X017776Y010720D01*
X017832Y010691D01*
X017886Y010659D01*
X017938Y010624D01*
X017987Y010586D01*
X018035Y010544D01*
X018079Y010500D01*
X018121Y010452D01*
X018159Y010403D01*
X018194Y010351D01*
X018226Y010297D01*
X018255Y010241D01*
X018280Y010183D01*
X018301Y010124D01*
X018319Y010064D01*
X018332Y010002D01*
X018342Y009940D01*
X018348Y009878D01*
X018350Y009815D01*
X018348Y009752D01*
X018342Y009690D01*
X018332Y009628D01*
X018319Y009566D01*
X018301Y009506D01*
X018280Y009447D01*
X018255Y009389D01*
X018226Y009333D01*
X018194Y009279D01*
X018159Y009227D01*
X018121Y009178D01*
X018079Y009130D01*
X018035Y009086D01*
X017987Y009044D01*
X017938Y009006D01*
X017886Y008971D01*
X017832Y008939D01*
X017776Y008910D01*
X017718Y008885D01*
X017659Y008864D01*
X017599Y008846D01*
X017537Y008833D01*
X017475Y008823D01*
X017413Y008817D01*
X017350Y008815D01*
X017287Y008817D01*
X017225Y008823D01*
X017163Y008833D01*
X017101Y008846D01*
X017041Y008864D01*
X016982Y008885D01*
X016924Y008910D01*
X016868Y008939D01*
X016814Y008971D01*
X016762Y009006D01*
X016713Y009044D01*
X016665Y009086D01*
X016621Y009130D01*
X016579Y009178D01*
X016541Y009227D01*
X016506Y009279D01*
X016474Y009333D01*
X016445Y009389D01*
X016420Y009447D01*
X016399Y009506D01*
X016381Y009566D01*
X016368Y009628D01*
X016358Y009690D01*
X016352Y009752D01*
X016350Y009815D01*
X015605Y010058D02*
X014850Y010058D01*
X014850Y010698D02*
X015605Y010698D01*
X019145Y012803D02*
X019145Y013703D01*
X018850Y013910D02*
X018850Y014470D01*
X018350Y014470D02*
X018350Y013910D01*
X017610Y013755D02*
X017090Y013755D01*
X017090Y014875D01*
X017610Y014875D01*
X017610Y013755D01*
X019805Y013703D02*
X019805Y012803D01*
X020133Y014815D02*
X020693Y014815D01*
X020693Y015315D02*
X020133Y015315D01*
X021200Y015640D02*
X021200Y016740D01*
X021202Y016757D01*
X021206Y016774D01*
X021213Y016790D01*
X021223Y016804D01*
X021236Y016817D01*
X021250Y016827D01*
X021266Y016834D01*
X021283Y016838D01*
X021300Y016840D01*
X021900Y016840D01*
X021917Y016838D01*
X021934Y016834D01*
X021950Y016827D01*
X021964Y016817D01*
X021977Y016804D01*
X021987Y016790D01*
X021994Y016774D01*
X021998Y016757D01*
X022000Y016740D01*
X022000Y015640D01*
X021998Y015623D01*
X021994Y015606D01*
X021987Y015590D01*
X021977Y015576D01*
X021964Y015563D01*
X021950Y015553D01*
X021934Y015546D01*
X021917Y015542D01*
X021900Y015540D01*
X021300Y015540D01*
X021283Y015542D01*
X021266Y015546D01*
X021250Y015553D01*
X021236Y015563D01*
X021223Y015576D01*
X021213Y015590D01*
X021206Y015606D01*
X021202Y015623D01*
X021200Y015640D01*
X021600Y015590D02*
X021600Y015790D01*
X021600Y016590D02*
X021600Y016790D01*
X022737Y015805D02*
X023378Y015405D01*
X023717Y015948D02*
X023077Y016348D01*
X025530Y016810D02*
X025530Y017565D01*
X026170Y017565D02*
X026170Y016810D01*
X025985Y015500D02*
X025465Y015500D01*
X025465Y014380D01*
X025985Y014380D01*
X025985Y015500D01*
X026600Y015226D02*
X026600Y014904D01*
X027100Y014904D02*
X027100Y015226D01*
X028600Y015065D02*
X028600Y015565D01*
X028850Y015815D01*
X030350Y015815D01*
X030600Y015565D01*
X030600Y015065D01*
X030350Y014815D01*
X030600Y014565D01*
X030600Y014065D01*
X030350Y013815D01*
X030600Y013565D01*
X030600Y013065D01*
X030350Y012815D01*
X028850Y012815D01*
X028600Y013065D01*
X028600Y013565D01*
X028850Y013815D01*
X028600Y014065D01*
X028600Y014565D01*
X028850Y014815D01*
X028600Y015065D01*
X028200Y016690D02*
X028100Y016790D01*
X028100Y017590D01*
X028200Y017690D01*
X029000Y017690D01*
X029100Y017590D01*
X029200Y017690D01*
X030000Y017690D01*
X030100Y017590D01*
X030200Y017690D01*
X031000Y017690D01*
X031100Y017590D01*
X031100Y016790D01*
X031000Y016690D01*
X030200Y016690D01*
X030100Y016790D01*
X030000Y016690D01*
X029200Y016690D01*
X029100Y016790D01*
X029000Y016690D01*
X028200Y016690D01*
X025350Y013908D02*
X025350Y013348D01*
X024850Y013348D02*
X024850Y013908D01*
X024157Y013710D02*
X023624Y014244D01*
X023171Y013791D02*
X023705Y013258D01*
X019818Y016440D02*
X019258Y016440D01*
X018785Y016450D02*
X018785Y015930D01*
X017665Y015930D01*
X017665Y016450D01*
X018785Y016450D01*
X019258Y016940D02*
X019818Y016940D01*
X017563Y016865D02*
X017563Y015765D01*
X017561Y015748D01*
X017557Y015731D01*
X017550Y015715D01*
X017540Y015701D01*
X017527Y015688D01*
X017513Y015678D01*
X017497Y015671D01*
X017480Y015667D01*
X017463Y015665D01*
X016863Y015665D01*
X016846Y015667D01*
X016829Y015671D01*
X016813Y015678D01*
X016799Y015688D01*
X016786Y015701D01*
X016776Y015715D01*
X016769Y015731D01*
X016765Y015748D01*
X016763Y015765D01*
X016763Y016865D01*
X016765Y016882D01*
X016769Y016899D01*
X016776Y016915D01*
X016786Y016929D01*
X016799Y016942D01*
X016813Y016952D01*
X016829Y016959D01*
X016846Y016963D01*
X016863Y016965D01*
X017463Y016965D01*
X017480Y016963D01*
X017497Y016959D01*
X017513Y016952D01*
X017527Y016942D01*
X017540Y016929D01*
X017550Y016915D01*
X017557Y016899D01*
X017561Y016882D01*
X017563Y016865D01*
X017163Y016915D02*
X017163Y016715D01*
X017163Y015915D02*
X017163Y015715D01*
X015028Y015542D02*
X014707Y016000D01*
X014297Y015713D02*
X014618Y015255D01*
X011475Y015465D02*
X011475Y013165D01*
X011473Y013114D01*
X011468Y013063D01*
X011458Y013013D01*
X011445Y012963D01*
X011429Y012915D01*
X011409Y012868D01*
X011385Y012822D01*
X011359Y012779D01*
X011329Y012737D01*
X011296Y012698D01*
X011261Y012661D01*
X011223Y012627D01*
X011182Y012596D01*
X011140Y012567D01*
X011095Y012542D01*
X011049Y012521D01*
X011001Y012502D01*
X010952Y012488D01*
X010902Y012477D01*
X010852Y012469D01*
X010801Y012465D01*
X010749Y012465D01*
X010698Y012469D01*
X010648Y012477D01*
X010598Y012488D01*
X010549Y012502D01*
X010501Y012521D01*
X010455Y012542D01*
X010410Y012567D01*
X010368Y012596D01*
X010327Y012627D01*
X010289Y012661D01*
X010254Y012698D01*
X010221Y012737D01*
X010191Y012779D01*
X010165Y012822D01*
X010141Y012868D01*
X010121Y012915D01*
X010105Y012963D01*
X010092Y013013D01*
X010082Y013063D01*
X010077Y013114D01*
X010075Y013165D01*
X010075Y015465D01*
X010077Y015516D01*
X010082Y015567D01*
X010092Y015617D01*
X010105Y015667D01*
X010121Y015715D01*
X010141Y015762D01*
X010165Y015808D01*
X010191Y015851D01*
X010221Y015893D01*
X010254Y015932D01*
X010289Y015969D01*
X010327Y016003D01*
X010368Y016034D01*
X010410Y016063D01*
X010455Y016088D01*
X010501Y016109D01*
X010549Y016128D01*
X010598Y016142D01*
X010648Y016153D01*
X010698Y016161D01*
X010749Y016165D01*
X010801Y016165D01*
X010852Y016161D01*
X010902Y016153D01*
X010952Y016142D01*
X011001Y016128D01*
X011049Y016109D01*
X011095Y016088D01*
X011140Y016063D01*
X011182Y016034D01*
X011223Y016003D01*
X011261Y015969D01*
X011296Y015932D01*
X011329Y015893D01*
X011359Y015851D01*
X011385Y015808D01*
X011409Y015762D01*
X011429Y015715D01*
X011445Y015667D01*
X011458Y015617D01*
X011468Y015567D01*
X011473Y015516D01*
X011475Y015465D01*
X010775Y014815D02*
X010775Y014565D01*
X010425Y014565D01*
X010425Y014415D02*
X011125Y014415D01*
X011125Y014215D01*
X010425Y014215D01*
X010425Y014415D01*
X010775Y014565D02*
X011125Y014565D01*
X011125Y014065D02*
X010775Y014065D01*
X010775Y013815D01*
X010775Y014065D02*
X010425Y014065D01*
X005175Y018040D02*
X002775Y018040D01*
X002725Y018042D01*
X002676Y018048D01*
X002627Y018057D01*
X002579Y018070D01*
X002532Y018087D01*
X002487Y018107D01*
X002443Y018131D01*
X002401Y018158D01*
X002361Y018189D01*
X002324Y018222D01*
X002290Y018258D01*
X002258Y018296D01*
X002229Y018337D01*
X002204Y018379D01*
X002182Y018424D01*
X002163Y018470D01*
X002148Y018518D01*
X002137Y018566D01*
X002129Y018615D01*
X002125Y018665D01*
X002125Y018715D01*
X002129Y018765D01*
X002137Y018814D01*
X002148Y018862D01*
X002163Y018910D01*
X002182Y018956D01*
X002204Y019001D01*
X002229Y019043D01*
X002258Y019084D01*
X002290Y019122D01*
X002324Y019158D01*
X002361Y019191D01*
X002401Y019222D01*
X002443Y019249D01*
X002487Y019273D01*
X002532Y019293D01*
X002579Y019310D01*
X002627Y019323D01*
X002676Y019332D01*
X002725Y019338D01*
X002775Y019340D01*
X005175Y019340D01*
X005225Y019338D01*
X005274Y019332D01*
X005323Y019323D01*
X005371Y019310D01*
X005418Y019293D01*
X005463Y019273D01*
X005507Y019249D01*
X005549Y019222D01*
X005589Y019191D01*
X005626Y019158D01*
X005660Y019122D01*
X005692Y019084D01*
X005721Y019043D01*
X005746Y019001D01*
X005768Y018956D01*
X005787Y018910D01*
X005802Y018862D01*
X005813Y018814D01*
X005821Y018765D01*
X005825Y018715D01*
X005825Y018665D01*
X005821Y018615D01*
X005813Y018566D01*
X005802Y018518D01*
X005787Y018470D01*
X005768Y018424D01*
X005746Y018379D01*
X005721Y018337D01*
X005692Y018296D01*
X005660Y018258D01*
X005626Y018222D01*
X005589Y018189D01*
X005549Y018158D01*
X005507Y018131D01*
X005463Y018107D01*
X005418Y018087D01*
X005371Y018070D01*
X005323Y018057D01*
X005274Y018048D01*
X005225Y018042D01*
X005175Y018040D01*
X004475Y018690D02*
X004225Y018690D01*
X004225Y018390D01*
X004075Y018390D02*
X003875Y018390D01*
X003875Y018990D01*
X004075Y018990D01*
X004075Y018390D01*
X004225Y018690D02*
X004225Y018990D01*
X003725Y018990D02*
X003725Y018690D01*
X003475Y018690D01*
X003725Y018690D02*
X003725Y018390D01*
X027050Y009665D02*
X027052Y009693D01*
X027058Y009720D01*
X027067Y009746D01*
X027080Y009771D01*
X027097Y009794D01*
X027116Y009814D01*
X027138Y009831D01*
X027162Y009845D01*
X027188Y009855D01*
X027215Y009862D01*
X027243Y009865D01*
X027271Y009864D01*
X027298Y009859D01*
X027325Y009850D01*
X027350Y009838D01*
X027373Y009823D01*
X027394Y009804D01*
X027412Y009783D01*
X027427Y009759D01*
X027438Y009733D01*
X027446Y009707D01*
X027450Y009679D01*
X027450Y009651D01*
X027446Y009623D01*
X027438Y009597D01*
X027427Y009571D01*
X027412Y009547D01*
X027394Y009526D01*
X027373Y009507D01*
X027350Y009492D01*
X027325Y009480D01*
X027298Y009471D01*
X027271Y009466D01*
X027243Y009465D01*
X027215Y009468D01*
X027188Y009475D01*
X027162Y009485D01*
X027138Y009499D01*
X027116Y009516D01*
X027097Y009536D01*
X027080Y009559D01*
X027067Y009584D01*
X027058Y009610D01*
X027052Y009637D01*
X027050Y009665D01*
D14*
X027100Y010240D02*
X027025Y010315D01*
X027025Y010465D01*
X027100Y010540D01*
X027175Y010540D01*
X027475Y010240D01*
X027475Y010540D01*
X028725Y010465D02*
X028950Y010240D01*
X028950Y010540D01*
X029175Y010465D02*
X028725Y010465D01*
X028712Y012065D02*
X028562Y012065D01*
X028637Y012065D02*
X028637Y012515D01*
X028562Y012515D02*
X028712Y012515D01*
X028869Y012440D02*
X028869Y012365D01*
X028944Y012290D01*
X029094Y012290D01*
X029169Y012215D01*
X029169Y012140D01*
X029094Y012065D01*
X028944Y012065D01*
X028869Y012140D01*
X029329Y012065D02*
X029329Y012515D01*
X029554Y012515D01*
X029629Y012440D01*
X029629Y012290D01*
X029554Y012215D01*
X029329Y012215D01*
X029169Y012440D02*
X029094Y012515D01*
X028944Y012515D01*
X028869Y012440D01*
X029790Y012290D02*
X029790Y012140D01*
X029865Y012065D01*
X030015Y012065D01*
X030090Y012140D01*
X030090Y012215D01*
X030015Y012290D01*
X029790Y012290D01*
X029940Y012440D01*
X030090Y012515D01*
X030775Y013240D02*
X031225Y013240D01*
X031225Y013090D02*
X031225Y013390D01*
X030925Y013090D02*
X030775Y013240D01*
X029250Y015940D02*
X029100Y015940D01*
X029100Y016165D01*
X029175Y016240D01*
X029250Y016240D01*
X029325Y016165D01*
X029325Y016015D01*
X029250Y015940D01*
X029100Y015940D02*
X028950Y016090D01*
X028875Y016240D01*
X029266Y017875D02*
X029493Y018102D01*
X029493Y018159D01*
X029436Y018215D01*
X029323Y018215D01*
X029266Y018159D01*
X029266Y017875D02*
X029493Y017875D01*
X030266Y017875D02*
X030493Y017875D01*
X030379Y017875D02*
X030379Y018215D01*
X030266Y018102D01*
X030240Y018690D02*
X029940Y018690D01*
X030240Y018990D01*
X030240Y019065D01*
X030165Y019140D01*
X030015Y019140D01*
X029940Y019065D01*
X029779Y019065D02*
X029779Y018915D01*
X029704Y018840D01*
X029479Y018840D01*
X029479Y018690D02*
X029479Y019140D01*
X029704Y019140D01*
X029779Y019065D01*
X029319Y019140D02*
X029169Y019140D01*
X029244Y019140D02*
X029244Y018765D01*
X029169Y018690D01*
X029094Y018690D01*
X029019Y018765D01*
X028436Y018215D02*
X028493Y018159D01*
X028493Y018102D01*
X028436Y018045D01*
X028493Y017988D01*
X028493Y017932D01*
X028436Y017875D01*
X028323Y017875D01*
X028266Y017932D01*
X028379Y018045D02*
X028436Y018045D01*
X028436Y018215D02*
X028323Y018215D01*
X028266Y018159D01*
X022986Y014365D02*
X022986Y014065D01*
X022836Y013915D01*
X022685Y014065D01*
X022685Y014365D01*
X022525Y014365D02*
X022375Y014365D01*
X022450Y014365D02*
X022450Y013990D01*
X022375Y013915D01*
X022300Y013915D01*
X022225Y013990D01*
X021327Y016066D02*
X021600Y016089D01*
X021600Y016089D01*
X021873Y016066D01*
X021874Y016065D01*
X021869Y016033D01*
X021860Y016001D01*
X021848Y015971D01*
X021832Y015943D01*
X021813Y015916D01*
X021791Y015892D01*
X021767Y015871D01*
X021740Y015853D01*
X021711Y015838D01*
X021680Y015827D01*
X021649Y015819D01*
X021616Y015815D01*
X021584Y015815D01*
X021551Y015819D01*
X021520Y015827D01*
X021489Y015838D01*
X021460Y015853D01*
X021433Y015871D01*
X021409Y015892D01*
X021387Y015916D01*
X021368Y015943D01*
X021352Y015971D01*
X021340Y016001D01*
X021331Y016033D01*
X021326Y016065D01*
X021373Y016065D01*
X021378Y016037D01*
X021387Y016009D01*
X021399Y015983D01*
X021414Y015958D01*
X021432Y015935D01*
X021453Y015915D01*
X021477Y015898D01*
X021502Y015884D01*
X021529Y015873D01*
X021557Y015866D01*
X021586Y015862D01*
X021614Y015862D01*
X021643Y015866D01*
X021671Y015873D01*
X021698Y015884D01*
X021723Y015898D01*
X021747Y015915D01*
X021768Y015935D01*
X021786Y015958D01*
X021801Y015983D01*
X021813Y016009D01*
X021822Y016037D01*
X021827Y016065D01*
X021779Y016065D01*
X021774Y016040D01*
X021765Y016015D01*
X021753Y015993D01*
X021737Y015972D01*
X021719Y015953D01*
X021698Y015938D01*
X021675Y015925D01*
X021651Y015916D01*
X021626Y015911D01*
X021600Y015909D01*
X021574Y015911D01*
X021549Y015916D01*
X021525Y015925D01*
X021502Y015938D01*
X021481Y015953D01*
X021463Y015972D01*
X021447Y015993D01*
X021435Y016015D01*
X021426Y016040D01*
X021421Y016065D01*
X021468Y016065D01*
X021474Y016044D01*
X021483Y016024D01*
X021495Y016006D01*
X021510Y015990D01*
X021528Y015977D01*
X021547Y015967D01*
X021568Y015960D01*
X021589Y015956D01*
X021611Y015956D01*
X021632Y015960D01*
X021653Y015967D01*
X021672Y015977D01*
X021690Y015990D01*
X021705Y016006D01*
X021717Y016024D01*
X021726Y016044D01*
X021732Y016065D01*
X021683Y016065D01*
X021677Y016049D01*
X021668Y016035D01*
X021655Y016023D01*
X021641Y016013D01*
X021625Y016007D01*
X021609Y016003D01*
X021591Y016003D01*
X021575Y016007D01*
X021559Y016013D01*
X021545Y016023D01*
X021532Y016035D01*
X021523Y016049D01*
X021517Y016065D01*
X021568Y016067D01*
X021575Y016059D01*
X021584Y016053D01*
X021595Y016050D01*
X021605Y016050D01*
X021616Y016053D01*
X021625Y016059D01*
X021632Y016067D01*
X021873Y016314D02*
X021600Y016291D01*
X021600Y016291D01*
X021327Y016314D01*
X021326Y016315D01*
X021331Y016347D01*
X021340Y016379D01*
X021352Y016409D01*
X021368Y016437D01*
X021387Y016464D01*
X021409Y016488D01*
X021433Y016509D01*
X021460Y016527D01*
X021489Y016542D01*
X021520Y016553D01*
X021551Y016561D01*
X021584Y016565D01*
X021616Y016565D01*
X021649Y016561D01*
X021680Y016553D01*
X021711Y016542D01*
X021740Y016527D01*
X021767Y016509D01*
X021791Y016488D01*
X021813Y016464D01*
X021832Y016437D01*
X021848Y016409D01*
X021860Y016379D01*
X021869Y016347D01*
X021874Y016315D01*
X021827Y016315D01*
X021822Y016343D01*
X021813Y016371D01*
X021801Y016397D01*
X021786Y016422D01*
X021768Y016445D01*
X021747Y016465D01*
X021723Y016482D01*
X021698Y016496D01*
X021671Y016507D01*
X021643Y016514D01*
X021614Y016518D01*
X021586Y016518D01*
X021557Y016514D01*
X021529Y016507D01*
X021502Y016496D01*
X021477Y016482D01*
X021453Y016465D01*
X021432Y016445D01*
X021414Y016422D01*
X021399Y016397D01*
X021387Y016371D01*
X021378Y016343D01*
X021373Y016315D01*
X021421Y016315D01*
X021426Y016340D01*
X021435Y016365D01*
X021447Y016387D01*
X021463Y016408D01*
X021481Y016427D01*
X021502Y016442D01*
X021525Y016455D01*
X021549Y016464D01*
X021574Y016469D01*
X021600Y016471D01*
X021626Y016469D01*
X021651Y016464D01*
X021675Y016455D01*
X021698Y016442D01*
X021719Y016427D01*
X021737Y016408D01*
X021753Y016387D01*
X021765Y016365D01*
X021774Y016340D01*
X021779Y016315D01*
X021732Y016315D01*
X021726Y016336D01*
X021717Y016356D01*
X021705Y016374D01*
X021690Y016390D01*
X021672Y016403D01*
X021653Y016413D01*
X021632Y016420D01*
X021611Y016424D01*
X021589Y016424D01*
X021568Y016420D01*
X021547Y016413D01*
X021528Y016403D01*
X021510Y016390D01*
X021495Y016374D01*
X021483Y016356D01*
X021474Y016336D01*
X021468Y016315D01*
X021517Y016315D01*
X021523Y016331D01*
X021532Y016345D01*
X021545Y016357D01*
X021559Y016367D01*
X021575Y016373D01*
X021591Y016377D01*
X021609Y016377D01*
X021625Y016373D01*
X021641Y016367D01*
X021655Y016357D01*
X021668Y016345D01*
X021677Y016331D01*
X021683Y016315D01*
X021632Y016313D01*
X021625Y016321D01*
X021616Y016327D01*
X021605Y016330D01*
X021595Y016330D01*
X021584Y016327D01*
X021575Y016321D01*
X021568Y016313D01*
X016890Y016191D02*
X017163Y016214D01*
X017163Y016214D01*
X017436Y016191D01*
X017437Y016190D01*
X017432Y016158D01*
X017423Y016126D01*
X017411Y016096D01*
X017395Y016068D01*
X017376Y016041D01*
X017354Y016017D01*
X017330Y015996D01*
X017303Y015978D01*
X017274Y015963D01*
X017243Y015952D01*
X017212Y015944D01*
X017179Y015940D01*
X017147Y015940D01*
X017114Y015944D01*
X017083Y015952D01*
X017052Y015963D01*
X017023Y015978D01*
X016996Y015996D01*
X016972Y016017D01*
X016950Y016041D01*
X016931Y016068D01*
X016915Y016096D01*
X016903Y016126D01*
X016894Y016158D01*
X016889Y016190D01*
X016936Y016190D01*
X016941Y016162D01*
X016950Y016134D01*
X016962Y016108D01*
X016977Y016083D01*
X016995Y016060D01*
X017016Y016040D01*
X017040Y016023D01*
X017065Y016009D01*
X017092Y015998D01*
X017120Y015991D01*
X017149Y015987D01*
X017177Y015987D01*
X017206Y015991D01*
X017234Y015998D01*
X017261Y016009D01*
X017286Y016023D01*
X017310Y016040D01*
X017331Y016060D01*
X017349Y016083D01*
X017364Y016108D01*
X017376Y016134D01*
X017385Y016162D01*
X017390Y016190D01*
X017342Y016190D01*
X017337Y016165D01*
X017328Y016140D01*
X017316Y016118D01*
X017300Y016097D01*
X017282Y016078D01*
X017261Y016063D01*
X017238Y016050D01*
X017214Y016041D01*
X017189Y016036D01*
X017163Y016034D01*
X017137Y016036D01*
X017112Y016041D01*
X017088Y016050D01*
X017065Y016063D01*
X017044Y016078D01*
X017026Y016097D01*
X017010Y016118D01*
X016998Y016140D01*
X016989Y016165D01*
X016984Y016190D01*
X017031Y016190D01*
X017037Y016169D01*
X017046Y016149D01*
X017058Y016131D01*
X017073Y016115D01*
X017091Y016102D01*
X017110Y016092D01*
X017131Y016085D01*
X017152Y016081D01*
X017174Y016081D01*
X017195Y016085D01*
X017216Y016092D01*
X017235Y016102D01*
X017253Y016115D01*
X017268Y016131D01*
X017280Y016149D01*
X017289Y016169D01*
X017295Y016190D01*
X017246Y016190D01*
X017240Y016174D01*
X017231Y016160D01*
X017218Y016148D01*
X017204Y016138D01*
X017188Y016132D01*
X017172Y016128D01*
X017154Y016128D01*
X017138Y016132D01*
X017122Y016138D01*
X017108Y016148D01*
X017095Y016160D01*
X017086Y016174D01*
X017080Y016190D01*
X017131Y016192D01*
X017138Y016184D01*
X017147Y016178D01*
X017158Y016175D01*
X017168Y016175D01*
X017179Y016178D01*
X017188Y016184D01*
X017195Y016192D01*
X017436Y016439D02*
X017163Y016416D01*
X017163Y016416D01*
X016890Y016439D01*
X016889Y016440D01*
X016894Y016472D01*
X016903Y016504D01*
X016915Y016534D01*
X016931Y016562D01*
X016950Y016589D01*
X016972Y016613D01*
X016996Y016634D01*
X017023Y016652D01*
X017052Y016667D01*
X017083Y016678D01*
X017114Y016686D01*
X017147Y016690D01*
X017179Y016690D01*
X017212Y016686D01*
X017243Y016678D01*
X017274Y016667D01*
X017303Y016652D01*
X017330Y016634D01*
X017354Y016613D01*
X017376Y016589D01*
X017395Y016562D01*
X017411Y016534D01*
X017423Y016504D01*
X017432Y016472D01*
X017437Y016440D01*
X017390Y016440D01*
X017385Y016468D01*
X017376Y016496D01*
X017364Y016522D01*
X017349Y016547D01*
X017331Y016570D01*
X017310Y016590D01*
X017286Y016607D01*
X017261Y016621D01*
X017234Y016632D01*
X017206Y016639D01*
X017177Y016643D01*
X017149Y016643D01*
X017120Y016639D01*
X017092Y016632D01*
X017065Y016621D01*
X017040Y016607D01*
X017016Y016590D01*
X016995Y016570D01*
X016977Y016547D01*
X016962Y016522D01*
X016950Y016496D01*
X016941Y016468D01*
X016936Y016440D01*
X016984Y016440D01*
X016989Y016465D01*
X016998Y016490D01*
X017010Y016512D01*
X017026Y016533D01*
X017044Y016552D01*
X017065Y016567D01*
X017088Y016580D01*
X017112Y016589D01*
X017137Y016594D01*
X017163Y016596D01*
X017189Y016594D01*
X017214Y016589D01*
X017238Y016580D01*
X017261Y016567D01*
X017282Y016552D01*
X017300Y016533D01*
X017316Y016512D01*
X017328Y016490D01*
X017337Y016465D01*
X017342Y016440D01*
X017295Y016440D01*
X017289Y016461D01*
X017280Y016481D01*
X017268Y016499D01*
X017253Y016515D01*
X017235Y016528D01*
X017216Y016538D01*
X017195Y016545D01*
X017174Y016549D01*
X017152Y016549D01*
X017131Y016545D01*
X017110Y016538D01*
X017091Y016528D01*
X017073Y016515D01*
X017058Y016499D01*
X017046Y016481D01*
X017037Y016461D01*
X017031Y016440D01*
X017080Y016440D01*
X017086Y016456D01*
X017095Y016470D01*
X017108Y016482D01*
X017122Y016492D01*
X017138Y016498D01*
X017154Y016502D01*
X017172Y016502D01*
X017188Y016498D01*
X017204Y016492D01*
X017218Y016482D01*
X017231Y016470D01*
X017240Y016456D01*
X017246Y016440D01*
X017195Y016438D01*
X017188Y016446D01*
X017179Y016452D01*
X017168Y016455D01*
X017158Y016455D01*
X017147Y016452D01*
X017138Y016446D01*
X017131Y016438D01*
X015802Y016090D02*
X015502Y015640D01*
X015267Y015715D02*
X015267Y016090D01*
X015192Y016090D02*
X015342Y016090D01*
X015502Y016090D02*
X015802Y015640D01*
X015267Y015715D02*
X015192Y015640D01*
X015117Y015640D01*
X015042Y015715D01*
X012715Y014140D02*
X012415Y014140D01*
X012565Y014140D02*
X012565Y014590D01*
X012415Y014440D01*
X012254Y014515D02*
X011954Y014215D01*
X011954Y014140D01*
X012254Y014140D01*
X012254Y014515D02*
X012254Y014590D01*
X011954Y014590D01*
X004596Y019890D02*
X004296Y019890D01*
X004446Y019890D02*
X004446Y020340D01*
X004296Y020190D01*
X004136Y020265D02*
X003835Y019965D01*
X003835Y019890D01*
X004136Y019890D01*
X004136Y020265D02*
X004136Y020340D01*
X003835Y020340D01*
X003675Y020265D02*
X003675Y020190D01*
X003375Y019890D01*
X003675Y019890D01*
X003675Y020265D02*
X003600Y020340D01*
X003450Y020340D01*
X003375Y020265D01*
X014684Y008705D02*
X014684Y008255D01*
X014834Y008255D02*
X014533Y008255D01*
X014533Y008555D02*
X014684Y008705D01*
X014994Y008705D02*
X014994Y008255D01*
X014994Y008480D02*
X015294Y008480D01*
X015294Y008705D02*
X015294Y008255D01*
X015454Y008255D02*
X015754Y008255D01*
X015915Y008255D02*
X016215Y008255D01*
X016065Y008255D02*
X016065Y008705D01*
X015915Y008555D01*
X015454Y008705D02*
X015454Y008255D01*
X017533Y008130D02*
X017834Y008130D01*
X017684Y008130D02*
X017684Y008580D01*
X017533Y008430D01*
X017994Y008355D02*
X018294Y008355D01*
X018294Y008580D02*
X018294Y008130D01*
X018454Y008130D02*
X018754Y008130D01*
X018915Y008130D02*
X019215Y008430D01*
X019215Y008505D01*
X019140Y008580D01*
X018990Y008580D01*
X018915Y008505D01*
X018454Y008580D02*
X018454Y008130D01*
X018915Y008130D02*
X019215Y008130D01*
X017994Y008130D02*
X017994Y008580D01*
X021283Y011130D02*
X021584Y011130D01*
X021434Y011130D02*
X021434Y011580D01*
X021283Y011430D01*
X021744Y011355D02*
X022044Y011355D01*
X022044Y011580D02*
X022044Y011130D01*
X022204Y011130D02*
X022504Y011130D01*
X022665Y011205D02*
X022740Y011130D01*
X022890Y011130D01*
X022965Y011205D01*
X022965Y011280D01*
X022890Y011355D01*
X022815Y011355D01*
X022890Y011355D02*
X022965Y011430D01*
X022965Y011505D01*
X022890Y011580D01*
X022740Y011580D01*
X022665Y011505D01*
X022204Y011580D02*
X022204Y011130D01*
X021744Y011130D02*
X021744Y011580D01*
X025282Y010147D02*
X025733Y010147D01*
X025582Y009997D01*
X025733Y009847D01*
X025282Y009847D01*
X025282Y009687D02*
X025733Y009687D01*
X025507Y009687D02*
X025507Y009387D01*
X025282Y009387D02*
X025733Y009387D01*
X025729Y007840D02*
X025654Y007765D01*
X025654Y007690D01*
X025729Y007615D01*
X025879Y007615D01*
X025954Y007540D01*
X025954Y007465D01*
X025879Y007390D01*
X025729Y007390D01*
X025654Y007465D01*
X025954Y007765D02*
X025879Y007840D01*
X025729Y007840D01*
X026115Y007765D02*
X026190Y007840D01*
X026340Y007840D01*
X026415Y007765D01*
X026415Y007690D01*
X026115Y007390D01*
X026415Y007390D01*
X026975Y007290D02*
X027125Y007140D01*
X026975Y007290D02*
X027425Y007290D01*
X027425Y007140D02*
X027425Y007440D01*
X028725Y007265D02*
X028725Y007115D01*
X028800Y007040D01*
X028950Y007190D02*
X028950Y007265D01*
X029025Y007340D01*
X029100Y007340D01*
X029175Y007265D01*
X029175Y007115D01*
X029100Y007040D01*
X028950Y007265D02*
X028875Y007340D01*
X028800Y007340D01*
X028725Y007265D01*
X027400Y005730D02*
X027475Y005655D01*
X027475Y005505D01*
X027400Y005430D01*
X027250Y005580D02*
X027250Y005655D01*
X027325Y005730D01*
X027400Y005730D01*
X027250Y005655D02*
X027175Y005730D01*
X027100Y005730D01*
X027025Y005655D01*
X027025Y005505D01*
X027100Y005430D01*
X028775Y005480D02*
X029225Y005480D01*
X029225Y005330D02*
X029225Y005630D01*
X028925Y005330D02*
X028775Y005480D01*
X026411Y003740D02*
X026260Y003590D01*
X026100Y003665D02*
X026025Y003740D01*
X025875Y003740D01*
X025800Y003665D01*
X025800Y003590D01*
X025875Y003515D01*
X026025Y003515D01*
X026100Y003440D01*
X026100Y003365D01*
X026025Y003290D01*
X025875Y003290D01*
X025800Y003365D01*
X026260Y003290D02*
X026561Y003290D01*
X026411Y003290D02*
X026411Y003740D01*
X027250Y002530D02*
X027250Y002230D01*
X027025Y002455D01*
X027475Y002455D01*
X028725Y002455D02*
X028725Y002305D01*
X028800Y002230D01*
X028725Y002455D02*
X028800Y002530D01*
X028875Y002530D01*
X029175Y002230D01*
X029175Y002530D01*
X021175Y002934D02*
X021100Y002859D01*
X021175Y002934D02*
X021175Y003084D01*
X021100Y003159D01*
X021025Y003159D01*
X020950Y003084D01*
X020950Y003009D01*
X020950Y003084D02*
X020875Y003159D01*
X020800Y003159D01*
X020725Y003084D01*
X020725Y002934D01*
X020800Y002859D01*
X020800Y003319D02*
X021100Y003319D01*
X021175Y003394D01*
X021175Y003544D01*
X021100Y003619D01*
X021100Y003780D02*
X021175Y003855D01*
X021175Y004005D01*
X021100Y004080D01*
X020950Y004080D01*
X020875Y004005D01*
X020875Y003930D01*
X020950Y003780D01*
X020725Y003780D01*
X020725Y004080D01*
X020800Y003619D02*
X020725Y003544D01*
X020725Y003394D01*
X020800Y003319D01*
X015040Y001765D02*
X014740Y001765D01*
X014965Y001990D01*
X014965Y001540D01*
X014579Y001615D02*
X014504Y001540D01*
X014354Y001540D01*
X014279Y001615D01*
X014279Y001915D01*
X014354Y001990D01*
X014504Y001990D01*
X014579Y001915D01*
X014119Y001915D02*
X014119Y001840D01*
X014044Y001765D01*
X014119Y001690D01*
X014119Y001615D01*
X014044Y001540D01*
X013894Y001540D01*
X013819Y001615D01*
X013969Y001765D02*
X014044Y001765D01*
X014119Y001915D02*
X014044Y001990D01*
X013894Y001990D01*
X013819Y001915D01*
X013057Y005235D02*
X012757Y005235D01*
X012907Y005235D02*
X012907Y005686D01*
X012757Y005536D01*
X012597Y005235D02*
X012297Y005235D01*
X012297Y005686D01*
X012136Y005611D02*
X012061Y005686D01*
X011911Y005686D01*
X011836Y005611D01*
X011986Y005461D02*
X012061Y005461D01*
X012136Y005386D01*
X012136Y005310D01*
X012061Y005235D01*
X011911Y005235D01*
X011836Y005310D01*
X012061Y005461D02*
X012136Y005536D01*
X012136Y005611D01*
X009477Y007790D02*
X009177Y007790D01*
X009327Y007790D02*
X009327Y008240D01*
X009177Y008090D01*
X009017Y008165D02*
X008942Y008240D01*
X008792Y008240D01*
X008717Y008165D01*
X008717Y007865D01*
X008792Y007790D01*
X008942Y007790D01*
X009017Y007865D01*
X008557Y007865D02*
X008482Y007790D01*
X008331Y007790D01*
X008256Y007865D01*
X008406Y008015D02*
X008482Y008015D01*
X008557Y007940D01*
X008557Y007865D01*
X008482Y008015D02*
X008557Y008090D01*
X008557Y008165D01*
X008482Y008240D01*
X008331Y008240D01*
X008256Y008165D01*
D15*
X016600Y010815D02*
X018100Y010815D01*
X019100Y010815D02*
X020600Y010815D01*
X021600Y010815D02*
X023100Y010815D01*
X027149Y012234D02*
X027149Y013021D01*
X027552Y012628D01*
X027149Y012234D01*
X021007Y015953D02*
X019943Y015953D01*
X019943Y016427D01*
X021007Y016427D01*
X021007Y015953D01*
X022899Y007084D02*
X022899Y006296D01*
X023302Y006690D01*
X022899Y007084D01*
D16*
X021570Y010847D02*
X021624Y010775D01*
X021623Y010776D02*
X021570Y010733D01*
X021519Y010688D01*
X021471Y010639D01*
X021426Y010588D01*
X021383Y010534D01*
X021344Y010478D01*
X021308Y010420D01*
X021275Y010360D01*
X021246Y010299D01*
X021221Y010235D01*
X021199Y010171D01*
X021180Y010105D01*
X021166Y010038D01*
X021155Y009971D01*
X021148Y009903D01*
X021145Y009835D01*
X021146Y009766D01*
X021151Y009698D01*
X021159Y009630D01*
X021172Y009563D01*
X021188Y009497D01*
X021208Y009432D01*
X021231Y009367D01*
X021258Y009305D01*
X021289Y009244D01*
X021323Y009185D01*
X021360Y009127D01*
X021401Y009072D01*
X021445Y009020D01*
X021491Y008970D01*
X021540Y008923D01*
X021592Y008878D01*
X021646Y008837D01*
X021703Y008798D01*
X021762Y008763D01*
X021822Y008732D01*
X021884Y008704D01*
X021948Y008679D01*
X022013Y008658D01*
X022079Y008641D01*
X022146Y008627D01*
X022214Y008618D01*
X022282Y008612D01*
X022350Y008610D01*
X022418Y008612D01*
X022486Y008618D01*
X022554Y008627D01*
X022621Y008641D01*
X022687Y008658D01*
X022752Y008679D01*
X022816Y008704D01*
X022878Y008732D01*
X022938Y008763D01*
X022997Y008798D01*
X023054Y008837D01*
X023108Y008878D01*
X023160Y008923D01*
X023209Y008970D01*
X023255Y009020D01*
X023299Y009072D01*
X023340Y009127D01*
X023377Y009185D01*
X023411Y009244D01*
X023442Y009305D01*
X023469Y009367D01*
X023492Y009432D01*
X023512Y009497D01*
X023528Y009563D01*
X023541Y009630D01*
X023549Y009698D01*
X023554Y009766D01*
X023555Y009835D01*
X023552Y009903D01*
X023545Y009971D01*
X023534Y010038D01*
X023520Y010105D01*
X023501Y010171D01*
X023479Y010235D01*
X023454Y010299D01*
X023425Y010360D01*
X023392Y010420D01*
X023356Y010478D01*
X023317Y010534D01*
X023274Y010588D01*
X023229Y010639D01*
X023181Y010688D01*
X023130Y010733D01*
X023077Y010776D01*
X023130Y010847D01*
X023131Y010848D01*
X023186Y010804D01*
X023239Y010756D01*
X023290Y010706D01*
X023337Y010653D01*
X023381Y010598D01*
X023423Y010540D01*
X023461Y010480D01*
X023496Y010419D01*
X023527Y010355D01*
X023555Y010290D01*
X023579Y010223D01*
X023600Y010155D01*
X023616Y010086D01*
X023629Y010016D01*
X023638Y009946D01*
X023644Y009875D01*
X023645Y009804D01*
X023642Y009733D01*
X023636Y009662D01*
X023626Y009592D01*
X023612Y009523D01*
X023594Y009454D01*
X023572Y009386D01*
X023547Y009320D01*
X023518Y009255D01*
X023485Y009192D01*
X023449Y009131D01*
X023410Y009072D01*
X023368Y009015D01*
X023323Y008960D01*
X023274Y008908D01*
X023223Y008859D01*
X023170Y008812D01*
X023113Y008769D01*
X023055Y008729D01*
X022994Y008692D01*
X022932Y008658D01*
X022868Y008628D01*
X022802Y008601D01*
X022735Y008578D01*
X022666Y008559D01*
X022597Y008544D01*
X022527Y008532D01*
X022456Y008524D01*
X022385Y008520D01*
X022315Y008520D01*
X022244Y008524D01*
X022173Y008532D01*
X022103Y008544D01*
X022034Y008559D01*
X021965Y008578D01*
X021898Y008601D01*
X021832Y008628D01*
X021768Y008658D01*
X021706Y008692D01*
X021645Y008729D01*
X021587Y008769D01*
X021530Y008812D01*
X021477Y008859D01*
X021426Y008908D01*
X021377Y008960D01*
X021332Y009015D01*
X021290Y009072D01*
X021251Y009131D01*
X021215Y009192D01*
X021182Y009255D01*
X021153Y009320D01*
X021128Y009386D01*
X021106Y009454D01*
X021088Y009523D01*
X021074Y009592D01*
X021064Y009662D01*
X021058Y009733D01*
X021055Y009804D01*
X021056Y009875D01*
X021062Y009946D01*
X021071Y010016D01*
X021084Y010086D01*
X021100Y010155D01*
X021121Y010223D01*
X021145Y010290D01*
X021173Y010355D01*
X021204Y010419D01*
X021239Y010480D01*
X021277Y010540D01*
X021319Y010598D01*
X021363Y010653D01*
X021410Y010706D01*
X021461Y010756D01*
X021514Y010804D01*
X021569Y010848D01*
X021574Y010841D01*
X021519Y010796D01*
X021466Y010749D01*
X021415Y010698D01*
X021368Y010645D01*
X021323Y010589D01*
X021282Y010531D01*
X021244Y010471D01*
X021209Y010409D01*
X021178Y010345D01*
X021151Y010279D01*
X021127Y010212D01*
X021107Y010143D01*
X021090Y010074D01*
X021078Y010004D01*
X021069Y009933D01*
X021065Y009862D01*
X021064Y009791D01*
X021068Y009720D01*
X021075Y009649D01*
X021086Y009578D01*
X021101Y009509D01*
X021120Y009440D01*
X021143Y009372D01*
X021169Y009306D01*
X021199Y009241D01*
X021233Y009179D01*
X021269Y009118D01*
X021310Y009059D01*
X021353Y009002D01*
X021400Y008948D01*
X021449Y008897D01*
X021502Y008849D01*
X021556Y008803D01*
X021614Y008761D01*
X021673Y008722D01*
X021735Y008686D01*
X021798Y008653D01*
X021863Y008625D01*
X021930Y008599D01*
X021998Y008578D01*
X022067Y008560D01*
X022137Y008547D01*
X022208Y008537D01*
X022279Y008531D01*
X022350Y008529D01*
X022421Y008531D01*
X022492Y008537D01*
X022563Y008547D01*
X022633Y008560D01*
X022702Y008578D01*
X022770Y008599D01*
X022837Y008625D01*
X022902Y008653D01*
X022965Y008686D01*
X023027Y008722D01*
X023086Y008761D01*
X023144Y008803D01*
X023198Y008849D01*
X023251Y008897D01*
X023300Y008948D01*
X023347Y009002D01*
X023390Y009059D01*
X023431Y009118D01*
X023467Y009179D01*
X023501Y009241D01*
X023531Y009306D01*
X023557Y009372D01*
X023580Y009440D01*
X023599Y009509D01*
X023614Y009578D01*
X023625Y009649D01*
X023632Y009720D01*
X023636Y009791D01*
X023635Y009862D01*
X023631Y009933D01*
X023622Y010004D01*
X023610Y010074D01*
X023593Y010143D01*
X023573Y010212D01*
X023549Y010279D01*
X023522Y010345D01*
X023491Y010409D01*
X023456Y010471D01*
X023418Y010531D01*
X023377Y010589D01*
X023332Y010645D01*
X023285Y010698D01*
X023234Y010749D01*
X023181Y010796D01*
X023126Y010841D01*
X023120Y010834D01*
X023175Y010789D01*
X023228Y010742D01*
X023278Y010692D01*
X023325Y010639D01*
X023369Y010584D01*
X023411Y010526D01*
X023448Y010467D01*
X023483Y010405D01*
X023514Y010341D01*
X023541Y010276D01*
X023565Y010209D01*
X023585Y010141D01*
X023601Y010072D01*
X023613Y010003D01*
X023622Y009932D01*
X023626Y009862D01*
X023627Y009791D01*
X023623Y009720D01*
X023616Y009650D01*
X023605Y009580D01*
X023590Y009511D01*
X023571Y009443D01*
X023549Y009375D01*
X023523Y009310D01*
X023493Y009245D01*
X023460Y009183D01*
X023423Y009123D01*
X023383Y009064D01*
X023340Y009008D01*
X023294Y008954D01*
X023244Y008904D01*
X023193Y008855D01*
X023138Y008810D01*
X023081Y008768D01*
X023022Y008729D01*
X022961Y008694D01*
X022898Y008661D01*
X022833Y008633D01*
X022767Y008608D01*
X022699Y008587D01*
X022631Y008569D01*
X022561Y008556D01*
X022491Y008546D01*
X022421Y008540D01*
X022350Y008538D01*
X022279Y008540D01*
X022209Y008546D01*
X022139Y008556D01*
X022069Y008569D01*
X022001Y008587D01*
X021933Y008608D01*
X021867Y008633D01*
X021802Y008661D01*
X021739Y008694D01*
X021678Y008729D01*
X021619Y008768D01*
X021562Y008810D01*
X021507Y008855D01*
X021456Y008904D01*
X021406Y008954D01*
X021360Y009008D01*
X021317Y009064D01*
X021277Y009123D01*
X021240Y009183D01*
X021207Y009245D01*
X021177Y009310D01*
X021151Y009375D01*
X021129Y009443D01*
X021110Y009511D01*
X021095Y009580D01*
X021084Y009650D01*
X021077Y009720D01*
X021073Y009791D01*
X021074Y009862D01*
X021078Y009932D01*
X021087Y010003D01*
X021099Y010072D01*
X021115Y010141D01*
X021135Y010209D01*
X021159Y010276D01*
X021186Y010341D01*
X021217Y010405D01*
X021252Y010467D01*
X021289Y010526D01*
X021331Y010584D01*
X021375Y010639D01*
X021422Y010692D01*
X021472Y010742D01*
X021525Y010789D01*
X021580Y010834D01*
X021585Y010826D01*
X021530Y010782D01*
X021477Y010734D01*
X021427Y010684D01*
X021379Y010631D01*
X021335Y010575D01*
X021294Y010517D01*
X021257Y010457D01*
X021222Y010395D01*
X021192Y010331D01*
X021165Y010265D01*
X021141Y010198D01*
X021122Y010130D01*
X021106Y010060D01*
X021094Y009990D01*
X021086Y009920D01*
X021082Y009849D01*
X021083Y009778D01*
X021087Y009707D01*
X021095Y009636D01*
X021107Y009566D01*
X021123Y009497D01*
X021142Y009429D01*
X021166Y009361D01*
X021193Y009296D01*
X021224Y009232D01*
X021258Y009170D01*
X021296Y009110D01*
X021338Y009052D01*
X021382Y008996D01*
X021429Y008943D01*
X021480Y008893D01*
X021533Y008846D01*
X021588Y008801D01*
X021646Y008760D01*
X021706Y008723D01*
X021769Y008688D01*
X021833Y008657D01*
X021898Y008630D01*
X021965Y008607D01*
X022034Y008587D01*
X022103Y008571D01*
X022173Y008559D01*
X022244Y008551D01*
X022314Y008547D01*
X022386Y008547D01*
X022456Y008551D01*
X022527Y008559D01*
X022597Y008571D01*
X022666Y008587D01*
X022735Y008607D01*
X022802Y008630D01*
X022867Y008657D01*
X022931Y008688D01*
X022994Y008723D01*
X023054Y008760D01*
X023112Y008801D01*
X023167Y008846D01*
X023220Y008893D01*
X023271Y008943D01*
X023318Y008996D01*
X023362Y009052D01*
X023404Y009110D01*
X023442Y009170D01*
X023476Y009232D01*
X023507Y009296D01*
X023534Y009361D01*
X023558Y009429D01*
X023577Y009497D01*
X023593Y009566D01*
X023605Y009636D01*
X023613Y009707D01*
X023617Y009778D01*
X023618Y009849D01*
X023614Y009920D01*
X023606Y009990D01*
X023594Y010060D01*
X023578Y010130D01*
X023559Y010198D01*
X023535Y010265D01*
X023508Y010331D01*
X023478Y010395D01*
X023443Y010457D01*
X023406Y010517D01*
X023365Y010575D01*
X023321Y010631D01*
X023273Y010684D01*
X023223Y010734D01*
X023170Y010782D01*
X023115Y010826D01*
X023109Y010819D01*
X023164Y010775D01*
X023217Y010728D01*
X023267Y010678D01*
X023314Y010625D01*
X023358Y010570D01*
X023398Y010512D01*
X023436Y010453D01*
X023470Y010391D01*
X023500Y010327D01*
X023527Y010262D01*
X023550Y010195D01*
X023570Y010127D01*
X023585Y010059D01*
X023597Y009989D01*
X023605Y009919D01*
X023609Y009848D01*
X023608Y009778D01*
X023604Y009707D01*
X023596Y009637D01*
X023584Y009568D01*
X023569Y009499D01*
X023549Y009431D01*
X023526Y009365D01*
X023499Y009300D01*
X023468Y009236D01*
X023434Y009174D01*
X023396Y009115D01*
X023355Y009057D01*
X023311Y009002D01*
X023264Y008949D01*
X023214Y008900D01*
X023162Y008853D01*
X023106Y008809D01*
X023049Y008768D01*
X022989Y008730D01*
X022927Y008696D01*
X022864Y008666D01*
X022799Y008639D01*
X022732Y008615D01*
X022664Y008596D01*
X022595Y008580D01*
X022526Y008568D01*
X022456Y008560D01*
X022385Y008556D01*
X022315Y008556D01*
X022244Y008560D01*
X022174Y008568D01*
X022105Y008580D01*
X022036Y008596D01*
X021968Y008615D01*
X021901Y008639D01*
X021836Y008666D01*
X021773Y008696D01*
X021711Y008730D01*
X021651Y008768D01*
X021594Y008809D01*
X021538Y008853D01*
X021486Y008900D01*
X021436Y008949D01*
X021389Y009002D01*
X021345Y009057D01*
X021304Y009115D01*
X021266Y009174D01*
X021232Y009236D01*
X021201Y009300D01*
X021174Y009365D01*
X021151Y009431D01*
X021131Y009499D01*
X021116Y009568D01*
X021104Y009637D01*
X021096Y009707D01*
X021092Y009778D01*
X021091Y009848D01*
X021095Y009919D01*
X021103Y009989D01*
X021115Y010059D01*
X021130Y010127D01*
X021150Y010195D01*
X021173Y010262D01*
X021200Y010327D01*
X021230Y010391D01*
X021264Y010453D01*
X021302Y010512D01*
X021342Y010570D01*
X021386Y010625D01*
X021433Y010678D01*
X021483Y010728D01*
X021536Y010775D01*
X021591Y010819D01*
X021596Y010812D01*
X021541Y010768D01*
X021489Y010721D01*
X021440Y010672D01*
X021393Y010619D01*
X021350Y010565D01*
X021309Y010507D01*
X021272Y010448D01*
X021238Y010387D01*
X021208Y010323D01*
X021181Y010259D01*
X021158Y010192D01*
X021139Y010125D01*
X021124Y010057D01*
X021112Y009988D01*
X021104Y009918D01*
X021100Y009848D01*
X021101Y009778D01*
X021105Y009708D01*
X021113Y009639D01*
X021124Y009570D01*
X021140Y009501D01*
X021159Y009434D01*
X021183Y009368D01*
X021210Y009303D01*
X021240Y009240D01*
X021274Y009179D01*
X021311Y009120D01*
X021352Y009062D01*
X021396Y009008D01*
X021442Y008956D01*
X021492Y008906D01*
X021544Y008859D01*
X021599Y008816D01*
X021656Y008775D01*
X021715Y008738D01*
X021777Y008704D01*
X021840Y008674D01*
X021905Y008647D01*
X021971Y008624D01*
X022038Y008605D01*
X022106Y008589D01*
X022175Y008577D01*
X022245Y008569D01*
X022315Y008565D01*
X022385Y008565D01*
X022455Y008569D01*
X022525Y008577D01*
X022594Y008589D01*
X022662Y008605D01*
X022729Y008624D01*
X022795Y008647D01*
X022860Y008674D01*
X022923Y008704D01*
X022985Y008738D01*
X023044Y008775D01*
X023101Y008816D01*
X023156Y008859D01*
X023208Y008906D01*
X023258Y008956D01*
X023304Y009008D01*
X023348Y009062D01*
X023389Y009120D01*
X023426Y009179D01*
X023460Y009240D01*
X023490Y009303D01*
X023517Y009368D01*
X023541Y009434D01*
X023560Y009501D01*
X023576Y009570D01*
X023587Y009639D01*
X023595Y009708D01*
X023599Y009778D01*
X023600Y009848D01*
X023596Y009918D01*
X023588Y009988D01*
X023576Y010057D01*
X023561Y010125D01*
X023542Y010192D01*
X023519Y010259D01*
X023492Y010323D01*
X023462Y010387D01*
X023428Y010448D01*
X023391Y010507D01*
X023350Y010565D01*
X023307Y010619D01*
X023260Y010672D01*
X023211Y010721D01*
X023159Y010768D01*
X023104Y010812D01*
X023099Y010805D01*
X023153Y010761D01*
X023205Y010715D01*
X023254Y010666D01*
X023300Y010614D01*
X023343Y010559D01*
X023383Y010502D01*
X023420Y010443D01*
X023454Y010382D01*
X023484Y010320D01*
X023510Y010255D01*
X023533Y010190D01*
X023552Y010123D01*
X023568Y010055D01*
X023579Y009986D01*
X023587Y009917D01*
X023591Y009848D01*
X023590Y009778D01*
X023586Y009709D01*
X023579Y009640D01*
X023567Y009571D01*
X023551Y009504D01*
X023532Y009437D01*
X023509Y009371D01*
X023482Y009307D01*
X023452Y009244D01*
X023418Y009183D01*
X023381Y009125D01*
X023341Y009068D01*
X023298Y009014D01*
X023251Y008962D01*
X023202Y008913D01*
X023150Y008866D01*
X023096Y008823D01*
X023039Y008783D01*
X022980Y008746D01*
X022919Y008712D01*
X022856Y008682D01*
X022792Y008655D01*
X022727Y008632D01*
X022660Y008613D01*
X022592Y008598D01*
X022523Y008586D01*
X022454Y008578D01*
X022385Y008574D01*
X022315Y008574D01*
X022246Y008578D01*
X022177Y008586D01*
X022108Y008598D01*
X022040Y008613D01*
X021973Y008632D01*
X021908Y008655D01*
X021844Y008682D01*
X021781Y008712D01*
X021720Y008746D01*
X021661Y008783D01*
X021604Y008823D01*
X021550Y008866D01*
X021498Y008913D01*
X021449Y008962D01*
X021402Y009014D01*
X021359Y009068D01*
X021319Y009125D01*
X021282Y009183D01*
X021248Y009244D01*
X021218Y009307D01*
X021191Y009371D01*
X021168Y009437D01*
X021149Y009504D01*
X021133Y009571D01*
X021121Y009640D01*
X021114Y009709D01*
X021110Y009778D01*
X021109Y009848D01*
X021113Y009917D01*
X021121Y009986D01*
X021132Y010055D01*
X021148Y010123D01*
X021167Y010190D01*
X021190Y010255D01*
X021216Y010320D01*
X021246Y010382D01*
X021280Y010443D01*
X021317Y010502D01*
X021357Y010559D01*
X021400Y010614D01*
X021446Y010666D01*
X021495Y010715D01*
X021547Y010761D01*
X021601Y010805D01*
X021607Y010798D01*
X021553Y010754D01*
X021502Y010708D01*
X021453Y010659D01*
X021407Y010608D01*
X021364Y010554D01*
X021324Y010497D01*
X021288Y010439D01*
X021254Y010378D01*
X021224Y010316D01*
X021198Y010252D01*
X021176Y010187D01*
X021157Y010121D01*
X021141Y010053D01*
X021130Y009985D01*
X021122Y009917D01*
X021118Y009848D01*
X021119Y009779D01*
X021123Y009710D01*
X021130Y009641D01*
X021142Y009573D01*
X021157Y009506D01*
X021177Y009439D01*
X021200Y009374D01*
X021226Y009311D01*
X021256Y009248D01*
X021289Y009188D01*
X021326Y009130D01*
X021366Y009073D01*
X021409Y009019D01*
X021455Y008968D01*
X021504Y008919D01*
X021556Y008873D01*
X021610Y008830D01*
X021666Y008790D01*
X021725Y008754D01*
X021785Y008720D01*
X021847Y008690D01*
X021911Y008664D01*
X021976Y008641D01*
X022043Y008622D01*
X022110Y008607D01*
X022178Y008595D01*
X022247Y008587D01*
X022315Y008583D01*
X022385Y008583D01*
X022453Y008587D01*
X022522Y008595D01*
X022590Y008607D01*
X022657Y008622D01*
X022724Y008641D01*
X022789Y008664D01*
X022853Y008690D01*
X022915Y008720D01*
X022975Y008754D01*
X023034Y008790D01*
X023090Y008830D01*
X023144Y008873D01*
X023196Y008919D01*
X023245Y008968D01*
X023291Y009019D01*
X023334Y009073D01*
X023374Y009130D01*
X023411Y009188D01*
X023444Y009248D01*
X023474Y009311D01*
X023500Y009374D01*
X023523Y009439D01*
X023543Y009506D01*
X023558Y009573D01*
X023570Y009641D01*
X023577Y009710D01*
X023581Y009779D01*
X023582Y009848D01*
X023578Y009917D01*
X023570Y009985D01*
X023559Y010053D01*
X023543Y010121D01*
X023524Y010187D01*
X023502Y010252D01*
X023476Y010316D01*
X023446Y010378D01*
X023412Y010439D01*
X023376Y010497D01*
X023336Y010554D01*
X023293Y010608D01*
X023247Y010659D01*
X023198Y010708D01*
X023147Y010754D01*
X023093Y010798D01*
X023088Y010790D01*
X023142Y010747D01*
X023193Y010701D01*
X023242Y010651D01*
X023288Y010600D01*
X023331Y010545D01*
X023371Y010488D01*
X023407Y010430D01*
X023441Y010369D01*
X023470Y010306D01*
X023496Y010242D01*
X023518Y010176D01*
X023537Y010109D01*
X023552Y010042D01*
X023563Y009973D01*
X023570Y009904D01*
X023573Y009835D01*
X023572Y009766D01*
X023567Y009696D01*
X023559Y009628D01*
X023546Y009560D01*
X023530Y009492D01*
X023509Y009426D01*
X023486Y009361D01*
X023458Y009297D01*
X023427Y009235D01*
X023392Y009175D01*
X023354Y009117D01*
X023313Y009061D01*
X023269Y009008D01*
X023222Y008957D01*
X023172Y008909D01*
X023119Y008864D01*
X023064Y008822D01*
X023007Y008783D01*
X022947Y008748D01*
X022886Y008716D01*
X022823Y008687D01*
X022758Y008662D01*
X022692Y008641D01*
X022625Y008623D01*
X022557Y008610D01*
X022488Y008600D01*
X022419Y008594D01*
X022350Y008592D01*
X022281Y008594D01*
X022212Y008600D01*
X022143Y008610D01*
X022075Y008623D01*
X022008Y008641D01*
X021942Y008662D01*
X021877Y008687D01*
X021814Y008716D01*
X021753Y008748D01*
X021693Y008783D01*
X021636Y008822D01*
X021581Y008864D01*
X021528Y008909D01*
X021478Y008957D01*
X021431Y009008D01*
X021387Y009061D01*
X021346Y009117D01*
X021308Y009175D01*
X021273Y009235D01*
X021242Y009297D01*
X021214Y009361D01*
X021191Y009426D01*
X021170Y009492D01*
X021154Y009560D01*
X021141Y009628D01*
X021133Y009696D01*
X021128Y009766D01*
X021127Y009835D01*
X021130Y009904D01*
X021137Y009973D01*
X021148Y010042D01*
X021163Y010109D01*
X021182Y010176D01*
X021204Y010242D01*
X021230Y010306D01*
X021259Y010369D01*
X021293Y010430D01*
X021329Y010488D01*
X021369Y010545D01*
X021412Y010600D01*
X021458Y010651D01*
X021507Y010701D01*
X021558Y010747D01*
X021612Y010790D01*
X021618Y010783D01*
X021564Y010740D01*
X021513Y010694D01*
X021464Y010645D01*
X021419Y010594D01*
X021376Y010540D01*
X021337Y010483D01*
X021300Y010425D01*
X021267Y010365D01*
X021238Y010302D01*
X021212Y010239D01*
X021190Y010173D01*
X021172Y010107D01*
X021157Y010040D01*
X021146Y009972D01*
X021139Y009903D01*
X021136Y009835D01*
X021137Y009766D01*
X021142Y009697D01*
X021150Y009629D01*
X021163Y009561D01*
X021179Y009495D01*
X021199Y009429D01*
X021223Y009364D01*
X021250Y009301D01*
X021281Y009240D01*
X021315Y009180D01*
X021353Y009122D01*
X021394Y009067D01*
X021438Y009014D01*
X021485Y008964D01*
X021534Y008916D01*
X021586Y008871D01*
X021641Y008829D01*
X021698Y008791D01*
X021757Y008756D01*
X021818Y008724D01*
X021881Y008695D01*
X021945Y008671D01*
X022011Y008649D01*
X022077Y008632D01*
X022145Y008619D01*
X022213Y008609D01*
X022281Y008603D01*
X022350Y008601D01*
X022419Y008603D01*
X022487Y008609D01*
X022555Y008619D01*
X022623Y008632D01*
X022689Y008649D01*
X022755Y008671D01*
X022819Y008695D01*
X022882Y008724D01*
X022943Y008756D01*
X023002Y008791D01*
X023059Y008829D01*
X023114Y008871D01*
X023166Y008916D01*
X023215Y008964D01*
X023262Y009014D01*
X023306Y009067D01*
X023347Y009122D01*
X023385Y009180D01*
X023419Y009240D01*
X023450Y009301D01*
X023477Y009364D01*
X023501Y009429D01*
X023521Y009495D01*
X023537Y009561D01*
X023550Y009629D01*
X023558Y009697D01*
X023563Y009766D01*
X023564Y009835D01*
X023561Y009903D01*
X023554Y009972D01*
X023543Y010040D01*
X023528Y010107D01*
X023510Y010173D01*
X023488Y010239D01*
X023462Y010302D01*
X023433Y010365D01*
X023400Y010425D01*
X023363Y010483D01*
X023324Y010540D01*
X023281Y010594D01*
X023236Y010645D01*
X023187Y010694D01*
X023136Y010740D01*
X023082Y010783D01*
X023224Y009819D02*
X023174Y009819D01*
X023175Y009820D02*
X023173Y009876D01*
X023167Y009931D01*
X023157Y009986D01*
X023144Y010041D01*
X023126Y010094D01*
X023106Y010146D01*
X023082Y010196D01*
X023054Y010245D01*
X023023Y010292D01*
X022990Y010336D01*
X022953Y010378D01*
X022913Y010418D01*
X022871Y010455D01*
X022827Y010488D01*
X022780Y010519D01*
X022731Y010547D01*
X022681Y010571D01*
X022629Y010591D01*
X022576Y010609D01*
X022521Y010622D01*
X022466Y010632D01*
X022411Y010638D01*
X022355Y010640D01*
X022354Y010689D01*
X022355Y010690D01*
X022412Y010688D01*
X022468Y010682D01*
X022524Y010672D01*
X022580Y010659D01*
X022634Y010643D01*
X022687Y010622D01*
X022739Y010599D01*
X022789Y010572D01*
X022837Y010542D01*
X022883Y010509D01*
X022927Y010473D01*
X022969Y010434D01*
X023008Y010392D01*
X023044Y010348D01*
X023077Y010302D01*
X023107Y010254D01*
X023134Y010204D01*
X023157Y010152D01*
X023178Y010099D01*
X023194Y010045D01*
X023207Y009989D01*
X023217Y009933D01*
X023223Y009877D01*
X023225Y009820D01*
X023216Y009820D01*
X023214Y009876D01*
X023208Y009932D01*
X023199Y009988D01*
X023186Y010042D01*
X023169Y010096D01*
X023149Y010149D01*
X023126Y010200D01*
X023099Y010249D01*
X023069Y010297D01*
X023037Y010343D01*
X023001Y010386D01*
X022962Y010427D01*
X022921Y010466D01*
X022878Y010502D01*
X022832Y010534D01*
X022784Y010564D01*
X022735Y010591D01*
X022684Y010614D01*
X022631Y010634D01*
X022577Y010651D01*
X022523Y010664D01*
X022467Y010673D01*
X022411Y010679D01*
X022355Y010681D01*
X022355Y010672D01*
X022413Y010670D01*
X022471Y010663D01*
X022528Y010653D01*
X022584Y010639D01*
X022640Y010622D01*
X022694Y010600D01*
X022746Y010575D01*
X022797Y010546D01*
X022845Y010515D01*
X022891Y010479D01*
X022935Y010441D01*
X022976Y010400D01*
X023014Y010356D01*
X023050Y010310D01*
X023081Y010262D01*
X023110Y010211D01*
X023135Y010159D01*
X023157Y010105D01*
X023174Y010049D01*
X023188Y009993D01*
X023198Y009936D01*
X023205Y009878D01*
X023207Y009820D01*
X023198Y009820D01*
X023196Y009877D01*
X023190Y009935D01*
X023180Y009991D01*
X023166Y010047D01*
X023148Y010102D01*
X023127Y010155D01*
X023102Y010207D01*
X023074Y010257D01*
X023042Y010305D01*
X023007Y010351D01*
X022970Y010394D01*
X022929Y010435D01*
X022886Y010472D01*
X022840Y010507D01*
X022792Y010539D01*
X022742Y010567D01*
X022690Y010592D01*
X022637Y010613D01*
X022582Y010631D01*
X022526Y010645D01*
X022470Y010655D01*
X022412Y010661D01*
X022355Y010663D01*
X022355Y010654D01*
X022412Y010652D01*
X022468Y010646D01*
X022524Y010636D01*
X022579Y010622D01*
X022634Y010605D01*
X022686Y010584D01*
X022738Y010559D01*
X022787Y010531D01*
X022835Y010500D01*
X022880Y010465D01*
X022923Y010428D01*
X022963Y010388D01*
X023000Y010345D01*
X023035Y010300D01*
X023066Y010252D01*
X023094Y010203D01*
X023119Y010151D01*
X023140Y010099D01*
X023157Y010044D01*
X023171Y009989D01*
X023181Y009933D01*
X023187Y009877D01*
X023189Y009820D01*
X023180Y009820D01*
X023178Y009876D01*
X023172Y009932D01*
X023162Y009987D01*
X023148Y010042D01*
X023131Y010096D01*
X023110Y010148D01*
X023086Y010199D01*
X023058Y010248D01*
X023027Y010295D01*
X022993Y010339D01*
X022956Y010382D01*
X022917Y010421D01*
X022874Y010458D01*
X022830Y010492D01*
X022783Y010523D01*
X022734Y010551D01*
X022683Y010575D01*
X022631Y010596D01*
X022577Y010613D01*
X022522Y010627D01*
X022467Y010637D01*
X022411Y010643D01*
X022355Y010645D01*
X021476Y009811D02*
X021526Y009811D01*
X021525Y009810D02*
X021527Y009754D01*
X021533Y009699D01*
X021543Y009644D01*
X021556Y009589D01*
X021574Y009536D01*
X021594Y009484D01*
X021618Y009434D01*
X021646Y009385D01*
X021677Y009338D01*
X021710Y009294D01*
X021747Y009252D01*
X021787Y009212D01*
X021829Y009175D01*
X021873Y009142D01*
X021920Y009111D01*
X021969Y009083D01*
X022019Y009059D01*
X022071Y009039D01*
X022124Y009021D01*
X022179Y009008D01*
X022234Y008998D01*
X022289Y008992D01*
X022345Y008990D01*
X022346Y008941D01*
X022345Y008940D01*
X022288Y008942D01*
X022232Y008948D01*
X022176Y008958D01*
X022120Y008971D01*
X022066Y008987D01*
X022013Y009008D01*
X021961Y009031D01*
X021911Y009058D01*
X021863Y009088D01*
X021817Y009121D01*
X021773Y009157D01*
X021731Y009196D01*
X021692Y009238D01*
X021656Y009282D01*
X021623Y009328D01*
X021593Y009376D01*
X021566Y009426D01*
X021543Y009478D01*
X021522Y009531D01*
X021506Y009585D01*
X021493Y009641D01*
X021483Y009697D01*
X021477Y009753D01*
X021475Y009810D01*
X021484Y009810D01*
X021486Y009754D01*
X021492Y009698D01*
X021501Y009642D01*
X021514Y009588D01*
X021531Y009534D01*
X021551Y009481D01*
X021574Y009430D01*
X021601Y009381D01*
X021631Y009333D01*
X021663Y009287D01*
X021699Y009244D01*
X021738Y009203D01*
X021779Y009164D01*
X021822Y009128D01*
X021868Y009096D01*
X021916Y009066D01*
X021965Y009039D01*
X022016Y009016D01*
X022069Y008996D01*
X022123Y008979D01*
X022177Y008966D01*
X022233Y008957D01*
X022289Y008951D01*
X022345Y008949D01*
X022345Y008958D01*
X022287Y008960D01*
X022229Y008967D01*
X022172Y008977D01*
X022116Y008991D01*
X022060Y009008D01*
X022006Y009030D01*
X021954Y009055D01*
X021903Y009084D01*
X021855Y009115D01*
X021809Y009151D01*
X021765Y009189D01*
X021724Y009230D01*
X021686Y009274D01*
X021650Y009320D01*
X021619Y009368D01*
X021590Y009419D01*
X021565Y009471D01*
X021543Y009525D01*
X021526Y009581D01*
X021512Y009637D01*
X021502Y009694D01*
X021495Y009752D01*
X021493Y009810D01*
X021502Y009810D01*
X021504Y009753D01*
X021510Y009695D01*
X021520Y009639D01*
X021534Y009583D01*
X021552Y009528D01*
X021573Y009475D01*
X021598Y009423D01*
X021626Y009373D01*
X021658Y009325D01*
X021693Y009279D01*
X021730Y009236D01*
X021771Y009195D01*
X021814Y009158D01*
X021860Y009123D01*
X021908Y009091D01*
X021958Y009063D01*
X022010Y009038D01*
X022063Y009017D01*
X022118Y008999D01*
X022174Y008985D01*
X022230Y008975D01*
X022288Y008969D01*
X022345Y008967D01*
X022345Y008976D01*
X022288Y008978D01*
X022232Y008984D01*
X022176Y008994D01*
X022121Y009008D01*
X022066Y009025D01*
X022014Y009046D01*
X021962Y009071D01*
X021913Y009099D01*
X021865Y009130D01*
X021820Y009165D01*
X021777Y009202D01*
X021737Y009242D01*
X021700Y009285D01*
X021665Y009330D01*
X021634Y009378D01*
X021606Y009427D01*
X021581Y009479D01*
X021560Y009531D01*
X021543Y009586D01*
X021529Y009641D01*
X021519Y009697D01*
X021513Y009753D01*
X021511Y009810D01*
X021520Y009810D01*
X021522Y009754D01*
X021528Y009698D01*
X021538Y009643D01*
X021552Y009588D01*
X021569Y009534D01*
X021590Y009482D01*
X021614Y009431D01*
X021642Y009382D01*
X021673Y009335D01*
X021707Y009291D01*
X021744Y009248D01*
X021783Y009209D01*
X021826Y009172D01*
X021870Y009138D01*
X021917Y009107D01*
X021966Y009079D01*
X022017Y009055D01*
X022069Y009034D01*
X022123Y009017D01*
X022178Y009003D01*
X022233Y008993D01*
X022289Y008987D01*
X022345Y008985D01*
X023024Y009819D02*
X022974Y009819D01*
X022975Y009820D02*
X022973Y009869D01*
X022967Y009917D01*
X022957Y009964D01*
X022943Y010011D01*
X022926Y010056D01*
X022906Y010101D01*
X022882Y010143D01*
X022855Y010183D01*
X022825Y010221D01*
X022792Y010257D01*
X022756Y010290D01*
X022718Y010320D01*
X022678Y010347D01*
X022636Y010371D01*
X022591Y010391D01*
X022546Y010408D01*
X022499Y010422D01*
X022452Y010432D01*
X022404Y010438D01*
X022355Y010440D01*
X022354Y010489D01*
X022355Y010490D01*
X022405Y010488D01*
X022455Y010482D01*
X022504Y010472D01*
X022552Y010459D01*
X022599Y010442D01*
X022645Y010422D01*
X022689Y010399D01*
X022731Y010372D01*
X022771Y010342D01*
X022809Y010310D01*
X022845Y010274D01*
X022877Y010236D01*
X022907Y010196D01*
X022934Y010154D01*
X022957Y010110D01*
X022977Y010064D01*
X022994Y010017D01*
X023007Y009969D01*
X023017Y009920D01*
X023023Y009870D01*
X023025Y009820D01*
X023016Y009820D01*
X023014Y009869D01*
X023008Y009918D01*
X022998Y009967D01*
X022985Y010014D01*
X022969Y010061D01*
X022949Y010106D01*
X022926Y010149D01*
X022900Y010191D01*
X022870Y010231D01*
X022838Y010268D01*
X022803Y010303D01*
X022766Y010335D01*
X022726Y010365D01*
X022684Y010391D01*
X022641Y010414D01*
X022596Y010434D01*
X022549Y010450D01*
X022502Y010463D01*
X022453Y010473D01*
X022404Y010479D01*
X022355Y010481D01*
X022355Y010472D01*
X022404Y010470D01*
X022452Y010464D01*
X022500Y010455D01*
X022547Y010442D01*
X022592Y010426D01*
X022637Y010406D01*
X022680Y010383D01*
X022721Y010357D01*
X022760Y010328D01*
X022797Y010296D01*
X022831Y010262D01*
X022863Y010225D01*
X022892Y010186D01*
X022918Y010145D01*
X022941Y010102D01*
X022961Y010057D01*
X022977Y010012D01*
X022990Y009965D01*
X022999Y009917D01*
X023005Y009869D01*
X023007Y009820D01*
X022998Y009820D01*
X022996Y009870D01*
X022989Y009920D01*
X022979Y009970D01*
X022965Y010018D01*
X022948Y010065D01*
X022926Y010111D01*
X022902Y010155D01*
X022874Y010197D01*
X022842Y010236D01*
X022808Y010273D01*
X022771Y010307D01*
X022732Y010339D01*
X022690Y010367D01*
X022646Y010391D01*
X022600Y010413D01*
X022553Y010430D01*
X022505Y010444D01*
X022455Y010454D01*
X022405Y010461D01*
X022355Y010463D01*
X022355Y010454D01*
X022405Y010452D01*
X022454Y010445D01*
X022503Y010436D01*
X022550Y010422D01*
X022597Y010404D01*
X022642Y010383D01*
X022685Y010359D01*
X022726Y010331D01*
X022765Y010301D01*
X022802Y010267D01*
X022836Y010230D01*
X022866Y010191D01*
X022894Y010150D01*
X022918Y010107D01*
X022939Y010062D01*
X022957Y010015D01*
X022971Y009968D01*
X022980Y009919D01*
X022987Y009870D01*
X022989Y009820D01*
X022980Y009820D01*
X022978Y009869D01*
X022972Y009918D01*
X022962Y009965D01*
X022948Y010013D01*
X022931Y010058D01*
X022910Y010103D01*
X022886Y010145D01*
X022859Y010186D01*
X022829Y010225D01*
X022795Y010260D01*
X022760Y010294D01*
X022721Y010324D01*
X022680Y010351D01*
X022638Y010375D01*
X022593Y010396D01*
X022548Y010413D01*
X022500Y010427D01*
X022453Y010437D01*
X022404Y010443D01*
X022355Y010445D01*
X021676Y009811D02*
X021726Y009811D01*
X021725Y009810D02*
X021727Y009761D01*
X021733Y009713D01*
X021743Y009666D01*
X021757Y009619D01*
X021774Y009574D01*
X021794Y009529D01*
X021818Y009487D01*
X021845Y009447D01*
X021875Y009409D01*
X021908Y009373D01*
X021944Y009340D01*
X021982Y009310D01*
X022022Y009283D01*
X022064Y009259D01*
X022109Y009239D01*
X022154Y009222D01*
X022201Y009208D01*
X022248Y009198D01*
X022296Y009192D01*
X022345Y009190D01*
X022346Y009141D01*
X022345Y009140D01*
X022295Y009142D01*
X022245Y009148D01*
X022196Y009158D01*
X022148Y009171D01*
X022101Y009188D01*
X022055Y009208D01*
X022011Y009231D01*
X021969Y009258D01*
X021929Y009288D01*
X021891Y009320D01*
X021855Y009356D01*
X021823Y009394D01*
X021793Y009434D01*
X021766Y009476D01*
X021743Y009520D01*
X021723Y009566D01*
X021706Y009613D01*
X021693Y009661D01*
X021683Y009710D01*
X021677Y009760D01*
X021675Y009810D01*
X021684Y009810D01*
X021686Y009761D01*
X021692Y009712D01*
X021702Y009663D01*
X021715Y009616D01*
X021731Y009569D01*
X021751Y009524D01*
X021774Y009481D01*
X021800Y009439D01*
X021830Y009399D01*
X021862Y009362D01*
X021897Y009327D01*
X021934Y009295D01*
X021974Y009265D01*
X022016Y009239D01*
X022059Y009216D01*
X022104Y009196D01*
X022151Y009180D01*
X022198Y009167D01*
X022247Y009157D01*
X022296Y009151D01*
X022345Y009149D01*
X022345Y009158D01*
X022296Y009160D01*
X022248Y009166D01*
X022200Y009175D01*
X022153Y009188D01*
X022108Y009204D01*
X022063Y009224D01*
X022020Y009247D01*
X021979Y009273D01*
X021940Y009302D01*
X021903Y009334D01*
X021869Y009368D01*
X021837Y009405D01*
X021808Y009444D01*
X021782Y009485D01*
X021759Y009528D01*
X021739Y009573D01*
X021723Y009618D01*
X021710Y009665D01*
X021701Y009713D01*
X021695Y009761D01*
X021693Y009810D01*
X021702Y009810D01*
X021704Y009760D01*
X021711Y009710D01*
X021721Y009660D01*
X021735Y009612D01*
X021752Y009565D01*
X021774Y009519D01*
X021798Y009475D01*
X021826Y009433D01*
X021858Y009394D01*
X021892Y009357D01*
X021929Y009323D01*
X021968Y009291D01*
X022010Y009263D01*
X022054Y009239D01*
X022100Y009217D01*
X022147Y009200D01*
X022195Y009186D01*
X022245Y009176D01*
X022295Y009169D01*
X022345Y009167D01*
X022345Y009176D01*
X022295Y009178D01*
X022246Y009185D01*
X022197Y009194D01*
X022150Y009208D01*
X022103Y009226D01*
X022058Y009247D01*
X022015Y009271D01*
X021974Y009299D01*
X021935Y009329D01*
X021898Y009363D01*
X021864Y009400D01*
X021834Y009439D01*
X021806Y009480D01*
X021782Y009523D01*
X021761Y009568D01*
X021743Y009615D01*
X021729Y009662D01*
X021720Y009711D01*
X021713Y009760D01*
X021711Y009810D01*
X021720Y009810D01*
X021722Y009761D01*
X021728Y009712D01*
X021738Y009665D01*
X021752Y009617D01*
X021769Y009572D01*
X021790Y009527D01*
X021814Y009485D01*
X021841Y009444D01*
X021871Y009405D01*
X021905Y009370D01*
X021940Y009336D01*
X021979Y009306D01*
X022020Y009279D01*
X022062Y009255D01*
X022107Y009234D01*
X022152Y009217D01*
X022200Y009203D01*
X022247Y009193D01*
X022296Y009187D01*
X022345Y009185D01*
X022824Y009819D02*
X022774Y009819D01*
X022775Y009820D02*
X022773Y009859D01*
X022767Y009897D01*
X022758Y009934D01*
X022745Y009971D01*
X022730Y010006D01*
X022711Y010040D01*
X022689Y010072D01*
X022664Y010102D01*
X022637Y010129D01*
X022607Y010154D01*
X022575Y010176D01*
X022541Y010195D01*
X022506Y010210D01*
X022469Y010223D01*
X022432Y010232D01*
X022394Y010238D01*
X022355Y010240D01*
X022354Y010289D01*
X022355Y010290D01*
X022396Y010288D01*
X022436Y010282D01*
X022476Y010273D01*
X022515Y010260D01*
X022553Y010245D01*
X022589Y010226D01*
X022623Y010203D01*
X022656Y010179D01*
X022686Y010151D01*
X022714Y010121D01*
X022738Y010088D01*
X022761Y010054D01*
X022780Y010018D01*
X022795Y009980D01*
X022808Y009941D01*
X022817Y009901D01*
X022823Y009861D01*
X022825Y009820D01*
X022816Y009820D01*
X022814Y009862D01*
X022807Y009904D01*
X022797Y009946D01*
X022784Y009986D01*
X022766Y010025D01*
X022745Y010062D01*
X022721Y010097D01*
X022694Y010129D01*
X022664Y010159D01*
X022632Y010186D01*
X022597Y010210D01*
X022560Y010231D01*
X022521Y010249D01*
X022481Y010262D01*
X022439Y010272D01*
X022397Y010279D01*
X022355Y010281D01*
X022355Y010272D01*
X022397Y010270D01*
X022438Y010264D01*
X022478Y010254D01*
X022518Y010240D01*
X022556Y010223D01*
X022592Y010203D01*
X022626Y010179D01*
X022658Y010153D01*
X022688Y010123D01*
X022714Y010091D01*
X022738Y010057D01*
X022758Y010021D01*
X022775Y009983D01*
X022789Y009943D01*
X022799Y009903D01*
X022805Y009862D01*
X022807Y009820D01*
X022798Y009820D01*
X022796Y009861D01*
X022790Y009901D01*
X022780Y009941D01*
X022767Y009979D01*
X022750Y010017D01*
X022730Y010052D01*
X022707Y010086D01*
X022681Y010117D01*
X022652Y010146D01*
X022621Y010172D01*
X022587Y010195D01*
X022552Y010215D01*
X022514Y010232D01*
X022476Y010245D01*
X022436Y010255D01*
X022396Y010261D01*
X022355Y010263D01*
X022355Y010254D01*
X022395Y010252D01*
X022434Y010246D01*
X022473Y010236D01*
X022511Y010223D01*
X022548Y010207D01*
X022582Y010187D01*
X022615Y010165D01*
X022646Y010139D01*
X022674Y010111D01*
X022700Y010080D01*
X022722Y010047D01*
X022742Y010013D01*
X022758Y009976D01*
X022771Y009938D01*
X022781Y009899D01*
X022787Y009860D01*
X022789Y009820D01*
X022780Y009820D01*
X022778Y009859D01*
X022772Y009898D01*
X022763Y009936D01*
X022750Y009973D01*
X022734Y010009D01*
X022715Y010043D01*
X022693Y010075D01*
X022668Y010105D01*
X022640Y010133D01*
X022610Y010158D01*
X022578Y010180D01*
X022544Y010199D01*
X022508Y010215D01*
X022471Y010228D01*
X022433Y010237D01*
X022394Y010243D01*
X022355Y010245D01*
X021876Y009811D02*
X021926Y009811D01*
X021925Y009810D02*
X021927Y009771D01*
X021933Y009733D01*
X021942Y009696D01*
X021955Y009659D01*
X021970Y009624D01*
X021989Y009590D01*
X022011Y009558D01*
X022036Y009528D01*
X022063Y009501D01*
X022093Y009476D01*
X022125Y009454D01*
X022159Y009435D01*
X022194Y009420D01*
X022231Y009407D01*
X022268Y009398D01*
X022306Y009392D01*
X022345Y009390D01*
X022346Y009341D01*
X022345Y009340D01*
X022304Y009342D01*
X022264Y009348D01*
X022224Y009357D01*
X022185Y009370D01*
X022147Y009385D01*
X022111Y009404D01*
X022077Y009427D01*
X022044Y009451D01*
X022014Y009479D01*
X021986Y009509D01*
X021962Y009542D01*
X021939Y009576D01*
X021920Y009612D01*
X021905Y009650D01*
X021892Y009689D01*
X021883Y009729D01*
X021877Y009769D01*
X021875Y009810D01*
X021884Y009810D01*
X021886Y009768D01*
X021893Y009726D01*
X021903Y009684D01*
X021916Y009644D01*
X021934Y009605D01*
X021955Y009568D01*
X021979Y009533D01*
X022006Y009501D01*
X022036Y009471D01*
X022068Y009444D01*
X022103Y009420D01*
X022140Y009399D01*
X022179Y009381D01*
X022219Y009368D01*
X022261Y009358D01*
X022303Y009351D01*
X022345Y009349D01*
X022345Y009358D01*
X022303Y009360D01*
X022262Y009366D01*
X022222Y009376D01*
X022182Y009390D01*
X022144Y009407D01*
X022108Y009427D01*
X022074Y009451D01*
X022042Y009477D01*
X022012Y009507D01*
X021986Y009539D01*
X021962Y009573D01*
X021942Y009609D01*
X021925Y009647D01*
X021911Y009687D01*
X021901Y009727D01*
X021895Y009768D01*
X021893Y009810D01*
X021902Y009810D01*
X021904Y009769D01*
X021910Y009729D01*
X021920Y009689D01*
X021933Y009651D01*
X021950Y009613D01*
X021970Y009578D01*
X021993Y009544D01*
X022019Y009513D01*
X022048Y009484D01*
X022079Y009458D01*
X022113Y009435D01*
X022148Y009415D01*
X022186Y009398D01*
X022224Y009385D01*
X022264Y009375D01*
X022304Y009369D01*
X022345Y009367D01*
X022345Y009376D01*
X022305Y009378D01*
X022266Y009384D01*
X022227Y009394D01*
X022189Y009407D01*
X022152Y009423D01*
X022118Y009443D01*
X022085Y009465D01*
X022054Y009491D01*
X022026Y009519D01*
X022000Y009550D01*
X021978Y009583D01*
X021958Y009617D01*
X021942Y009654D01*
X021929Y009692D01*
X021919Y009731D01*
X021913Y009770D01*
X021911Y009810D01*
X021920Y009810D01*
X021922Y009771D01*
X021928Y009732D01*
X021937Y009694D01*
X021950Y009657D01*
X021966Y009621D01*
X021985Y009587D01*
X022007Y009555D01*
X022032Y009525D01*
X022060Y009497D01*
X022090Y009472D01*
X022122Y009450D01*
X022156Y009431D01*
X022192Y009415D01*
X022229Y009402D01*
X022267Y009393D01*
X022306Y009387D01*
X022345Y009385D01*
X020724Y009819D02*
X020674Y009819D01*
X020675Y009820D02*
X020673Y009876D01*
X020667Y009931D01*
X020657Y009986D01*
X020644Y010041D01*
X020626Y010094D01*
X020606Y010146D01*
X020582Y010196D01*
X020554Y010245D01*
X020523Y010292D01*
X020490Y010336D01*
X020453Y010378D01*
X020413Y010418D01*
X020371Y010455D01*
X020327Y010488D01*
X020280Y010519D01*
X020231Y010547D01*
X020181Y010571D01*
X020129Y010591D01*
X020076Y010609D01*
X020021Y010622D01*
X019966Y010632D01*
X019911Y010638D01*
X019855Y010640D01*
X019854Y010689D01*
X019855Y010690D01*
X019912Y010688D01*
X019968Y010682D01*
X020024Y010672D01*
X020080Y010659D01*
X020134Y010643D01*
X020187Y010622D01*
X020239Y010599D01*
X020289Y010572D01*
X020337Y010542D01*
X020383Y010509D01*
X020427Y010473D01*
X020469Y010434D01*
X020508Y010392D01*
X020544Y010348D01*
X020577Y010302D01*
X020607Y010254D01*
X020634Y010204D01*
X020657Y010152D01*
X020678Y010099D01*
X020694Y010045D01*
X020707Y009989D01*
X020717Y009933D01*
X020723Y009877D01*
X020725Y009820D01*
X020716Y009820D01*
X020714Y009876D01*
X020708Y009932D01*
X020699Y009988D01*
X020686Y010042D01*
X020669Y010096D01*
X020649Y010149D01*
X020626Y010200D01*
X020599Y010249D01*
X020569Y010297D01*
X020537Y010343D01*
X020501Y010386D01*
X020462Y010427D01*
X020421Y010466D01*
X020378Y010502D01*
X020332Y010534D01*
X020284Y010564D01*
X020235Y010591D01*
X020184Y010614D01*
X020131Y010634D01*
X020077Y010651D01*
X020023Y010664D01*
X019967Y010673D01*
X019911Y010679D01*
X019855Y010681D01*
X019855Y010672D01*
X019913Y010670D01*
X019971Y010663D01*
X020028Y010653D01*
X020084Y010639D01*
X020140Y010622D01*
X020194Y010600D01*
X020246Y010575D01*
X020297Y010546D01*
X020345Y010515D01*
X020391Y010479D01*
X020435Y010441D01*
X020476Y010400D01*
X020514Y010356D01*
X020550Y010310D01*
X020581Y010262D01*
X020610Y010211D01*
X020635Y010159D01*
X020657Y010105D01*
X020674Y010049D01*
X020688Y009993D01*
X020698Y009936D01*
X020705Y009878D01*
X020707Y009820D01*
X020698Y009820D01*
X020696Y009877D01*
X020690Y009935D01*
X020680Y009991D01*
X020666Y010047D01*
X020648Y010102D01*
X020627Y010155D01*
X020602Y010207D01*
X020574Y010257D01*
X020542Y010305D01*
X020507Y010351D01*
X020470Y010394D01*
X020429Y010435D01*
X020386Y010472D01*
X020340Y010507D01*
X020292Y010539D01*
X020242Y010567D01*
X020190Y010592D01*
X020137Y010613D01*
X020082Y010631D01*
X020026Y010645D01*
X019970Y010655D01*
X019912Y010661D01*
X019855Y010663D01*
X019855Y010654D01*
X019912Y010652D01*
X019968Y010646D01*
X020024Y010636D01*
X020079Y010622D01*
X020134Y010605D01*
X020186Y010584D01*
X020238Y010559D01*
X020287Y010531D01*
X020335Y010500D01*
X020380Y010465D01*
X020423Y010428D01*
X020463Y010388D01*
X020500Y010345D01*
X020535Y010300D01*
X020566Y010252D01*
X020594Y010203D01*
X020619Y010151D01*
X020640Y010099D01*
X020657Y010044D01*
X020671Y009989D01*
X020681Y009933D01*
X020687Y009877D01*
X020689Y009820D01*
X020680Y009820D01*
X020678Y009876D01*
X020672Y009932D01*
X020662Y009987D01*
X020648Y010042D01*
X020631Y010096D01*
X020610Y010148D01*
X020586Y010199D01*
X020558Y010248D01*
X020527Y010295D01*
X020493Y010339D01*
X020456Y010382D01*
X020417Y010421D01*
X020374Y010458D01*
X020330Y010492D01*
X020283Y010523D01*
X020234Y010551D01*
X020183Y010575D01*
X020131Y010596D01*
X020077Y010613D01*
X020022Y010627D01*
X019967Y010637D01*
X019911Y010643D01*
X019855Y010645D01*
X018976Y009811D02*
X019026Y009811D01*
X019025Y009810D02*
X019027Y009754D01*
X019033Y009699D01*
X019043Y009644D01*
X019056Y009589D01*
X019074Y009536D01*
X019094Y009484D01*
X019118Y009434D01*
X019146Y009385D01*
X019177Y009338D01*
X019210Y009294D01*
X019247Y009252D01*
X019287Y009212D01*
X019329Y009175D01*
X019373Y009142D01*
X019420Y009111D01*
X019469Y009083D01*
X019519Y009059D01*
X019571Y009039D01*
X019624Y009021D01*
X019679Y009008D01*
X019734Y008998D01*
X019789Y008992D01*
X019845Y008990D01*
X019846Y008941D01*
X019845Y008940D01*
X019788Y008942D01*
X019732Y008948D01*
X019676Y008958D01*
X019620Y008971D01*
X019566Y008987D01*
X019513Y009008D01*
X019461Y009031D01*
X019411Y009058D01*
X019363Y009088D01*
X019317Y009121D01*
X019273Y009157D01*
X019231Y009196D01*
X019192Y009238D01*
X019156Y009282D01*
X019123Y009328D01*
X019093Y009376D01*
X019066Y009426D01*
X019043Y009478D01*
X019022Y009531D01*
X019006Y009585D01*
X018993Y009641D01*
X018983Y009697D01*
X018977Y009753D01*
X018975Y009810D01*
X018984Y009810D01*
X018986Y009754D01*
X018992Y009698D01*
X019001Y009642D01*
X019014Y009588D01*
X019031Y009534D01*
X019051Y009481D01*
X019074Y009430D01*
X019101Y009381D01*
X019131Y009333D01*
X019163Y009287D01*
X019199Y009244D01*
X019238Y009203D01*
X019279Y009164D01*
X019322Y009128D01*
X019368Y009096D01*
X019416Y009066D01*
X019465Y009039D01*
X019516Y009016D01*
X019569Y008996D01*
X019623Y008979D01*
X019677Y008966D01*
X019733Y008957D01*
X019789Y008951D01*
X019845Y008949D01*
X019845Y008958D01*
X019787Y008960D01*
X019729Y008967D01*
X019672Y008977D01*
X019616Y008991D01*
X019560Y009008D01*
X019506Y009030D01*
X019454Y009055D01*
X019403Y009084D01*
X019355Y009115D01*
X019309Y009151D01*
X019265Y009189D01*
X019224Y009230D01*
X019186Y009274D01*
X019150Y009320D01*
X019119Y009368D01*
X019090Y009419D01*
X019065Y009471D01*
X019043Y009525D01*
X019026Y009581D01*
X019012Y009637D01*
X019002Y009694D01*
X018995Y009752D01*
X018993Y009810D01*
X019002Y009810D01*
X019004Y009753D01*
X019010Y009695D01*
X019020Y009639D01*
X019034Y009583D01*
X019052Y009528D01*
X019073Y009475D01*
X019098Y009423D01*
X019126Y009373D01*
X019158Y009325D01*
X019193Y009279D01*
X019230Y009236D01*
X019271Y009195D01*
X019314Y009158D01*
X019360Y009123D01*
X019408Y009091D01*
X019458Y009063D01*
X019510Y009038D01*
X019563Y009017D01*
X019618Y008999D01*
X019674Y008985D01*
X019730Y008975D01*
X019788Y008969D01*
X019845Y008967D01*
X019845Y008976D01*
X019788Y008978D01*
X019732Y008984D01*
X019676Y008994D01*
X019621Y009008D01*
X019566Y009025D01*
X019514Y009046D01*
X019462Y009071D01*
X019413Y009099D01*
X019365Y009130D01*
X019320Y009165D01*
X019277Y009202D01*
X019237Y009242D01*
X019200Y009285D01*
X019165Y009330D01*
X019134Y009378D01*
X019106Y009427D01*
X019081Y009479D01*
X019060Y009531D01*
X019043Y009586D01*
X019029Y009641D01*
X019019Y009697D01*
X019013Y009753D01*
X019011Y009810D01*
X019020Y009810D01*
X019022Y009754D01*
X019028Y009698D01*
X019038Y009643D01*
X019052Y009588D01*
X019069Y009534D01*
X019090Y009482D01*
X019114Y009431D01*
X019142Y009382D01*
X019173Y009335D01*
X019207Y009291D01*
X019244Y009248D01*
X019283Y009209D01*
X019326Y009172D01*
X019370Y009138D01*
X019417Y009107D01*
X019466Y009079D01*
X019517Y009055D01*
X019569Y009034D01*
X019623Y009017D01*
X019678Y009003D01*
X019733Y008993D01*
X019789Y008987D01*
X019845Y008985D01*
X019070Y010847D02*
X019124Y010775D01*
X019123Y010776D02*
X019070Y010733D01*
X019019Y010688D01*
X018971Y010639D01*
X018926Y010588D01*
X018883Y010534D01*
X018844Y010478D01*
X018808Y010420D01*
X018775Y010360D01*
X018746Y010299D01*
X018721Y010235D01*
X018699Y010171D01*
X018680Y010105D01*
X018666Y010038D01*
X018655Y009971D01*
X018648Y009903D01*
X018645Y009835D01*
X018646Y009766D01*
X018651Y009698D01*
X018659Y009630D01*
X018672Y009563D01*
X018688Y009497D01*
X018708Y009432D01*
X018731Y009367D01*
X018758Y009305D01*
X018789Y009244D01*
X018823Y009185D01*
X018860Y009127D01*
X018901Y009072D01*
X018945Y009020D01*
X018991Y008970D01*
X019040Y008923D01*
X019092Y008878D01*
X019146Y008837D01*
X019203Y008798D01*
X019262Y008763D01*
X019322Y008732D01*
X019384Y008704D01*
X019448Y008679D01*
X019513Y008658D01*
X019579Y008641D01*
X019646Y008627D01*
X019714Y008618D01*
X019782Y008612D01*
X019850Y008610D01*
X019918Y008612D01*
X019986Y008618D01*
X020054Y008627D01*
X020121Y008641D01*
X020187Y008658D01*
X020252Y008679D01*
X020316Y008704D01*
X020378Y008732D01*
X020438Y008763D01*
X020497Y008798D01*
X020554Y008837D01*
X020608Y008878D01*
X020660Y008923D01*
X020709Y008970D01*
X020755Y009020D01*
X020799Y009072D01*
X020840Y009127D01*
X020877Y009185D01*
X020911Y009244D01*
X020942Y009305D01*
X020969Y009367D01*
X020992Y009432D01*
X021012Y009497D01*
X021028Y009563D01*
X021041Y009630D01*
X021049Y009698D01*
X021054Y009766D01*
X021055Y009835D01*
X021052Y009903D01*
X021045Y009971D01*
X021034Y010038D01*
X021020Y010105D01*
X021001Y010171D01*
X020979Y010235D01*
X020954Y010299D01*
X020925Y010360D01*
X020892Y010420D01*
X020856Y010478D01*
X020817Y010534D01*
X020774Y010588D01*
X020729Y010639D01*
X020681Y010688D01*
X020630Y010733D01*
X020577Y010776D01*
X020630Y010847D01*
X020631Y010848D01*
X020686Y010804D01*
X020739Y010756D01*
X020790Y010706D01*
X020837Y010653D01*
X020881Y010598D01*
X020923Y010540D01*
X020961Y010480D01*
X020996Y010419D01*
X021027Y010355D01*
X021055Y010290D01*
X021079Y010223D01*
X021100Y010155D01*
X021116Y010086D01*
X021129Y010016D01*
X021138Y009946D01*
X021144Y009875D01*
X021145Y009804D01*
X021142Y009733D01*
X021136Y009662D01*
X021126Y009592D01*
X021112Y009523D01*
X021094Y009454D01*
X021072Y009386D01*
X021047Y009320D01*
X021018Y009255D01*
X020985Y009192D01*
X020949Y009131D01*
X020910Y009072D01*
X020868Y009015D01*
X020823Y008960D01*
X020774Y008908D01*
X020723Y008859D01*
X020670Y008812D01*
X020613Y008769D01*
X020555Y008729D01*
X020494Y008692D01*
X020432Y008658D01*
X020368Y008628D01*
X020302Y008601D01*
X020235Y008578D01*
X020166Y008559D01*
X020097Y008544D01*
X020027Y008532D01*
X019956Y008524D01*
X019885Y008520D01*
X019815Y008520D01*
X019744Y008524D01*
X019673Y008532D01*
X019603Y008544D01*
X019534Y008559D01*
X019465Y008578D01*
X019398Y008601D01*
X019332Y008628D01*
X019268Y008658D01*
X019206Y008692D01*
X019145Y008729D01*
X019087Y008769D01*
X019030Y008812D01*
X018977Y008859D01*
X018926Y008908D01*
X018877Y008960D01*
X018832Y009015D01*
X018790Y009072D01*
X018751Y009131D01*
X018715Y009192D01*
X018682Y009255D01*
X018653Y009320D01*
X018628Y009386D01*
X018606Y009454D01*
X018588Y009523D01*
X018574Y009592D01*
X018564Y009662D01*
X018558Y009733D01*
X018555Y009804D01*
X018556Y009875D01*
X018562Y009946D01*
X018571Y010016D01*
X018584Y010086D01*
X018600Y010155D01*
X018621Y010223D01*
X018645Y010290D01*
X018673Y010355D01*
X018704Y010419D01*
X018739Y010480D01*
X018777Y010540D01*
X018819Y010598D01*
X018863Y010653D01*
X018910Y010706D01*
X018961Y010756D01*
X019014Y010804D01*
X019069Y010848D01*
X019074Y010841D01*
X019019Y010796D01*
X018966Y010749D01*
X018915Y010698D01*
X018868Y010645D01*
X018823Y010589D01*
X018782Y010531D01*
X018744Y010471D01*
X018709Y010409D01*
X018678Y010345D01*
X018651Y010279D01*
X018627Y010212D01*
X018607Y010143D01*
X018590Y010074D01*
X018578Y010004D01*
X018569Y009933D01*
X018565Y009862D01*
X018564Y009791D01*
X018568Y009720D01*
X018575Y009649D01*
X018586Y009578D01*
X018601Y009509D01*
X018620Y009440D01*
X018643Y009372D01*
X018669Y009306D01*
X018699Y009241D01*
X018733Y009179D01*
X018769Y009118D01*
X018810Y009059D01*
X018853Y009002D01*
X018900Y008948D01*
X018949Y008897D01*
X019002Y008849D01*
X019056Y008803D01*
X019114Y008761D01*
X019173Y008722D01*
X019235Y008686D01*
X019298Y008653D01*
X019363Y008625D01*
X019430Y008599D01*
X019498Y008578D01*
X019567Y008560D01*
X019637Y008547D01*
X019708Y008537D01*
X019779Y008531D01*
X019850Y008529D01*
X019921Y008531D01*
X019992Y008537D01*
X020063Y008547D01*
X020133Y008560D01*
X020202Y008578D01*
X020270Y008599D01*
X020337Y008625D01*
X020402Y008653D01*
X020465Y008686D01*
X020527Y008722D01*
X020586Y008761D01*
X020644Y008803D01*
X020698Y008849D01*
X020751Y008897D01*
X020800Y008948D01*
X020847Y009002D01*
X020890Y009059D01*
X020931Y009118D01*
X020967Y009179D01*
X021001Y009241D01*
X021031Y009306D01*
X021057Y009372D01*
X021080Y009440D01*
X021099Y009509D01*
X021114Y009578D01*
X021125Y009649D01*
X021132Y009720D01*
X021136Y009791D01*
X021135Y009862D01*
X021131Y009933D01*
X021122Y010004D01*
X021110Y010074D01*
X021093Y010143D01*
X021073Y010212D01*
X021049Y010279D01*
X021022Y010345D01*
X020991Y010409D01*
X020956Y010471D01*
X020918Y010531D01*
X020877Y010589D01*
X020832Y010645D01*
X020785Y010698D01*
X020734Y010749D01*
X020681Y010796D01*
X020626Y010841D01*
X020620Y010834D01*
X020675Y010789D01*
X020728Y010742D01*
X020778Y010692D01*
X020825Y010639D01*
X020869Y010584D01*
X020911Y010526D01*
X020948Y010467D01*
X020983Y010405D01*
X021014Y010341D01*
X021041Y010276D01*
X021065Y010209D01*
X021085Y010141D01*
X021101Y010072D01*
X021113Y010003D01*
X021122Y009932D01*
X021126Y009862D01*
X021127Y009791D01*
X021123Y009720D01*
X021116Y009650D01*
X021105Y009580D01*
X021090Y009511D01*
X021071Y009443D01*
X021049Y009375D01*
X021023Y009310D01*
X020993Y009245D01*
X020960Y009183D01*
X020923Y009123D01*
X020883Y009064D01*
X020840Y009008D01*
X020794Y008954D01*
X020744Y008904D01*
X020693Y008855D01*
X020638Y008810D01*
X020581Y008768D01*
X020522Y008729D01*
X020461Y008694D01*
X020398Y008661D01*
X020333Y008633D01*
X020267Y008608D01*
X020199Y008587D01*
X020131Y008569D01*
X020061Y008556D01*
X019991Y008546D01*
X019921Y008540D01*
X019850Y008538D01*
X019779Y008540D01*
X019709Y008546D01*
X019639Y008556D01*
X019569Y008569D01*
X019501Y008587D01*
X019433Y008608D01*
X019367Y008633D01*
X019302Y008661D01*
X019239Y008694D01*
X019178Y008729D01*
X019119Y008768D01*
X019062Y008810D01*
X019007Y008855D01*
X018956Y008904D01*
X018906Y008954D01*
X018860Y009008D01*
X018817Y009064D01*
X018777Y009123D01*
X018740Y009183D01*
X018707Y009245D01*
X018677Y009310D01*
X018651Y009375D01*
X018629Y009443D01*
X018610Y009511D01*
X018595Y009580D01*
X018584Y009650D01*
X018577Y009720D01*
X018573Y009791D01*
X018574Y009862D01*
X018578Y009932D01*
X018587Y010003D01*
X018599Y010072D01*
X018615Y010141D01*
X018635Y010209D01*
X018659Y010276D01*
X018686Y010341D01*
X018717Y010405D01*
X018752Y010467D01*
X018789Y010526D01*
X018831Y010584D01*
X018875Y010639D01*
X018922Y010692D01*
X018972Y010742D01*
X019025Y010789D01*
X019080Y010834D01*
X019085Y010826D01*
X019030Y010782D01*
X018977Y010734D01*
X018927Y010684D01*
X018879Y010631D01*
X018835Y010575D01*
X018794Y010517D01*
X018757Y010457D01*
X018722Y010395D01*
X018692Y010331D01*
X018665Y010265D01*
X018641Y010198D01*
X018622Y010130D01*
X018606Y010060D01*
X018594Y009990D01*
X018586Y009920D01*
X018582Y009849D01*
X018583Y009778D01*
X018587Y009707D01*
X018595Y009636D01*
X018607Y009566D01*
X018623Y009497D01*
X018642Y009429D01*
X018666Y009361D01*
X018693Y009296D01*
X018724Y009232D01*
X018758Y009170D01*
X018796Y009110D01*
X018838Y009052D01*
X018882Y008996D01*
X018929Y008943D01*
X018980Y008893D01*
X019033Y008846D01*
X019088Y008801D01*
X019146Y008760D01*
X019206Y008723D01*
X019269Y008688D01*
X019333Y008657D01*
X019398Y008630D01*
X019465Y008607D01*
X019534Y008587D01*
X019603Y008571D01*
X019673Y008559D01*
X019744Y008551D01*
X019814Y008547D01*
X019886Y008547D01*
X019956Y008551D01*
X020027Y008559D01*
X020097Y008571D01*
X020166Y008587D01*
X020235Y008607D01*
X020302Y008630D01*
X020367Y008657D01*
X020431Y008688D01*
X020494Y008723D01*
X020554Y008760D01*
X020612Y008801D01*
X020667Y008846D01*
X020720Y008893D01*
X020771Y008943D01*
X020818Y008996D01*
X020862Y009052D01*
X020904Y009110D01*
X020942Y009170D01*
X020976Y009232D01*
X021007Y009296D01*
X021034Y009361D01*
X021058Y009429D01*
X021077Y009497D01*
X021093Y009566D01*
X021105Y009636D01*
X021113Y009707D01*
X021117Y009778D01*
X021118Y009849D01*
X021114Y009920D01*
X021106Y009990D01*
X021094Y010060D01*
X021078Y010130D01*
X021059Y010198D01*
X021035Y010265D01*
X021008Y010331D01*
X020978Y010395D01*
X020943Y010457D01*
X020906Y010517D01*
X020865Y010575D01*
X020821Y010631D01*
X020773Y010684D01*
X020723Y010734D01*
X020670Y010782D01*
X020615Y010826D01*
X020609Y010819D01*
X020664Y010775D01*
X020717Y010728D01*
X020767Y010678D01*
X020814Y010625D01*
X020858Y010570D01*
X020898Y010512D01*
X020936Y010453D01*
X020970Y010391D01*
X021000Y010327D01*
X021027Y010262D01*
X021050Y010195D01*
X021070Y010127D01*
X021085Y010059D01*
X021097Y009989D01*
X021105Y009919D01*
X021109Y009848D01*
X021108Y009778D01*
X021104Y009707D01*
X021096Y009637D01*
X021084Y009568D01*
X021069Y009499D01*
X021049Y009431D01*
X021026Y009365D01*
X020999Y009300D01*
X020968Y009236D01*
X020934Y009174D01*
X020896Y009115D01*
X020855Y009057D01*
X020811Y009002D01*
X020764Y008949D01*
X020714Y008900D01*
X020662Y008853D01*
X020606Y008809D01*
X020549Y008768D01*
X020489Y008730D01*
X020427Y008696D01*
X020364Y008666D01*
X020299Y008639D01*
X020232Y008615D01*
X020164Y008596D01*
X020095Y008580D01*
X020026Y008568D01*
X019956Y008560D01*
X019885Y008556D01*
X019815Y008556D01*
X019744Y008560D01*
X019674Y008568D01*
X019605Y008580D01*
X019536Y008596D01*
X019468Y008615D01*
X019401Y008639D01*
X019336Y008666D01*
X019273Y008696D01*
X019211Y008730D01*
X019151Y008768D01*
X019094Y008809D01*
X019038Y008853D01*
X018986Y008900D01*
X018936Y008949D01*
X018889Y009002D01*
X018845Y009057D01*
X018804Y009115D01*
X018766Y009174D01*
X018732Y009236D01*
X018701Y009300D01*
X018674Y009365D01*
X018651Y009431D01*
X018631Y009499D01*
X018616Y009568D01*
X018604Y009637D01*
X018596Y009707D01*
X018592Y009778D01*
X018591Y009848D01*
X018595Y009919D01*
X018603Y009989D01*
X018615Y010059D01*
X018630Y010127D01*
X018650Y010195D01*
X018673Y010262D01*
X018700Y010327D01*
X018730Y010391D01*
X018764Y010453D01*
X018802Y010512D01*
X018842Y010570D01*
X018886Y010625D01*
X018933Y010678D01*
X018983Y010728D01*
X019036Y010775D01*
X019091Y010819D01*
X019096Y010812D01*
X019041Y010768D01*
X018989Y010721D01*
X018940Y010672D01*
X018893Y010619D01*
X018850Y010565D01*
X018809Y010507D01*
X018772Y010448D01*
X018738Y010387D01*
X018708Y010323D01*
X018681Y010259D01*
X018658Y010192D01*
X018639Y010125D01*
X018624Y010057D01*
X018612Y009988D01*
X018604Y009918D01*
X018600Y009848D01*
X018601Y009778D01*
X018605Y009708D01*
X018613Y009639D01*
X018624Y009570D01*
X018640Y009501D01*
X018659Y009434D01*
X018683Y009368D01*
X018710Y009303D01*
X018740Y009240D01*
X018774Y009179D01*
X018811Y009120D01*
X018852Y009062D01*
X018896Y009008D01*
X018942Y008956D01*
X018992Y008906D01*
X019044Y008859D01*
X019099Y008816D01*
X019156Y008775D01*
X019215Y008738D01*
X019277Y008704D01*
X019340Y008674D01*
X019405Y008647D01*
X019471Y008624D01*
X019538Y008605D01*
X019606Y008589D01*
X019675Y008577D01*
X019745Y008569D01*
X019815Y008565D01*
X019885Y008565D01*
X019955Y008569D01*
X020025Y008577D01*
X020094Y008589D01*
X020162Y008605D01*
X020229Y008624D01*
X020295Y008647D01*
X020360Y008674D01*
X020423Y008704D01*
X020485Y008738D01*
X020544Y008775D01*
X020601Y008816D01*
X020656Y008859D01*
X020708Y008906D01*
X020758Y008956D01*
X020804Y009008D01*
X020848Y009062D01*
X020889Y009120D01*
X020926Y009179D01*
X020960Y009240D01*
X020990Y009303D01*
X021017Y009368D01*
X021041Y009434D01*
X021060Y009501D01*
X021076Y009570D01*
X021087Y009639D01*
X021095Y009708D01*
X021099Y009778D01*
X021100Y009848D01*
X021096Y009918D01*
X021088Y009988D01*
X021076Y010057D01*
X021061Y010125D01*
X021042Y010192D01*
X021019Y010259D01*
X020992Y010323D01*
X020962Y010387D01*
X020928Y010448D01*
X020891Y010507D01*
X020850Y010565D01*
X020807Y010619D01*
X020760Y010672D01*
X020711Y010721D01*
X020659Y010768D01*
X020604Y010812D01*
X020599Y010805D01*
X020653Y010761D01*
X020705Y010715D01*
X020754Y010666D01*
X020800Y010614D01*
X020843Y010559D01*
X020883Y010502D01*
X020920Y010443D01*
X020954Y010382D01*
X020984Y010320D01*
X021010Y010255D01*
X021033Y010190D01*
X021052Y010123D01*
X021068Y010055D01*
X021079Y009986D01*
X021087Y009917D01*
X021091Y009848D01*
X021090Y009778D01*
X021086Y009709D01*
X021079Y009640D01*
X021067Y009571D01*
X021051Y009504D01*
X021032Y009437D01*
X021009Y009371D01*
X020982Y009307D01*
X020952Y009244D01*
X020918Y009183D01*
X020881Y009125D01*
X020841Y009068D01*
X020798Y009014D01*
X020751Y008962D01*
X020702Y008913D01*
X020650Y008866D01*
X020596Y008823D01*
X020539Y008783D01*
X020480Y008746D01*
X020419Y008712D01*
X020356Y008682D01*
X020292Y008655D01*
X020227Y008632D01*
X020160Y008613D01*
X020092Y008598D01*
X020023Y008586D01*
X019954Y008578D01*
X019885Y008574D01*
X019815Y008574D01*
X019746Y008578D01*
X019677Y008586D01*
X019608Y008598D01*
X019540Y008613D01*
X019473Y008632D01*
X019408Y008655D01*
X019344Y008682D01*
X019281Y008712D01*
X019220Y008746D01*
X019161Y008783D01*
X019104Y008823D01*
X019050Y008866D01*
X018998Y008913D01*
X018949Y008962D01*
X018902Y009014D01*
X018859Y009068D01*
X018819Y009125D01*
X018782Y009183D01*
X018748Y009244D01*
X018718Y009307D01*
X018691Y009371D01*
X018668Y009437D01*
X018649Y009504D01*
X018633Y009571D01*
X018621Y009640D01*
X018614Y009709D01*
X018610Y009778D01*
X018609Y009848D01*
X018613Y009917D01*
X018621Y009986D01*
X018632Y010055D01*
X018648Y010123D01*
X018667Y010190D01*
X018690Y010255D01*
X018716Y010320D01*
X018746Y010382D01*
X018780Y010443D01*
X018817Y010502D01*
X018857Y010559D01*
X018900Y010614D01*
X018946Y010666D01*
X018995Y010715D01*
X019047Y010761D01*
X019101Y010805D01*
X019107Y010798D01*
X019053Y010754D01*
X019002Y010708D01*
X018953Y010659D01*
X018907Y010608D01*
X018864Y010554D01*
X018824Y010497D01*
X018788Y010439D01*
X018754Y010378D01*
X018724Y010316D01*
X018698Y010252D01*
X018676Y010187D01*
X018657Y010121D01*
X018641Y010053D01*
X018630Y009985D01*
X018622Y009917D01*
X018618Y009848D01*
X018619Y009779D01*
X018623Y009710D01*
X018630Y009641D01*
X018642Y009573D01*
X018657Y009506D01*
X018677Y009439D01*
X018700Y009374D01*
X018726Y009311D01*
X018756Y009248D01*
X018789Y009188D01*
X018826Y009130D01*
X018866Y009073D01*
X018909Y009019D01*
X018955Y008968D01*
X019004Y008919D01*
X019056Y008873D01*
X019110Y008830D01*
X019166Y008790D01*
X019225Y008754D01*
X019285Y008720D01*
X019347Y008690D01*
X019411Y008664D01*
X019476Y008641D01*
X019543Y008622D01*
X019610Y008607D01*
X019678Y008595D01*
X019747Y008587D01*
X019815Y008583D01*
X019885Y008583D01*
X019953Y008587D01*
X020022Y008595D01*
X020090Y008607D01*
X020157Y008622D01*
X020224Y008641D01*
X020289Y008664D01*
X020353Y008690D01*
X020415Y008720D01*
X020475Y008754D01*
X020534Y008790D01*
X020590Y008830D01*
X020644Y008873D01*
X020696Y008919D01*
X020745Y008968D01*
X020791Y009019D01*
X020834Y009073D01*
X020874Y009130D01*
X020911Y009188D01*
X020944Y009248D01*
X020974Y009311D01*
X021000Y009374D01*
X021023Y009439D01*
X021043Y009506D01*
X021058Y009573D01*
X021070Y009641D01*
X021077Y009710D01*
X021081Y009779D01*
X021082Y009848D01*
X021078Y009917D01*
X021070Y009985D01*
X021059Y010053D01*
X021043Y010121D01*
X021024Y010187D01*
X021002Y010252D01*
X020976Y010316D01*
X020946Y010378D01*
X020912Y010439D01*
X020876Y010497D01*
X020836Y010554D01*
X020793Y010608D01*
X020747Y010659D01*
X020698Y010708D01*
X020647Y010754D01*
X020593Y010798D01*
X020588Y010790D01*
X020642Y010747D01*
X020693Y010701D01*
X020742Y010651D01*
X020788Y010600D01*
X020831Y010545D01*
X020871Y010488D01*
X020907Y010430D01*
X020941Y010369D01*
X020970Y010306D01*
X020996Y010242D01*
X021018Y010176D01*
X021037Y010109D01*
X021052Y010042D01*
X021063Y009973D01*
X021070Y009904D01*
X021073Y009835D01*
X021072Y009766D01*
X021067Y009696D01*
X021059Y009628D01*
X021046Y009560D01*
X021030Y009492D01*
X021009Y009426D01*
X020986Y009361D01*
X020958Y009297D01*
X020927Y009235D01*
X020892Y009175D01*
X020854Y009117D01*
X020813Y009061D01*
X020769Y009008D01*
X020722Y008957D01*
X020672Y008909D01*
X020619Y008864D01*
X020564Y008822D01*
X020507Y008783D01*
X020447Y008748D01*
X020386Y008716D01*
X020323Y008687D01*
X020258Y008662D01*
X020192Y008641D01*
X020125Y008623D01*
X020057Y008610D01*
X019988Y008600D01*
X019919Y008594D01*
X019850Y008592D01*
X019781Y008594D01*
X019712Y008600D01*
X019643Y008610D01*
X019575Y008623D01*
X019508Y008641D01*
X019442Y008662D01*
X019377Y008687D01*
X019314Y008716D01*
X019253Y008748D01*
X019193Y008783D01*
X019136Y008822D01*
X019081Y008864D01*
X019028Y008909D01*
X018978Y008957D01*
X018931Y009008D01*
X018887Y009061D01*
X018846Y009117D01*
X018808Y009175D01*
X018773Y009235D01*
X018742Y009297D01*
X018714Y009361D01*
X018691Y009426D01*
X018670Y009492D01*
X018654Y009560D01*
X018641Y009628D01*
X018633Y009696D01*
X018628Y009766D01*
X018627Y009835D01*
X018630Y009904D01*
X018637Y009973D01*
X018648Y010042D01*
X018663Y010109D01*
X018682Y010176D01*
X018704Y010242D01*
X018730Y010306D01*
X018759Y010369D01*
X018793Y010430D01*
X018829Y010488D01*
X018869Y010545D01*
X018912Y010600D01*
X018958Y010651D01*
X019007Y010701D01*
X019058Y010747D01*
X019112Y010790D01*
X019118Y010783D01*
X019064Y010740D01*
X019013Y010694D01*
X018964Y010645D01*
X018919Y010594D01*
X018876Y010540D01*
X018837Y010483D01*
X018800Y010425D01*
X018767Y010365D01*
X018738Y010302D01*
X018712Y010239D01*
X018690Y010173D01*
X018672Y010107D01*
X018657Y010040D01*
X018646Y009972D01*
X018639Y009903D01*
X018636Y009835D01*
X018637Y009766D01*
X018642Y009697D01*
X018650Y009629D01*
X018663Y009561D01*
X018679Y009495D01*
X018699Y009429D01*
X018723Y009364D01*
X018750Y009301D01*
X018781Y009240D01*
X018815Y009180D01*
X018853Y009122D01*
X018894Y009067D01*
X018938Y009014D01*
X018985Y008964D01*
X019034Y008916D01*
X019086Y008871D01*
X019141Y008829D01*
X019198Y008791D01*
X019257Y008756D01*
X019318Y008724D01*
X019381Y008695D01*
X019445Y008671D01*
X019511Y008649D01*
X019577Y008632D01*
X019645Y008619D01*
X019713Y008609D01*
X019781Y008603D01*
X019850Y008601D01*
X019919Y008603D01*
X019987Y008609D01*
X020055Y008619D01*
X020123Y008632D01*
X020189Y008649D01*
X020255Y008671D01*
X020319Y008695D01*
X020382Y008724D01*
X020443Y008756D01*
X020502Y008791D01*
X020559Y008829D01*
X020614Y008871D01*
X020666Y008916D01*
X020715Y008964D01*
X020762Y009014D01*
X020806Y009067D01*
X020847Y009122D01*
X020885Y009180D01*
X020919Y009240D01*
X020950Y009301D01*
X020977Y009364D01*
X021001Y009429D01*
X021021Y009495D01*
X021037Y009561D01*
X021050Y009629D01*
X021058Y009697D01*
X021063Y009766D01*
X021064Y009835D01*
X021061Y009903D01*
X021054Y009972D01*
X021043Y010040D01*
X021028Y010107D01*
X021010Y010173D01*
X020988Y010239D01*
X020962Y010302D01*
X020933Y010365D01*
X020900Y010425D01*
X020863Y010483D01*
X020824Y010540D01*
X020781Y010594D01*
X020736Y010645D01*
X020687Y010694D01*
X020636Y010740D01*
X020582Y010783D01*
X020524Y009819D02*
X020474Y009819D01*
X020475Y009820D02*
X020473Y009869D01*
X020467Y009917D01*
X020457Y009964D01*
X020443Y010011D01*
X020426Y010056D01*
X020406Y010101D01*
X020382Y010143D01*
X020355Y010183D01*
X020325Y010221D01*
X020292Y010257D01*
X020256Y010290D01*
X020218Y010320D01*
X020178Y010347D01*
X020136Y010371D01*
X020091Y010391D01*
X020046Y010408D01*
X019999Y010422D01*
X019952Y010432D01*
X019904Y010438D01*
X019855Y010440D01*
X019854Y010489D01*
X019855Y010490D01*
X019905Y010488D01*
X019955Y010482D01*
X020004Y010472D01*
X020052Y010459D01*
X020099Y010442D01*
X020145Y010422D01*
X020189Y010399D01*
X020231Y010372D01*
X020271Y010342D01*
X020309Y010310D01*
X020345Y010274D01*
X020377Y010236D01*
X020407Y010196D01*
X020434Y010154D01*
X020457Y010110D01*
X020477Y010064D01*
X020494Y010017D01*
X020507Y009969D01*
X020517Y009920D01*
X020523Y009870D01*
X020525Y009820D01*
X020516Y009820D01*
X020514Y009869D01*
X020508Y009918D01*
X020498Y009967D01*
X020485Y010014D01*
X020469Y010061D01*
X020449Y010106D01*
X020426Y010149D01*
X020400Y010191D01*
X020370Y010231D01*
X020338Y010268D01*
X020303Y010303D01*
X020266Y010335D01*
X020226Y010365D01*
X020184Y010391D01*
X020141Y010414D01*
X020096Y010434D01*
X020049Y010450D01*
X020002Y010463D01*
X019953Y010473D01*
X019904Y010479D01*
X019855Y010481D01*
X019855Y010472D01*
X019904Y010470D01*
X019952Y010464D01*
X020000Y010455D01*
X020047Y010442D01*
X020092Y010426D01*
X020137Y010406D01*
X020180Y010383D01*
X020221Y010357D01*
X020260Y010328D01*
X020297Y010296D01*
X020331Y010262D01*
X020363Y010225D01*
X020392Y010186D01*
X020418Y010145D01*
X020441Y010102D01*
X020461Y010057D01*
X020477Y010012D01*
X020490Y009965D01*
X020499Y009917D01*
X020505Y009869D01*
X020507Y009820D01*
X020498Y009820D01*
X020496Y009870D01*
X020489Y009920D01*
X020479Y009970D01*
X020465Y010018D01*
X020448Y010065D01*
X020426Y010111D01*
X020402Y010155D01*
X020374Y010197D01*
X020342Y010236D01*
X020308Y010273D01*
X020271Y010307D01*
X020232Y010339D01*
X020190Y010367D01*
X020146Y010391D01*
X020100Y010413D01*
X020053Y010430D01*
X020005Y010444D01*
X019955Y010454D01*
X019905Y010461D01*
X019855Y010463D01*
X019855Y010454D01*
X019905Y010452D01*
X019954Y010445D01*
X020003Y010436D01*
X020050Y010422D01*
X020097Y010404D01*
X020142Y010383D01*
X020185Y010359D01*
X020226Y010331D01*
X020265Y010301D01*
X020302Y010267D01*
X020336Y010230D01*
X020366Y010191D01*
X020394Y010150D01*
X020418Y010107D01*
X020439Y010062D01*
X020457Y010015D01*
X020471Y009968D01*
X020480Y009919D01*
X020487Y009870D01*
X020489Y009820D01*
X020480Y009820D01*
X020478Y009869D01*
X020472Y009918D01*
X020462Y009965D01*
X020448Y010013D01*
X020431Y010058D01*
X020410Y010103D01*
X020386Y010145D01*
X020359Y010186D01*
X020329Y010225D01*
X020295Y010260D01*
X020260Y010294D01*
X020221Y010324D01*
X020180Y010351D01*
X020138Y010375D01*
X020093Y010396D01*
X020048Y010413D01*
X020000Y010427D01*
X019953Y010437D01*
X019904Y010443D01*
X019855Y010445D01*
X019176Y009811D02*
X019226Y009811D01*
X019225Y009810D02*
X019227Y009761D01*
X019233Y009713D01*
X019243Y009666D01*
X019257Y009619D01*
X019274Y009574D01*
X019294Y009529D01*
X019318Y009487D01*
X019345Y009447D01*
X019375Y009409D01*
X019408Y009373D01*
X019444Y009340D01*
X019482Y009310D01*
X019522Y009283D01*
X019564Y009259D01*
X019609Y009239D01*
X019654Y009222D01*
X019701Y009208D01*
X019748Y009198D01*
X019796Y009192D01*
X019845Y009190D01*
X019846Y009141D01*
X019845Y009140D01*
X019795Y009142D01*
X019745Y009148D01*
X019696Y009158D01*
X019648Y009171D01*
X019601Y009188D01*
X019555Y009208D01*
X019511Y009231D01*
X019469Y009258D01*
X019429Y009288D01*
X019391Y009320D01*
X019355Y009356D01*
X019323Y009394D01*
X019293Y009434D01*
X019266Y009476D01*
X019243Y009520D01*
X019223Y009566D01*
X019206Y009613D01*
X019193Y009661D01*
X019183Y009710D01*
X019177Y009760D01*
X019175Y009810D01*
X019184Y009810D01*
X019186Y009761D01*
X019192Y009712D01*
X019202Y009663D01*
X019215Y009616D01*
X019231Y009569D01*
X019251Y009524D01*
X019274Y009481D01*
X019300Y009439D01*
X019330Y009399D01*
X019362Y009362D01*
X019397Y009327D01*
X019434Y009295D01*
X019474Y009265D01*
X019516Y009239D01*
X019559Y009216D01*
X019604Y009196D01*
X019651Y009180D01*
X019698Y009167D01*
X019747Y009157D01*
X019796Y009151D01*
X019845Y009149D01*
X019845Y009158D01*
X019796Y009160D01*
X019748Y009166D01*
X019700Y009175D01*
X019653Y009188D01*
X019608Y009204D01*
X019563Y009224D01*
X019520Y009247D01*
X019479Y009273D01*
X019440Y009302D01*
X019403Y009334D01*
X019369Y009368D01*
X019337Y009405D01*
X019308Y009444D01*
X019282Y009485D01*
X019259Y009528D01*
X019239Y009573D01*
X019223Y009618D01*
X019210Y009665D01*
X019201Y009713D01*
X019195Y009761D01*
X019193Y009810D01*
X019202Y009810D01*
X019204Y009760D01*
X019211Y009710D01*
X019221Y009660D01*
X019235Y009612D01*
X019252Y009565D01*
X019274Y009519D01*
X019298Y009475D01*
X019326Y009433D01*
X019358Y009394D01*
X019392Y009357D01*
X019429Y009323D01*
X019468Y009291D01*
X019510Y009263D01*
X019554Y009239D01*
X019600Y009217D01*
X019647Y009200D01*
X019695Y009186D01*
X019745Y009176D01*
X019795Y009169D01*
X019845Y009167D01*
X019845Y009176D01*
X019795Y009178D01*
X019746Y009185D01*
X019697Y009194D01*
X019650Y009208D01*
X019603Y009226D01*
X019558Y009247D01*
X019515Y009271D01*
X019474Y009299D01*
X019435Y009329D01*
X019398Y009363D01*
X019364Y009400D01*
X019334Y009439D01*
X019306Y009480D01*
X019282Y009523D01*
X019261Y009568D01*
X019243Y009615D01*
X019229Y009662D01*
X019220Y009711D01*
X019213Y009760D01*
X019211Y009810D01*
X019220Y009810D01*
X019222Y009761D01*
X019228Y009712D01*
X019238Y009665D01*
X019252Y009617D01*
X019269Y009572D01*
X019290Y009527D01*
X019314Y009485D01*
X019341Y009444D01*
X019371Y009405D01*
X019405Y009370D01*
X019440Y009336D01*
X019479Y009306D01*
X019520Y009279D01*
X019562Y009255D01*
X019607Y009234D01*
X019652Y009217D01*
X019700Y009203D01*
X019747Y009193D01*
X019796Y009187D01*
X019845Y009185D01*
X020324Y009819D02*
X020274Y009819D01*
X020275Y009820D02*
X020273Y009859D01*
X020267Y009897D01*
X020258Y009934D01*
X020245Y009971D01*
X020230Y010006D01*
X020211Y010040D01*
X020189Y010072D01*
X020164Y010102D01*
X020137Y010129D01*
X020107Y010154D01*
X020075Y010176D01*
X020041Y010195D01*
X020006Y010210D01*
X019969Y010223D01*
X019932Y010232D01*
X019894Y010238D01*
X019855Y010240D01*
X019854Y010289D01*
X019855Y010290D01*
X019896Y010288D01*
X019936Y010282D01*
X019976Y010273D01*
X020015Y010260D01*
X020053Y010245D01*
X020089Y010226D01*
X020123Y010203D01*
X020156Y010179D01*
X020186Y010151D01*
X020214Y010121D01*
X020238Y010088D01*
X020261Y010054D01*
X020280Y010018D01*
X020295Y009980D01*
X020308Y009941D01*
X020317Y009901D01*
X020323Y009861D01*
X020325Y009820D01*
X020316Y009820D01*
X020314Y009862D01*
X020307Y009904D01*
X020297Y009946D01*
X020284Y009986D01*
X020266Y010025D01*
X020245Y010062D01*
X020221Y010097D01*
X020194Y010129D01*
X020164Y010159D01*
X020132Y010186D01*
X020097Y010210D01*
X020060Y010231D01*
X020021Y010249D01*
X019981Y010262D01*
X019939Y010272D01*
X019897Y010279D01*
X019855Y010281D01*
X019855Y010272D01*
X019897Y010270D01*
X019938Y010264D01*
X019978Y010254D01*
X020018Y010240D01*
X020056Y010223D01*
X020092Y010203D01*
X020126Y010179D01*
X020158Y010153D01*
X020188Y010123D01*
X020214Y010091D01*
X020238Y010057D01*
X020258Y010021D01*
X020275Y009983D01*
X020289Y009943D01*
X020299Y009903D01*
X020305Y009862D01*
X020307Y009820D01*
X020298Y009820D01*
X020296Y009861D01*
X020290Y009901D01*
X020280Y009941D01*
X020267Y009979D01*
X020250Y010017D01*
X020230Y010052D01*
X020207Y010086D01*
X020181Y010117D01*
X020152Y010146D01*
X020121Y010172D01*
X020087Y010195D01*
X020052Y010215D01*
X020014Y010232D01*
X019976Y010245D01*
X019936Y010255D01*
X019896Y010261D01*
X019855Y010263D01*
X019855Y010254D01*
X019895Y010252D01*
X019934Y010246D01*
X019973Y010236D01*
X020011Y010223D01*
X020048Y010207D01*
X020082Y010187D01*
X020115Y010165D01*
X020146Y010139D01*
X020174Y010111D01*
X020200Y010080D01*
X020222Y010047D01*
X020242Y010013D01*
X020258Y009976D01*
X020271Y009938D01*
X020281Y009899D01*
X020287Y009860D01*
X020289Y009820D01*
X020280Y009820D01*
X020278Y009859D01*
X020272Y009898D01*
X020263Y009936D01*
X020250Y009973D01*
X020234Y010009D01*
X020215Y010043D01*
X020193Y010075D01*
X020168Y010105D01*
X020140Y010133D01*
X020110Y010158D01*
X020078Y010180D01*
X020044Y010199D01*
X020008Y010215D01*
X019971Y010228D01*
X019933Y010237D01*
X019894Y010243D01*
X019855Y010245D01*
X019376Y009811D02*
X019426Y009811D01*
X019425Y009810D02*
X019427Y009771D01*
X019433Y009733D01*
X019442Y009696D01*
X019455Y009659D01*
X019470Y009624D01*
X019489Y009590D01*
X019511Y009558D01*
X019536Y009528D01*
X019563Y009501D01*
X019593Y009476D01*
X019625Y009454D01*
X019659Y009435D01*
X019694Y009420D01*
X019731Y009407D01*
X019768Y009398D01*
X019806Y009392D01*
X019845Y009390D01*
X019846Y009341D01*
X019845Y009340D01*
X019804Y009342D01*
X019764Y009348D01*
X019724Y009357D01*
X019685Y009370D01*
X019647Y009385D01*
X019611Y009404D01*
X019577Y009427D01*
X019544Y009451D01*
X019514Y009479D01*
X019486Y009509D01*
X019462Y009542D01*
X019439Y009576D01*
X019420Y009612D01*
X019405Y009650D01*
X019392Y009689D01*
X019383Y009729D01*
X019377Y009769D01*
X019375Y009810D01*
X019384Y009810D01*
X019386Y009768D01*
X019393Y009726D01*
X019403Y009684D01*
X019416Y009644D01*
X019434Y009605D01*
X019455Y009568D01*
X019479Y009533D01*
X019506Y009501D01*
X019536Y009471D01*
X019568Y009444D01*
X019603Y009420D01*
X019640Y009399D01*
X019679Y009381D01*
X019719Y009368D01*
X019761Y009358D01*
X019803Y009351D01*
X019845Y009349D01*
X019845Y009358D01*
X019803Y009360D01*
X019762Y009366D01*
X019722Y009376D01*
X019682Y009390D01*
X019644Y009407D01*
X019608Y009427D01*
X019574Y009451D01*
X019542Y009477D01*
X019512Y009507D01*
X019486Y009539D01*
X019462Y009573D01*
X019442Y009609D01*
X019425Y009647D01*
X019411Y009687D01*
X019401Y009727D01*
X019395Y009768D01*
X019393Y009810D01*
X019402Y009810D01*
X019404Y009769D01*
X019410Y009729D01*
X019420Y009689D01*
X019433Y009651D01*
X019450Y009613D01*
X019470Y009578D01*
X019493Y009544D01*
X019519Y009513D01*
X019548Y009484D01*
X019579Y009458D01*
X019613Y009435D01*
X019648Y009415D01*
X019686Y009398D01*
X019724Y009385D01*
X019764Y009375D01*
X019804Y009369D01*
X019845Y009367D01*
X019845Y009376D01*
X019805Y009378D01*
X019766Y009384D01*
X019727Y009394D01*
X019689Y009407D01*
X019652Y009423D01*
X019618Y009443D01*
X019585Y009465D01*
X019554Y009491D01*
X019526Y009519D01*
X019500Y009550D01*
X019478Y009583D01*
X019458Y009617D01*
X019442Y009654D01*
X019429Y009692D01*
X019419Y009731D01*
X019413Y009770D01*
X019411Y009810D01*
X019420Y009810D01*
X019422Y009771D01*
X019428Y009732D01*
X019437Y009694D01*
X019450Y009657D01*
X019466Y009621D01*
X019485Y009587D01*
X019507Y009555D01*
X019532Y009525D01*
X019560Y009497D01*
X019590Y009472D01*
X019622Y009450D01*
X019656Y009431D01*
X019692Y009415D01*
X019729Y009402D01*
X019767Y009393D01*
X019806Y009387D01*
X019845Y009385D01*
X018224Y009819D02*
X018174Y009819D01*
X018175Y009820D02*
X018173Y009876D01*
X018167Y009931D01*
X018157Y009986D01*
X018144Y010041D01*
X018126Y010094D01*
X018106Y010146D01*
X018082Y010196D01*
X018054Y010245D01*
X018023Y010292D01*
X017990Y010336D01*
X017953Y010378D01*
X017913Y010418D01*
X017871Y010455D01*
X017827Y010488D01*
X017780Y010519D01*
X017731Y010547D01*
X017681Y010571D01*
X017629Y010591D01*
X017576Y010609D01*
X017521Y010622D01*
X017466Y010632D01*
X017411Y010638D01*
X017355Y010640D01*
X017354Y010689D01*
X017355Y010690D01*
X017412Y010688D01*
X017468Y010682D01*
X017524Y010672D01*
X017580Y010659D01*
X017634Y010643D01*
X017687Y010622D01*
X017739Y010599D01*
X017789Y010572D01*
X017837Y010542D01*
X017883Y010509D01*
X017927Y010473D01*
X017969Y010434D01*
X018008Y010392D01*
X018044Y010348D01*
X018077Y010302D01*
X018107Y010254D01*
X018134Y010204D01*
X018157Y010152D01*
X018178Y010099D01*
X018194Y010045D01*
X018207Y009989D01*
X018217Y009933D01*
X018223Y009877D01*
X018225Y009820D01*
X018216Y009820D01*
X018214Y009876D01*
X018208Y009932D01*
X018199Y009988D01*
X018186Y010042D01*
X018169Y010096D01*
X018149Y010149D01*
X018126Y010200D01*
X018099Y010249D01*
X018069Y010297D01*
X018037Y010343D01*
X018001Y010386D01*
X017962Y010427D01*
X017921Y010466D01*
X017878Y010502D01*
X017832Y010534D01*
X017784Y010564D01*
X017735Y010591D01*
X017684Y010614D01*
X017631Y010634D01*
X017577Y010651D01*
X017523Y010664D01*
X017467Y010673D01*
X017411Y010679D01*
X017355Y010681D01*
X017355Y010672D01*
X017413Y010670D01*
X017471Y010663D01*
X017528Y010653D01*
X017584Y010639D01*
X017640Y010622D01*
X017694Y010600D01*
X017746Y010575D01*
X017797Y010546D01*
X017845Y010515D01*
X017891Y010479D01*
X017935Y010441D01*
X017976Y010400D01*
X018014Y010356D01*
X018050Y010310D01*
X018081Y010262D01*
X018110Y010211D01*
X018135Y010159D01*
X018157Y010105D01*
X018174Y010049D01*
X018188Y009993D01*
X018198Y009936D01*
X018205Y009878D01*
X018207Y009820D01*
X018198Y009820D01*
X018196Y009877D01*
X018190Y009935D01*
X018180Y009991D01*
X018166Y010047D01*
X018148Y010102D01*
X018127Y010155D01*
X018102Y010207D01*
X018074Y010257D01*
X018042Y010305D01*
X018007Y010351D01*
X017970Y010394D01*
X017929Y010435D01*
X017886Y010472D01*
X017840Y010507D01*
X017792Y010539D01*
X017742Y010567D01*
X017690Y010592D01*
X017637Y010613D01*
X017582Y010631D01*
X017526Y010645D01*
X017470Y010655D01*
X017412Y010661D01*
X017355Y010663D01*
X017355Y010654D01*
X017412Y010652D01*
X017468Y010646D01*
X017524Y010636D01*
X017579Y010622D01*
X017634Y010605D01*
X017686Y010584D01*
X017738Y010559D01*
X017787Y010531D01*
X017835Y010500D01*
X017880Y010465D01*
X017923Y010428D01*
X017963Y010388D01*
X018000Y010345D01*
X018035Y010300D01*
X018066Y010252D01*
X018094Y010203D01*
X018119Y010151D01*
X018140Y010099D01*
X018157Y010044D01*
X018171Y009989D01*
X018181Y009933D01*
X018187Y009877D01*
X018189Y009820D01*
X018180Y009820D01*
X018178Y009876D01*
X018172Y009932D01*
X018162Y009987D01*
X018148Y010042D01*
X018131Y010096D01*
X018110Y010148D01*
X018086Y010199D01*
X018058Y010248D01*
X018027Y010295D01*
X017993Y010339D01*
X017956Y010382D01*
X017917Y010421D01*
X017874Y010458D01*
X017830Y010492D01*
X017783Y010523D01*
X017734Y010551D01*
X017683Y010575D01*
X017631Y010596D01*
X017577Y010613D01*
X017522Y010627D01*
X017467Y010637D01*
X017411Y010643D01*
X017355Y010645D01*
X016476Y009811D02*
X016526Y009811D01*
X016525Y009810D02*
X016527Y009754D01*
X016533Y009699D01*
X016543Y009644D01*
X016556Y009589D01*
X016574Y009536D01*
X016594Y009484D01*
X016618Y009434D01*
X016646Y009385D01*
X016677Y009338D01*
X016710Y009294D01*
X016747Y009252D01*
X016787Y009212D01*
X016829Y009175D01*
X016873Y009142D01*
X016920Y009111D01*
X016969Y009083D01*
X017019Y009059D01*
X017071Y009039D01*
X017124Y009021D01*
X017179Y009008D01*
X017234Y008998D01*
X017289Y008992D01*
X017345Y008990D01*
X017346Y008941D01*
X017345Y008940D01*
X017288Y008942D01*
X017232Y008948D01*
X017176Y008958D01*
X017120Y008971D01*
X017066Y008987D01*
X017013Y009008D01*
X016961Y009031D01*
X016911Y009058D01*
X016863Y009088D01*
X016817Y009121D01*
X016773Y009157D01*
X016731Y009196D01*
X016692Y009238D01*
X016656Y009282D01*
X016623Y009328D01*
X016593Y009376D01*
X016566Y009426D01*
X016543Y009478D01*
X016522Y009531D01*
X016506Y009585D01*
X016493Y009641D01*
X016483Y009697D01*
X016477Y009753D01*
X016475Y009810D01*
X016484Y009810D01*
X016486Y009754D01*
X016492Y009698D01*
X016501Y009642D01*
X016514Y009588D01*
X016531Y009534D01*
X016551Y009481D01*
X016574Y009430D01*
X016601Y009381D01*
X016631Y009333D01*
X016663Y009287D01*
X016699Y009244D01*
X016738Y009203D01*
X016779Y009164D01*
X016822Y009128D01*
X016868Y009096D01*
X016916Y009066D01*
X016965Y009039D01*
X017016Y009016D01*
X017069Y008996D01*
X017123Y008979D01*
X017177Y008966D01*
X017233Y008957D01*
X017289Y008951D01*
X017345Y008949D01*
X017345Y008958D01*
X017287Y008960D01*
X017229Y008967D01*
X017172Y008977D01*
X017116Y008991D01*
X017060Y009008D01*
X017006Y009030D01*
X016954Y009055D01*
X016903Y009084D01*
X016855Y009115D01*
X016809Y009151D01*
X016765Y009189D01*
X016724Y009230D01*
X016686Y009274D01*
X016650Y009320D01*
X016619Y009368D01*
X016590Y009419D01*
X016565Y009471D01*
X016543Y009525D01*
X016526Y009581D01*
X016512Y009637D01*
X016502Y009694D01*
X016495Y009752D01*
X016493Y009810D01*
X016502Y009810D01*
X016504Y009753D01*
X016510Y009695D01*
X016520Y009639D01*
X016534Y009583D01*
X016552Y009528D01*
X016573Y009475D01*
X016598Y009423D01*
X016626Y009373D01*
X016658Y009325D01*
X016693Y009279D01*
X016730Y009236D01*
X016771Y009195D01*
X016814Y009158D01*
X016860Y009123D01*
X016908Y009091D01*
X016958Y009063D01*
X017010Y009038D01*
X017063Y009017D01*
X017118Y008999D01*
X017174Y008985D01*
X017230Y008975D01*
X017288Y008969D01*
X017345Y008967D01*
X017345Y008976D01*
X017288Y008978D01*
X017232Y008984D01*
X017176Y008994D01*
X017121Y009008D01*
X017066Y009025D01*
X017014Y009046D01*
X016962Y009071D01*
X016913Y009099D01*
X016865Y009130D01*
X016820Y009165D01*
X016777Y009202D01*
X016737Y009242D01*
X016700Y009285D01*
X016665Y009330D01*
X016634Y009378D01*
X016606Y009427D01*
X016581Y009479D01*
X016560Y009531D01*
X016543Y009586D01*
X016529Y009641D01*
X016519Y009697D01*
X016513Y009753D01*
X016511Y009810D01*
X016520Y009810D01*
X016522Y009754D01*
X016528Y009698D01*
X016538Y009643D01*
X016552Y009588D01*
X016569Y009534D01*
X016590Y009482D01*
X016614Y009431D01*
X016642Y009382D01*
X016673Y009335D01*
X016707Y009291D01*
X016744Y009248D01*
X016783Y009209D01*
X016826Y009172D01*
X016870Y009138D01*
X016917Y009107D01*
X016966Y009079D01*
X017017Y009055D01*
X017069Y009034D01*
X017123Y009017D01*
X017178Y009003D01*
X017233Y008993D01*
X017289Y008987D01*
X017345Y008985D01*
X016570Y010847D02*
X016624Y010775D01*
X016623Y010776D02*
X016570Y010733D01*
X016519Y010688D01*
X016471Y010639D01*
X016426Y010588D01*
X016383Y010534D01*
X016344Y010478D01*
X016308Y010420D01*
X016275Y010360D01*
X016246Y010299D01*
X016221Y010235D01*
X016199Y010171D01*
X016180Y010105D01*
X016166Y010038D01*
X016155Y009971D01*
X016148Y009903D01*
X016145Y009835D01*
X016146Y009766D01*
X016151Y009698D01*
X016159Y009630D01*
X016172Y009563D01*
X016188Y009497D01*
X016208Y009432D01*
X016231Y009367D01*
X016258Y009305D01*
X016289Y009244D01*
X016323Y009185D01*
X016360Y009127D01*
X016401Y009072D01*
X016445Y009020D01*
X016491Y008970D01*
X016540Y008923D01*
X016592Y008878D01*
X016646Y008837D01*
X016703Y008798D01*
X016762Y008763D01*
X016822Y008732D01*
X016884Y008704D01*
X016948Y008679D01*
X017013Y008658D01*
X017079Y008641D01*
X017146Y008627D01*
X017214Y008618D01*
X017282Y008612D01*
X017350Y008610D01*
X017418Y008612D01*
X017486Y008618D01*
X017554Y008627D01*
X017621Y008641D01*
X017687Y008658D01*
X017752Y008679D01*
X017816Y008704D01*
X017878Y008732D01*
X017938Y008763D01*
X017997Y008798D01*
X018054Y008837D01*
X018108Y008878D01*
X018160Y008923D01*
X018209Y008970D01*
X018255Y009020D01*
X018299Y009072D01*
X018340Y009127D01*
X018377Y009185D01*
X018411Y009244D01*
X018442Y009305D01*
X018469Y009367D01*
X018492Y009432D01*
X018512Y009497D01*
X018528Y009563D01*
X018541Y009630D01*
X018549Y009698D01*
X018554Y009766D01*
X018555Y009835D01*
X018552Y009903D01*
X018545Y009971D01*
X018534Y010038D01*
X018520Y010105D01*
X018501Y010171D01*
X018479Y010235D01*
X018454Y010299D01*
X018425Y010360D01*
X018392Y010420D01*
X018356Y010478D01*
X018317Y010534D01*
X018274Y010588D01*
X018229Y010639D01*
X018181Y010688D01*
X018130Y010733D01*
X018077Y010776D01*
X018130Y010847D01*
X018131Y010848D01*
X018186Y010804D01*
X018239Y010756D01*
X018290Y010706D01*
X018337Y010653D01*
X018381Y010598D01*
X018423Y010540D01*
X018461Y010480D01*
X018496Y010419D01*
X018527Y010355D01*
X018555Y010290D01*
X018579Y010223D01*
X018600Y010155D01*
X018616Y010086D01*
X018629Y010016D01*
X018638Y009946D01*
X018644Y009875D01*
X018645Y009804D01*
X018642Y009733D01*
X018636Y009662D01*
X018626Y009592D01*
X018612Y009523D01*
X018594Y009454D01*
X018572Y009386D01*
X018547Y009320D01*
X018518Y009255D01*
X018485Y009192D01*
X018449Y009131D01*
X018410Y009072D01*
X018368Y009015D01*
X018323Y008960D01*
X018274Y008908D01*
X018223Y008859D01*
X018170Y008812D01*
X018113Y008769D01*
X018055Y008729D01*
X017994Y008692D01*
X017932Y008658D01*
X017868Y008628D01*
X017802Y008601D01*
X017735Y008578D01*
X017666Y008559D01*
X017597Y008544D01*
X017527Y008532D01*
X017456Y008524D01*
X017385Y008520D01*
X017315Y008520D01*
X017244Y008524D01*
X017173Y008532D01*
X017103Y008544D01*
X017034Y008559D01*
X016965Y008578D01*
X016898Y008601D01*
X016832Y008628D01*
X016768Y008658D01*
X016706Y008692D01*
X016645Y008729D01*
X016587Y008769D01*
X016530Y008812D01*
X016477Y008859D01*
X016426Y008908D01*
X016377Y008960D01*
X016332Y009015D01*
X016290Y009072D01*
X016251Y009131D01*
X016215Y009192D01*
X016182Y009255D01*
X016153Y009320D01*
X016128Y009386D01*
X016106Y009454D01*
X016088Y009523D01*
X016074Y009592D01*
X016064Y009662D01*
X016058Y009733D01*
X016055Y009804D01*
X016056Y009875D01*
X016062Y009946D01*
X016071Y010016D01*
X016084Y010086D01*
X016100Y010155D01*
X016121Y010223D01*
X016145Y010290D01*
X016173Y010355D01*
X016204Y010419D01*
X016239Y010480D01*
X016277Y010540D01*
X016319Y010598D01*
X016363Y010653D01*
X016410Y010706D01*
X016461Y010756D01*
X016514Y010804D01*
X016569Y010848D01*
X016574Y010841D01*
X016519Y010796D01*
X016466Y010749D01*
X016415Y010698D01*
X016368Y010645D01*
X016323Y010589D01*
X016282Y010531D01*
X016244Y010471D01*
X016209Y010409D01*
X016178Y010345D01*
X016151Y010279D01*
X016127Y010212D01*
X016107Y010143D01*
X016090Y010074D01*
X016078Y010004D01*
X016069Y009933D01*
X016065Y009862D01*
X016064Y009791D01*
X016068Y009720D01*
X016075Y009649D01*
X016086Y009578D01*
X016101Y009509D01*
X016120Y009440D01*
X016143Y009372D01*
X016169Y009306D01*
X016199Y009241D01*
X016233Y009179D01*
X016269Y009118D01*
X016310Y009059D01*
X016353Y009002D01*
X016400Y008948D01*
X016449Y008897D01*
X016502Y008849D01*
X016556Y008803D01*
X016614Y008761D01*
X016673Y008722D01*
X016735Y008686D01*
X016798Y008653D01*
X016863Y008625D01*
X016930Y008599D01*
X016998Y008578D01*
X017067Y008560D01*
X017137Y008547D01*
X017208Y008537D01*
X017279Y008531D01*
X017350Y008529D01*
X017421Y008531D01*
X017492Y008537D01*
X017563Y008547D01*
X017633Y008560D01*
X017702Y008578D01*
X017770Y008599D01*
X017837Y008625D01*
X017902Y008653D01*
X017965Y008686D01*
X018027Y008722D01*
X018086Y008761D01*
X018144Y008803D01*
X018198Y008849D01*
X018251Y008897D01*
X018300Y008948D01*
X018347Y009002D01*
X018390Y009059D01*
X018431Y009118D01*
X018467Y009179D01*
X018501Y009241D01*
X018531Y009306D01*
X018557Y009372D01*
X018580Y009440D01*
X018599Y009509D01*
X018614Y009578D01*
X018625Y009649D01*
X018632Y009720D01*
X018636Y009791D01*
X018635Y009862D01*
X018631Y009933D01*
X018622Y010004D01*
X018610Y010074D01*
X018593Y010143D01*
X018573Y010212D01*
X018549Y010279D01*
X018522Y010345D01*
X018491Y010409D01*
X018456Y010471D01*
X018418Y010531D01*
X018377Y010589D01*
X018332Y010645D01*
X018285Y010698D01*
X018234Y010749D01*
X018181Y010796D01*
X018126Y010841D01*
X018120Y010834D01*
X018175Y010789D01*
X018228Y010742D01*
X018278Y010692D01*
X018325Y010639D01*
X018369Y010584D01*
X018411Y010526D01*
X018448Y010467D01*
X018483Y010405D01*
X018514Y010341D01*
X018541Y010276D01*
X018565Y010209D01*
X018585Y010141D01*
X018601Y010072D01*
X018613Y010003D01*
X018622Y009932D01*
X018626Y009862D01*
X018627Y009791D01*
X018623Y009720D01*
X018616Y009650D01*
X018605Y009580D01*
X018590Y009511D01*
X018571Y009443D01*
X018549Y009375D01*
X018523Y009310D01*
X018493Y009245D01*
X018460Y009183D01*
X018423Y009123D01*
X018383Y009064D01*
X018340Y009008D01*
X018294Y008954D01*
X018244Y008904D01*
X018193Y008855D01*
X018138Y008810D01*
X018081Y008768D01*
X018022Y008729D01*
X017961Y008694D01*
X017898Y008661D01*
X017833Y008633D01*
X017767Y008608D01*
X017699Y008587D01*
X017631Y008569D01*
X017561Y008556D01*
X017491Y008546D01*
X017421Y008540D01*
X017350Y008538D01*
X017279Y008540D01*
X017209Y008546D01*
X017139Y008556D01*
X017069Y008569D01*
X017001Y008587D01*
X016933Y008608D01*
X016867Y008633D01*
X016802Y008661D01*
X016739Y008694D01*
X016678Y008729D01*
X016619Y008768D01*
X016562Y008810D01*
X016507Y008855D01*
X016456Y008904D01*
X016406Y008954D01*
X016360Y009008D01*
X016317Y009064D01*
X016277Y009123D01*
X016240Y009183D01*
X016207Y009245D01*
X016177Y009310D01*
X016151Y009375D01*
X016129Y009443D01*
X016110Y009511D01*
X016095Y009580D01*
X016084Y009650D01*
X016077Y009720D01*
X016073Y009791D01*
X016074Y009862D01*
X016078Y009932D01*
X016087Y010003D01*
X016099Y010072D01*
X016115Y010141D01*
X016135Y010209D01*
X016159Y010276D01*
X016186Y010341D01*
X016217Y010405D01*
X016252Y010467D01*
X016289Y010526D01*
X016331Y010584D01*
X016375Y010639D01*
X016422Y010692D01*
X016472Y010742D01*
X016525Y010789D01*
X016580Y010834D01*
X016585Y010826D01*
X016530Y010782D01*
X016477Y010734D01*
X016427Y010684D01*
X016379Y010631D01*
X016335Y010575D01*
X016294Y010517D01*
X016257Y010457D01*
X016222Y010395D01*
X016192Y010331D01*
X016165Y010265D01*
X016141Y010198D01*
X016122Y010130D01*
X016106Y010060D01*
X016094Y009990D01*
X016086Y009920D01*
X016082Y009849D01*
X016083Y009778D01*
X016087Y009707D01*
X016095Y009636D01*
X016107Y009566D01*
X016123Y009497D01*
X016142Y009429D01*
X016166Y009361D01*
X016193Y009296D01*
X016224Y009232D01*
X016258Y009170D01*
X016296Y009110D01*
X016338Y009052D01*
X016382Y008996D01*
X016429Y008943D01*
X016480Y008893D01*
X016533Y008846D01*
X016588Y008801D01*
X016646Y008760D01*
X016706Y008723D01*
X016769Y008688D01*
X016833Y008657D01*
X016898Y008630D01*
X016965Y008607D01*
X017034Y008587D01*
X017103Y008571D01*
X017173Y008559D01*
X017244Y008551D01*
X017314Y008547D01*
X017386Y008547D01*
X017456Y008551D01*
X017527Y008559D01*
X017597Y008571D01*
X017666Y008587D01*
X017735Y008607D01*
X017802Y008630D01*
X017867Y008657D01*
X017931Y008688D01*
X017994Y008723D01*
X018054Y008760D01*
X018112Y008801D01*
X018167Y008846D01*
X018220Y008893D01*
X018271Y008943D01*
X018318Y008996D01*
X018362Y009052D01*
X018404Y009110D01*
X018442Y009170D01*
X018476Y009232D01*
X018507Y009296D01*
X018534Y009361D01*
X018558Y009429D01*
X018577Y009497D01*
X018593Y009566D01*
X018605Y009636D01*
X018613Y009707D01*
X018617Y009778D01*
X018618Y009849D01*
X018614Y009920D01*
X018606Y009990D01*
X018594Y010060D01*
X018578Y010130D01*
X018559Y010198D01*
X018535Y010265D01*
X018508Y010331D01*
X018478Y010395D01*
X018443Y010457D01*
X018406Y010517D01*
X018365Y010575D01*
X018321Y010631D01*
X018273Y010684D01*
X018223Y010734D01*
X018170Y010782D01*
X018115Y010826D01*
X018109Y010819D01*
X018164Y010775D01*
X018217Y010728D01*
X018267Y010678D01*
X018314Y010625D01*
X018358Y010570D01*
X018398Y010512D01*
X018436Y010453D01*
X018470Y010391D01*
X018500Y010327D01*
X018527Y010262D01*
X018550Y010195D01*
X018570Y010127D01*
X018585Y010059D01*
X018597Y009989D01*
X018605Y009919D01*
X018609Y009848D01*
X018608Y009778D01*
X018604Y009707D01*
X018596Y009637D01*
X018584Y009568D01*
X018569Y009499D01*
X018549Y009431D01*
X018526Y009365D01*
X018499Y009300D01*
X018468Y009236D01*
X018434Y009174D01*
X018396Y009115D01*
X018355Y009057D01*
X018311Y009002D01*
X018264Y008949D01*
X018214Y008900D01*
X018162Y008853D01*
X018106Y008809D01*
X018049Y008768D01*
X017989Y008730D01*
X017927Y008696D01*
X017864Y008666D01*
X017799Y008639D01*
X017732Y008615D01*
X017664Y008596D01*
X017595Y008580D01*
X017526Y008568D01*
X017456Y008560D01*
X017385Y008556D01*
X017315Y008556D01*
X017244Y008560D01*
X017174Y008568D01*
X017105Y008580D01*
X017036Y008596D01*
X016968Y008615D01*
X016901Y008639D01*
X016836Y008666D01*
X016773Y008696D01*
X016711Y008730D01*
X016651Y008768D01*
X016594Y008809D01*
X016538Y008853D01*
X016486Y008900D01*
X016436Y008949D01*
X016389Y009002D01*
X016345Y009057D01*
X016304Y009115D01*
X016266Y009174D01*
X016232Y009236D01*
X016201Y009300D01*
X016174Y009365D01*
X016151Y009431D01*
X016131Y009499D01*
X016116Y009568D01*
X016104Y009637D01*
X016096Y009707D01*
X016092Y009778D01*
X016091Y009848D01*
X016095Y009919D01*
X016103Y009989D01*
X016115Y010059D01*
X016130Y010127D01*
X016150Y010195D01*
X016173Y010262D01*
X016200Y010327D01*
X016230Y010391D01*
X016264Y010453D01*
X016302Y010512D01*
X016342Y010570D01*
X016386Y010625D01*
X016433Y010678D01*
X016483Y010728D01*
X016536Y010775D01*
X016591Y010819D01*
X016596Y010812D01*
X016541Y010768D01*
X016489Y010721D01*
X016440Y010672D01*
X016393Y010619D01*
X016350Y010565D01*
X016309Y010507D01*
X016272Y010448D01*
X016238Y010387D01*
X016208Y010323D01*
X016181Y010259D01*
X016158Y010192D01*
X016139Y010125D01*
X016124Y010057D01*
X016112Y009988D01*
X016104Y009918D01*
X016100Y009848D01*
X016101Y009778D01*
X016105Y009708D01*
X016113Y009639D01*
X016124Y009570D01*
X016140Y009501D01*
X016159Y009434D01*
X016183Y009368D01*
X016210Y009303D01*
X016240Y009240D01*
X016274Y009179D01*
X016311Y009120D01*
X016352Y009062D01*
X016396Y009008D01*
X016442Y008956D01*
X016492Y008906D01*
X016544Y008859D01*
X016599Y008816D01*
X016656Y008775D01*
X016715Y008738D01*
X016777Y008704D01*
X016840Y008674D01*
X016905Y008647D01*
X016971Y008624D01*
X017038Y008605D01*
X017106Y008589D01*
X017175Y008577D01*
X017245Y008569D01*
X017315Y008565D01*
X017385Y008565D01*
X017455Y008569D01*
X017525Y008577D01*
X017594Y008589D01*
X017662Y008605D01*
X017729Y008624D01*
X017795Y008647D01*
X017860Y008674D01*
X017923Y008704D01*
X017985Y008738D01*
X018044Y008775D01*
X018101Y008816D01*
X018156Y008859D01*
X018208Y008906D01*
X018258Y008956D01*
X018304Y009008D01*
X018348Y009062D01*
X018389Y009120D01*
X018426Y009179D01*
X018460Y009240D01*
X018490Y009303D01*
X018517Y009368D01*
X018541Y009434D01*
X018560Y009501D01*
X018576Y009570D01*
X018587Y009639D01*
X018595Y009708D01*
X018599Y009778D01*
X018600Y009848D01*
X018596Y009918D01*
X018588Y009988D01*
X018576Y010057D01*
X018561Y010125D01*
X018542Y010192D01*
X018519Y010259D01*
X018492Y010323D01*
X018462Y010387D01*
X018428Y010448D01*
X018391Y010507D01*
X018350Y010565D01*
X018307Y010619D01*
X018260Y010672D01*
X018211Y010721D01*
X018159Y010768D01*
X018104Y010812D01*
X018099Y010805D01*
X018153Y010761D01*
X018205Y010715D01*
X018254Y010666D01*
X018300Y010614D01*
X018343Y010559D01*
X018383Y010502D01*
X018420Y010443D01*
X018454Y010382D01*
X018484Y010320D01*
X018510Y010255D01*
X018533Y010190D01*
X018552Y010123D01*
X018568Y010055D01*
X018579Y009986D01*
X018587Y009917D01*
X018591Y009848D01*
X018590Y009778D01*
X018586Y009709D01*
X018579Y009640D01*
X018567Y009571D01*
X018551Y009504D01*
X018532Y009437D01*
X018509Y009371D01*
X018482Y009307D01*
X018452Y009244D01*
X018418Y009183D01*
X018381Y009125D01*
X018341Y009068D01*
X018298Y009014D01*
X018251Y008962D01*
X018202Y008913D01*
X018150Y008866D01*
X018096Y008823D01*
X018039Y008783D01*
X017980Y008746D01*
X017919Y008712D01*
X017856Y008682D01*
X017792Y008655D01*
X017727Y008632D01*
X017660Y008613D01*
X017592Y008598D01*
X017523Y008586D01*
X017454Y008578D01*
X017385Y008574D01*
X017315Y008574D01*
X017246Y008578D01*
X017177Y008586D01*
X017108Y008598D01*
X017040Y008613D01*
X016973Y008632D01*
X016908Y008655D01*
X016844Y008682D01*
X016781Y008712D01*
X016720Y008746D01*
X016661Y008783D01*
X016604Y008823D01*
X016550Y008866D01*
X016498Y008913D01*
X016449Y008962D01*
X016402Y009014D01*
X016359Y009068D01*
X016319Y009125D01*
X016282Y009183D01*
X016248Y009244D01*
X016218Y009307D01*
X016191Y009371D01*
X016168Y009437D01*
X016149Y009504D01*
X016133Y009571D01*
X016121Y009640D01*
X016114Y009709D01*
X016110Y009778D01*
X016109Y009848D01*
X016113Y009917D01*
X016121Y009986D01*
X016132Y010055D01*
X016148Y010123D01*
X016167Y010190D01*
X016190Y010255D01*
X016216Y010320D01*
X016246Y010382D01*
X016280Y010443D01*
X016317Y010502D01*
X016357Y010559D01*
X016400Y010614D01*
X016446Y010666D01*
X016495Y010715D01*
X016547Y010761D01*
X016601Y010805D01*
X016607Y010798D01*
X016553Y010754D01*
X016502Y010708D01*
X016453Y010659D01*
X016407Y010608D01*
X016364Y010554D01*
X016324Y010497D01*
X016288Y010439D01*
X016254Y010378D01*
X016224Y010316D01*
X016198Y010252D01*
X016176Y010187D01*
X016157Y010121D01*
X016141Y010053D01*
X016130Y009985D01*
X016122Y009917D01*
X016118Y009848D01*
X016119Y009779D01*
X016123Y009710D01*
X016130Y009641D01*
X016142Y009573D01*
X016157Y009506D01*
X016177Y009439D01*
X016200Y009374D01*
X016226Y009311D01*
X016256Y009248D01*
X016289Y009188D01*
X016326Y009130D01*
X016366Y009073D01*
X016409Y009019D01*
X016455Y008968D01*
X016504Y008919D01*
X016556Y008873D01*
X016610Y008830D01*
X016666Y008790D01*
X016725Y008754D01*
X016785Y008720D01*
X016847Y008690D01*
X016911Y008664D01*
X016976Y008641D01*
X017043Y008622D01*
X017110Y008607D01*
X017178Y008595D01*
X017247Y008587D01*
X017315Y008583D01*
X017385Y008583D01*
X017453Y008587D01*
X017522Y008595D01*
X017590Y008607D01*
X017657Y008622D01*
X017724Y008641D01*
X017789Y008664D01*
X017853Y008690D01*
X017915Y008720D01*
X017975Y008754D01*
X018034Y008790D01*
X018090Y008830D01*
X018144Y008873D01*
X018196Y008919D01*
X018245Y008968D01*
X018291Y009019D01*
X018334Y009073D01*
X018374Y009130D01*
X018411Y009188D01*
X018444Y009248D01*
X018474Y009311D01*
X018500Y009374D01*
X018523Y009439D01*
X018543Y009506D01*
X018558Y009573D01*
X018570Y009641D01*
X018577Y009710D01*
X018581Y009779D01*
X018582Y009848D01*
X018578Y009917D01*
X018570Y009985D01*
X018559Y010053D01*
X018543Y010121D01*
X018524Y010187D01*
X018502Y010252D01*
X018476Y010316D01*
X018446Y010378D01*
X018412Y010439D01*
X018376Y010497D01*
X018336Y010554D01*
X018293Y010608D01*
X018247Y010659D01*
X018198Y010708D01*
X018147Y010754D01*
X018093Y010798D01*
X018088Y010790D01*
X018142Y010747D01*
X018193Y010701D01*
X018242Y010651D01*
X018288Y010600D01*
X018331Y010545D01*
X018371Y010488D01*
X018407Y010430D01*
X018441Y010369D01*
X018470Y010306D01*
X018496Y010242D01*
X018518Y010176D01*
X018537Y010109D01*
X018552Y010042D01*
X018563Y009973D01*
X018570Y009904D01*
X018573Y009835D01*
X018572Y009766D01*
X018567Y009696D01*
X018559Y009628D01*
X018546Y009560D01*
X018530Y009492D01*
X018509Y009426D01*
X018486Y009361D01*
X018458Y009297D01*
X018427Y009235D01*
X018392Y009175D01*
X018354Y009117D01*
X018313Y009061D01*
X018269Y009008D01*
X018222Y008957D01*
X018172Y008909D01*
X018119Y008864D01*
X018064Y008822D01*
X018007Y008783D01*
X017947Y008748D01*
X017886Y008716D01*
X017823Y008687D01*
X017758Y008662D01*
X017692Y008641D01*
X017625Y008623D01*
X017557Y008610D01*
X017488Y008600D01*
X017419Y008594D01*
X017350Y008592D01*
X017281Y008594D01*
X017212Y008600D01*
X017143Y008610D01*
X017075Y008623D01*
X017008Y008641D01*
X016942Y008662D01*
X016877Y008687D01*
X016814Y008716D01*
X016753Y008748D01*
X016693Y008783D01*
X016636Y008822D01*
X016581Y008864D01*
X016528Y008909D01*
X016478Y008957D01*
X016431Y009008D01*
X016387Y009061D01*
X016346Y009117D01*
X016308Y009175D01*
X016273Y009235D01*
X016242Y009297D01*
X016214Y009361D01*
X016191Y009426D01*
X016170Y009492D01*
X016154Y009560D01*
X016141Y009628D01*
X016133Y009696D01*
X016128Y009766D01*
X016127Y009835D01*
X016130Y009904D01*
X016137Y009973D01*
X016148Y010042D01*
X016163Y010109D01*
X016182Y010176D01*
X016204Y010242D01*
X016230Y010306D01*
X016259Y010369D01*
X016293Y010430D01*
X016329Y010488D01*
X016369Y010545D01*
X016412Y010600D01*
X016458Y010651D01*
X016507Y010701D01*
X016558Y010747D01*
X016612Y010790D01*
X016618Y010783D01*
X016564Y010740D01*
X016513Y010694D01*
X016464Y010645D01*
X016419Y010594D01*
X016376Y010540D01*
X016337Y010483D01*
X016300Y010425D01*
X016267Y010365D01*
X016238Y010302D01*
X016212Y010239D01*
X016190Y010173D01*
X016172Y010107D01*
X016157Y010040D01*
X016146Y009972D01*
X016139Y009903D01*
X016136Y009835D01*
X016137Y009766D01*
X016142Y009697D01*
X016150Y009629D01*
X016163Y009561D01*
X016179Y009495D01*
X016199Y009429D01*
X016223Y009364D01*
X016250Y009301D01*
X016281Y009240D01*
X016315Y009180D01*
X016353Y009122D01*
X016394Y009067D01*
X016438Y009014D01*
X016485Y008964D01*
X016534Y008916D01*
X016586Y008871D01*
X016641Y008829D01*
X016698Y008791D01*
X016757Y008756D01*
X016818Y008724D01*
X016881Y008695D01*
X016945Y008671D01*
X017011Y008649D01*
X017077Y008632D01*
X017145Y008619D01*
X017213Y008609D01*
X017281Y008603D01*
X017350Y008601D01*
X017419Y008603D01*
X017487Y008609D01*
X017555Y008619D01*
X017623Y008632D01*
X017689Y008649D01*
X017755Y008671D01*
X017819Y008695D01*
X017882Y008724D01*
X017943Y008756D01*
X018002Y008791D01*
X018059Y008829D01*
X018114Y008871D01*
X018166Y008916D01*
X018215Y008964D01*
X018262Y009014D01*
X018306Y009067D01*
X018347Y009122D01*
X018385Y009180D01*
X018419Y009240D01*
X018450Y009301D01*
X018477Y009364D01*
X018501Y009429D01*
X018521Y009495D01*
X018537Y009561D01*
X018550Y009629D01*
X018558Y009697D01*
X018563Y009766D01*
X018564Y009835D01*
X018561Y009903D01*
X018554Y009972D01*
X018543Y010040D01*
X018528Y010107D01*
X018510Y010173D01*
X018488Y010239D01*
X018462Y010302D01*
X018433Y010365D01*
X018400Y010425D01*
X018363Y010483D01*
X018324Y010540D01*
X018281Y010594D01*
X018236Y010645D01*
X018187Y010694D01*
X018136Y010740D01*
X018082Y010783D01*
X018024Y009819D02*
X017974Y009819D01*
X017975Y009820D02*
X017973Y009869D01*
X017967Y009917D01*
X017957Y009964D01*
X017943Y010011D01*
X017926Y010056D01*
X017906Y010101D01*
X017882Y010143D01*
X017855Y010183D01*
X017825Y010221D01*
X017792Y010257D01*
X017756Y010290D01*
X017718Y010320D01*
X017678Y010347D01*
X017636Y010371D01*
X017591Y010391D01*
X017546Y010408D01*
X017499Y010422D01*
X017452Y010432D01*
X017404Y010438D01*
X017355Y010440D01*
X017354Y010489D01*
X017355Y010490D01*
X017405Y010488D01*
X017455Y010482D01*
X017504Y010472D01*
X017552Y010459D01*
X017599Y010442D01*
X017645Y010422D01*
X017689Y010399D01*
X017731Y010372D01*
X017771Y010342D01*
X017809Y010310D01*
X017845Y010274D01*
X017877Y010236D01*
X017907Y010196D01*
X017934Y010154D01*
X017957Y010110D01*
X017977Y010064D01*
X017994Y010017D01*
X018007Y009969D01*
X018017Y009920D01*
X018023Y009870D01*
X018025Y009820D01*
X018016Y009820D01*
X018014Y009869D01*
X018008Y009918D01*
X017998Y009967D01*
X017985Y010014D01*
X017969Y010061D01*
X017949Y010106D01*
X017926Y010149D01*
X017900Y010191D01*
X017870Y010231D01*
X017838Y010268D01*
X017803Y010303D01*
X017766Y010335D01*
X017726Y010365D01*
X017684Y010391D01*
X017641Y010414D01*
X017596Y010434D01*
X017549Y010450D01*
X017502Y010463D01*
X017453Y010473D01*
X017404Y010479D01*
X017355Y010481D01*
X017355Y010472D01*
X017404Y010470D01*
X017452Y010464D01*
X017500Y010455D01*
X017547Y010442D01*
X017592Y010426D01*
X017637Y010406D01*
X017680Y010383D01*
X017721Y010357D01*
X017760Y010328D01*
X017797Y010296D01*
X017831Y010262D01*
X017863Y010225D01*
X017892Y010186D01*
X017918Y010145D01*
X017941Y010102D01*
X017961Y010057D01*
X017977Y010012D01*
X017990Y009965D01*
X017999Y009917D01*
X018005Y009869D01*
X018007Y009820D01*
X017998Y009820D01*
X017996Y009870D01*
X017989Y009920D01*
X017979Y009970D01*
X017965Y010018D01*
X017948Y010065D01*
X017926Y010111D01*
X017902Y010155D01*
X017874Y010197D01*
X017842Y010236D01*
X017808Y010273D01*
X017771Y010307D01*
X017732Y010339D01*
X017690Y010367D01*
X017646Y010391D01*
X017600Y010413D01*
X017553Y010430D01*
X017505Y010444D01*
X017455Y010454D01*
X017405Y010461D01*
X017355Y010463D01*
X017355Y010454D01*
X017405Y010452D01*
X017454Y010445D01*
X017503Y010436D01*
X017550Y010422D01*
X017597Y010404D01*
X017642Y010383D01*
X017685Y010359D01*
X017726Y010331D01*
X017765Y010301D01*
X017802Y010267D01*
X017836Y010230D01*
X017866Y010191D01*
X017894Y010150D01*
X017918Y010107D01*
X017939Y010062D01*
X017957Y010015D01*
X017971Y009968D01*
X017980Y009919D01*
X017987Y009870D01*
X017989Y009820D01*
X017980Y009820D01*
X017978Y009869D01*
X017972Y009918D01*
X017962Y009965D01*
X017948Y010013D01*
X017931Y010058D01*
X017910Y010103D01*
X017886Y010145D01*
X017859Y010186D01*
X017829Y010225D01*
X017795Y010260D01*
X017760Y010294D01*
X017721Y010324D01*
X017680Y010351D01*
X017638Y010375D01*
X017593Y010396D01*
X017548Y010413D01*
X017500Y010427D01*
X017453Y010437D01*
X017404Y010443D01*
X017355Y010445D01*
X016676Y009811D02*
X016726Y009811D01*
X016725Y009810D02*
X016727Y009761D01*
X016733Y009713D01*
X016743Y009666D01*
X016757Y009619D01*
X016774Y009574D01*
X016794Y009529D01*
X016818Y009487D01*
X016845Y009447D01*
X016875Y009409D01*
X016908Y009373D01*
X016944Y009340D01*
X016982Y009310D01*
X017022Y009283D01*
X017064Y009259D01*
X017109Y009239D01*
X017154Y009222D01*
X017201Y009208D01*
X017248Y009198D01*
X017296Y009192D01*
X017345Y009190D01*
X017346Y009141D01*
X017345Y009140D01*
X017295Y009142D01*
X017245Y009148D01*
X017196Y009158D01*
X017148Y009171D01*
X017101Y009188D01*
X017055Y009208D01*
X017011Y009231D01*
X016969Y009258D01*
X016929Y009288D01*
X016891Y009320D01*
X016855Y009356D01*
X016823Y009394D01*
X016793Y009434D01*
X016766Y009476D01*
X016743Y009520D01*
X016723Y009566D01*
X016706Y009613D01*
X016693Y009661D01*
X016683Y009710D01*
X016677Y009760D01*
X016675Y009810D01*
X016684Y009810D01*
X016686Y009761D01*
X016692Y009712D01*
X016702Y009663D01*
X016715Y009616D01*
X016731Y009569D01*
X016751Y009524D01*
X016774Y009481D01*
X016800Y009439D01*
X016830Y009399D01*
X016862Y009362D01*
X016897Y009327D01*
X016934Y009295D01*
X016974Y009265D01*
X017016Y009239D01*
X017059Y009216D01*
X017104Y009196D01*
X017151Y009180D01*
X017198Y009167D01*
X017247Y009157D01*
X017296Y009151D01*
X017345Y009149D01*
X017345Y009158D01*
X017296Y009160D01*
X017248Y009166D01*
X017200Y009175D01*
X017153Y009188D01*
X017108Y009204D01*
X017063Y009224D01*
X017020Y009247D01*
X016979Y009273D01*
X016940Y009302D01*
X016903Y009334D01*
X016869Y009368D01*
X016837Y009405D01*
X016808Y009444D01*
X016782Y009485D01*
X016759Y009528D01*
X016739Y009573D01*
X016723Y009618D01*
X016710Y009665D01*
X016701Y009713D01*
X016695Y009761D01*
X016693Y009810D01*
X016702Y009810D01*
X016704Y009760D01*
X016711Y009710D01*
X016721Y009660D01*
X016735Y009612D01*
X016752Y009565D01*
X016774Y009519D01*
X016798Y009475D01*
X016826Y009433D01*
X016858Y009394D01*
X016892Y009357D01*
X016929Y009323D01*
X016968Y009291D01*
X017010Y009263D01*
X017054Y009239D01*
X017100Y009217D01*
X017147Y009200D01*
X017195Y009186D01*
X017245Y009176D01*
X017295Y009169D01*
X017345Y009167D01*
X017345Y009176D01*
X017295Y009178D01*
X017246Y009185D01*
X017197Y009194D01*
X017150Y009208D01*
X017103Y009226D01*
X017058Y009247D01*
X017015Y009271D01*
X016974Y009299D01*
X016935Y009329D01*
X016898Y009363D01*
X016864Y009400D01*
X016834Y009439D01*
X016806Y009480D01*
X016782Y009523D01*
X016761Y009568D01*
X016743Y009615D01*
X016729Y009662D01*
X016720Y009711D01*
X016713Y009760D01*
X016711Y009810D01*
X016720Y009810D01*
X016722Y009761D01*
X016728Y009712D01*
X016738Y009665D01*
X016752Y009617D01*
X016769Y009572D01*
X016790Y009527D01*
X016814Y009485D01*
X016841Y009444D01*
X016871Y009405D01*
X016905Y009370D01*
X016940Y009336D01*
X016979Y009306D01*
X017020Y009279D01*
X017062Y009255D01*
X017107Y009234D01*
X017152Y009217D01*
X017200Y009203D01*
X017247Y009193D01*
X017296Y009187D01*
X017345Y009185D01*
X017824Y009819D02*
X017774Y009819D01*
X017775Y009820D02*
X017773Y009859D01*
X017767Y009897D01*
X017758Y009934D01*
X017745Y009971D01*
X017730Y010006D01*
X017711Y010040D01*
X017689Y010072D01*
X017664Y010102D01*
X017637Y010129D01*
X017607Y010154D01*
X017575Y010176D01*
X017541Y010195D01*
X017506Y010210D01*
X017469Y010223D01*
X017432Y010232D01*
X017394Y010238D01*
X017355Y010240D01*
X017354Y010289D01*
X017355Y010290D01*
X017396Y010288D01*
X017436Y010282D01*
X017476Y010273D01*
X017515Y010260D01*
X017553Y010245D01*
X017589Y010226D01*
X017623Y010203D01*
X017656Y010179D01*
X017686Y010151D01*
X017714Y010121D01*
X017738Y010088D01*
X017761Y010054D01*
X017780Y010018D01*
X017795Y009980D01*
X017808Y009941D01*
X017817Y009901D01*
X017823Y009861D01*
X017825Y009820D01*
X017816Y009820D01*
X017814Y009862D01*
X017807Y009904D01*
X017797Y009946D01*
X017784Y009986D01*
X017766Y010025D01*
X017745Y010062D01*
X017721Y010097D01*
X017694Y010129D01*
X017664Y010159D01*
X017632Y010186D01*
X017597Y010210D01*
X017560Y010231D01*
X017521Y010249D01*
X017481Y010262D01*
X017439Y010272D01*
X017397Y010279D01*
X017355Y010281D01*
X017355Y010272D01*
X017397Y010270D01*
X017438Y010264D01*
X017478Y010254D01*
X017518Y010240D01*
X017556Y010223D01*
X017592Y010203D01*
X017626Y010179D01*
X017658Y010153D01*
X017688Y010123D01*
X017714Y010091D01*
X017738Y010057D01*
X017758Y010021D01*
X017775Y009983D01*
X017789Y009943D01*
X017799Y009903D01*
X017805Y009862D01*
X017807Y009820D01*
X017798Y009820D01*
X017796Y009861D01*
X017790Y009901D01*
X017780Y009941D01*
X017767Y009979D01*
X017750Y010017D01*
X017730Y010052D01*
X017707Y010086D01*
X017681Y010117D01*
X017652Y010146D01*
X017621Y010172D01*
X017587Y010195D01*
X017552Y010215D01*
X017514Y010232D01*
X017476Y010245D01*
X017436Y010255D01*
X017396Y010261D01*
X017355Y010263D01*
X017355Y010254D01*
X017395Y010252D01*
X017434Y010246D01*
X017473Y010236D01*
X017511Y010223D01*
X017548Y010207D01*
X017582Y010187D01*
X017615Y010165D01*
X017646Y010139D01*
X017674Y010111D01*
X017700Y010080D01*
X017722Y010047D01*
X017742Y010013D01*
X017758Y009976D01*
X017771Y009938D01*
X017781Y009899D01*
X017787Y009860D01*
X017789Y009820D01*
X017780Y009820D01*
X017778Y009859D01*
X017772Y009898D01*
X017763Y009936D01*
X017750Y009973D01*
X017734Y010009D01*
X017715Y010043D01*
X017693Y010075D01*
X017668Y010105D01*
X017640Y010133D01*
X017610Y010158D01*
X017578Y010180D01*
X017544Y010199D01*
X017508Y010215D01*
X017471Y010228D01*
X017433Y010237D01*
X017394Y010243D01*
X017355Y010245D01*
X016876Y009811D02*
X016926Y009811D01*
X016925Y009810D02*
X016927Y009771D01*
X016933Y009733D01*
X016942Y009696D01*
X016955Y009659D01*
X016970Y009624D01*
X016989Y009590D01*
X017011Y009558D01*
X017036Y009528D01*
X017063Y009501D01*
X017093Y009476D01*
X017125Y009454D01*
X017159Y009435D01*
X017194Y009420D01*
X017231Y009407D01*
X017268Y009398D01*
X017306Y009392D01*
X017345Y009390D01*
X017346Y009341D01*
X017345Y009340D01*
X017304Y009342D01*
X017264Y009348D01*
X017224Y009357D01*
X017185Y009370D01*
X017147Y009385D01*
X017111Y009404D01*
X017077Y009427D01*
X017044Y009451D01*
X017014Y009479D01*
X016986Y009509D01*
X016962Y009542D01*
X016939Y009576D01*
X016920Y009612D01*
X016905Y009650D01*
X016892Y009689D01*
X016883Y009729D01*
X016877Y009769D01*
X016875Y009810D01*
X016884Y009810D01*
X016886Y009768D01*
X016893Y009726D01*
X016903Y009684D01*
X016916Y009644D01*
X016934Y009605D01*
X016955Y009568D01*
X016979Y009533D01*
X017006Y009501D01*
X017036Y009471D01*
X017068Y009444D01*
X017103Y009420D01*
X017140Y009399D01*
X017179Y009381D01*
X017219Y009368D01*
X017261Y009358D01*
X017303Y009351D01*
X017345Y009349D01*
X017345Y009358D01*
X017303Y009360D01*
X017262Y009366D01*
X017222Y009376D01*
X017182Y009390D01*
X017144Y009407D01*
X017108Y009427D01*
X017074Y009451D01*
X017042Y009477D01*
X017012Y009507D01*
X016986Y009539D01*
X016962Y009573D01*
X016942Y009609D01*
X016925Y009647D01*
X016911Y009687D01*
X016901Y009727D01*
X016895Y009768D01*
X016893Y009810D01*
X016902Y009810D01*
X016904Y009769D01*
X016910Y009729D01*
X016920Y009689D01*
X016933Y009651D01*
X016950Y009613D01*
X016970Y009578D01*
X016993Y009544D01*
X017019Y009513D01*
X017048Y009484D01*
X017079Y009458D01*
X017113Y009435D01*
X017148Y009415D01*
X017186Y009398D01*
X017224Y009385D01*
X017264Y009375D01*
X017304Y009369D01*
X017345Y009367D01*
X017345Y009376D01*
X017305Y009378D01*
X017266Y009384D01*
X017227Y009394D01*
X017189Y009407D01*
X017152Y009423D01*
X017118Y009443D01*
X017085Y009465D01*
X017054Y009491D01*
X017026Y009519D01*
X017000Y009550D01*
X016978Y009583D01*
X016958Y009617D01*
X016942Y009654D01*
X016929Y009692D01*
X016919Y009731D01*
X016913Y009770D01*
X016911Y009810D01*
X016920Y009810D01*
X016922Y009771D01*
X016928Y009732D01*
X016937Y009694D01*
X016950Y009657D01*
X016966Y009621D01*
X016985Y009587D01*
X017007Y009555D01*
X017032Y009525D01*
X017060Y009497D01*
X017090Y009472D01*
X017122Y009450D01*
X017156Y009431D01*
X017192Y009415D01*
X017229Y009402D01*
X017267Y009393D01*
X017306Y009387D01*
X017345Y009385D01*
D17*
X026900Y009315D02*
X027000Y009315D01*
X027000Y008315D01*
X026900Y008315D01*
X027600Y008315D02*
X027600Y009315D01*
X028600Y009315D01*
X028600Y008315D01*
X027600Y008315D01*
X027850Y008815D02*
X027852Y008846D01*
X027858Y008877D01*
X027868Y008907D01*
X027881Y008935D01*
X027898Y008962D01*
X027918Y008986D01*
X027941Y009008D01*
X027966Y009026D01*
X027994Y009041D01*
X028023Y009053D01*
X028053Y009061D01*
X028084Y009065D01*
X028116Y009065D01*
X028147Y009061D01*
X028177Y009053D01*
X028206Y009041D01*
X028234Y009026D01*
X028259Y009008D01*
X028282Y008986D01*
X028302Y008962D01*
X028319Y008935D01*
X028332Y008907D01*
X028342Y008877D01*
X028348Y008846D01*
X028350Y008815D01*
X028348Y008784D01*
X028342Y008753D01*
X028332Y008723D01*
X028319Y008695D01*
X028302Y008668D01*
X028282Y008644D01*
X028259Y008622D01*
X028234Y008604D01*
X028206Y008589D01*
X028177Y008577D01*
X028147Y008569D01*
X028116Y008565D01*
X028084Y008565D01*
X028053Y008569D01*
X028023Y008577D01*
X027994Y008589D01*
X027966Y008604D01*
X027941Y008622D01*
X027918Y008644D01*
X027898Y008668D01*
X027881Y008695D01*
X027868Y008723D01*
X027858Y008753D01*
X027852Y008784D01*
X027850Y008815D01*
X029200Y009265D02*
X029200Y008315D01*
X029300Y008315D01*
X029300Y009265D02*
X029200Y009265D01*
X029200Y004565D02*
X029200Y003565D01*
X029300Y003565D01*
X028600Y003565D02*
X028600Y004565D01*
X027600Y004565D01*
X027600Y003565D01*
X028600Y003565D01*
X027850Y004065D02*
X027852Y004096D01*
X027858Y004127D01*
X027868Y004157D01*
X027881Y004185D01*
X027898Y004212D01*
X027918Y004236D01*
X027941Y004258D01*
X027966Y004276D01*
X027994Y004291D01*
X028023Y004303D01*
X028053Y004311D01*
X028084Y004315D01*
X028116Y004315D01*
X028147Y004311D01*
X028177Y004303D01*
X028206Y004291D01*
X028234Y004276D01*
X028259Y004258D01*
X028282Y004236D01*
X028302Y004212D01*
X028319Y004185D01*
X028332Y004157D01*
X028342Y004127D01*
X028348Y004096D01*
X028350Y004065D01*
X028348Y004034D01*
X028342Y004003D01*
X028332Y003973D01*
X028319Y003945D01*
X028302Y003918D01*
X028282Y003894D01*
X028259Y003872D01*
X028234Y003854D01*
X028206Y003839D01*
X028177Y003827D01*
X028147Y003819D01*
X028116Y003815D01*
X028084Y003815D01*
X028053Y003819D01*
X028023Y003827D01*
X027994Y003839D01*
X027966Y003854D01*
X027941Y003872D01*
X027918Y003894D01*
X027898Y003918D01*
X027881Y003945D01*
X027868Y003973D01*
X027858Y004003D01*
X027852Y004034D01*
X027850Y004065D01*
X027000Y003615D02*
X026900Y003615D01*
X027000Y003615D02*
X027000Y004565D01*
X026900Y004565D01*
X029200Y004565D02*
X029300Y004565D01*
D18*
X026851Y014777D03*
X026851Y015357D03*
D19*
X025100Y013968D03*
X025100Y013288D03*
X018600Y013850D03*
X018600Y014530D03*
D20*
X028600Y017190D03*
X029600Y017190D03*
X030600Y017190D03*
D21*
X026120Y015310D03*
X026120Y014570D03*
X025330Y014940D03*
X017745Y014685D03*
X016955Y014315D03*
X017745Y013945D03*
D22*
X009105Y007428D02*
X009105Y006828D01*
X008855Y006828D02*
X008855Y007428D01*
D23*
X011288Y004440D02*
X011288Y004090D01*
X009850Y001940D02*
X009500Y001940D01*
X009500Y001003D02*
X009850Y001003D01*
X011288Y001440D02*
X011288Y001790D01*
X007200Y001940D02*
X006850Y001940D01*
X006850Y001003D02*
X007200Y001003D01*
D24*
X011288Y001865D03*
X011288Y004015D03*
D25*
X009425Y001940D03*
X009425Y001003D03*
X007275Y001003D03*
X007275Y001940D03*
D26*
X010475Y005440D02*
X010875Y005440D01*
X014075Y005440D02*
X014475Y005440D01*
D27*
X013895Y005440D03*
X011055Y005440D03*
D28*
X024538Y008753D03*
X024538Y009753D03*
X029100Y013315D03*
X030100Y013315D03*
X030100Y014315D03*
X029100Y014315D03*
X029100Y015315D03*
X030100Y015315D03*
D29*
X020839Y015815D03*
X020111Y015815D03*
D30*
X020470Y016565D03*
D31*
X018595Y016585D03*
X017855Y016585D03*
X018225Y015795D03*
D32*
X019198Y016690D03*
X019878Y016690D03*
X020073Y015065D03*
X020753Y015065D03*
G36*
X014669Y015132D02*
X014589Y015246D01*
X015047Y015566D01*
X015127Y015452D01*
X014669Y015132D01*
G37*
G36*
X014278Y015689D02*
X014198Y015803D01*
X014656Y016123D01*
X014736Y016009D01*
X014278Y015689D01*
G37*
D33*
X019475Y013808D03*
X019475Y012698D03*
D34*
X020475Y012730D03*
X020475Y013775D03*
D35*
X025850Y016670D03*
X025850Y017710D03*
D36*
G36*
X023725Y015971D02*
X023971Y015817D01*
X023607Y015233D01*
X023361Y015387D01*
X023725Y015971D01*
G37*
G36*
X022843Y016522D02*
X023089Y016368D01*
X022725Y015784D01*
X022479Y015938D01*
X022843Y016522D01*
G37*
G36*
X023436Y014466D02*
X023641Y014261D01*
X023154Y013774D01*
X022949Y013979D01*
X023436Y014466D01*
G37*
G36*
X024171Y013731D02*
X024376Y013526D01*
X023889Y013039D01*
X023684Y013244D01*
X024171Y013731D01*
G37*
X015745Y010378D03*
X014705Y010378D03*
D37*
X017725Y004515D03*
X008538Y004515D03*
D38*
X021980Y006690D03*
X023970Y006690D03*
X026230Y012628D03*
X028220Y012628D03*
D39*
X027648Y012628D03*
X023398Y006690D03*
D40*
X016225Y011815D02*
X017850Y013565D01*
M02*
