G75*
G70*
%OFA0B0*%
%FSLAX24Y24*%
%IPPOS*%
%LPD*%
%AMOC8*
5,1,8,0,0,1.08239X$1,22.5*
%
%ADD10C,0.0986*%
%ADD11C,0.1261*%
%ADD12C,0.2442*%
%ADD13R,0.0217X0.0630*%
%ADD14R,0.0474X0.0513*%
%ADD15R,0.0789X0.0552*%
%ADD16C,0.0912*%
%ADD17R,0.0592X0.0671*%
%ADD18R,0.0671X0.0592*%
%ADD19R,0.1143X0.0710*%
%ADD20R,0.0513X0.0474*%
%ADD21R,2.1280X0.1880*%
%ADD22OC8,0.0912*%
%ADD23C,0.0992*%
%ADD24R,0.0710X0.0592*%
%ADD25R,0.0592X0.0710*%
%ADD26R,0.0790X0.0710*%
%ADD27OC8,0.0986*%
%ADD28R,0.0880X0.0340*%
%ADD29R,0.0631X0.0474*%
%ADD30R,0.0474X0.0631*%
%ADD31R,0.0552X0.0789*%
%ADD32R,0.0946X0.0316*%
%ADD33R,0.1025X0.1025*%
%ADD34R,0.0671X0.0277*%
%ADD35R,0.0277X0.0671*%
%ADD36R,0.0540X0.0710*%
%ADD37R,0.0060X0.0720*%
%ADD38R,0.0710X0.0540*%
%ADD39R,0.0720X0.0060*%
%ADD40C,0.0992*%
%ADD41OC8,0.0992*%
%ADD42R,0.0710X0.0790*%
%ADD43OC8,0.1261*%
%ADD44R,0.0710X0.0867*%
%ADD45C,0.2049*%
%ADD46R,0.0840X0.0840*%
D10*
X002600Y002315D03*
X005229Y005260D03*
X006267Y005260D03*
X006267Y006307D03*
X005229Y006307D03*
X007225Y008815D03*
X007225Y009940D03*
X008350Y009940D03*
X010225Y010440D03*
X011350Y010440D03*
X012600Y010315D03*
X013788Y011003D03*
X012475Y011440D03*
X012475Y012565D03*
X007975Y014315D03*
X007850Y012440D03*
X002600Y009065D03*
X013225Y015878D03*
X013850Y016815D03*
X014600Y017690D03*
X015725Y017690D03*
X016100Y016740D03*
X017225Y017565D03*
X018225Y017565D03*
X019225Y017565D03*
X020225Y017565D03*
X021225Y017565D03*
X022225Y017628D03*
X023288Y017753D03*
X024725Y016315D03*
X022725Y015065D03*
X021600Y015065D03*
X021600Y013940D03*
X022600Y012753D03*
X027100Y008815D03*
X029100Y008815D03*
X023475Y008065D03*
X020975Y006690D03*
X023475Y003315D03*
X023475Y000878D03*
X027100Y004065D03*
X029100Y004065D03*
X015725Y006065D03*
X027350Y016815D03*
X027475Y018065D03*
X010538Y016878D03*
D11*
X004225Y008185D03*
X008538Y003615D03*
X017725Y003615D03*
D12*
X004225Y003445D03*
D13*
X004103Y013001D03*
X004359Y013001D03*
X004615Y013001D03*
X004871Y013001D03*
X005127Y013001D03*
X005382Y013001D03*
X005638Y013001D03*
X003847Y013001D03*
X003591Y013001D03*
X003335Y013001D03*
X003079Y013001D03*
X002823Y013001D03*
X002568Y013001D03*
X002312Y013001D03*
X002312Y015879D03*
X002568Y015879D03*
X002823Y015879D03*
X003079Y015879D03*
X003335Y015879D03*
X003591Y015879D03*
X003847Y015879D03*
X004103Y015879D03*
X004359Y015879D03*
X004615Y015879D03*
X004871Y015879D03*
X005127Y015879D03*
X005382Y015879D03*
X005638Y015879D03*
D14*
X005185Y017190D03*
X004515Y017190D03*
X003310Y010003D03*
X002640Y010003D03*
X002935Y006440D03*
X002265Y006440D03*
X002265Y005815D03*
X002935Y005815D03*
X002935Y005190D03*
X002265Y005190D03*
D15*
X004135Y009503D03*
X005315Y009503D03*
X003815Y017315D03*
X002635Y017315D03*
D16*
X003025Y018690D03*
X004925Y018690D03*
X010775Y015265D03*
X010775Y013365D03*
D17*
X009912Y013315D03*
X009163Y013315D03*
X009288Y014753D03*
X010037Y014753D03*
X004724Y010315D03*
X003976Y010315D03*
X015851Y008440D03*
X016599Y008440D03*
X025663Y002315D03*
X026412Y002315D03*
X027726Y005565D03*
X028474Y005565D03*
X028931Y018503D03*
X029600Y018503D03*
X030269Y018503D03*
X005185Y019565D03*
X004515Y019565D03*
D18*
X003850Y019400D03*
X003850Y018730D03*
X001725Y019293D03*
X001725Y019962D03*
X027350Y012439D03*
X027350Y011691D03*
D19*
X001600Y017389D03*
X001600Y018491D03*
D20*
X002663Y012275D03*
X002038Y012150D03*
X002663Y011605D03*
X002038Y011480D03*
X002100Y010650D03*
X002100Y009980D03*
D21*
X017225Y019815D03*
D22*
X017350Y010315D03*
X017350Y009315D03*
X019850Y009315D03*
X019850Y010315D03*
X022350Y010315D03*
X022350Y009315D03*
X014475Y005440D03*
X014475Y003690D03*
X014475Y002690D03*
X011288Y001440D03*
X009850Y001003D03*
X009850Y001940D03*
X006850Y001940D03*
X006850Y001003D03*
X011288Y004440D03*
X010475Y005440D03*
X009475Y007128D03*
X008475Y007128D03*
X020100Y003815D03*
X020100Y002815D03*
D23*
X027210Y003241D02*
X027210Y002329D01*
X028990Y002329D02*
X028990Y003241D01*
X028990Y004889D02*
X028990Y005801D01*
X028990Y007079D02*
X028990Y007991D01*
X027210Y007991D02*
X027210Y007079D01*
X027210Y005801D02*
X027210Y004889D01*
X027210Y009639D02*
X027210Y010551D01*
X028990Y010551D02*
X028990Y009639D01*
D24*
X030100Y009316D03*
X030100Y010064D03*
X024475Y006314D03*
X023475Y006314D03*
X023475Y005566D03*
X024475Y005566D03*
X019850Y007753D03*
X019850Y008502D03*
X018350Y008566D03*
X018350Y009314D03*
X020850Y012191D03*
X020850Y012939D03*
X027600Y014191D03*
X027600Y014939D03*
D25*
X026224Y010940D03*
X025476Y010940D03*
X030101Y007940D03*
X030849Y007940D03*
X022724Y006315D03*
X021976Y006315D03*
X015224Y001565D03*
X014476Y001565D03*
X013349Y001565D03*
X012601Y001565D03*
D26*
X027225Y005880D03*
X027225Y007000D03*
X019975Y012130D03*
X019975Y013250D03*
X006850Y013500D03*
X006850Y012380D03*
D27*
X028600Y017190D03*
X029600Y017190D03*
X030600Y017190D03*
D28*
X026435Y015440D03*
X026435Y014940D03*
X026435Y014440D03*
X026435Y013940D03*
X026435Y013440D03*
X026435Y012940D03*
X026435Y012440D03*
X026435Y011940D03*
X024015Y011940D03*
X024015Y012440D03*
X024015Y012940D03*
X024015Y013440D03*
X024015Y013940D03*
X024015Y014440D03*
X024015Y014940D03*
X024015Y015440D03*
D29*
X024533Y005002D03*
X024533Y004253D03*
X023667Y004628D03*
D30*
X022599Y007569D03*
X021851Y007569D03*
X022225Y008436D03*
D31*
X021038Y008475D03*
X021038Y009655D03*
D32*
X013374Y003815D03*
X013374Y003315D03*
X013374Y002815D03*
X013374Y002315D03*
X011326Y002315D03*
X011326Y002815D03*
X011326Y003315D03*
X011326Y003815D03*
D33*
X015725Y003074D03*
X015725Y004806D03*
D34*
X013942Y011990D03*
X013942Y012305D03*
X013942Y012620D03*
X013942Y012935D03*
X013942Y013250D03*
X013942Y013565D03*
X013942Y013880D03*
X013942Y014195D03*
X013942Y014510D03*
X013942Y014825D03*
X013942Y015140D03*
X018508Y015140D03*
X018508Y014825D03*
X018508Y014510D03*
X018508Y014195D03*
X018508Y013880D03*
X018508Y013565D03*
X018508Y013250D03*
X018508Y012935D03*
X018508Y012620D03*
X018508Y012305D03*
X018508Y011990D03*
D35*
X017800Y011282D03*
X017485Y011282D03*
X017170Y011282D03*
X016855Y011282D03*
X016540Y011282D03*
X016225Y011282D03*
X015910Y011282D03*
X015595Y011282D03*
X015280Y011282D03*
X014965Y011282D03*
X014650Y011282D03*
X014650Y015848D03*
X014965Y015848D03*
X015280Y015848D03*
X015595Y015848D03*
X015910Y015848D03*
X016225Y015848D03*
X016540Y015848D03*
X016855Y015848D03*
X017170Y015848D03*
X017485Y015848D03*
X017800Y015848D03*
D36*
X009275Y015940D03*
X008675Y015940D03*
X008425Y016815D03*
X009025Y016815D03*
X009025Y017690D03*
X008425Y017690D03*
X005900Y011940D03*
X005300Y011940D03*
X005675Y011065D03*
X006275Y011065D03*
D37*
X005975Y011065D03*
X005600Y011940D03*
X008975Y015940D03*
X008725Y016815D03*
X008725Y017690D03*
D38*
X007850Y015990D03*
X007850Y015390D03*
D39*
X007850Y015690D03*
D40*
X024538Y009753D03*
X024538Y008753D03*
X030100Y013315D03*
D41*
X029100Y013315D03*
X029100Y014315D03*
X030100Y014315D03*
X030100Y015315D03*
X029100Y015315D03*
D42*
X025660Y003565D03*
X024540Y003565D03*
X007285Y004190D03*
X006165Y004190D03*
G36*
X007290Y017373D02*
X007698Y016792D01*
X007052Y016339D01*
X006644Y016920D01*
X007290Y017373D01*
G37*
G36*
X006648Y018291D02*
X007056Y017710D01*
X006410Y017257D01*
X006002Y017838D01*
X006648Y018291D01*
G37*
D43*
X008538Y005015D03*
X017725Y005015D03*
D44*
X025549Y008565D03*
X026651Y008565D03*
D45*
X001225Y003440D03*
D46*
X000538Y000753D03*
X000538Y020503D03*
X031163Y020503D03*
X031163Y000753D03*
M02*
