G75*
G70*
%OFA0B0*%
%FSLAX24Y24*%
%IPPOS*%
%LPD*%
%AMOC8*
5,1,8,0,0,1.08239X$1,22.5*
%
%ADD10R,0.1500X0.2750*%
%ADD11C,0.0986*%
%ADD12C,0.1261*%
%ADD13C,0.2442*%
%ADD14C,0.0912*%
%ADD15R,0.0907X0.2442*%
%ADD16OC8,0.0912*%
%ADD17C,0.0992*%
%ADD18R,0.0671X0.0592*%
%ADD19R,0.0710X0.0592*%
%ADD20OC8,0.0986*%
%ADD21R,0.0631X0.0474*%
%ADD22C,0.0992*%
%ADD23OC8,0.0992*%
%ADD24R,0.0474X0.0631*%
%ADD25R,0.0592X0.0710*%
%ADD26R,0.0867X0.0710*%
%ADD27R,0.0789X0.0710*%
%ADD28R,0.0710X0.0540*%
%ADD29R,0.0720X0.0060*%
%ADD30R,0.0790X0.0710*%
%ADD31R,0.0710X0.0790*%
%ADD32OC8,0.1261*%
%ADD33R,0.1025X0.1025*%
%ADD34C,0.2049*%
%ADD35R,0.0840X0.0840*%
D10*
X000975Y009565D03*
D11*
X002600Y009065D03*
X005229Y006307D03*
X006267Y006307D03*
X006267Y005260D03*
X005229Y005260D03*
X002600Y002315D03*
X007225Y008815D03*
X007225Y009940D03*
X008350Y009940D03*
X010225Y010440D03*
X011350Y010440D03*
X012600Y010315D03*
X013788Y011003D03*
X012475Y011440D03*
X012475Y012565D03*
X007975Y014315D03*
X007850Y012440D03*
X013225Y015878D03*
X013850Y016815D03*
X014600Y017690D03*
X015725Y017690D03*
X016100Y016740D03*
X017225Y017565D03*
X018225Y017565D03*
X019225Y017565D03*
X020225Y017565D03*
X021225Y017565D03*
X022225Y017628D03*
X023288Y017753D03*
X024725Y016315D03*
X022725Y015065D03*
X021600Y015065D03*
X021600Y013940D03*
X022600Y012753D03*
X027100Y008815D03*
X029100Y008815D03*
X023475Y008065D03*
X020975Y006690D03*
X023475Y003315D03*
X023475Y000878D03*
X027100Y004065D03*
X029100Y004065D03*
X015725Y006065D03*
X027350Y016815D03*
X027475Y018065D03*
X010538Y016878D03*
D12*
X004225Y008185D03*
X008538Y003615D03*
X017725Y003615D03*
D13*
X004225Y003445D03*
D14*
X010775Y013365D03*
X010775Y015265D03*
X004925Y018690D03*
X003025Y018690D03*
D15*
X006975Y019565D03*
X007975Y019565D03*
X008975Y019565D03*
X009975Y019565D03*
X010975Y019565D03*
X011975Y019565D03*
X012975Y019565D03*
X013975Y019565D03*
X014975Y019565D03*
X015975Y019565D03*
X016975Y019565D03*
X017975Y019565D03*
X018975Y019565D03*
X019975Y019565D03*
X020975Y019565D03*
X021975Y019565D03*
X022975Y019565D03*
X024475Y019565D03*
X025475Y019565D03*
X026475Y019565D03*
X027475Y019565D03*
D16*
X022350Y010315D03*
X022350Y009315D03*
X019850Y009315D03*
X019850Y010315D03*
X017350Y010315D03*
X017350Y009315D03*
X014475Y005440D03*
X014475Y003690D03*
X014475Y002690D03*
X011288Y001440D03*
X009850Y001003D03*
X009850Y001940D03*
X006850Y001940D03*
X006850Y001003D03*
X011288Y004440D03*
X010475Y005440D03*
X009475Y007128D03*
X008475Y007128D03*
X020100Y003815D03*
X020100Y002815D03*
D17*
X027210Y003241D02*
X027210Y002329D01*
X028990Y002329D02*
X028990Y003241D01*
X028990Y004889D02*
X028990Y005801D01*
X028990Y007079D02*
X028990Y007991D01*
X027210Y007991D02*
X027210Y007079D01*
X027210Y005801D02*
X027210Y004889D01*
X027210Y009639D02*
X027210Y010551D01*
X028990Y010551D02*
X028990Y009639D01*
D18*
X026850Y014691D03*
X026850Y015439D03*
D19*
X025100Y014002D03*
X025100Y013253D03*
X018600Y013816D03*
X018600Y014564D03*
D20*
X028600Y017190D03*
X029600Y017190D03*
X030600Y017190D03*
D21*
X026158Y015314D03*
X026158Y014566D03*
X025292Y014940D03*
X017783Y014689D03*
X017783Y013941D03*
X016917Y014315D03*
D22*
X024538Y009753D03*
X024538Y008753D03*
X030100Y013315D03*
D23*
X029100Y013315D03*
X029100Y014315D03*
X030100Y014315D03*
X030100Y015315D03*
X029100Y015315D03*
D24*
X020849Y015757D03*
X020101Y015757D03*
X020475Y016623D03*
X018599Y016623D03*
X017851Y016623D03*
X018225Y015757D03*
D25*
X019163Y016690D03*
X019912Y016690D03*
X020038Y015065D03*
X020787Y015065D03*
G36*
X014756Y014875D02*
X014417Y015359D01*
X014998Y015767D01*
X015337Y015283D01*
X014756Y014875D01*
G37*
G36*
X014327Y015488D02*
X013988Y015972D01*
X014569Y016380D01*
X014908Y015896D01*
X014327Y015488D01*
G37*
D26*
X019475Y013804D03*
X019475Y012701D03*
D27*
X020475Y012701D03*
X020475Y013804D03*
D28*
X021600Y015890D03*
X021600Y016490D03*
X017163Y016615D03*
X017163Y016015D03*
D29*
X017163Y016315D03*
X021600Y016190D03*
D30*
X025850Y016630D03*
X025850Y017750D03*
D31*
G36*
X023609Y016104D02*
X024210Y015727D01*
X023791Y015058D01*
X023190Y015435D01*
X023609Y016104D01*
G37*
G36*
X022659Y016697D02*
X023260Y016320D01*
X022841Y015651D01*
X022240Y016028D01*
X022659Y016697D01*
G37*
G36*
X023295Y014678D02*
X023797Y014176D01*
X023239Y013618D01*
X022737Y014120D01*
X023295Y014678D01*
G37*
G36*
X024086Y013887D02*
X024588Y013385D01*
X024030Y012827D01*
X023528Y013329D01*
X024086Y013887D01*
G37*
X015785Y010378D03*
X014665Y010378D03*
D32*
X017725Y005015D03*
X008538Y005015D03*
D33*
X022109Y006690D03*
X023841Y006690D03*
X026359Y012628D03*
X028091Y012628D03*
D34*
X001225Y003440D03*
D35*
X000538Y000753D03*
X000538Y020503D03*
X031163Y020503D03*
X031163Y000753D03*
M02*
