%
M48
M72
T01C0.0315
T02C0.0320
T03C0.0360
T04C0.0394
T05C0.0400
T06C0.0591
%
T01
X538Y753
X2600Y2315
X1225Y3440
X7225Y8815
X7225Y9940
X8350Y9940
X10225Y10440
X11350Y10440
X12600Y10315
X13788Y11003
X12475Y11440
X12475Y12565
X7975Y14315
X7850Y12440
X2600Y9065
X13225Y15878
X13850Y16815
X14600Y17690
X15725Y17690
X16100Y16740
X17225Y17565
X18225Y17565
X19225Y17565
X20225Y17565
X21225Y17565
X22225Y17628
X23288Y17753
X24725Y16315
X22725Y15065
X21600Y15065
X21600Y13940
X22600Y12753
X27100Y8815
X29100Y8815
X23475Y8065
X20975Y6690
X23475Y3315
X23475Y878
X27100Y4065
X29100Y4065
X31163Y753
X15725Y6065
X27350Y16815
X27475Y18065
X31163Y20503
X10538Y16878
X538Y20503
T02
X3025Y18690
X4925Y18690
X10775Y15265
X10775Y13365
X17350Y10315
X17350Y9315
X19850Y9315
X19850Y10315
X22350Y10315
X22350Y9315
X17725Y5015
X17725Y3615
X20100Y3815
X20100Y2815
X14475Y2690
X14475Y3690
X14475Y5440
X11288Y4440
X10475Y5440
X8538Y5015
X8538Y3615
X9850Y1940
X11288Y1440
X9850Y1003
X6850Y1003
X6850Y1940
X8475Y7128
X9475Y7128
T03
X28600Y17190
X29600Y17190
X30600Y17190
T04
X6267Y6307
X5229Y6307
X5229Y5260
X6267Y5260
T05
X24538Y8753
X24538Y9753
X27210Y10095
X28990Y10095
X28990Y7535
X27210Y7535
X27210Y5345
X28990Y5345
X28990Y2785
X27210Y2785
X29100Y13315
X30100Y13315
X30100Y14315
X29100Y14315
X29100Y15315
X30100Y15315
T06
X4225Y8185
X4225Y3445
M30
