G75*
G70*
%OFA0B0*%
%FSLAX24Y24*%
%IPPOS*%
%LPD*%
%AMOC8*
5,1,8,0,0,1.08239X$1,22.5*
%
%ADD10R,0.2362X0.0827*%
%ADD11R,0.0591X0.0512*%
%ADD12R,0.0630X0.0512*%
%ADD13R,0.0787X0.0787*%
%ADD14C,0.0787*%
%ADD15C,0.0833*%
%ADD16OC8,0.0833*%
%ADD17R,0.0472X0.0709*%
%ADD18C,0.0240*%
%ADD19C,0.0500*%
%ADD20C,0.0906*%
%ADD21C,0.0160*%
%ADD22C,0.0400*%
%ADD23C,0.0320*%
%ADD24R,0.1000X0.1000*%
D10*
X005126Y003913D03*
X005126Y004913D03*
X005126Y005913D03*
X005126Y006913D03*
X005126Y008413D03*
X005126Y009413D03*
X005126Y010413D03*
X005126Y011413D03*
X005126Y012413D03*
X005126Y013413D03*
X005126Y014413D03*
X005126Y015413D03*
X005126Y016413D03*
X005126Y017413D03*
X005126Y018413D03*
X005126Y019413D03*
X005126Y020413D03*
X005126Y021413D03*
X005126Y022413D03*
X005126Y023413D03*
X005126Y024413D03*
D11*
X017251Y015787D03*
X017251Y015039D03*
X021001Y007912D03*
X021001Y007164D03*
X012126Y005912D03*
X012126Y005164D03*
D12*
X008751Y007664D03*
X008751Y008412D03*
D13*
X016126Y023038D03*
X016126Y024038D03*
D14*
X016126Y020038D03*
X016126Y019038D03*
X016126Y018038D03*
X016126Y017038D03*
X016126Y016038D03*
X016126Y015038D03*
X016126Y014038D03*
X016126Y013038D03*
X016126Y012038D03*
X016126Y011038D03*
X016126Y010038D03*
X016126Y009038D03*
X016126Y008038D03*
X016126Y007038D03*
X016126Y006038D03*
X016126Y005038D03*
X022126Y005038D03*
X022126Y006038D03*
X022126Y007038D03*
X022126Y008038D03*
X022126Y009038D03*
X022126Y010038D03*
X022126Y011038D03*
X022126Y012038D03*
X022126Y013038D03*
X022126Y014038D03*
X022126Y015038D03*
X022126Y016038D03*
X022126Y017038D03*
X022126Y018038D03*
X022126Y019038D03*
X022126Y020038D03*
X022126Y023038D03*
X022126Y024038D03*
D15*
X010001Y007913D03*
D16*
X011001Y007913D03*
X011001Y006913D03*
X011001Y005913D03*
X010001Y005913D03*
X010001Y006913D03*
D17*
X008501Y006503D03*
X008501Y005323D03*
D18*
X008501Y004788D01*
X009001Y004288D01*
X013251Y004288D01*
X013876Y003663D01*
X017251Y003663D01*
X018626Y005038D01*
X022126Y005038D01*
X022751Y005038D01*
X024001Y006288D01*
X024001Y015538D01*
X024501Y016038D01*
X024501Y021038D01*
X023376Y022163D01*
X021626Y022163D01*
X019126Y024538D01*
X017376Y026288D01*
X014501Y026288D01*
X012813Y024600D01*
X012751Y024538D01*
X008501Y024538D01*
X006876Y022913D01*
X006876Y019413D01*
X007001Y018413D02*
X007001Y017288D01*
X007376Y016913D01*
X008876Y015038D01*
X009626Y015038D01*
X010251Y015663D01*
X010251Y019413D01*
X010626Y019788D01*
X012251Y019788D01*
X013376Y020913D01*
X016876Y020913D01*
X017501Y020288D01*
X017501Y018913D01*
X019376Y017038D01*
X019376Y012288D01*
X020626Y011038D01*
X022126Y011038D01*
X022126Y012038D02*
X023001Y012038D01*
X023376Y012413D01*
X023376Y016038D01*
X023876Y016538D01*
X023876Y020663D01*
X023001Y021538D01*
X021126Y021538D01*
X017126Y025538D01*
X014751Y025538D01*
X013126Y023913D01*
X009501Y023913D01*
X008126Y022538D01*
X008126Y019538D01*
X008001Y019413D01*
X008876Y018413D02*
X008001Y017538D01*
X008001Y016913D01*
X008626Y016163D01*
X008876Y015913D01*
X009251Y015913D01*
X008876Y017163D02*
X009626Y017913D01*
X009626Y019788D01*
X010251Y020413D01*
X011751Y020413D01*
X012876Y021538D01*
X017251Y021538D01*
X018751Y020038D01*
X018751Y019538D01*
X020376Y017913D01*
X020376Y014038D01*
X021376Y013038D01*
X022126Y013038D01*
X018501Y011538D02*
X018501Y015288D01*
X018001Y015788D01*
X017252Y015788D01*
X017251Y015787D01*
X017251Y016038D01*
X016126Y016038D01*
X016126Y017038D02*
X015626Y017038D01*
X015126Y016538D01*
X015126Y015538D01*
X015626Y015038D01*
X016126Y015038D01*
X016876Y015038D01*
X017251Y015039D01*
X016126Y014038D02*
X015376Y014038D01*
X014626Y013288D01*
X007751Y013288D01*
X006751Y014288D01*
X006751Y015413D01*
X005126Y015413D02*
X005126Y014413D01*
X005126Y013413D01*
X005126Y012413D01*
X005126Y011413D01*
X005126Y010413D01*
X005126Y009413D01*
X005126Y008413D01*
X005126Y006913D01*
X005126Y005913D01*
X005126Y004913D01*
X005126Y005913D02*
X006876Y005913D01*
X006876Y003913D01*
X005126Y003913D01*
X008001Y005913D02*
X007001Y006913D01*
X005126Y006913D01*
X007626Y007663D02*
X008751Y007664D01*
X008751Y008412D02*
X009250Y008787D01*
X009501Y008788D01*
X010751Y008788D01*
X011001Y008538D01*
X011001Y007913D01*
X011626Y007913D01*
X012126Y007413D01*
X012126Y005912D01*
X012877Y005912D01*
X014501Y004288D01*
X016876Y004288D01*
X017501Y004913D01*
X016126Y005038D02*
X014876Y005038D01*
X013251Y006663D01*
X013251Y007538D01*
X012001Y008788D01*
X012626Y009538D02*
X008376Y009538D01*
X007626Y008788D01*
X008910Y006913D02*
X008501Y006503D01*
X008910Y006913D02*
X010001Y006913D01*
X009001Y005913D02*
X009126Y005788D01*
X009126Y005413D01*
X009626Y004913D01*
X010751Y004913D01*
X011001Y005163D01*
X012125Y005163D01*
X012126Y005164D01*
X011001Y005163D02*
X011001Y005913D01*
X014376Y007038D02*
X016126Y007038D01*
X016126Y008038D02*
X014876Y008038D01*
X015251Y009038D02*
X016126Y009038D01*
X016126Y010038D02*
X013251Y010038D01*
X012626Y009538D01*
X012501Y010538D02*
X013001Y011038D01*
X016126Y011038D01*
X016126Y012038D02*
X011126Y012038D01*
X011126Y010538D02*
X012501Y010538D01*
X015091Y006038D02*
X016126Y006038D01*
X021001Y006038D02*
X021001Y007164D01*
X021001Y007912D02*
X021001Y009038D01*
X018501Y011538D01*
X021001Y009038D02*
X022126Y009038D01*
X022126Y006038D02*
X021001Y006038D01*
X022126Y017038D02*
X023001Y017038D01*
X022876Y019038D02*
X022126Y019038D01*
X022876Y019038D02*
X023126Y019288D01*
X023126Y020413D01*
X022626Y020913D01*
X020626Y020913D01*
X016751Y024788D01*
X015001Y024788D01*
X013001Y022788D01*
X010376Y022788D01*
X008876Y021288D01*
X008876Y018413D01*
X011126Y018913D02*
X012501Y018913D01*
X013626Y020038D01*
X016126Y020038D01*
X016126Y019038D02*
X013751Y019038D01*
X012626Y017913D01*
X011126Y017788D01*
X011001Y021288D02*
X012376Y022163D01*
X017751Y022163D01*
X019876Y020038D01*
X022126Y020038D01*
X005126Y020413D02*
X005126Y019413D01*
X005126Y018413D01*
X005126Y017413D01*
X005126Y016413D01*
X005126Y015413D01*
X005126Y020413D02*
X005126Y021413D01*
X005126Y022413D01*
X005126Y023413D01*
X005126Y024413D01*
D19*
X007751Y015038D02*
X008501Y014163D01*
X010876Y014163D01*
X015001Y018038D01*
X016126Y018038D01*
X016876Y018038D01*
X017251Y017663D01*
X017251Y016038D01*
D20*
X023001Y017038D03*
X015251Y009038D03*
X014876Y008038D03*
X014376Y007038D03*
X015091Y006038D03*
X012001Y008788D03*
X011126Y010538D03*
X011126Y012038D03*
X007626Y008788D03*
X007626Y007663D03*
X006876Y005913D03*
X006876Y003913D03*
X006751Y015413D03*
X008876Y017163D03*
X009251Y015913D03*
X011126Y017788D03*
X011126Y018913D03*
X011001Y021288D03*
X008001Y019413D03*
X006876Y019413D03*
X007001Y018413D03*
D21*
X008001Y005913D02*
X009001Y005913D01*
D22*
X007751Y015038D02*
X007751Y015538D01*
X007001Y016413D01*
X005126Y016413D01*
D23*
X017251Y015039D02*
X017529Y014760D01*
X017529Y007164D01*
X017529Y004942D01*
X017501Y004913D01*
X017531Y007163D02*
X017529Y007164D01*
X017531Y007163D02*
X021000Y007163D01*
X021001Y007164D01*
D24*
X004251Y003788D03*
X024751Y003788D03*
X024751Y026288D03*
X004251Y026288D03*
M02*
