G75*
G70*
%OFA0B0*%
%FSLAX24Y24*%
%IPPOS*%
%LPD*%
%AMOC8*
5,1,8,0,0,1.08239X$1,22.5*
%
%ADD10C,0.0051*%
%ADD11C,0.0110*%
%ADD12C,0.0050*%
%ADD13C,0.0100*%
%ADD14C,0.0040*%
%ADD15C,0.0060*%
%ADD16R,0.0200X0.0200*%
D10*
X001126Y003288D02*
X028663Y003288D01*
X027876Y003288D02*
X027978Y004312D01*
X028001Y004312D02*
X027876Y003288D01*
X027773Y004312D01*
X027750Y004312D02*
X028001Y004312D01*
X027927Y004312D02*
X027876Y003288D01*
X027824Y004312D01*
X027750Y004312D02*
X027876Y003288D01*
X027876Y026788D01*
X027978Y025764D01*
X028001Y025764D02*
X027876Y026788D01*
X027773Y025764D01*
X027750Y025764D02*
X028001Y025764D01*
X027927Y025764D02*
X027876Y026788D01*
X027824Y025764D01*
X027750Y025764D02*
X027876Y026788D01*
X028663Y026788D02*
X000126Y026788D01*
X003751Y002663D02*
X003751Y000126D01*
X003751Y000913D02*
X004774Y000811D01*
X004774Y000787D02*
X003751Y000913D01*
X004774Y001015D01*
X004774Y001039D02*
X004774Y000787D01*
X004774Y000862D02*
X003751Y000913D01*
X004774Y000964D01*
X004774Y001039D02*
X003751Y000913D01*
X025251Y000913D01*
X024227Y000811D01*
X024227Y000787D02*
X025251Y000913D01*
X024227Y001015D01*
X024227Y001039D02*
X024227Y000787D01*
X024227Y000862D02*
X025251Y000913D01*
X024227Y000964D01*
X024227Y001039D02*
X025251Y000913D01*
X025251Y000126D02*
X025251Y027538D01*
D11*
X026369Y017913D02*
X026158Y017701D01*
X026158Y017278D01*
X026369Y017067D01*
X026581Y017067D01*
X026792Y017278D01*
X026792Y017913D01*
X027215Y017913D02*
X026369Y017913D01*
X027215Y017913D02*
X027427Y017701D01*
X027427Y017278D01*
X027215Y017067D01*
X027215Y016644D02*
X027004Y016644D01*
X026792Y016433D01*
X026792Y015798D01*
X027215Y015798D01*
X027427Y016010D01*
X027427Y016433D01*
X027215Y016644D01*
X026369Y016221D02*
X026792Y015798D01*
X026369Y016221D02*
X026158Y016644D01*
X027215Y015375D02*
X027427Y015375D01*
X027427Y015164D01*
X027215Y015164D01*
X027215Y015375D01*
X027215Y014741D02*
X026369Y014741D01*
X026158Y014529D01*
X026158Y014106D01*
X026369Y013895D01*
X026581Y013895D01*
X026792Y014106D01*
X026792Y014741D01*
X027215Y014741D02*
X027427Y014529D01*
X027427Y014106D01*
X027215Y013895D01*
X027215Y013472D02*
X026792Y013472D01*
X026581Y013261D01*
X026581Y013049D01*
X026792Y012626D01*
X026158Y012626D01*
X026158Y013472D01*
X027215Y013472D02*
X027427Y013261D01*
X027427Y012838D01*
X027215Y012626D01*
X016952Y002631D02*
X016952Y001362D01*
X016529Y001362D02*
X017376Y001362D01*
X016529Y002208D02*
X016952Y002631D01*
X016107Y002631D02*
X015684Y002419D01*
X015261Y001996D01*
X015895Y001996D01*
X016107Y001785D01*
X016107Y001573D01*
X015895Y001362D01*
X015472Y001362D01*
X015261Y001573D01*
X015261Y001996D01*
X014838Y001573D02*
X014838Y001362D01*
X014626Y001362D01*
X014626Y001573D01*
X014838Y001573D01*
X014204Y001996D02*
X013357Y001996D01*
X013992Y002631D01*
X013992Y001362D01*
X012935Y001573D02*
X012723Y001362D01*
X012300Y001362D01*
X012089Y001573D01*
X012089Y001996D02*
X012512Y002208D01*
X012723Y002208D01*
X012935Y001996D01*
X012935Y001573D01*
X012089Y001996D02*
X012089Y002631D01*
X012935Y002631D01*
D12*
X011151Y004878D02*
X011226Y004953D01*
X011226Y005103D01*
X011151Y005178D01*
X011075Y005178D01*
X011000Y005103D01*
X011000Y004878D01*
X011151Y004878D01*
X011000Y004878D02*
X010850Y005028D01*
X010775Y005178D01*
X009326Y007728D02*
X009326Y008028D01*
X009326Y007878D02*
X008875Y007878D01*
X009025Y007728D01*
X010026Y009088D02*
X010176Y009088D01*
X010101Y009088D02*
X010101Y009538D01*
X010026Y009538D02*
X010176Y009538D01*
X010333Y009463D02*
X010333Y009388D01*
X010408Y009313D01*
X010558Y009313D01*
X010633Y009238D01*
X010633Y009163D01*
X010558Y009088D01*
X010408Y009088D01*
X010333Y009163D01*
X010333Y009463D02*
X010408Y009538D01*
X010558Y009538D01*
X010633Y009463D01*
X010793Y009538D02*
X010793Y009088D01*
X010793Y009238D02*
X011018Y009238D01*
X011093Y009313D01*
X011093Y009463D01*
X011018Y009538D01*
X010793Y009538D01*
X006626Y007788D02*
X006626Y007538D01*
X003751Y007538D01*
X003751Y003288D01*
X006626Y003288D01*
X006626Y007788D02*
X003751Y007788D01*
X003751Y027913D01*
X006626Y027913D01*
D13*
X013126Y025038D02*
X025126Y025038D01*
X025126Y004038D01*
X013126Y004038D01*
X013126Y025038D01*
D14*
X017771Y017768D02*
X018078Y017308D01*
X018078Y017768D01*
X018231Y017692D02*
X018231Y017385D01*
X018308Y017308D01*
X018461Y017308D01*
X018538Y017385D01*
X018538Y017692D01*
X018461Y017768D01*
X018308Y017768D01*
X018231Y017692D01*
X018691Y017385D02*
X018768Y017385D01*
X018768Y017308D01*
X018691Y017308D01*
X018691Y017385D01*
X018922Y017308D02*
X019152Y017308D01*
X019228Y017385D01*
X019228Y017461D01*
X019152Y017538D01*
X018922Y017538D01*
X019152Y017538D02*
X019228Y017615D01*
X019228Y017692D01*
X019152Y017768D01*
X018922Y017768D01*
X018922Y017308D01*
X019382Y017385D02*
X019382Y017692D01*
X019459Y017768D01*
X019612Y017768D01*
X019689Y017692D01*
X019382Y017385D01*
X019459Y017308D01*
X019612Y017308D01*
X019689Y017385D01*
X019689Y017692D01*
X019842Y017692D02*
X019919Y017768D01*
X020073Y017768D01*
X020149Y017692D01*
X019842Y017385D01*
X019919Y017308D01*
X020073Y017308D01*
X020149Y017385D01*
X020149Y017692D01*
X020303Y017692D02*
X020379Y017768D01*
X020533Y017768D01*
X020610Y017692D01*
X020610Y017615D01*
X020533Y017538D01*
X020610Y017461D01*
X020610Y017385D01*
X020533Y017308D01*
X020379Y017308D01*
X020303Y017385D01*
X020456Y017538D02*
X020533Y017538D01*
X019842Y017385D02*
X019842Y017692D01*
X019899Y016768D02*
X019746Y016692D01*
X019592Y016538D01*
X019823Y016538D01*
X019899Y016461D01*
X019899Y016385D01*
X019823Y016308D01*
X019669Y016308D01*
X019592Y016385D01*
X019592Y016538D01*
X019439Y016538D02*
X019132Y016538D01*
X019132Y016615D02*
X019132Y016308D01*
X018978Y016385D02*
X018902Y016308D01*
X018748Y016308D01*
X018672Y016385D01*
X018518Y016385D02*
X018518Y016308D01*
X018441Y016308D01*
X018441Y016385D01*
X018518Y016385D01*
X018288Y016385D02*
X018288Y016692D01*
X018211Y016768D01*
X018058Y016768D01*
X017981Y016692D01*
X017981Y016385D01*
X018058Y016308D01*
X018211Y016308D01*
X018288Y016385D01*
X018672Y016615D02*
X018748Y016538D01*
X018902Y016538D01*
X018978Y016461D01*
X018978Y016385D01*
X019132Y016615D02*
X019285Y016768D01*
X019439Y016615D01*
X019439Y016308D01*
X019467Y015768D02*
X019314Y015768D01*
X019237Y015692D01*
X019084Y015692D02*
X019084Y015615D01*
X019007Y015538D01*
X019084Y015461D01*
X019084Y015385D01*
X019007Y015308D01*
X018853Y015308D01*
X018777Y015385D01*
X018930Y015538D02*
X019007Y015538D01*
X019084Y015692D02*
X019007Y015768D01*
X018853Y015768D01*
X018777Y015692D01*
X018623Y015692D02*
X018547Y015768D01*
X018316Y015768D01*
X018316Y015308D01*
X018316Y015461D02*
X018547Y015461D01*
X018623Y015538D01*
X018623Y015692D01*
X018163Y015768D02*
X017856Y015768D01*
X017856Y015308D01*
X017703Y015308D02*
X017549Y015461D01*
X017396Y015385D02*
X017472Y015308D01*
X017626Y015308D01*
X017703Y015385D01*
X017703Y015692D01*
X017626Y015768D01*
X017472Y015768D01*
X017396Y015692D01*
X017396Y015385D01*
X017856Y015538D02*
X018009Y015538D01*
X018027Y014768D02*
X018027Y014308D01*
X018180Y014308D02*
X017873Y014308D01*
X017720Y014385D02*
X017643Y014308D01*
X017490Y014308D01*
X017413Y014385D01*
X017413Y014538D02*
X017566Y014615D01*
X017643Y014615D01*
X017720Y014538D01*
X017720Y014385D01*
X017873Y014615D02*
X018027Y014768D01*
X017720Y014768D02*
X017413Y014768D01*
X017413Y014538D01*
X017259Y014385D02*
X017183Y014308D01*
X017029Y014308D01*
X016953Y014385D01*
X016953Y014692D01*
X017029Y014768D01*
X017183Y014768D01*
X017259Y014692D01*
X016799Y014768D02*
X016646Y014768D01*
X016722Y014768D02*
X016722Y014308D01*
X016646Y014308D02*
X016799Y014308D01*
X018334Y014538D02*
X018641Y014538D01*
X018794Y014385D02*
X018794Y014692D01*
X018871Y014768D01*
X019024Y014768D01*
X019101Y014692D01*
X018794Y014385D01*
X018871Y014308D01*
X019024Y014308D01*
X019101Y014385D01*
X019101Y014692D01*
X019254Y014692D02*
X019331Y014768D01*
X019485Y014768D01*
X019561Y014692D01*
X019561Y014615D01*
X019485Y014538D01*
X019561Y014461D01*
X019561Y014385D01*
X019485Y014308D01*
X019331Y014308D01*
X019254Y014385D01*
X019408Y014538D02*
X019485Y014538D01*
X019715Y014692D02*
X019792Y014768D01*
X019945Y014768D01*
X020022Y014692D01*
X020022Y014615D01*
X019715Y014308D01*
X020022Y014308D01*
X020175Y014538D02*
X020405Y014768D01*
X020405Y014308D01*
X020482Y014538D02*
X020175Y014538D01*
X020636Y014538D02*
X020943Y014538D01*
X021096Y014615D02*
X021250Y014768D01*
X021250Y014308D01*
X021403Y014308D02*
X021096Y014308D01*
X021556Y014538D02*
X021863Y014538D01*
X022017Y014615D02*
X022094Y014538D01*
X022324Y014538D01*
X022324Y014385D02*
X022324Y014692D01*
X022247Y014768D01*
X022094Y014768D01*
X022017Y014692D01*
X022017Y014615D01*
X022017Y014385D02*
X022094Y014308D01*
X022247Y014308D01*
X022324Y014385D01*
X022477Y014385D02*
X022477Y014461D01*
X022554Y014538D01*
X022707Y014538D01*
X022784Y014461D01*
X022784Y014385D01*
X022707Y014308D01*
X022554Y014308D01*
X022477Y014385D01*
X022554Y014538D02*
X022477Y014615D01*
X022477Y014692D01*
X022554Y014768D01*
X022707Y014768D01*
X022784Y014692D01*
X022784Y014615D01*
X022707Y014538D01*
X021787Y014308D02*
X021787Y014768D01*
X021556Y014538D01*
X021386Y015308D02*
X021079Y015308D01*
X021386Y015615D01*
X021386Y015692D01*
X021309Y015768D01*
X021155Y015768D01*
X021079Y015692D01*
X020925Y015692D02*
X020849Y015768D01*
X020695Y015768D01*
X020618Y015692D01*
X020465Y015692D02*
X020388Y015768D01*
X020158Y015768D01*
X020158Y015308D01*
X020388Y015308D01*
X020465Y015385D01*
X020465Y015692D01*
X020772Y015538D02*
X020849Y015538D01*
X020925Y015461D01*
X020925Y015385D01*
X020849Y015308D01*
X020695Y015308D01*
X020618Y015385D01*
X020849Y015538D02*
X020925Y015615D01*
X020925Y015692D01*
X020743Y016308D02*
X020590Y016308D01*
X020513Y016385D01*
X020513Y016538D01*
X020743Y016538D01*
X020820Y016461D01*
X020820Y016385D01*
X020743Y016308D01*
X020513Y016538D02*
X020667Y016692D01*
X020820Y016768D01*
X020360Y016692D02*
X020360Y016615D01*
X020283Y016538D01*
X020360Y016461D01*
X020360Y016385D01*
X020283Y016308D01*
X020129Y016308D01*
X020053Y016385D01*
X020206Y016538D02*
X020283Y016538D01*
X020360Y016692D02*
X020283Y016768D01*
X020129Y016768D01*
X020053Y016692D01*
X020004Y015768D02*
X019698Y015308D01*
X019544Y015308D02*
X019237Y015308D01*
X019544Y015615D01*
X019544Y015692D01*
X019467Y015768D01*
X018978Y016692D02*
X018902Y016768D01*
X018748Y016768D01*
X018672Y016692D01*
X018672Y016615D01*
X017828Y016768D02*
X017828Y016308D01*
X017521Y016768D01*
X017521Y016308D01*
X017771Y017308D02*
X017771Y017768D01*
D15*
X011251Y008413D02*
X009751Y008413D01*
X009501Y008163D01*
X009501Y007663D01*
X009751Y007413D01*
X009501Y007163D01*
X009501Y006663D01*
X009751Y006413D01*
X009501Y006163D01*
X009501Y005663D01*
X009751Y005413D01*
X011251Y005413D01*
X011501Y005663D01*
X011501Y006163D01*
X011251Y006413D01*
X011501Y006663D01*
X011501Y007163D01*
X011251Y007413D01*
X011501Y007663D01*
X011501Y008163D01*
X011251Y008413D01*
D16*
X011001Y007913D03*
X011001Y006913D03*
X011001Y005913D03*
X010001Y005913D03*
X010001Y006913D03*
X010001Y007913D03*
M02*
