%
M48
M72
T01C0.0236
T02C0.0315
T03C0.0354
T04C0.0400
%
T01
X4251Y3788
T02
X6876Y3913
X6876Y5913
X7626Y7663
X7626Y8788
X11126Y10538
X11126Y12038
X12001Y8788
X14376Y7038
X14876Y8038
X15251Y9038
X15091Y6038
X24751Y3788
X23001Y17038
X24751Y26288
X11001Y21288
X11126Y18913
X11126Y17788
X9251Y15913
X8876Y17163
X7001Y18413
X6876Y19413
X8001Y19413
X6751Y15413
X4251Y26288
T03
X16126Y24038
X16126Y23038
X16126Y20038
X16126Y19038
X16126Y18038
X16126Y17038
X16126Y16038
X16126Y15038
X16126Y14038
X16126Y13038
X16126Y12038
X16126Y11038
X16126Y10038
X16126Y9038
X16126Y8038
X16126Y7038
X16126Y6038
X16126Y5038
X22126Y5038
X22126Y6038
X22126Y7038
X22126Y8038
X22126Y9038
X22126Y10038
X22126Y11038
X22126Y12038
X22126Y13038
X22126Y14038
X22126Y15038
X22126Y16038
X22126Y17038
X22126Y18038
X22126Y19038
X22126Y20038
X22126Y23038
X22126Y24038
T04
X11001Y7913
X11001Y6913
X11001Y5913
X10001Y5913
X10001Y6913
X10001Y7913
M30
