G75*
G70*
%OFA0B0*%
%FSLAX24Y24*%
%IPPOS*%
%LPD*%
%AMOC8*
5,1,8,0,0,1.08239X$1,22.5*
%
%ADD10R,0.2362X0.0827*%
%ADD11R,0.0787X0.0787*%
%ADD12C,0.0787*%
%ADD13C,0.0833*%
%ADD14OC8,0.0833*%
%ADD15C,0.0906*%
%ADD16C,0.0240*%
%ADD17R,0.1000X0.1000*%
%ADD18C,0.0020*%
D10*
X005126Y003913D03*
X005126Y004913D03*
X005126Y005913D03*
X005126Y006913D03*
X005126Y008413D03*
X005126Y009413D03*
X005126Y010413D03*
X005126Y011413D03*
X005126Y012413D03*
X005126Y013413D03*
X005126Y014413D03*
X005126Y015413D03*
X005126Y016413D03*
X005126Y017413D03*
X005126Y018413D03*
X005126Y019413D03*
X005126Y020413D03*
X005126Y021413D03*
X005126Y022413D03*
X005126Y023413D03*
X005126Y024413D03*
D11*
X016126Y024038D03*
X016126Y023038D03*
D12*
X016126Y020038D03*
X016126Y019038D03*
X016126Y018038D03*
X016126Y017038D03*
X016126Y016038D03*
X016126Y015038D03*
X016126Y014038D03*
X016126Y013038D03*
X016126Y012038D03*
X016126Y011038D03*
X016126Y010038D03*
X016126Y009038D03*
X016126Y008038D03*
X016126Y007038D03*
X016126Y006038D03*
X016126Y005038D03*
X022126Y005038D03*
X022126Y006038D03*
X022126Y007038D03*
X022126Y008038D03*
X022126Y009038D03*
X022126Y010038D03*
X022126Y011038D03*
X022126Y012038D03*
X022126Y013038D03*
X022126Y014038D03*
X022126Y015038D03*
X022126Y016038D03*
X022126Y017038D03*
X022126Y018038D03*
X022126Y019038D03*
X022126Y020038D03*
X022126Y023038D03*
X022126Y024038D03*
D13*
X010001Y007913D03*
D14*
X011001Y007913D03*
X011001Y006913D03*
X011001Y005913D03*
X010001Y005913D03*
X010001Y006913D03*
D15*
X012001Y008788D03*
X011126Y010538D03*
X011126Y012038D03*
X007626Y008788D03*
X007626Y007663D03*
X006876Y005913D03*
X006876Y003913D03*
X014376Y007038D03*
X014876Y008038D03*
X015251Y009038D03*
X015091Y006038D03*
X006751Y015413D03*
X008876Y017163D03*
X009251Y015913D03*
X011126Y017788D03*
X011126Y018913D03*
X011001Y021288D03*
X008001Y019413D03*
X006876Y019413D03*
X007001Y018413D03*
X023001Y017038D03*
D16*
X023001Y004413D01*
X022626Y004038D01*
X012751Y004038D01*
X011876Y004913D01*
X010001Y004913D01*
X010001Y005913D01*
X010001Y004913D02*
X005126Y004913D01*
X005126Y005913D02*
X006876Y005913D01*
X006877Y006913D02*
X007626Y007662D01*
X007626Y007663D01*
X006877Y006913D02*
X005251Y006913D01*
X005251Y006788D01*
X005126Y006788D01*
X005126Y006913D01*
X005126Y008413D02*
X006751Y008413D01*
X007126Y008788D01*
X007626Y008788D01*
X007001Y009788D02*
X010376Y009788D01*
X011126Y010538D01*
X009626Y010538D02*
X011126Y012038D01*
X009626Y010538D02*
X006626Y010538D01*
X006501Y010413D01*
X005126Y010413D01*
X005126Y011413D02*
X009001Y011413D01*
X011376Y013788D01*
X011376Y017038D01*
X011126Y017788D01*
X010251Y017663D02*
X010251Y018288D01*
X010751Y018788D01*
X011126Y018913D01*
X010251Y017663D02*
X010751Y016788D01*
X010751Y014288D01*
X008876Y012413D01*
X005126Y012413D01*
X005126Y013413D02*
X008751Y013413D01*
X010126Y014788D01*
X010126Y016538D01*
X009501Y017788D01*
X009501Y019788D01*
X011001Y021288D01*
X011376Y022163D02*
X012001Y021538D01*
X012001Y008788D01*
X010251Y008788D01*
X010001Y008538D01*
X010001Y007913D01*
X011001Y006913D02*
X012376Y006913D01*
X012751Y007288D01*
X012751Y007253D01*
X013966Y006038D01*
X015091Y006038D01*
X014376Y007038D02*
X013501Y007913D01*
X013501Y022038D01*
X011876Y023663D01*
X009251Y023663D01*
X008001Y022413D01*
X005126Y022413D01*
X005126Y021413D02*
X008251Y021413D01*
X009751Y022913D01*
X011626Y022913D01*
X012751Y021788D01*
X012751Y007288D01*
X014251Y008663D02*
X014876Y008038D01*
X014251Y008663D02*
X014251Y022288D01*
X012126Y024413D01*
X008751Y024413D01*
X007751Y023413D01*
X005126Y023413D01*
X005126Y024413D02*
X007376Y024413D01*
X008126Y025163D01*
X012376Y025163D01*
X015001Y022538D01*
X015001Y009538D01*
X015251Y009038D01*
X009251Y015038D02*
X009251Y015913D01*
X009251Y015038D02*
X008626Y014413D01*
X005126Y014413D01*
X005126Y015413D02*
X006751Y015413D01*
X008126Y016413D02*
X008876Y017163D01*
X008126Y016413D02*
X005126Y016413D01*
X005126Y017413D02*
X007376Y017413D01*
X008126Y018163D01*
X008126Y019288D01*
X008001Y019413D01*
X008751Y020413D02*
X010501Y022163D01*
X011376Y022163D01*
X008751Y020413D02*
X005126Y020413D01*
X005126Y019413D02*
X006876Y019413D01*
X007001Y018413D02*
X005126Y018413D01*
X007001Y009788D02*
X006626Y009413D01*
X005126Y009413D01*
X005126Y003913D02*
X006876Y003913D01*
D17*
X004251Y003788D03*
X024751Y003788D03*
X024751Y026288D03*
X004251Y026288D03*
D18*
X015751Y026538D02*
X016501Y026538D01*
X016126Y025538D01*
X015751Y026538D01*
X015755Y026525D02*
X016496Y026525D01*
X016489Y026507D02*
X015762Y026507D01*
X015769Y026488D02*
X016482Y026488D01*
X016475Y026470D02*
X015776Y026470D01*
X015783Y026451D02*
X016468Y026451D01*
X016461Y026433D02*
X015790Y026433D01*
X015797Y026414D02*
X016454Y026414D01*
X016447Y026396D02*
X015804Y026396D01*
X015811Y026377D02*
X016440Y026377D01*
X016433Y026359D02*
X015818Y026359D01*
X015825Y026340D02*
X016426Y026340D01*
X016420Y026322D02*
X015832Y026322D01*
X015839Y026303D02*
X016413Y026303D01*
X016406Y026285D02*
X015846Y026285D01*
X015852Y026266D02*
X016399Y026266D01*
X016392Y026248D02*
X015859Y026248D01*
X015866Y026229D02*
X016385Y026229D01*
X016378Y026211D02*
X015873Y026211D01*
X015880Y026192D02*
X016371Y026192D01*
X016364Y026174D02*
X015887Y026174D01*
X015894Y026155D02*
X016357Y026155D01*
X016350Y026137D02*
X015901Y026137D01*
X015908Y026118D02*
X016343Y026118D01*
X016336Y026100D02*
X015915Y026100D01*
X015922Y026081D02*
X016329Y026081D01*
X016322Y026063D02*
X015929Y026063D01*
X015936Y026044D02*
X016315Y026044D01*
X016309Y026026D02*
X015943Y026026D01*
X015950Y026007D02*
X016302Y026007D01*
X016295Y025989D02*
X015957Y025989D01*
X015963Y025970D02*
X016288Y025970D01*
X016281Y025952D02*
X015970Y025952D01*
X015977Y025933D02*
X016274Y025933D01*
X016267Y025915D02*
X015984Y025915D01*
X015991Y025896D02*
X016260Y025896D01*
X016253Y025878D02*
X015998Y025878D01*
X016005Y025859D02*
X016246Y025859D01*
X016239Y025841D02*
X016012Y025841D01*
X016019Y025822D02*
X016232Y025822D01*
X016225Y025804D02*
X016026Y025804D01*
X016033Y025785D02*
X016218Y025785D01*
X016211Y025767D02*
X016040Y025767D01*
X016047Y025748D02*
X016204Y025748D01*
X016198Y025730D02*
X016054Y025730D01*
X016061Y025711D02*
X016191Y025711D01*
X016184Y025693D02*
X016068Y025693D01*
X016074Y025674D02*
X016177Y025674D01*
X016170Y025656D02*
X016081Y025656D01*
X016088Y025637D02*
X016163Y025637D01*
X016156Y025619D02*
X016095Y025619D01*
X016102Y025600D02*
X016149Y025600D01*
X016142Y025582D02*
X016109Y025582D01*
X016116Y025563D02*
X016135Y025563D01*
X016128Y025545D02*
X016123Y025545D01*
X008682Y008210D02*
X008501Y008210D01*
X008501Y008192D02*
X008725Y008192D01*
X008769Y008173D02*
X008501Y008173D01*
X008501Y008155D02*
X008812Y008155D01*
X008855Y008136D02*
X008501Y008136D01*
X008501Y008118D02*
X008898Y008118D01*
X008941Y008099D02*
X008501Y008099D01*
X008501Y008081D02*
X008984Y008081D01*
X009028Y008062D02*
X008501Y008062D01*
X008501Y008044D02*
X009071Y008044D01*
X009114Y008025D02*
X008501Y008025D01*
X008501Y008007D02*
X009157Y008007D01*
X009200Y007988D02*
X008501Y007988D01*
X008501Y007970D02*
X009243Y007970D01*
X009287Y007951D02*
X008501Y007951D01*
X008501Y007933D02*
X009330Y007933D01*
X009335Y007896D02*
X008501Y007896D01*
X008501Y007914D02*
X009373Y007914D01*
X009376Y007913D02*
X008501Y007538D01*
X008501Y008288D01*
X009376Y007913D01*
X009292Y007877D02*
X008501Y007877D01*
X008501Y007859D02*
X009249Y007859D01*
X009206Y007840D02*
X008501Y007840D01*
X008501Y007822D02*
X009162Y007822D01*
X009119Y007803D02*
X008501Y007803D01*
X008501Y007785D02*
X009076Y007785D01*
X009033Y007766D02*
X008501Y007766D01*
X008501Y007748D02*
X008990Y007748D01*
X008947Y007729D02*
X008501Y007729D01*
X008501Y007711D02*
X008903Y007711D01*
X008860Y007692D02*
X008501Y007692D01*
X008501Y007674D02*
X008817Y007674D01*
X008774Y007655D02*
X008501Y007655D01*
X008501Y007637D02*
X008731Y007637D01*
X008688Y007618D02*
X008501Y007618D01*
X008501Y007600D02*
X008644Y007600D01*
X008601Y007581D02*
X008501Y007581D01*
X008501Y007563D02*
X008558Y007563D01*
X008515Y007544D02*
X008501Y007544D01*
X008501Y008229D02*
X008639Y008229D01*
X008596Y008247D02*
X008501Y008247D01*
X008501Y008266D02*
X008553Y008266D01*
X008510Y008284D02*
X008501Y008284D01*
M02*
