G75*
G70*
%OFA0B0*%
%FSLAX24Y24*%
%IPPOS*%
%LPD*%
%AMOC8*
5,1,8,0,0,1.08239X$1,22.5*
%
%ADD10R,0.2442X0.0907*%
%ADD11R,0.0867X0.0867*%
%ADD12C,0.0867*%
%ADD13C,0.0913*%
%ADD14OC8,0.0913*%
%ADD15C,0.0986*%
%ADD16R,0.1080X0.1080*%
D10*
X005126Y003913D03*
X005126Y004913D03*
X005126Y005913D03*
X005126Y006913D03*
X005126Y008413D03*
X005126Y009413D03*
X005126Y010413D03*
X005126Y011413D03*
X005126Y012413D03*
X005126Y013413D03*
X005126Y014413D03*
X005126Y015413D03*
X005126Y016413D03*
X005126Y017413D03*
X005126Y018413D03*
X005126Y019413D03*
X005126Y020413D03*
X005126Y021413D03*
X005126Y022413D03*
X005126Y023413D03*
X005126Y024413D03*
D11*
X016126Y024038D03*
X016126Y023038D03*
D12*
X016126Y020038D03*
X016126Y019038D03*
X016126Y018038D03*
X016126Y017038D03*
X016126Y016038D03*
X016126Y015038D03*
X016126Y014038D03*
X016126Y013038D03*
X016126Y012038D03*
X016126Y011038D03*
X016126Y010038D03*
X016126Y009038D03*
X016126Y008038D03*
X016126Y007038D03*
X016126Y006038D03*
X016126Y005038D03*
X022126Y005038D03*
X022126Y006038D03*
X022126Y007038D03*
X022126Y008038D03*
X022126Y009038D03*
X022126Y010038D03*
X022126Y011038D03*
X022126Y012038D03*
X022126Y013038D03*
X022126Y014038D03*
X022126Y015038D03*
X022126Y016038D03*
X022126Y017038D03*
X022126Y018038D03*
X022126Y019038D03*
X022126Y020038D03*
X022126Y023038D03*
X022126Y024038D03*
D13*
X010001Y007913D03*
D14*
X011001Y007913D03*
X011001Y006913D03*
X011001Y005913D03*
X010001Y005913D03*
X010001Y006913D03*
D15*
X012001Y008788D03*
X011126Y010538D03*
X011126Y012038D03*
X007626Y008788D03*
X007626Y007663D03*
X006876Y005913D03*
X006876Y003913D03*
X014376Y007038D03*
X014876Y008038D03*
X015251Y009038D03*
X015091Y006038D03*
X006751Y015413D03*
X008876Y017163D03*
X009251Y015913D03*
X011126Y017788D03*
X011126Y018913D03*
X011001Y021288D03*
X008001Y019413D03*
X006876Y019413D03*
X007001Y018413D03*
X023001Y017038D03*
D16*
X004251Y003788D03*
X024751Y003788D03*
X024751Y026288D03*
X004251Y026288D03*
M02*
