G75*
G70*
%OFA0B0*%
%FSLAX24Y24*%
%IPPOS*%
%LPD*%
%AMOC8*
5,1,8,0,0,1.08239X$1,22.5*
%
%ADD10C,0.0150*%
%ADD11C,0.0512*%
%ADD12R,0.1772X0.0394*%
%ADD13R,0.2362X0.0827*%
%ADD14R,0.0591X0.0512*%
%ADD15R,0.0512X0.0630*%
%ADD16C,0.0320*%
%ADD17C,0.0160*%
%ADD18C,0.0120*%
%ADD19R,0.1000X0.1000*%
%ADD20C,0.0240*%
D10*
X018450Y020441D02*
X018592Y020441D01*
X018734Y020583D01*
X018734Y021292D01*
X018308Y021292D01*
X018167Y021150D01*
X018167Y020867D01*
X018308Y020725D01*
X018734Y020725D01*
X019087Y020867D02*
X019229Y021009D01*
X019655Y021009D01*
X019655Y021150D02*
X019655Y020725D01*
X019229Y020725D01*
X019087Y020867D01*
X019229Y021292D02*
X019513Y021292D01*
X019655Y021150D01*
X020008Y021009D02*
X020150Y021150D01*
X020434Y021150D01*
X020575Y021009D01*
X020575Y020867D01*
X020434Y020725D01*
X020150Y020725D01*
X020008Y020867D01*
X020008Y021009D01*
X020150Y021150D02*
X020008Y021292D01*
X020008Y021434D01*
X020150Y021576D01*
X020434Y021576D01*
X020575Y021434D01*
X020575Y021292D01*
X020434Y021150D01*
X019604Y023475D02*
X019321Y023475D01*
X019179Y023617D01*
X019179Y023900D01*
X019604Y023900D01*
X019746Y023759D01*
X019746Y023617D01*
X019604Y023475D01*
X019179Y023900D02*
X019463Y024184D01*
X019746Y024326D01*
X018825Y023475D02*
X018258Y023475D01*
X018542Y023475D02*
X018542Y024326D01*
X018258Y024042D01*
X017905Y023900D02*
X017905Y023475D01*
X017479Y023475D01*
X017337Y023617D01*
X017479Y023759D01*
X017905Y023759D01*
X017905Y023900D02*
X017763Y024042D01*
X017479Y024042D01*
X016984Y024042D02*
X016984Y023333D01*
X016842Y023191D01*
X016700Y023191D01*
X016558Y023475D02*
X016984Y023475D01*
X016558Y023475D02*
X016417Y023617D01*
X016417Y023900D01*
X016558Y024042D01*
X016984Y024042D01*
X016063Y023900D02*
X016063Y023759D01*
X015496Y023759D01*
X015496Y023900D02*
X015496Y023617D01*
X015638Y023475D01*
X015921Y023475D01*
X016063Y023900D02*
X015921Y024042D01*
X015638Y024042D01*
X015496Y023900D01*
X015142Y024326D02*
X015142Y023475D01*
X014575Y023475D02*
X014575Y024326D01*
X014859Y024042D01*
X015142Y024326D01*
X016325Y021576D02*
X016609Y021292D01*
X016892Y021576D01*
X016892Y020725D01*
X017246Y020867D02*
X017246Y021150D01*
X017388Y021292D01*
X017671Y021292D01*
X017813Y021150D01*
X017813Y021009D01*
X017246Y021009D01*
X017246Y020867D02*
X017388Y020725D01*
X017671Y020725D01*
X016325Y020725D02*
X016325Y021576D01*
D11*
X012375Y023400D03*
X006375Y023400D03*
X006375Y022400D03*
X006375Y021400D03*
X006375Y020400D03*
X006375Y019400D03*
X006375Y018400D03*
X006375Y017400D03*
X006375Y016400D03*
X006375Y015400D03*
X006375Y014400D03*
X006375Y013400D03*
X006375Y011400D03*
X006375Y009400D03*
X006375Y008400D03*
X006375Y007400D03*
X006375Y006400D03*
X006375Y005400D03*
X006375Y004400D03*
X012375Y004400D03*
X016625Y004650D03*
X016625Y003650D03*
X016625Y002650D03*
X016625Y001650D03*
X019625Y001650D03*
X019625Y002650D03*
X019625Y003650D03*
X019625Y004650D03*
X019625Y005650D03*
X019625Y006650D03*
X019625Y008650D03*
X019625Y009650D03*
X019625Y010650D03*
X019625Y011650D03*
X016625Y011650D03*
X016625Y010650D03*
X016625Y009650D03*
X016625Y008650D03*
X016625Y007650D03*
X016625Y006650D03*
X016625Y012650D03*
X016625Y014650D03*
X012375Y014400D03*
X012375Y013400D03*
D12*
X012875Y013400D03*
X012875Y014400D03*
X016125Y014650D03*
X016125Y012650D03*
X016125Y011650D03*
X016125Y010650D03*
X016125Y009650D03*
X016125Y008650D03*
X016125Y007650D03*
X016125Y006650D03*
X016125Y004650D03*
X016125Y003650D03*
X016125Y002650D03*
X016125Y001650D03*
X012875Y004400D03*
X005875Y004400D03*
X005875Y005400D03*
X005875Y006400D03*
X005875Y007400D03*
X005875Y008400D03*
X005875Y009400D03*
X005875Y011400D03*
X005875Y013400D03*
X005875Y014400D03*
X005875Y015400D03*
X005875Y016400D03*
X005875Y017400D03*
X005875Y018400D03*
X005875Y019400D03*
X005875Y020400D03*
X005875Y021400D03*
X005875Y022400D03*
X005875Y023400D03*
X012875Y023400D03*
X020375Y011650D03*
X020375Y010650D03*
X020375Y009650D03*
X020375Y008650D03*
X020375Y006650D03*
X020375Y005650D03*
X020375Y004650D03*
X020375Y003650D03*
X020375Y002650D03*
X020375Y001650D03*
D13*
X001500Y000900D03*
X001500Y001900D03*
X001500Y002900D03*
X001500Y003900D03*
X001500Y005400D03*
X001500Y006400D03*
X001500Y007400D03*
X001500Y008400D03*
X001500Y009400D03*
X001500Y010400D03*
X001500Y011400D03*
X001500Y012400D03*
X001500Y013400D03*
X001500Y014400D03*
X001500Y015400D03*
X001500Y016400D03*
X001500Y017400D03*
X001500Y018400D03*
X001500Y019400D03*
X001500Y020400D03*
X001500Y021400D03*
D14*
X011125Y014274D03*
X011125Y013526D03*
X017625Y008524D03*
X017625Y007776D03*
D15*
X003999Y003650D03*
X003251Y003650D03*
D16*
X001500Y002900D02*
X009250Y002900D01*
X010250Y002400D01*
X009250Y000900D01*
X001500Y000900D01*
X001500Y001900D02*
X008125Y001900D01*
X006375Y004400D02*
X005875Y004400D01*
X005250Y004400D01*
X002750Y006400D01*
X001500Y006400D01*
X001500Y007400D02*
X002750Y007400D01*
X005250Y005400D01*
X005875Y005400D01*
X006375Y005400D01*
X006750Y005400D01*
X006375Y006400D02*
X005875Y006400D01*
X005250Y006400D01*
X002750Y008400D01*
X001500Y008400D01*
X001500Y009400D02*
X002750Y009400D01*
X005250Y007400D01*
X005875Y007400D01*
X006375Y007400D01*
X006375Y008400D02*
X005875Y008400D01*
X005250Y008400D01*
X002750Y010400D01*
X001500Y010400D01*
X001500Y011400D02*
X002750Y011400D01*
X005250Y009400D01*
X005875Y009400D01*
X006375Y009400D01*
X006375Y011400D02*
X004250Y011400D01*
X002750Y012400D01*
X001500Y012400D01*
X001500Y013400D02*
X003375Y013400D01*
X002750Y014400D02*
X001500Y014400D01*
X001500Y015400D02*
X002750Y015400D01*
X005250Y017400D01*
X005875Y017400D01*
X006375Y017400D01*
X006375Y016400D02*
X005875Y016400D01*
X005250Y016400D01*
X002750Y014400D01*
X002750Y016400D02*
X001500Y016400D01*
X001250Y016400D01*
X001500Y017400D02*
X002750Y017400D01*
X005250Y019400D01*
X005875Y019400D01*
X006375Y019400D01*
X006375Y018400D02*
X005875Y018400D01*
X005250Y018400D01*
X002750Y016400D01*
X002750Y018400D02*
X001500Y018400D01*
X001500Y019400D02*
X002750Y019400D01*
X005250Y021400D01*
X005875Y021400D01*
X006375Y021400D01*
X006375Y020400D02*
X005875Y020400D01*
X005250Y020400D01*
X002750Y018400D01*
X002750Y020400D02*
X001500Y020400D01*
X001250Y020400D01*
X001500Y021400D02*
X002750Y021400D01*
X005250Y023400D01*
X005875Y023400D01*
X005875Y022400D02*
X005250Y022400D01*
X002750Y020400D01*
X005875Y022400D02*
X006375Y022400D01*
X009125Y023400D02*
X012375Y023400D01*
X012875Y023400D01*
X008125Y015400D02*
X006375Y015400D01*
X005875Y015400D01*
X005875Y014400D02*
X006375Y014400D01*
X006375Y013400D02*
X005875Y013400D01*
X006375Y013400D02*
X007875Y013400D01*
X008875Y012400D01*
X010250Y012400D01*
X013000Y012400D01*
X012875Y013400D02*
X012375Y013400D01*
X011125Y013526D01*
X011125Y014274D02*
X012375Y014400D01*
X012875Y014400D01*
X016125Y014650D02*
X016625Y014650D01*
X016625Y012650D02*
X016125Y012650D01*
X016125Y011650D02*
X016625Y011650D01*
X016625Y010650D02*
X016125Y010650D01*
X016125Y009650D02*
X016625Y009650D01*
X016625Y008650D02*
X016125Y008650D01*
X016125Y007650D02*
X016625Y007650D01*
X016625Y006650D02*
X016125Y006650D01*
X018000Y006650D02*
X018000Y002400D01*
X016625Y002650D02*
X016125Y002650D01*
X015375Y002650D02*
X013625Y004400D01*
X012875Y004400D02*
X012375Y004400D01*
X016125Y003650D02*
X016625Y003650D01*
X016625Y001650D02*
X016125Y001650D01*
X019625Y001650D02*
X020375Y001650D01*
X020375Y002650D02*
X019625Y002650D01*
X019625Y003650D02*
X020375Y003650D01*
X020375Y004650D02*
X019625Y004650D01*
X019625Y005650D02*
X020375Y005650D01*
X020375Y006650D02*
X019625Y006650D01*
X018000Y006650D01*
X019625Y008650D02*
X020375Y008650D01*
X020375Y009650D02*
X019625Y009650D01*
X019625Y010650D02*
X020375Y010650D01*
X020375Y011650D02*
X019625Y011650D01*
X006375Y011400D02*
X005875Y011400D01*
D17*
X006375Y011400D02*
X007000Y011400D01*
X008500Y009900D01*
X012125Y009900D01*
X014500Y012275D01*
X015000Y013150D01*
X017250Y013150D01*
X017750Y012650D01*
X017750Y009650D01*
X017250Y009150D01*
X015000Y009150D01*
X014125Y008275D01*
X014125Y007400D01*
X014875Y006650D01*
X016125Y006650D01*
X016625Y007650D02*
X017125Y007776D01*
X017625Y007776D01*
X018751Y007776D01*
X018751Y008649D01*
X019624Y008649D01*
X019625Y008650D01*
X019250Y009150D02*
X021500Y009150D01*
X022125Y008525D01*
X022125Y007275D01*
X021500Y006650D01*
X020375Y006650D01*
X021000Y006650D01*
X021500Y005650D02*
X020375Y005650D01*
X020375Y004650D02*
X021750Y004650D01*
X024125Y007025D01*
X024125Y013650D01*
X020250Y017900D01*
X012500Y017900D01*
X010750Y019400D01*
X006375Y019400D01*
X006375Y018400D02*
X011000Y018400D01*
X012250Y017400D01*
X020000Y017400D01*
X023625Y013400D01*
X023625Y007775D01*
X021500Y005650D01*
X021750Y003650D02*
X020375Y003650D01*
X020375Y002650D02*
X021750Y002650D01*
X025125Y006025D01*
X025125Y014150D01*
X020750Y018900D01*
X013500Y018900D01*
X011000Y021400D01*
X006375Y021400D01*
X006375Y020400D02*
X010750Y020400D01*
X012750Y018400D01*
X020500Y018400D01*
X024625Y013900D01*
X024625Y006525D01*
X021750Y003650D01*
X021750Y001650D02*
X020375Y001650D01*
X021750Y001650D02*
X025625Y005525D01*
X025625Y014400D01*
X021000Y019400D01*
X014000Y019400D01*
X011500Y021900D01*
X008000Y021900D01*
X006375Y022400D01*
X006375Y023400D02*
X007125Y023400D01*
X008125Y022400D01*
X012000Y022400D01*
X014500Y019900D01*
X021250Y019900D01*
X026125Y014650D01*
X026125Y004900D01*
X022250Y001025D01*
X018125Y001025D01*
X017000Y001650D01*
X016625Y001650D01*
X016125Y002650D02*
X015375Y002650D01*
X015250Y003650D02*
X014000Y004900D01*
X009375Y004900D01*
X008875Y004400D01*
X006375Y004400D01*
X006375Y005400D02*
X014375Y005400D01*
X015125Y004650D01*
X016125Y004650D01*
X016625Y004650D01*
X016125Y003650D02*
X015250Y003650D01*
X013625Y004400D02*
X012875Y004400D01*
X012375Y004400D02*
X009875Y004400D01*
X009313Y003838D01*
X004750Y003838D01*
X002875Y005400D01*
X001500Y005400D01*
X001500Y003900D02*
X003251Y003650D01*
X003999Y003650D02*
X004875Y003400D01*
X011000Y003400D01*
X012250Y002150D01*
X017750Y002150D01*
X017500Y007150D02*
X015125Y007150D01*
X014750Y007525D01*
X014750Y008275D01*
X015125Y008650D01*
X016625Y008650D01*
X017125Y008524D01*
X017625Y008524D01*
X018250Y009150D02*
X018751Y008649D01*
X019250Y009150D02*
X018750Y009650D01*
X018750Y010650D01*
X019125Y011025D01*
X018750Y011275D02*
X018250Y010775D01*
X018250Y009150D01*
X020375Y008650D02*
X021000Y008650D01*
X020375Y009650D02*
X022375Y009650D01*
X023125Y010400D01*
X023125Y013150D01*
X019750Y016900D01*
X011750Y016900D01*
X011000Y017400D01*
X006375Y017400D01*
X006375Y016400D02*
X019500Y016400D01*
X022625Y012900D01*
X022625Y010900D01*
X022375Y010650D01*
X020375Y010650D01*
X019625Y011650D02*
X017750Y013525D01*
X014875Y013525D01*
X014625Y013275D01*
X014125Y012525D01*
X012500Y010900D01*
X009125Y010900D01*
X007875Y012150D01*
X005125Y012150D01*
X005000Y013400D02*
X006375Y013400D01*
X005875Y014400D02*
X006875Y014400D01*
X007625Y014025D01*
X009375Y014025D01*
X010500Y013400D01*
X010999Y013400D01*
X011125Y013526D01*
X010500Y014400D02*
X010250Y014525D01*
X007750Y014525D01*
X007000Y014900D01*
X004875Y014900D01*
X004500Y014525D01*
X004500Y013900D01*
X005000Y013400D01*
X005875Y015400D02*
X008125Y015400D01*
X014000Y015525D01*
X014875Y014650D01*
X016625Y014650D01*
X018188Y013838D02*
X021250Y012275D01*
X021625Y011900D01*
X021625Y011275D01*
X021938Y011025D02*
X022125Y011275D01*
X022125Y012150D01*
X021375Y012900D01*
X018750Y014150D01*
X014500Y014150D01*
X013500Y013400D01*
X012875Y013400D01*
X013000Y012400D02*
X013750Y012775D01*
X014125Y013275D01*
X014688Y013838D01*
X018188Y013838D01*
X016625Y012650D02*
X015500Y012650D01*
X012250Y009400D01*
X006375Y009400D01*
X006375Y008400D02*
X012000Y008400D01*
X015250Y011650D01*
X016125Y011650D01*
X016125Y010650D02*
X015000Y010650D01*
X011750Y007400D01*
X006375Y007400D01*
X006375Y006400D02*
X011500Y006400D01*
X014750Y009650D01*
X016125Y009650D01*
X012875Y014400D02*
X010500Y014400D01*
D18*
X018750Y011275D02*
X021625Y011275D01*
X021938Y011025D02*
X019125Y011025D01*
D19*
X010250Y012400D03*
X009125Y010900D03*
X008125Y015400D03*
X009125Y023400D03*
X010250Y002400D03*
X008125Y001900D03*
D20*
X017500Y007150D02*
X018000Y006650D01*
X018000Y002400D02*
X017750Y002150D01*
X005125Y012150D02*
X003375Y013400D01*
M02*
