%
M48
M72
T01C0.0236
T02C0.0320
%
T01
X8125Y1900
X10250Y2400
X9125Y10900
X10250Y12400
X8125Y15400
X9125Y23400
T02
X6375Y4400
X6375Y5400
X6375Y6400
X6375Y7400
X6375Y8400
X6375Y9400
X6375Y11400
X6375Y13400
X6375Y14400
X6375Y15400
X6375Y16400
X6375Y17400
X6375Y18400
X6375Y19400
X6375Y20400
X6375Y21400
X6375Y22400
X6375Y23400
X12375Y23400
X16625Y14650
X16625Y12650
X16625Y11650
X16625Y10650
X16625Y9650
X16625Y8650
X16625Y7650
X16625Y6650
X16625Y4650
X16625Y3650
X16625Y2650
X16625Y1650
X19625Y1650
X19625Y2650
X19625Y3650
X19625Y4650
X19625Y5650
X19625Y6650
X19625Y8650
X19625Y9650
X19625Y10650
X19625Y11650
X12375Y13400
X12375Y14400
X12375Y4400
M30
