G75*
G70*
%OFA0B0*%
%FSLAX24Y24*%
%IPPOS*%
%LPD*%
%AMOC8*
5,1,8,0,0,1.08239X$1,22.5*
%
%ADD10R,0.2362X0.0827*%
%ADD11C,0.0320*%
%ADD12R,0.1000X0.1000*%
%ADD13C,0.0160*%
D10*
X001515Y000900D03*
X001515Y001900D03*
X001515Y002900D03*
X001515Y003900D03*
X001515Y005400D03*
X001515Y006400D03*
X001515Y007400D03*
X001515Y008400D03*
X001515Y009400D03*
X001515Y010400D03*
X001515Y011400D03*
X001515Y012400D03*
X001515Y013400D03*
X001515Y014400D03*
X001515Y015400D03*
X001515Y016400D03*
X001515Y017400D03*
X001515Y018400D03*
X001515Y019400D03*
X001515Y020400D03*
X001515Y021400D03*
D11*
X003765Y021400D01*
X003765Y020400D01*
X003765Y019400D01*
X003765Y018400D01*
X003765Y017400D01*
X003765Y016400D01*
X003765Y015400D01*
X003765Y014400D01*
X003765Y013400D01*
X001515Y013400D01*
X001515Y012400D02*
X003765Y012400D01*
X003765Y013400D01*
X003765Y012400D02*
X003765Y011400D01*
X003765Y010400D01*
X003765Y009400D01*
X003765Y008400D01*
X003765Y007400D01*
X003765Y006400D01*
X003765Y005400D01*
X001515Y005400D01*
X001515Y006400D02*
X003765Y006400D01*
X003765Y005400D02*
X003765Y003900D01*
X003765Y002900D01*
X001515Y002900D01*
X001515Y001900D02*
X003765Y001900D01*
X003765Y002900D01*
X003765Y001900D02*
X003765Y000900D01*
X008890Y000900D01*
X009390Y001900D01*
X003765Y000900D02*
X001515Y000900D01*
X001515Y003900D02*
X003765Y003900D01*
X003765Y007400D02*
X001515Y007400D01*
X001515Y008400D02*
X003765Y008400D01*
X003765Y009400D02*
X001515Y009400D01*
X001515Y010400D02*
X003765Y010400D01*
X003765Y011400D02*
X001515Y011400D01*
X001515Y014400D02*
X003765Y014400D01*
X003765Y015400D02*
X001515Y015400D01*
X001515Y016400D02*
X003765Y016400D01*
X003765Y017400D02*
X001515Y017400D01*
X001515Y018400D02*
X003765Y018400D01*
X003765Y019400D02*
X001515Y019400D01*
X001515Y020400D02*
X003765Y020400D01*
D12*
X000640Y000775D03*
X008140Y001900D03*
X009390Y001900D03*
X010640Y010900D03*
X009515Y012400D03*
X008140Y015400D03*
X010640Y023400D03*
X000640Y024400D03*
X025890Y024400D03*
X025890Y000775D03*
D13*
X010640Y010900D02*
X010640Y023400D01*
X008140Y015400D02*
X008140Y001900D01*
X009390Y001900D02*
X009515Y012400D01*
M02*
