G75*
G70*
%OFA0B0*%
%FSLAX24Y24*%
%IPPOS*%
%LPD*%
%AMOC8*
5,1,8,0,0,1.08239X$1,22.5*
%
%ADD10C,0.0150*%
%ADD11R,0.1772X0.0394*%
%ADD12R,0.2362X0.0827*%
%ADD13R,0.0591X0.0512*%
%ADD14R,0.0512X0.0630*%
%ADD15R,0.0906X0.0906*%
%ADD16R,0.0630X0.0787*%
%ADD17C,0.0320*%
%ADD18C,0.0160*%
%ADD19C,0.0120*%
%ADD20R,0.1000X0.1000*%
%ADD21C,0.0240*%
D10*
X015441Y016310D02*
X015587Y016165D01*
X015732Y016165D01*
X015878Y016311D01*
X015877Y016748D01*
X015586Y016747D01*
X015440Y016601D01*
X015441Y016310D01*
X015877Y016748D02*
X016169Y016457D01*
X016315Y016166D01*
X015441Y017539D02*
X015440Y018122D01*
X015440Y017831D02*
X016315Y017832D01*
X016023Y018123D01*
X015878Y018853D02*
X015441Y018852D01*
X015440Y019289D01*
X015586Y019435D01*
X015732Y019289D01*
X015732Y018852D01*
X015878Y018853D02*
X016024Y018999D01*
X016023Y019290D01*
X016024Y020103D02*
X015295Y020102D01*
X015149Y020247D01*
X015149Y020393D01*
X015440Y020539D02*
X015441Y020102D01*
X015440Y020539D02*
X015586Y020685D01*
X015877Y020685D01*
X016023Y020540D01*
X016024Y020103D01*
X015878Y021353D02*
X015732Y021352D01*
X015731Y021935D01*
X015586Y021935D02*
X015877Y021935D01*
X016023Y021790D01*
X016024Y021499D01*
X015878Y021353D01*
X015441Y021497D02*
X015440Y021789D01*
X015586Y021935D01*
X015441Y022727D02*
X016315Y022728D01*
X016023Y023019D01*
X016314Y023311D01*
X015440Y023310D01*
X019440Y021935D02*
X020314Y021936D01*
X020023Y021644D01*
X020315Y021353D01*
X019441Y021352D01*
X019586Y020685D02*
X019877Y020685D01*
X020023Y020540D01*
X020024Y020249D01*
X019878Y020103D01*
X019732Y020102D01*
X019731Y020685D01*
X019586Y020685D02*
X019440Y020539D01*
X019441Y020247D01*
X019586Y019435D02*
X019440Y019289D01*
X019441Y018852D01*
X019295Y018852D02*
X020024Y018853D01*
X020023Y019290D01*
X019877Y019435D01*
X019586Y019435D01*
X019149Y019143D02*
X019149Y018997D01*
X019295Y018852D01*
X019586Y018122D02*
X019732Y017977D01*
X019732Y017540D01*
X019878Y017540D02*
X019441Y017539D01*
X019440Y017976D01*
X019586Y018122D01*
X020023Y017977D02*
X020024Y017686D01*
X019878Y017540D01*
X020023Y016748D02*
X019877Y016602D01*
X019878Y016311D01*
X019732Y016165D01*
X019587Y016165D01*
X019441Y016310D01*
X019440Y016601D01*
X019586Y016747D01*
X019731Y016748D01*
X019877Y016602D01*
X020023Y016748D02*
X020169Y016748D01*
X020314Y016603D01*
X020315Y016312D01*
X020170Y016166D01*
X020024Y016165D01*
X019878Y016311D01*
D11*
X016140Y014650D03*
X016140Y012650D03*
X016140Y011650D03*
X016140Y010650D03*
X016140Y009650D03*
X016140Y008650D03*
X016140Y007650D03*
X016140Y006650D03*
X016140Y004650D03*
X016140Y003650D03*
X016140Y002650D03*
X016140Y001650D03*
X012890Y004400D03*
X005890Y004400D03*
X005890Y005400D03*
X005890Y006400D03*
X005890Y007400D03*
X005890Y008400D03*
X005890Y009400D03*
X005890Y011400D03*
X005890Y013400D03*
X005890Y014400D03*
X005890Y015400D03*
X005890Y016400D03*
X005890Y017400D03*
X005890Y018400D03*
X005890Y019400D03*
X005890Y020400D03*
X005890Y021400D03*
X005890Y022400D03*
X005890Y023400D03*
X012890Y023400D03*
X012890Y014400D03*
X012890Y013400D03*
X020390Y011650D03*
X020390Y010650D03*
X020390Y009650D03*
X020390Y008650D03*
X020390Y006650D03*
X020390Y005650D03*
X020390Y004650D03*
X020390Y003650D03*
X020390Y002650D03*
X020390Y001650D03*
D12*
X001515Y001900D03*
X001515Y000900D03*
X001515Y002900D03*
X001515Y003900D03*
X001515Y005400D03*
X001515Y006400D03*
X001515Y007400D03*
X001515Y008400D03*
X001515Y009400D03*
X001515Y010400D03*
X001515Y011400D03*
X001515Y012400D03*
X001515Y013400D03*
X001515Y014400D03*
X001515Y015400D03*
X001515Y016400D03*
X001515Y017400D03*
X001515Y018400D03*
X001515Y019400D03*
X001515Y020400D03*
X001515Y021400D03*
D13*
X009515Y014274D03*
X009515Y013526D03*
X017640Y008524D03*
X017640Y007776D03*
D14*
X004014Y003650D03*
X003266Y003650D03*
D15*
X013265Y015400D03*
X014390Y015400D03*
X017015Y018525D03*
X018390Y018525D03*
X018390Y019775D03*
X018390Y021025D03*
X018390Y017150D03*
X020265Y014775D03*
X020265Y013525D03*
X021765Y014775D03*
X022265Y008400D03*
X021265Y007650D03*
D16*
X021214Y013525D03*
X022316Y013525D03*
D17*
X020390Y008650D02*
X019640Y008650D01*
X017640Y008524D02*
X017140Y008649D01*
X016640Y008650D01*
X016140Y008650D01*
X016140Y007650D02*
X016640Y007650D01*
X017140Y007651D01*
X017640Y007776D01*
X018015Y006650D02*
X018015Y002400D01*
X015390Y002650D02*
X013640Y004400D01*
X012890Y004400D02*
X012390Y004400D01*
X008890Y002900D02*
X009390Y001900D01*
X008890Y000900D01*
X001515Y000900D01*
X001515Y001900D02*
X008140Y001900D01*
X008890Y002900D02*
X001515Y002900D01*
X001515Y006400D02*
X002765Y006400D01*
X005265Y004400D01*
X005890Y004400D01*
X006390Y004400D01*
X006390Y005400D02*
X005890Y005400D01*
X005265Y005400D01*
X002765Y007400D01*
X001515Y007400D01*
X001515Y008400D02*
X002765Y008400D01*
X005265Y006400D01*
X005890Y006400D01*
X006390Y006400D01*
X006390Y007400D02*
X005890Y007400D01*
X005265Y007400D01*
X002765Y009400D01*
X001515Y009400D01*
X001515Y010400D02*
X002765Y010400D01*
X005265Y008400D01*
X005890Y008400D01*
X006390Y008400D01*
X006390Y009400D02*
X005890Y009400D01*
X005265Y009400D01*
X002765Y011400D01*
X001515Y011400D01*
X001515Y012400D02*
X002765Y012400D01*
X004265Y011400D01*
X005890Y011400D01*
X006390Y011400D01*
X005140Y012150D02*
X003390Y013400D01*
X001515Y013400D01*
X001515Y014400D02*
X002765Y014400D01*
X005265Y016400D01*
X005890Y016400D01*
X006265Y016400D01*
X006515Y016400D01*
X005890Y015400D02*
X008140Y015400D01*
X006890Y014400D02*
X008140Y013525D01*
X008391Y013526D01*
X009515Y013526D01*
X010016Y013400D01*
X012890Y013400D01*
X012890Y014400D02*
X012390Y014400D01*
X012890Y014400D02*
X009889Y014399D01*
X009515Y014274D01*
X009515Y012400D02*
X008390Y012400D01*
X006890Y013400D01*
X006390Y013400D01*
X005890Y013400D01*
X005890Y014400D02*
X006390Y014400D01*
X006890Y014400D01*
X009515Y012400D02*
X013015Y012400D01*
X016140Y012650D02*
X016640Y012650D01*
X016640Y014650D02*
X016140Y014650D01*
X018015Y006650D02*
X020390Y006650D01*
X006765Y005400D02*
X006390Y005400D01*
X002765Y015400D02*
X001515Y015400D01*
X001515Y016400D02*
X001265Y016400D01*
X001515Y016400D02*
X002765Y016400D01*
X005265Y018400D01*
X005890Y018400D01*
X006390Y018400D01*
X005890Y017400D02*
X005265Y017400D01*
X002765Y015400D01*
X002765Y017400D02*
X001515Y017400D01*
X001515Y018400D02*
X002765Y018400D01*
X005265Y020400D01*
X005890Y020400D01*
X005890Y019400D02*
X005265Y019400D01*
X002765Y017400D01*
X002765Y019400D02*
X001515Y019400D01*
X001515Y020400D02*
X001265Y020400D01*
X001515Y020400D02*
X002765Y020400D01*
X005265Y022400D01*
X005890Y022400D01*
X005890Y021400D02*
X005265Y021400D01*
X002765Y019400D01*
X002765Y021400D02*
X001515Y021400D01*
X002765Y021400D02*
X005265Y023400D01*
X005890Y023400D01*
X005890Y021400D02*
X006390Y021400D01*
X010640Y023400D02*
X012890Y023400D01*
D18*
X013890Y022525D02*
X014265Y022900D01*
X014265Y023525D01*
X014890Y024150D01*
X020765Y024150D01*
X026140Y018775D01*
X026140Y004900D01*
X022265Y001025D01*
X018140Y001025D01*
X017015Y001650D01*
X016890Y001650D01*
X016640Y001650D01*
X016140Y001650D01*
X016140Y002650D02*
X015390Y002650D01*
X015265Y003650D02*
X014015Y004900D01*
X009390Y004900D01*
X008890Y004400D01*
X006390Y004400D01*
X006390Y005400D02*
X014390Y005400D01*
X015140Y004650D01*
X016140Y004650D01*
X016140Y003650D02*
X015265Y003650D01*
X013640Y004400D02*
X012890Y004400D01*
X012390Y004400D02*
X010015Y004400D01*
X009453Y003838D01*
X004765Y003838D01*
X002890Y005400D01*
X001515Y005400D01*
X001515Y003900D02*
X003266Y003650D01*
X004014Y003650D02*
X004890Y003400D01*
X010140Y003400D01*
X011390Y002150D01*
X017765Y002150D01*
X020390Y001650D02*
X022015Y001650D01*
X025640Y005275D01*
X025640Y018275D01*
X020265Y023650D01*
X015140Y023650D01*
X014828Y023338D01*
X014828Y022650D01*
X014140Y021963D01*
X009578Y021963D01*
X008140Y022400D01*
X005890Y022400D01*
X005890Y023400D02*
X008390Y023400D01*
X009765Y022525D01*
X013890Y022525D01*
X014390Y021400D02*
X015328Y022338D01*
X018453Y022338D01*
X018640Y022525D01*
X020390Y022525D01*
X025140Y017775D01*
X025140Y005650D01*
X022140Y002650D01*
X020390Y002650D01*
X020390Y003650D02*
X022265Y003650D01*
X024640Y006025D01*
X024640Y017275D01*
X020890Y021025D01*
X018390Y021025D01*
X015140Y021025D01*
X014515Y020400D01*
X005890Y020400D01*
X005890Y019400D02*
X014515Y019400D01*
X014890Y019775D01*
X018390Y019775D01*
X021015Y019775D01*
X024140Y016650D01*
X024140Y006400D01*
X022390Y004650D01*
X020390Y004650D01*
X020390Y005650D02*
X022515Y005650D01*
X023640Y006775D01*
X023640Y015900D01*
X021015Y018525D01*
X018390Y018525D01*
X017015Y018525D01*
X007765Y018525D01*
X007515Y018400D01*
X006390Y018400D01*
X005890Y017400D02*
X014640Y017400D01*
X014890Y017150D01*
X018390Y017150D01*
X021265Y017150D01*
X023140Y015275D01*
X023140Y009900D01*
X022890Y009650D01*
X020390Y009650D01*
X020390Y008650D02*
X021015Y008650D01*
X022265Y008400D01*
X022890Y009150D02*
X023140Y008900D01*
X023140Y007275D01*
X022515Y006650D01*
X020390Y006650D01*
X021015Y006650D01*
X021265Y007650D02*
X021015Y008650D01*
X019640Y008650D02*
X019639Y008649D01*
X018766Y008649D01*
X018265Y009150D01*
X018265Y010650D01*
X018765Y011150D01*
X019640Y011650D02*
X020390Y011650D01*
X019640Y011650D02*
X017765Y013525D01*
X014890Y013525D01*
X014640Y013275D01*
X014390Y012775D01*
X012140Y010900D01*
X010640Y010900D01*
X009765Y009900D02*
X011890Y009900D01*
X014765Y012525D01*
X015015Y013150D01*
X017265Y013150D01*
X017765Y012650D01*
X017765Y009650D01*
X017265Y009150D01*
X015015Y009150D01*
X014140Y008275D01*
X014140Y007400D01*
X014890Y006650D01*
X016140Y006650D01*
X015140Y007150D02*
X017515Y007150D01*
X017640Y007776D02*
X018766Y007776D01*
X018766Y008649D01*
X019265Y009150D02*
X022890Y009150D01*
X022515Y010150D02*
X021953Y010150D01*
X022140Y010650D02*
X022140Y012150D01*
X021765Y012775D01*
X021765Y014775D01*
X020890Y015650D01*
X015515Y015650D01*
X014765Y016400D01*
X006265Y016400D01*
X007015Y014900D02*
X004640Y014900D01*
X004140Y014400D01*
X004140Y013775D01*
X004515Y013400D01*
X006390Y013400D01*
X007015Y014900D02*
X008140Y014275D01*
X008141Y014274D01*
X009515Y014274D01*
X008140Y015400D02*
X013265Y015400D01*
X014390Y015400D01*
X015140Y014650D01*
X016640Y014650D01*
X017390Y014150D02*
X018015Y014775D01*
X020265Y014775D01*
X020265Y013525D01*
X021214Y013525D01*
X021015Y012525D02*
X019765Y012525D01*
X018453Y013838D01*
X014703Y013838D01*
X014140Y013275D01*
X014015Y013025D01*
X013015Y012400D01*
X012890Y013400D02*
X013515Y013400D01*
X014390Y014150D01*
X017390Y014150D01*
X016140Y012650D02*
X015515Y012650D01*
X012265Y009400D01*
X006390Y009400D01*
X006390Y008400D02*
X012015Y008400D01*
X015265Y011650D01*
X016140Y011650D01*
X016140Y010650D02*
X015015Y010650D01*
X011765Y007400D01*
X006390Y007400D01*
X006390Y006400D02*
X011515Y006400D01*
X014765Y009650D01*
X016140Y009650D01*
X016640Y008650D02*
X015140Y008650D01*
X014765Y008275D01*
X014765Y007525D01*
X015140Y007150D01*
X018765Y009525D02*
X019265Y009150D01*
X018765Y009525D02*
X018765Y009775D01*
X019140Y010150D01*
X020390Y010650D02*
X022140Y010650D01*
X022640Y010275D02*
X022640Y012525D01*
X022316Y013525D01*
X021015Y012525D02*
X021640Y011900D01*
X021640Y011150D01*
X022515Y010150D02*
X022640Y010275D01*
X014390Y021400D02*
X006390Y021400D01*
X006390Y011400D02*
X007015Y011400D01*
X009765Y009900D01*
D19*
X018765Y011150D02*
X021640Y011150D01*
X021953Y010150D02*
X019140Y010150D01*
D20*
X000640Y000775D03*
X008140Y001900D03*
X009390Y001900D03*
X010640Y010900D03*
X009515Y012400D03*
X008140Y015400D03*
X010640Y023400D03*
X000640Y024400D03*
X025890Y024400D03*
X025890Y000775D03*
D21*
X018015Y002400D02*
X017765Y002150D01*
X018015Y006650D02*
X017515Y007150D01*
X010640Y010900D02*
X006640Y012150D01*
X005140Y012150D01*
M02*
