G75*
G70*
%OFA0B0*%
%FSLAX24Y24*%
%IPPOS*%
%LPD*%
%AMOC8*
5,1,8,0,0,1.08239X$1,22.5*
%
%ADD10R,0.1852X0.0474*%
%ADD11R,0.2442X0.0907*%
%ADD12R,0.0671X0.0592*%
%ADD13R,0.0592X0.0710*%
%ADD14R,0.0986X0.0986*%
%ADD15R,0.0710X0.0867*%
%ADD16R,0.1080X0.1080*%
D10*
X005890Y004400D03*
X005890Y005400D03*
X005890Y006400D03*
X005890Y007400D03*
X005890Y008400D03*
X005890Y009400D03*
X005890Y011400D03*
X005890Y013400D03*
X005890Y014400D03*
X005890Y015400D03*
X005890Y016400D03*
X005890Y017400D03*
X005890Y018400D03*
X005890Y019400D03*
X005890Y020400D03*
X005890Y021400D03*
X005890Y022400D03*
X005890Y023400D03*
X012890Y023400D03*
X016140Y014650D03*
X016140Y012650D03*
X016140Y011650D03*
X016140Y010650D03*
X016140Y009650D03*
X016140Y008650D03*
X016140Y007650D03*
X016140Y006650D03*
X016140Y004650D03*
X016140Y003650D03*
X016140Y002650D03*
X016140Y001650D03*
X012890Y004400D03*
X020390Y004650D03*
X020390Y003650D03*
X020390Y002650D03*
X020390Y001650D03*
X020390Y005650D03*
X020390Y006650D03*
X020390Y008650D03*
X020390Y009650D03*
X020390Y010650D03*
X020390Y011650D03*
X012890Y013400D03*
X012890Y014400D03*
D11*
X001515Y014400D03*
X001515Y013400D03*
X001515Y012400D03*
X001515Y011400D03*
X001515Y010400D03*
X001515Y009400D03*
X001515Y008400D03*
X001515Y007400D03*
X001515Y006400D03*
X001515Y005400D03*
X001515Y003900D03*
X001515Y002900D03*
X001515Y001900D03*
X001515Y000900D03*
X001515Y015400D03*
X001515Y016400D03*
X001515Y017400D03*
X001515Y018400D03*
X001515Y019400D03*
X001515Y020400D03*
X001515Y021400D03*
D12*
X009515Y014274D03*
X009515Y013526D03*
X017640Y008524D03*
X017640Y007776D03*
D13*
X004014Y003650D03*
X003266Y003650D03*
D14*
X013265Y015400D03*
X014390Y015400D03*
X017015Y018525D03*
X018390Y018525D03*
X018390Y019775D03*
X018390Y021025D03*
X018390Y017150D03*
X020265Y014775D03*
X020265Y013525D03*
X021765Y014775D03*
X022265Y008400D03*
X021265Y007650D03*
D15*
X021214Y013525D03*
X022316Y013525D03*
D16*
X000640Y000775D03*
X008140Y001900D03*
X009390Y001900D03*
X010640Y010900D03*
X009515Y012400D03*
X008140Y015400D03*
X010640Y023400D03*
X000640Y024400D03*
X025890Y024400D03*
X025890Y000775D03*
M02*
