G75*
G70*
%OFA0B0*%
%FSLAX24Y24*%
%IPPOS*%
%LPD*%
%AMOC8*
5,1,8,0,0,1.08239X$1,22.5*
%
%ADD10C,0.0060*%
%ADD11C,0.0070*%
%ADD12C,0.0050*%
%ADD13C,0.0040*%
%ADD14R,0.0571X0.0295*%
%ADD15R,0.0140X0.0560*%
%ADD16R,0.0230X0.0720*%
D10*
X003360Y003400D02*
X003920Y003400D01*
X003920Y003900D02*
X003360Y003900D01*
X006790Y003500D02*
X006790Y024300D01*
X008890Y024300D01*
X008892Y024256D01*
X008898Y024213D01*
X008907Y024171D01*
X008920Y024129D01*
X008937Y024089D01*
X008957Y024050D01*
X008980Y024013D01*
X009007Y023979D01*
X009036Y023946D01*
X009069Y023917D01*
X009103Y023890D01*
X009140Y023867D01*
X009179Y023847D01*
X009219Y023830D01*
X009261Y023817D01*
X009303Y023808D01*
X009346Y023802D01*
X009390Y023800D01*
X009434Y023802D01*
X009477Y023808D01*
X009519Y023817D01*
X009561Y023830D01*
X009601Y023847D01*
X009640Y023867D01*
X009677Y023890D01*
X009711Y023917D01*
X009744Y023946D01*
X009773Y023979D01*
X009800Y024013D01*
X009823Y024050D01*
X009843Y024089D01*
X009860Y024129D01*
X009873Y024171D01*
X009882Y024213D01*
X009888Y024256D01*
X009890Y024300D01*
X011990Y024300D01*
X011990Y003500D01*
X006790Y003500D01*
X017040Y000850D02*
X019240Y000850D01*
X019240Y015450D01*
X018390Y015450D01*
X018388Y015420D01*
X018383Y015390D01*
X018374Y015361D01*
X018361Y015334D01*
X018346Y015308D01*
X018327Y015284D01*
X018306Y015263D01*
X018282Y015244D01*
X018256Y015229D01*
X018229Y015216D01*
X018200Y015207D01*
X018170Y015202D01*
X018140Y015200D01*
X018110Y015202D01*
X018080Y015207D01*
X018051Y015216D01*
X018024Y015229D01*
X017998Y015244D01*
X017974Y015263D01*
X017953Y015284D01*
X017934Y015308D01*
X017919Y015334D01*
X017906Y015361D01*
X017897Y015390D01*
X017892Y015420D01*
X017890Y015450D01*
X017040Y015450D01*
X017040Y000850D01*
X021315Y013195D02*
X022215Y013195D01*
X022215Y013855D02*
X021315Y013855D01*
D11*
X014510Y001688D02*
X014195Y001373D01*
X014615Y001373D01*
X014510Y001058D02*
X014510Y001688D01*
X013970Y001688D02*
X013970Y001058D01*
X013760Y001478D02*
X013970Y001688D01*
X013760Y001478D02*
X013550Y001688D01*
X013550Y001058D01*
X011615Y001060D02*
X011195Y001060D01*
X011405Y001060D02*
X011405Y001691D01*
X011195Y001480D01*
X010970Y001691D02*
X010970Y001060D01*
X010760Y001480D02*
X010970Y001691D01*
X010760Y001480D02*
X010550Y001691D01*
X010550Y001060D01*
D12*
X000140Y000275D02*
X000140Y004525D01*
X003015Y004525D01*
X003015Y004775D01*
X000140Y004775D01*
X000140Y024900D01*
X003015Y024900D01*
X003015Y000275D02*
X000140Y000275D01*
D13*
X003160Y004170D02*
X003160Y004630D01*
X003467Y004630D01*
X003313Y004400D02*
X003160Y004400D01*
X009255Y013750D02*
X009255Y014050D01*
X009775Y014050D02*
X009775Y013760D01*
X009757Y014795D02*
X009450Y014795D01*
X009603Y014795D02*
X009603Y015255D01*
X009450Y015102D01*
X009296Y015179D02*
X009219Y015255D01*
X009066Y015255D01*
X008989Y015179D01*
X008989Y014872D01*
X009066Y014795D01*
X009219Y014795D01*
X009296Y014872D01*
X017380Y008290D02*
X017380Y008000D01*
X017900Y008000D02*
X017900Y008300D01*
X018237Y007505D02*
X018160Y007429D01*
X018160Y007122D01*
X018237Y007045D01*
X018390Y007045D01*
X018467Y007122D01*
X018620Y007045D02*
X018927Y007352D01*
X018927Y007429D01*
X018851Y007505D01*
X018697Y007505D01*
X018620Y007429D01*
X018467Y007429D02*
X018390Y007505D01*
X018237Y007505D01*
X018620Y007045D02*
X018927Y007045D01*
X023112Y013295D02*
X023188Y013295D01*
X023265Y013372D01*
X023265Y013755D01*
X023188Y013755D02*
X023342Y013755D01*
X023035Y013372D02*
X023112Y013295D01*
D14*
X017640Y008432D03*
X017640Y007862D03*
X009515Y013618D03*
X009515Y014188D03*
D15*
X003980Y003650D03*
X003300Y003650D03*
D16*
X021210Y013525D03*
X022320Y013525D03*
M02*
