G75*
G70*
%OFA0B0*%
%FSLAX24Y24*%
%IPPOS*%
%LPD*%
%AMOC8*
5,1,8,0,0,1.08239X$1,22.5*
%
%ADD10C,0.1340*%
%ADD11OC8,0.0966*%
%ADD12C,0.0926*%
%ADD13C,0.0347*%
%ADD14C,0.0095*%
%ADD15R,0.0552X0.0552*%
%ADD16R,0.0493X0.0592*%
%ADD17R,0.2442X0.0907*%
%ADD18OC8,0.0992*%
%ADD19R,0.0986X0.0986*%
%ADD20C,0.0986*%
%ADD21R,0.1080X0.1080*%
D10*
X006375Y002080D03*
X026875Y004080D03*
X026875Y015080D03*
X006875Y021080D03*
D11*
X025925Y013080D03*
X026925Y013080D03*
X026925Y012080D03*
X025925Y012080D03*
X025925Y011080D03*
X026925Y011080D03*
D12*
X025875Y002503D02*
X025875Y001657D01*
X024875Y001657D02*
X024875Y002503D01*
X023875Y002503D02*
X023875Y001657D01*
X022875Y001657D02*
X022875Y002503D01*
X021875Y002503D02*
X021875Y001657D01*
X020875Y001657D02*
X020875Y002503D01*
X018875Y002503D02*
X018875Y001657D01*
X017875Y001657D02*
X017875Y002503D01*
X016875Y002503D02*
X016875Y001657D01*
X015875Y001657D02*
X015875Y002503D01*
X014875Y002503D02*
X014875Y001657D01*
X013875Y001657D02*
X013875Y002503D01*
X012875Y002503D02*
X012875Y001657D01*
X011875Y001657D02*
X011875Y002503D01*
X012275Y020657D02*
X012275Y021503D01*
X011275Y021503D02*
X011275Y020657D01*
X010275Y020657D02*
X010275Y021503D01*
X009275Y021503D02*
X009275Y020657D01*
X008275Y020657D02*
X008275Y021503D01*
X013275Y021503D02*
X013275Y020657D01*
X014275Y020657D02*
X014275Y021503D01*
X015275Y021503D02*
X015275Y020657D01*
X016275Y020657D02*
X016275Y021503D01*
X017275Y021503D02*
X017275Y020657D01*
X018875Y020657D02*
X018875Y021503D01*
X019875Y021503D02*
X019875Y020657D01*
X020875Y020657D02*
X020875Y021503D01*
X021875Y021503D02*
X021875Y020657D01*
X022875Y020657D02*
X022875Y021503D01*
X023875Y021503D02*
X023875Y020657D01*
X024875Y020657D02*
X024875Y021503D01*
X025875Y021503D02*
X025875Y020657D01*
D13*
X020269Y013663D02*
X020269Y013497D01*
X020181Y013497D01*
X020181Y013663D01*
X020269Y013663D01*
X019569Y013663D02*
X019569Y013497D01*
X019481Y013497D01*
X019481Y013663D01*
X019569Y013663D01*
X019569Y010997D02*
X019481Y010997D01*
X019481Y011163D01*
X019569Y011163D01*
X019569Y010997D01*
X020181Y010997D02*
X020269Y010997D01*
X020181Y010997D02*
X020181Y011163D01*
X020269Y011163D01*
X020269Y010997D01*
D14*
X005337Y019912D02*
X004721Y019912D01*
X005337Y019912D02*
X005337Y019376D01*
X004721Y019376D01*
X004721Y019912D01*
X004721Y019470D02*
X005337Y019470D01*
X005337Y019564D02*
X004721Y019564D01*
X004721Y019658D02*
X005337Y019658D01*
X005337Y019752D02*
X004721Y019752D01*
X004721Y019846D02*
X005337Y019846D01*
X005337Y020798D02*
X004721Y020798D01*
X005337Y020798D02*
X005337Y020262D01*
X004721Y020262D01*
X004721Y020798D01*
X004721Y020356D02*
X005337Y020356D01*
X005337Y020450D02*
X004721Y020450D01*
X004721Y020544D02*
X005337Y020544D01*
X005337Y020638D02*
X004721Y020638D01*
X004721Y020732D02*
X005337Y020732D01*
X005337Y021684D02*
X004721Y021684D01*
X005337Y021684D02*
X005337Y021148D01*
X004721Y021148D01*
X004721Y021684D01*
X004721Y021242D02*
X005337Y021242D01*
X005337Y021336D02*
X004721Y021336D01*
X004721Y021430D02*
X005337Y021430D01*
X005337Y021524D02*
X004721Y021524D01*
X004721Y021618D02*
X005337Y021618D01*
X002029Y021684D02*
X001413Y021684D01*
X002029Y021684D02*
X002029Y021148D01*
X001413Y021148D01*
X001413Y021684D01*
X001413Y021242D02*
X002029Y021242D01*
X002029Y021336D02*
X001413Y021336D01*
X001413Y021430D02*
X002029Y021430D01*
X002029Y021524D02*
X001413Y021524D01*
X001413Y021618D02*
X002029Y021618D01*
X002029Y019912D02*
X001413Y019912D01*
X002029Y019912D02*
X002029Y019376D01*
X001413Y019376D01*
X001413Y019912D01*
X001413Y019470D02*
X002029Y019470D01*
X002029Y019564D02*
X001413Y019564D01*
X001413Y019658D02*
X002029Y019658D01*
X002029Y019752D02*
X001413Y019752D01*
X001413Y019846D02*
X002029Y019846D01*
D15*
X002212Y012080D03*
X003038Y012080D03*
X003038Y010580D03*
X002212Y010580D03*
D16*
X019761Y011877D03*
X020489Y011877D03*
X020489Y012783D03*
X019761Y012783D03*
D17*
X034625Y012893D03*
X034625Y013893D03*
X034625Y014893D03*
X034625Y015893D03*
X034625Y016893D03*
X034625Y017893D03*
X034625Y018893D03*
X034625Y019893D03*
X034625Y021393D03*
X034625Y022393D03*
X034625Y023393D03*
X034625Y024393D03*
X034625Y011893D03*
X034625Y010893D03*
X034625Y009893D03*
X034625Y008893D03*
X034625Y007893D03*
X034625Y006893D03*
X034625Y005893D03*
X034625Y004893D03*
X034625Y003893D03*
D18*
X019500Y013580D03*
X013750Y012080D03*
X013750Y010580D03*
X002188Y010580D03*
X002188Y012080D03*
D19*
X032500Y021455D03*
X032750Y019955D03*
D20*
X030750Y019955D03*
X032750Y017955D03*
X031625Y022580D03*
X031625Y024330D03*
X018063Y023205D03*
X018063Y018705D03*
X012250Y017955D03*
X012250Y013205D03*
X012250Y010580D03*
X024250Y009955D03*
X025625Y008830D03*
X027000Y010080D03*
X024250Y012080D03*
X024750Y014080D03*
X032125Y012955D03*
D21*
X001313Y000893D03*
X035500Y000893D03*
X035500Y024518D03*
X001375Y024518D03*
M02*
