G75*
G70*
%OFA0B0*%
%FSLAX24Y24*%
%IPPOS*%
%LPD*%
%AMOC8*
5,1,8,0,0,1.08239X$1,22.5*
%
%ADD10C,0.0100*%
%ADD11C,0.0000*%
%ADD12C,0.0050*%
D10*
X001269Y001080D02*
X026481Y001080D01*
X026520Y001082D01*
X026558Y001088D01*
X026595Y001097D01*
X026632Y001110D01*
X026667Y001127D01*
X026700Y001146D01*
X026731Y001169D01*
X026760Y001195D01*
X026786Y001224D01*
X026809Y001255D01*
X026828Y001288D01*
X026845Y001323D01*
X026858Y001360D01*
X026867Y001397D01*
X026873Y001435D01*
X026875Y001474D01*
X026875Y002080D01*
X027875Y003080D01*
X027875Y015980D01*
X026875Y016980D01*
X026875Y021480D01*
X026275Y022080D01*
X001269Y022080D01*
X001230Y022078D01*
X001192Y022072D01*
X001155Y022063D01*
X001118Y022050D01*
X001083Y022033D01*
X001050Y022014D01*
X001019Y021991D01*
X000990Y021965D01*
X000964Y021936D01*
X000941Y021905D01*
X000922Y021872D01*
X000905Y021837D01*
X000892Y021800D01*
X000883Y021763D01*
X000877Y021725D01*
X000875Y021686D01*
X000875Y001474D01*
X000877Y001435D01*
X000883Y001397D01*
X000892Y001360D01*
X000905Y001323D01*
X000922Y001288D01*
X000941Y001255D01*
X000964Y001224D01*
X000990Y001195D01*
X001019Y001169D01*
X001050Y001146D01*
X001083Y001127D01*
X001118Y001110D01*
X001155Y001097D01*
X001192Y001088D01*
X001230Y001082D01*
X001269Y001080D01*
D11*
X005745Y002080D02*
X005747Y002130D01*
X005753Y002180D01*
X005763Y002229D01*
X005777Y002277D01*
X005794Y002324D01*
X005815Y002369D01*
X005840Y002413D01*
X005868Y002454D01*
X005900Y002493D01*
X005934Y002530D01*
X005971Y002564D01*
X006011Y002594D01*
X006053Y002621D01*
X006097Y002645D01*
X006143Y002666D01*
X006190Y002682D01*
X006238Y002695D01*
X006288Y002704D01*
X006337Y002709D01*
X006388Y002710D01*
X006438Y002707D01*
X006487Y002700D01*
X006536Y002689D01*
X006584Y002674D01*
X006630Y002656D01*
X006675Y002634D01*
X006718Y002608D01*
X006759Y002579D01*
X006798Y002547D01*
X006834Y002512D01*
X006866Y002474D01*
X006896Y002434D01*
X006923Y002391D01*
X006946Y002347D01*
X006965Y002301D01*
X006981Y002253D01*
X006993Y002204D01*
X007001Y002155D01*
X007005Y002105D01*
X007005Y002055D01*
X007001Y002005D01*
X006993Y001956D01*
X006981Y001907D01*
X006965Y001859D01*
X006946Y001813D01*
X006923Y001769D01*
X006896Y001726D01*
X006866Y001686D01*
X006834Y001648D01*
X006798Y001613D01*
X006759Y001581D01*
X006718Y001552D01*
X006675Y001526D01*
X006630Y001504D01*
X006584Y001486D01*
X006536Y001471D01*
X006487Y001460D01*
X006438Y001453D01*
X006388Y001450D01*
X006337Y001451D01*
X006288Y001456D01*
X006238Y001465D01*
X006190Y001478D01*
X006143Y001494D01*
X006097Y001515D01*
X006053Y001539D01*
X006011Y001566D01*
X005971Y001596D01*
X005934Y001630D01*
X005900Y001667D01*
X005868Y001706D01*
X005840Y001747D01*
X005815Y001791D01*
X005794Y001836D01*
X005777Y001883D01*
X005763Y001931D01*
X005753Y001980D01*
X005747Y002030D01*
X005745Y002080D01*
X026245Y004080D02*
X026247Y004130D01*
X026253Y004180D01*
X026263Y004229D01*
X026277Y004277D01*
X026294Y004324D01*
X026315Y004369D01*
X026340Y004413D01*
X026368Y004454D01*
X026400Y004493D01*
X026434Y004530D01*
X026471Y004564D01*
X026511Y004594D01*
X026553Y004621D01*
X026597Y004645D01*
X026643Y004666D01*
X026690Y004682D01*
X026738Y004695D01*
X026788Y004704D01*
X026837Y004709D01*
X026888Y004710D01*
X026938Y004707D01*
X026987Y004700D01*
X027036Y004689D01*
X027084Y004674D01*
X027130Y004656D01*
X027175Y004634D01*
X027218Y004608D01*
X027259Y004579D01*
X027298Y004547D01*
X027334Y004512D01*
X027366Y004474D01*
X027396Y004434D01*
X027423Y004391D01*
X027446Y004347D01*
X027465Y004301D01*
X027481Y004253D01*
X027493Y004204D01*
X027501Y004155D01*
X027505Y004105D01*
X027505Y004055D01*
X027501Y004005D01*
X027493Y003956D01*
X027481Y003907D01*
X027465Y003859D01*
X027446Y003813D01*
X027423Y003769D01*
X027396Y003726D01*
X027366Y003686D01*
X027334Y003648D01*
X027298Y003613D01*
X027259Y003581D01*
X027218Y003552D01*
X027175Y003526D01*
X027130Y003504D01*
X027084Y003486D01*
X027036Y003471D01*
X026987Y003460D01*
X026938Y003453D01*
X026888Y003450D01*
X026837Y003451D01*
X026788Y003456D01*
X026738Y003465D01*
X026690Y003478D01*
X026643Y003494D01*
X026597Y003515D01*
X026553Y003539D01*
X026511Y003566D01*
X026471Y003596D01*
X026434Y003630D01*
X026400Y003667D01*
X026368Y003706D01*
X026340Y003747D01*
X026315Y003791D01*
X026294Y003836D01*
X026277Y003883D01*
X026263Y003931D01*
X026253Y003980D01*
X026247Y004030D01*
X026245Y004080D01*
X026245Y015080D02*
X026247Y015130D01*
X026253Y015180D01*
X026263Y015229D01*
X026277Y015277D01*
X026294Y015324D01*
X026315Y015369D01*
X026340Y015413D01*
X026368Y015454D01*
X026400Y015493D01*
X026434Y015530D01*
X026471Y015564D01*
X026511Y015594D01*
X026553Y015621D01*
X026597Y015645D01*
X026643Y015666D01*
X026690Y015682D01*
X026738Y015695D01*
X026788Y015704D01*
X026837Y015709D01*
X026888Y015710D01*
X026938Y015707D01*
X026987Y015700D01*
X027036Y015689D01*
X027084Y015674D01*
X027130Y015656D01*
X027175Y015634D01*
X027218Y015608D01*
X027259Y015579D01*
X027298Y015547D01*
X027334Y015512D01*
X027366Y015474D01*
X027396Y015434D01*
X027423Y015391D01*
X027446Y015347D01*
X027465Y015301D01*
X027481Y015253D01*
X027493Y015204D01*
X027501Y015155D01*
X027505Y015105D01*
X027505Y015055D01*
X027501Y015005D01*
X027493Y014956D01*
X027481Y014907D01*
X027465Y014859D01*
X027446Y014813D01*
X027423Y014769D01*
X027396Y014726D01*
X027366Y014686D01*
X027334Y014648D01*
X027298Y014613D01*
X027259Y014581D01*
X027218Y014552D01*
X027175Y014526D01*
X027130Y014504D01*
X027084Y014486D01*
X027036Y014471D01*
X026987Y014460D01*
X026938Y014453D01*
X026888Y014450D01*
X026837Y014451D01*
X026788Y014456D01*
X026738Y014465D01*
X026690Y014478D01*
X026643Y014494D01*
X026597Y014515D01*
X026553Y014539D01*
X026511Y014566D01*
X026471Y014596D01*
X026434Y014630D01*
X026400Y014667D01*
X026368Y014706D01*
X026340Y014747D01*
X026315Y014791D01*
X026294Y014836D01*
X026277Y014883D01*
X026263Y014931D01*
X026253Y014980D01*
X026247Y015030D01*
X026245Y015080D01*
X006245Y021080D02*
X006247Y021130D01*
X006253Y021180D01*
X006263Y021229D01*
X006277Y021277D01*
X006294Y021324D01*
X006315Y021369D01*
X006340Y021413D01*
X006368Y021454D01*
X006400Y021493D01*
X006434Y021530D01*
X006471Y021564D01*
X006511Y021594D01*
X006553Y021621D01*
X006597Y021645D01*
X006643Y021666D01*
X006690Y021682D01*
X006738Y021695D01*
X006788Y021704D01*
X006837Y021709D01*
X006888Y021710D01*
X006938Y021707D01*
X006987Y021700D01*
X007036Y021689D01*
X007084Y021674D01*
X007130Y021656D01*
X007175Y021634D01*
X007218Y021608D01*
X007259Y021579D01*
X007298Y021547D01*
X007334Y021512D01*
X007366Y021474D01*
X007396Y021434D01*
X007423Y021391D01*
X007446Y021347D01*
X007465Y021301D01*
X007481Y021253D01*
X007493Y021204D01*
X007501Y021155D01*
X007505Y021105D01*
X007505Y021055D01*
X007501Y021005D01*
X007493Y020956D01*
X007481Y020907D01*
X007465Y020859D01*
X007446Y020813D01*
X007423Y020769D01*
X007396Y020726D01*
X007366Y020686D01*
X007334Y020648D01*
X007298Y020613D01*
X007259Y020581D01*
X007218Y020552D01*
X007175Y020526D01*
X007130Y020504D01*
X007084Y020486D01*
X007036Y020471D01*
X006987Y020460D01*
X006938Y020453D01*
X006888Y020450D01*
X006837Y020451D01*
X006788Y020456D01*
X006738Y020465D01*
X006690Y020478D01*
X006643Y020494D01*
X006597Y020515D01*
X006553Y020539D01*
X006511Y020566D01*
X006471Y020596D01*
X006434Y020630D01*
X006400Y020667D01*
X006368Y020706D01*
X006340Y020747D01*
X006315Y020791D01*
X006294Y020836D01*
X006277Y020883D01*
X006263Y020931D01*
X006253Y020980D01*
X006247Y021030D01*
X006245Y021080D01*
D12*
X000875Y000393D02*
X033125Y000393D01*
X000875Y022330D02*
X000875Y025018D01*
X033125Y025018D01*
M02*
