%
M48
M72
T01C0.0236
T02C0.0315
T03C0.0335
T04C0.0374
T05C0.0400
T06C0.1260
%
T01
X1313Y893
X32750Y17955
X32750Y19955
X30750Y19955
X32500Y21455
X35500Y24518
X1375Y24518
X35500Y893
T02
X25625Y8830
X24250Y9955
X27000Y10080
X24250Y12080
X24750Y14080
X32125Y12955
X18063Y18705
X12250Y17955
X12250Y13205
X12250Y10580
X31625Y22580
X31625Y24330
X18063Y23205
T03
X17275Y21080
X16275Y21080
X15275Y21080
X14275Y21080
X13275Y21080
X12275Y21080
X11275Y21080
X10275Y21080
X9275Y21080
X8275Y21080
X18875Y21080
X19875Y21080
X20875Y21080
X21875Y21080
X22875Y21080
X23875Y21080
X24875Y21080
X25875Y21080
X25875Y2080
X24875Y2080
X23875Y2080
X22875Y2080
X21875Y2080
X20875Y2080
X18875Y2080
X17875Y2080
X16875Y2080
X15875Y2080
X14875Y2080
X13875Y2080
X12875Y2080
X11875Y2080
T04
X25925Y11080
X26925Y11080
X26925Y12080
X25925Y12080
X25925Y13080
X26925Y13080
T05
X19500Y13580
X13750Y12080
X13750Y10580
X2188Y10580
X2188Y12080
T06
X6875Y21080
X26875Y15080
X26875Y4080
X6375Y2080
M30
