G75*
G70*
%OFA0B0*%
%FSLAX24Y24*%
%IPPOS*%
%LPD*%
%AMOC8*
5,1,8,0,0,1.08239X$1,22.5*
%
%ADD10C,0.0040*%
%ADD11R,0.0571X0.0295*%
%ADD12C,0.0060*%
%ADD13R,0.0140X0.0560*%
%ADD14R,0.0689X0.0295*%
D10*
X009463Y003308D02*
X009770Y003308D01*
X009617Y003308D02*
X009617Y003768D01*
X009770Y003615D01*
X009924Y003768D02*
X010077Y003768D01*
X010000Y003768D02*
X010000Y003385D01*
X010077Y003308D01*
X010154Y003308D01*
X010231Y003385D01*
X011866Y005388D02*
X011866Y005688D01*
X012385Y005678D02*
X012385Y005388D01*
X012759Y005510D02*
X012836Y005433D01*
X012989Y005433D01*
X013066Y005510D01*
X013219Y005510D02*
X013296Y005433D01*
X013450Y005433D01*
X013526Y005510D01*
X013526Y005817D01*
X013450Y005893D01*
X013296Y005893D01*
X013219Y005817D01*
X013066Y005817D02*
X012989Y005893D01*
X012836Y005893D01*
X012759Y005817D01*
X012759Y005740D01*
X012836Y005663D01*
X012759Y005586D01*
X012759Y005510D01*
X012836Y005663D02*
X012913Y005663D01*
X011981Y008058D02*
X011521Y008058D01*
X011751Y008058D02*
X011751Y008211D01*
X011981Y008058D02*
X011981Y008365D01*
X016991Y015273D02*
X016991Y015563D01*
X017510Y015563D02*
X017510Y015263D01*
X017566Y017183D02*
X017259Y017183D01*
X017413Y017183D02*
X017413Y017643D01*
X017566Y017490D01*
X017719Y017567D02*
X017796Y017643D01*
X017950Y017643D01*
X018026Y017567D01*
X018026Y017260D01*
X017950Y017183D01*
X017796Y017183D01*
X017719Y017260D01*
X019665Y008143D02*
X019818Y008143D01*
X019895Y008067D01*
X020049Y008067D02*
X020125Y008143D01*
X020279Y008143D01*
X020356Y008067D01*
X020356Y007760D01*
X020279Y007683D01*
X020125Y007683D01*
X020049Y007760D01*
X019895Y007683D02*
X019588Y007990D01*
X019588Y008067D01*
X019665Y008143D01*
X019588Y007683D02*
X019895Y007683D01*
X020741Y007688D02*
X020741Y007398D01*
X021260Y007388D02*
X021260Y007688D01*
D11*
X021001Y007826D03*
X021001Y007256D03*
X017251Y015131D03*
X017251Y015701D03*
X012125Y005820D03*
X012125Y005250D03*
D12*
X008561Y005263D02*
X008561Y004554D01*
X009191Y004554D02*
X009191Y005263D01*
X009721Y008663D02*
X010281Y008663D01*
X010281Y009163D02*
X009721Y009163D01*
D13*
X009661Y008913D03*
X010341Y008913D03*
D14*
X008875Y005411D03*
X008875Y004411D03*
M02*
