G75*
G70*
%OFA0B0*%
%FSLAX24Y24*%
%IPPOS*%
%LPD*%
%AMOC8*
5,1,8,0,0,1.08239X$1,22.5*
%
%ADD10R,0.2362X0.0827*%
%ADD11R,0.0591X0.0512*%
%ADD12R,0.0512X0.0630*%
%ADD13R,0.0787X0.0787*%
%ADD14C,0.0787*%
%ADD15C,0.0833*%
%ADD16OC8,0.0833*%
%ADD17R,0.0472X0.0709*%
%ADD18C,0.0240*%
%ADD19C,0.0500*%
%ADD20C,0.0906*%
%ADD21C,0.0160*%
%ADD22C,0.0400*%
%ADD23C,0.0320*%
%ADD24R,0.1000X0.1000*%
%ADD25C,0.1969*%
D10*
X005376Y003913D03*
X005376Y004913D03*
X005376Y005913D03*
X005376Y006913D03*
X005376Y008413D03*
X005376Y009413D03*
X005376Y010413D03*
X005376Y011413D03*
X005376Y012413D03*
X005376Y013413D03*
X005376Y014413D03*
X005376Y015413D03*
X005376Y016413D03*
X005376Y017413D03*
X005376Y018413D03*
X005376Y019413D03*
X005376Y020413D03*
X005376Y021413D03*
X005376Y022413D03*
X005376Y023413D03*
X005376Y024413D03*
D11*
X017251Y015787D03*
X017251Y015039D03*
X021001Y007912D03*
X021001Y007164D03*
X012126Y005912D03*
X012126Y005164D03*
D12*
X010375Y008913D03*
X009627Y008913D03*
D13*
X016126Y023038D03*
X016126Y024038D03*
D14*
X016126Y020038D03*
X016126Y019038D03*
X016126Y018038D03*
X016126Y017038D03*
X016126Y016038D03*
X016126Y015038D03*
X016126Y014038D03*
X016126Y013038D03*
X016126Y012038D03*
X016126Y011038D03*
X016126Y010038D03*
X016126Y009038D03*
X016126Y008038D03*
X016126Y007038D03*
X016126Y006038D03*
X016126Y005038D03*
X022126Y005038D03*
X022126Y006038D03*
X022126Y007038D03*
X022126Y008038D03*
X022126Y009038D03*
X022126Y010038D03*
X022126Y011038D03*
X022126Y012038D03*
X022126Y013038D03*
X022126Y014038D03*
X022126Y015038D03*
X022126Y016038D03*
X022126Y017038D03*
X022126Y018038D03*
X022126Y019038D03*
X022126Y020038D03*
X022126Y023038D03*
X022126Y024038D03*
D15*
X010001Y007913D03*
D16*
X011001Y007913D03*
X011001Y006913D03*
X011001Y005913D03*
X010001Y005913D03*
X010001Y006913D03*
D17*
X008876Y005503D03*
X008876Y004323D03*
D18*
X008751Y004288D01*
X013251Y004288D01*
X013876Y003663D01*
X017251Y003663D01*
X017876Y004288D01*
X021376Y004288D01*
X022126Y005038D01*
X022751Y005038D01*
X024001Y006288D01*
X024001Y020663D01*
X022626Y022163D01*
X021626Y022163D01*
X019126Y024538D01*
X017376Y026163D01*
X014376Y026163D01*
X012876Y024663D01*
X012001Y024663D01*
X007376Y020038D01*
X007376Y019538D01*
X008501Y019413D02*
X008501Y020038D01*
X012376Y023913D01*
X013126Y023913D01*
X014751Y025538D01*
X017126Y025538D01*
X021126Y021538D01*
X022126Y021538D01*
X023376Y020163D01*
X023376Y012413D01*
X023001Y012038D01*
X022126Y012038D01*
X022126Y011038D02*
X020626Y011038D01*
X019376Y012288D01*
X019376Y017913D01*
X017501Y019788D01*
X017501Y020288D01*
X016876Y020913D01*
X014126Y020913D01*
X009376Y016163D01*
X008501Y016163D01*
X007501Y017163D01*
X007501Y018413D01*
X006126Y018413D02*
X006001Y018413D01*
X006001Y017413D01*
X006001Y016413D01*
X006001Y015413D01*
X006001Y014413D01*
X006001Y013413D01*
X006001Y012413D01*
X006001Y011413D01*
X006001Y010413D01*
X006001Y009413D01*
X006001Y008413D01*
X006876Y008413D01*
X007376Y007913D01*
X007376Y006913D01*
X007251Y006913D01*
X008001Y006038D01*
X008001Y005288D01*
X008376Y004913D01*
X008876Y005503D02*
X008876Y006288D01*
X009501Y006913D01*
X010001Y006913D01*
X009001Y007538D02*
X008376Y006913D01*
X009001Y007538D02*
X009001Y008288D01*
X009626Y008913D01*
X009627Y008913D01*
X010375Y008913D02*
X010751Y008913D01*
X011001Y008663D01*
X011001Y007913D01*
X011626Y007913D01*
X012126Y007413D01*
X012126Y005912D01*
X012877Y005912D01*
X014501Y004288D01*
X016876Y004288D01*
X017501Y004913D01*
X016126Y005038D02*
X014876Y005038D01*
X013001Y006913D01*
X013001Y007788D01*
X012001Y008788D01*
X012626Y009538D02*
X011126Y009538D01*
X010876Y009788D01*
X009251Y009788D01*
X008001Y008413D01*
X007251Y006913D02*
X006001Y006913D01*
X006001Y005913D01*
X006001Y004913D01*
X006001Y003913D01*
X007251Y003913D01*
X006001Y003913D02*
X005376Y003913D01*
X005376Y004913D02*
X006001Y004913D01*
X006001Y005913D02*
X005376Y005913D01*
X006001Y005913D02*
X007126Y005788D01*
X006001Y006913D02*
X005376Y006913D01*
X005376Y008413D02*
X006001Y008413D01*
X006001Y009413D02*
X005376Y009413D01*
X005376Y010413D02*
X006001Y010413D01*
X006001Y011413D02*
X005376Y011413D01*
X005376Y012413D02*
X006001Y012413D01*
X006001Y013413D02*
X005376Y013413D01*
X005376Y014413D02*
X006001Y014413D01*
X006001Y015413D02*
X005376Y015413D01*
X007126Y015288D02*
X009126Y013288D01*
X014626Y013288D01*
X015376Y014038D01*
X016126Y014038D01*
X016126Y015038D02*
X015626Y015038D01*
X015126Y015538D01*
X015126Y016538D01*
X015626Y017038D01*
X016126Y017038D01*
X016126Y016038D02*
X017251Y016038D01*
X017251Y015787D01*
X017252Y015788D01*
X018001Y015788D01*
X018501Y015288D01*
X018501Y011538D01*
X021001Y009038D01*
X021001Y007912D01*
X021001Y007164D02*
X021001Y006663D01*
X021626Y006038D01*
X022126Y006038D01*
X022126Y009038D02*
X021001Y009038D01*
X017001Y009038D02*
X016126Y009038D01*
X016126Y010038D02*
X013251Y010038D01*
X012626Y009538D01*
X012501Y010538D02*
X011626Y010538D01*
X012501Y010538D02*
X013001Y011038D01*
X016126Y011038D01*
X016126Y012038D02*
X011626Y012038D01*
X010876Y015163D02*
X010876Y016663D01*
X014251Y020038D01*
X016126Y020038D01*
X016126Y019038D02*
X014501Y019038D01*
X011751Y016288D01*
X009501Y017288D02*
X008876Y017038D01*
X009501Y017288D02*
X013751Y021538D01*
X017251Y021538D01*
X018751Y020038D01*
X020126Y018538D01*
X020126Y014288D01*
X021376Y013038D01*
X022126Y013038D01*
X022126Y017038D02*
X021251Y017038D01*
X021126Y019038D02*
X022126Y019038D01*
X021126Y019038D02*
X018001Y022163D01*
X013376Y022163D01*
X010626Y019413D01*
X009751Y019413D01*
X010626Y020663D02*
X012876Y022913D01*
X013251Y022913D01*
X015251Y024913D01*
X016751Y024913D01*
X021626Y020038D01*
X022126Y020038D01*
X017251Y015039D02*
X016876Y015038D01*
X016126Y015038D01*
X016126Y008038D02*
X015251Y008038D01*
X014376Y007038D02*
X016126Y007038D01*
X016126Y006038D02*
X015091Y006038D01*
X012126Y005164D02*
X012125Y005163D01*
X011001Y005163D01*
X011001Y005913D01*
X011001Y005163D02*
X010751Y004913D01*
X009376Y004913D01*
X006001Y017413D02*
X005376Y017413D01*
X005376Y018413D02*
X006001Y018413D01*
X006126Y018413D02*
X006126Y019413D01*
X005376Y019413D01*
X006126Y019413D02*
X006126Y020413D01*
X005376Y020413D01*
X006126Y020413D02*
X006126Y021413D01*
X005376Y021413D01*
X006126Y021413D02*
X006126Y022413D01*
X005376Y022413D01*
X006126Y022413D02*
X006126Y023413D01*
X005376Y023413D01*
X006126Y023413D02*
X006126Y024413D01*
X005376Y024413D01*
D19*
X014876Y018038D02*
X011876Y014163D01*
X009876Y014163D01*
X014876Y018038D02*
X016126Y018038D01*
X016876Y018038D01*
X017251Y017663D01*
X017251Y016038D01*
D20*
X021251Y017038D03*
X017001Y009038D03*
X015251Y008038D03*
X014376Y007038D03*
X015091Y006038D03*
X012001Y008788D03*
X011626Y010538D03*
X011626Y012038D03*
X010876Y015163D03*
X011751Y016288D03*
X008876Y017038D03*
X007501Y018413D03*
X007376Y019538D03*
X008501Y019413D03*
X009751Y019413D03*
X010626Y020663D03*
X007126Y015288D03*
X008001Y008413D03*
X008376Y006913D03*
X007126Y005788D03*
X007251Y003913D03*
D21*
X008376Y004913D02*
X009376Y004913D01*
D22*
X009876Y014163D02*
X009001Y015038D01*
X008626Y015038D01*
X007251Y016413D01*
X006001Y016413D01*
X005376Y016413D01*
D23*
X017251Y015039D02*
X017251Y010413D01*
X018126Y009413D01*
X018126Y008538D01*
X017529Y007942D01*
X017529Y007164D01*
X017529Y004942D01*
X017501Y004913D01*
X017531Y007163D02*
X017529Y007164D01*
X017531Y007163D02*
X021000Y007163D01*
X021001Y007164D01*
D24*
X004501Y003788D03*
X024751Y003788D03*
X024751Y026288D03*
X004501Y026288D03*
D25*
X008251Y024538D03*
X008251Y011913D03*
X020001Y005538D03*
X023876Y024538D03*
M02*
