%
M48
M72
T01C0.0236
T02C0.0315
T03C0.0354
T04C0.0400
T05C0.1181
%
T01
X4501Y3788
T02
X7126Y5788
X8376Y6913
X8001Y8413
X11626Y10538
X11626Y12038
X10876Y15163
X11751Y16288
X8876Y17038
X7501Y18413
X7376Y19538
X8501Y19413
X9751Y19413
X10626Y20663
X7126Y15288
X12001Y8788
X14376Y7038
X15251Y8038
X15091Y6038
X17001Y9038
X24751Y3788
X21251Y17038
X24751Y26288
X4501Y26288
X7251Y3913
T03
X16126Y5038
X16126Y6038
X16126Y7038
X16126Y8038
X16126Y9038
X16126Y10038
X16126Y11038
X16126Y12038
X16126Y13038
X16126Y14038
X16126Y15038
X16126Y16038
X16126Y17038
X16126Y18038
X16126Y19038
X16126Y20038
X16126Y23038
X16126Y24038
X22126Y24038
X22126Y23038
X22126Y20038
X22126Y19038
X22126Y18038
X22126Y17038
X22126Y16038
X22126Y15038
X22126Y14038
X22126Y13038
X22126Y12038
X22126Y11038
X22126Y10038
X22126Y9038
X22126Y8038
X22126Y7038
X22126Y6038
X22126Y5038
T04
X11001Y5913
X11001Y6913
X11001Y7913
X10001Y7913
X10001Y6913
X10001Y5913
T05
X8251Y11913
X20001Y5538
X23876Y24538
X8251Y24538
M30
