G75*
G70*
%OFA0B0*%
%FSLAX24Y24*%
%IPPOS*%
%LPD*%
%AMOC8*
5,1,8,0,0,1.08239X$1,22.5*
%
%ADD10R,0.1500X0.2750*%
%ADD11C,0.1340*%
%ADD12C,0.0867*%
%ADD13C,0.1261*%
%ADD14C,0.2442*%
%ADD15OC8,0.0795*%
%ADD16C,0.1040*%
%ADD17OC8,0.0715*%
%ADD18C,0.0795*%
%ADD19R,0.0671X0.0592*%
%ADD20R,0.0592X0.0710*%
%ADD21R,0.0552X0.0789*%
%ADD22OC8,0.0986*%
%ADD23R,0.0880X0.0340*%
%ADD24R,0.0631X0.0474*%
%ADD25C,0.0715*%
%ADD26C,0.0795*%
%ADD27R,0.0474X0.0631*%
%ADD28R,0.0710X0.0592*%
%ADD29R,0.0710X0.0789*%
%ADD30R,0.0710X0.0540*%
%ADD31R,0.0720X0.0060*%
%ADD32R,0.0710X0.0790*%
%ADD33OC8,0.1261*%
%ADD34R,0.1025X0.1025*%
%ADD35R,0.0592X0.0671*%
%ADD36C,0.0986*%
%ADD37C,0.0715*%
%ADD38R,0.0789X0.0552*%
%ADD39C,0.2049*%
%ADD40R,0.0840X0.0840*%
D10*
X018730Y020050D03*
D11*
X035605Y012050D03*
D12*
X034355Y011800D03*
X034355Y012800D03*
X034355Y013800D03*
X034355Y014800D03*
X034355Y015800D03*
X034355Y016800D03*
X032355Y016800D03*
X031355Y016800D03*
X030355Y016800D03*
X029355Y016800D03*
X026355Y015800D03*
X026355Y014800D03*
X026355Y013800D03*
X026355Y012800D03*
X029355Y011800D03*
X030355Y011800D03*
X031355Y011800D03*
X032355Y011800D03*
X024022Y015745D03*
X022984Y015745D03*
X022984Y016792D03*
X024022Y016792D03*
D13*
X021980Y018670D03*
X013480Y028100D03*
X004293Y028100D03*
D14*
X021980Y013930D03*
D15*
X033605Y020425D03*
X033605Y021425D03*
X033605Y022425D03*
X034605Y022425D03*
X034605Y021425D03*
X034605Y032675D03*
X033605Y032675D03*
X032605Y032675D03*
X031605Y032675D03*
X030605Y032675D03*
X029605Y032675D03*
X028605Y032675D03*
X027605Y032675D03*
X026605Y032675D03*
X025605Y032675D03*
X024605Y032675D03*
X023605Y032675D03*
X023105Y033675D03*
X024105Y033675D03*
X025105Y033675D03*
X026105Y033675D03*
X027105Y033675D03*
X028105Y033675D03*
X029105Y033675D03*
X030105Y033675D03*
X031105Y033675D03*
X032105Y033675D03*
X033105Y033675D03*
X034105Y033675D03*
X035105Y033675D03*
X036105Y033675D03*
X037105Y033675D03*
X038105Y033675D03*
X039105Y033675D03*
X038605Y032675D03*
X037605Y032675D03*
X036605Y032675D03*
X035605Y032675D03*
X035605Y034675D03*
X036605Y034675D03*
X037605Y034675D03*
X038605Y034675D03*
X039605Y034675D03*
X040605Y034675D03*
X041605Y034675D03*
X042605Y034675D03*
X043605Y034675D03*
X043105Y035675D03*
X042105Y035675D03*
X041105Y035675D03*
X039105Y035675D03*
X038105Y035675D03*
X037105Y035675D03*
X036105Y035675D03*
X035105Y035675D03*
X034105Y035675D03*
X033105Y035675D03*
X032105Y035675D03*
X031105Y035675D03*
X030105Y035675D03*
X029105Y035675D03*
X028105Y035675D03*
X027105Y035675D03*
X026105Y035675D03*
X025105Y035675D03*
X024105Y035675D03*
X023105Y035675D03*
X023605Y034675D03*
X024605Y034675D03*
X025605Y034675D03*
X026605Y034675D03*
X027605Y034675D03*
X028605Y034675D03*
X029605Y034675D03*
X030605Y034675D03*
X031605Y034675D03*
X032605Y034675D03*
X033605Y034675D03*
X034605Y034675D03*
X039605Y032675D03*
X040605Y032675D03*
X041605Y032675D03*
X042605Y032675D03*
X043605Y032675D03*
X043105Y033675D03*
X042105Y033675D03*
X041105Y033675D03*
X044105Y033675D03*
X044105Y035675D03*
D16*
X044855Y034175D03*
X019355Y034175D03*
D17*
X015855Y028300D03*
X015855Y027300D03*
X010230Y027175D03*
X010230Y028175D03*
X010230Y029925D03*
X007043Y028925D03*
X006230Y029925D03*
X005230Y031613D03*
X004230Y031613D03*
X007043Y025925D03*
X007355Y025425D03*
X007355Y024488D03*
X004355Y024488D03*
X004355Y025425D03*
X027605Y022175D03*
X027605Y021175D03*
X029855Y021050D03*
X029855Y022050D03*
X031105Y019800D03*
X031105Y018800D03*
D18*
X044965Y018377D02*
X044965Y017663D01*
X044965Y016187D02*
X044965Y015473D01*
X046745Y015473D02*
X046745Y016187D01*
X046745Y017663D02*
X046745Y018377D01*
X046745Y020223D02*
X046745Y020937D01*
X044965Y020937D02*
X044965Y020223D01*
X044965Y013627D02*
X044965Y012913D01*
X046745Y012913D02*
X046745Y013627D01*
D19*
X050980Y024926D03*
X050980Y025674D03*
X030855Y027926D03*
X030855Y028674D03*
D20*
X035356Y031175D03*
X036104Y031175D03*
X045043Y027675D03*
X045792Y027675D03*
X046793Y026425D03*
X047542Y026425D03*
X033917Y018425D03*
X033168Y018425D03*
D21*
X037480Y025960D03*
X037480Y027140D03*
X032105Y026835D03*
X032105Y028015D03*
X046043Y026453D03*
X046043Y025272D03*
D22*
X039480Y019800D03*
X038480Y019800D03*
X037480Y019800D03*
D23*
X036065Y025300D03*
X036065Y025800D03*
X036065Y026300D03*
X036065Y026800D03*
X036065Y027300D03*
X036065Y027800D03*
X036065Y028300D03*
X036065Y028800D03*
X033645Y028800D03*
X033645Y028300D03*
X033645Y027800D03*
X033645Y027300D03*
X033645Y026800D03*
X033645Y026300D03*
X033645Y025800D03*
X033645Y025300D03*
D24*
X046672Y027550D03*
X047538Y027176D03*
X047538Y027924D03*
X050172Y027050D03*
X051038Y026676D03*
X051038Y027424D03*
D25*
X040805Y022250D03*
X038905Y022250D03*
D26*
X034605Y020425D03*
D27*
X050106Y030617D03*
X050854Y030617D03*
X050480Y031483D03*
X047479Y032233D03*
X046731Y032233D03*
X047105Y031367D03*
D28*
X047480Y032988D03*
X047480Y033737D03*
X048355Y027924D03*
X048355Y027176D03*
D29*
X039906Y027363D03*
X038804Y027363D03*
D30*
X046043Y031500D03*
X046043Y032100D03*
X051980Y030725D03*
X051980Y030125D03*
D31*
X051980Y030425D03*
X046043Y031800D03*
D32*
X046920Y034675D03*
X048040Y034675D03*
G36*
X056487Y025491D02*
X056110Y024890D01*
X055441Y025309D01*
X055818Y025910D01*
X056487Y025491D01*
G37*
G36*
X055894Y024541D02*
X055517Y023940D01*
X054848Y024359D01*
X055225Y024960D01*
X055894Y024541D01*
G37*
G36*
X039216Y018497D02*
X039718Y017995D01*
X039160Y017437D01*
X038658Y017939D01*
X039216Y018497D01*
G37*
G36*
X038425Y019288D02*
X038927Y018786D01*
X038369Y018228D01*
X037867Y018730D01*
X038425Y019288D01*
G37*
D33*
X013480Y029500D03*
X004293Y029500D03*
D34*
X011114Y033425D03*
X012846Y033425D03*
X034989Y019738D03*
X036721Y019738D03*
D35*
X037981Y028425D03*
X038729Y028425D03*
D36*
X042293Y020238D03*
X042293Y019238D03*
X044855Y019300D03*
X046855Y019300D03*
X046855Y014550D03*
X044855Y014550D03*
D37*
X045105Y023733D02*
X045105Y024367D01*
X046105Y024367D02*
X046105Y023733D01*
X047105Y023733D02*
X047105Y024367D01*
X044105Y024367D02*
X044105Y023733D01*
X043105Y023733D02*
X043105Y024367D01*
X042105Y024367D02*
X042105Y023733D01*
X041105Y023733D02*
X041105Y024367D01*
X040105Y024367D02*
X040105Y023733D01*
X039105Y023733D02*
X039105Y024367D01*
X038105Y024367D02*
X038105Y023733D01*
X037105Y023733D02*
X037105Y024367D01*
X036105Y024367D02*
X036105Y023733D01*
X035105Y023733D02*
X035105Y024367D01*
X034105Y024367D02*
X034105Y023733D01*
X033105Y023733D02*
X033105Y024367D01*
X032105Y024367D02*
X032105Y023733D01*
X031105Y023733D02*
X031105Y024367D01*
X030105Y024367D02*
X030105Y023733D01*
X029105Y023733D02*
X029105Y024367D01*
X028105Y024367D02*
X028105Y023733D01*
X028105Y029733D02*
X028105Y030367D01*
X029105Y030367D02*
X029105Y029733D01*
X030105Y029733D02*
X030105Y030367D01*
X031105Y030367D02*
X031105Y029733D01*
X032105Y029733D02*
X032105Y030367D01*
X033105Y030367D02*
X033105Y029733D01*
X034105Y029733D02*
X034105Y030367D01*
X035105Y030367D02*
X035105Y029733D01*
X036105Y029733D02*
X036105Y030367D01*
X037105Y030367D02*
X037105Y029733D01*
X038105Y029733D02*
X038105Y030367D01*
X039105Y030367D02*
X039105Y029733D01*
X040105Y029733D02*
X040105Y030367D01*
X041105Y030367D02*
X041105Y029733D01*
X042105Y029733D02*
X042105Y030367D01*
X043105Y030367D02*
X043105Y029733D01*
X044105Y029733D02*
X044105Y030367D01*
X045105Y030367D02*
X045105Y029733D01*
X046105Y029733D02*
X046105Y030367D01*
X047105Y030367D02*
X047105Y029733D01*
D38*
X038070Y025300D03*
X036890Y025300D03*
D39*
X018980Y013925D03*
D40*
X018293Y011238D03*
X018293Y030988D03*
X048918Y030988D03*
X048918Y011238D03*
M02*
