G75*
G70*
%OFA0B0*%
%FSLAX24Y24*%
%IPPOS*%
%LPD*%
%AMOC8*
5,1,8,0,0,1.08239X$1,22.5*
%
%ADD10C,0.0050*%
%ADD11C,0.0060*%
%ADD12R,0.0560X0.0140*%
%ADD13C,0.0040*%
%ADD14R,0.0140X0.0560*%
%ADD15R,0.0230X0.0180*%
%ADD16R,0.0180X0.0230*%
%ADD17R,0.0689X0.0295*%
%ADD18C,0.0080*%
%ADD19R,0.0433X0.0193*%
%ADD20R,0.0860X0.0210*%
%ADD21R,0.1496X0.0217*%
%ADD22R,0.0295X0.0571*%
%ADD23R,0.0690X0.0290*%
%ADD24R,0.0290X0.0690*%
%ADD25R,0.0256X0.0551*%
%ADD26R,0.0230X0.0720*%
D10*
X038420Y003728D02*
X039540Y003728D01*
X039540Y004248D01*
X038420Y004248D01*
X038420Y003728D01*
X040903Y003875D02*
X040978Y003950D01*
X041128Y003950D01*
X041203Y003875D01*
X041203Y003575D01*
X041128Y003500D01*
X040978Y003500D01*
X040903Y003575D01*
X040903Y003875D01*
X041363Y003950D02*
X041513Y003950D01*
X041438Y003950D02*
X041438Y003575D01*
X041513Y003500D01*
X041588Y003500D01*
X041663Y003575D01*
X041981Y003823D02*
X042004Y003550D01*
X042004Y003550D01*
X041981Y003277D01*
X041980Y003276D01*
X041948Y003281D01*
X041916Y003290D01*
X041886Y003302D01*
X041858Y003318D01*
X041831Y003337D01*
X041807Y003359D01*
X041786Y003383D01*
X041768Y003410D01*
X041753Y003439D01*
X041742Y003470D01*
X041734Y003501D01*
X041730Y003534D01*
X041730Y003566D01*
X041734Y003599D01*
X041742Y003630D01*
X041753Y003661D01*
X041768Y003690D01*
X041786Y003717D01*
X041807Y003741D01*
X041831Y003763D01*
X041858Y003782D01*
X041886Y003798D01*
X041916Y003810D01*
X041948Y003819D01*
X041980Y003824D01*
X041980Y003777D01*
X041952Y003772D01*
X041924Y003763D01*
X041898Y003751D01*
X041873Y003736D01*
X041850Y003718D01*
X041830Y003697D01*
X041813Y003673D01*
X041799Y003648D01*
X041788Y003621D01*
X041781Y003593D01*
X041777Y003564D01*
X041777Y003536D01*
X041781Y003507D01*
X041788Y003479D01*
X041799Y003452D01*
X041813Y003427D01*
X041830Y003403D01*
X041850Y003382D01*
X041873Y003364D01*
X041898Y003349D01*
X041924Y003337D01*
X041952Y003328D01*
X041980Y003323D01*
X041980Y003371D01*
X041955Y003376D01*
X041930Y003385D01*
X041908Y003397D01*
X041887Y003413D01*
X041868Y003431D01*
X041853Y003452D01*
X041840Y003475D01*
X041831Y003499D01*
X041826Y003524D01*
X041824Y003550D01*
X041826Y003576D01*
X041831Y003601D01*
X041840Y003625D01*
X041853Y003648D01*
X041868Y003669D01*
X041887Y003687D01*
X041908Y003703D01*
X041930Y003715D01*
X041955Y003724D01*
X041980Y003729D01*
X041980Y003682D01*
X041959Y003676D01*
X041939Y003667D01*
X041921Y003655D01*
X041905Y003640D01*
X041892Y003622D01*
X041882Y003603D01*
X041875Y003582D01*
X041871Y003561D01*
X041871Y003539D01*
X041875Y003518D01*
X041882Y003497D01*
X041892Y003478D01*
X041905Y003460D01*
X041921Y003445D01*
X041939Y003433D01*
X041959Y003424D01*
X041980Y003418D01*
X041980Y003467D01*
X041964Y003473D01*
X041950Y003482D01*
X041938Y003495D01*
X041928Y003509D01*
X041922Y003525D01*
X041918Y003541D01*
X041918Y003559D01*
X041922Y003575D01*
X041928Y003591D01*
X041938Y003605D01*
X041950Y003618D01*
X041964Y003627D01*
X041980Y003633D01*
X041982Y003582D01*
X041974Y003575D01*
X041968Y003566D01*
X041965Y003555D01*
X041965Y003545D01*
X041968Y003534D01*
X041974Y003525D01*
X041982Y003518D01*
X042229Y003277D02*
X042206Y003550D01*
X042206Y003550D01*
X042229Y003823D01*
X042230Y003824D01*
X042262Y003819D01*
X042294Y003810D01*
X042324Y003798D01*
X042352Y003782D01*
X042379Y003763D01*
X042403Y003741D01*
X042424Y003717D01*
X042442Y003690D01*
X042457Y003661D01*
X042468Y003630D01*
X042476Y003599D01*
X042480Y003566D01*
X042480Y003534D01*
X042476Y003501D01*
X042468Y003470D01*
X042457Y003439D01*
X042442Y003410D01*
X042424Y003383D01*
X042403Y003359D01*
X042379Y003337D01*
X042352Y003318D01*
X042324Y003302D01*
X042294Y003290D01*
X042262Y003281D01*
X042230Y003276D01*
X042230Y003323D01*
X042258Y003328D01*
X042286Y003337D01*
X042312Y003349D01*
X042337Y003364D01*
X042360Y003382D01*
X042380Y003403D01*
X042397Y003427D01*
X042411Y003452D01*
X042422Y003479D01*
X042429Y003507D01*
X042433Y003536D01*
X042433Y003564D01*
X042429Y003593D01*
X042422Y003621D01*
X042411Y003648D01*
X042397Y003673D01*
X042380Y003697D01*
X042360Y003718D01*
X042337Y003736D01*
X042312Y003751D01*
X042286Y003763D01*
X042258Y003772D01*
X042230Y003777D01*
X042230Y003729D01*
X042255Y003724D01*
X042280Y003715D01*
X042302Y003703D01*
X042323Y003687D01*
X042342Y003669D01*
X042357Y003648D01*
X042370Y003625D01*
X042379Y003601D01*
X042384Y003576D01*
X042386Y003550D01*
X042384Y003524D01*
X042379Y003499D01*
X042370Y003475D01*
X042357Y003452D01*
X042342Y003431D01*
X042323Y003413D01*
X042302Y003397D01*
X042280Y003385D01*
X042255Y003376D01*
X042230Y003371D01*
X042230Y003418D01*
X042251Y003424D01*
X042271Y003433D01*
X042289Y003445D01*
X042305Y003460D01*
X042318Y003478D01*
X042328Y003497D01*
X042335Y003518D01*
X042339Y003539D01*
X042339Y003561D01*
X042335Y003582D01*
X042328Y003603D01*
X042318Y003622D01*
X042305Y003640D01*
X042289Y003655D01*
X042271Y003667D01*
X042251Y003676D01*
X042230Y003682D01*
X042230Y003633D01*
X042246Y003627D01*
X042260Y003618D01*
X042272Y003605D01*
X042282Y003591D01*
X042288Y003575D01*
X042292Y003559D01*
X042292Y003541D01*
X042288Y003525D01*
X042282Y003509D01*
X042272Y003495D01*
X042260Y003482D01*
X042246Y003473D01*
X042230Y003467D01*
X042228Y003518D01*
X042236Y003525D01*
X042242Y003534D01*
X042245Y003545D01*
X042245Y003555D01*
X042242Y003566D01*
X042236Y003575D01*
X042228Y003582D01*
X042229Y004152D02*
X042206Y004425D01*
X042206Y004425D01*
X042229Y004698D01*
X042230Y004699D01*
X042262Y004694D01*
X042294Y004685D01*
X042324Y004673D01*
X042352Y004657D01*
X042379Y004638D01*
X042403Y004616D01*
X042424Y004592D01*
X042442Y004565D01*
X042457Y004536D01*
X042468Y004505D01*
X042476Y004474D01*
X042480Y004441D01*
X042480Y004409D01*
X042476Y004376D01*
X042468Y004345D01*
X042457Y004314D01*
X042442Y004285D01*
X042424Y004258D01*
X042403Y004234D01*
X042379Y004212D01*
X042352Y004193D01*
X042324Y004177D01*
X042294Y004165D01*
X042262Y004156D01*
X042230Y004151D01*
X042230Y004198D01*
X042258Y004203D01*
X042286Y004212D01*
X042312Y004224D01*
X042337Y004239D01*
X042360Y004257D01*
X042380Y004278D01*
X042397Y004302D01*
X042411Y004327D01*
X042422Y004354D01*
X042429Y004382D01*
X042433Y004411D01*
X042433Y004439D01*
X042429Y004468D01*
X042422Y004496D01*
X042411Y004523D01*
X042397Y004548D01*
X042380Y004572D01*
X042360Y004593D01*
X042337Y004611D01*
X042312Y004626D01*
X042286Y004638D01*
X042258Y004647D01*
X042230Y004652D01*
X042230Y004604D01*
X042255Y004599D01*
X042280Y004590D01*
X042302Y004578D01*
X042323Y004562D01*
X042342Y004544D01*
X042357Y004523D01*
X042370Y004500D01*
X042379Y004476D01*
X042384Y004451D01*
X042386Y004425D01*
X042384Y004399D01*
X042379Y004374D01*
X042370Y004350D01*
X042357Y004327D01*
X042342Y004306D01*
X042323Y004288D01*
X042302Y004272D01*
X042280Y004260D01*
X042255Y004251D01*
X042230Y004246D01*
X042230Y004293D01*
X042251Y004299D01*
X042271Y004308D01*
X042289Y004320D01*
X042305Y004335D01*
X042318Y004353D01*
X042328Y004372D01*
X042335Y004393D01*
X042339Y004414D01*
X042339Y004436D01*
X042335Y004457D01*
X042328Y004478D01*
X042318Y004497D01*
X042305Y004515D01*
X042289Y004530D01*
X042271Y004542D01*
X042251Y004551D01*
X042230Y004557D01*
X042230Y004508D01*
X042246Y004502D01*
X042260Y004493D01*
X042272Y004480D01*
X042282Y004466D01*
X042288Y004450D01*
X042292Y004434D01*
X042292Y004416D01*
X042288Y004400D01*
X042282Y004384D01*
X042272Y004370D01*
X042260Y004357D01*
X042246Y004348D01*
X042230Y004342D01*
X042228Y004393D01*
X042236Y004400D01*
X042242Y004409D01*
X042245Y004420D01*
X042245Y004430D01*
X042242Y004441D01*
X042236Y004450D01*
X042228Y004457D01*
X041981Y004698D02*
X042004Y004425D01*
X042004Y004425D01*
X041981Y004152D01*
X041980Y004151D01*
X041948Y004156D01*
X041916Y004165D01*
X041886Y004177D01*
X041858Y004193D01*
X041831Y004212D01*
X041807Y004234D01*
X041786Y004258D01*
X041768Y004285D01*
X041753Y004314D01*
X041742Y004345D01*
X041734Y004376D01*
X041730Y004409D01*
X041730Y004441D01*
X041734Y004474D01*
X041742Y004505D01*
X041753Y004536D01*
X041768Y004565D01*
X041786Y004592D01*
X041807Y004616D01*
X041831Y004638D01*
X041858Y004657D01*
X041886Y004673D01*
X041916Y004685D01*
X041948Y004694D01*
X041980Y004699D01*
X041980Y004652D01*
X041952Y004647D01*
X041924Y004638D01*
X041898Y004626D01*
X041873Y004611D01*
X041850Y004593D01*
X041830Y004572D01*
X041813Y004548D01*
X041799Y004523D01*
X041788Y004496D01*
X041781Y004468D01*
X041777Y004439D01*
X041777Y004411D01*
X041781Y004382D01*
X041788Y004354D01*
X041799Y004327D01*
X041813Y004302D01*
X041830Y004278D01*
X041850Y004257D01*
X041873Y004239D01*
X041898Y004224D01*
X041924Y004212D01*
X041952Y004203D01*
X041980Y004198D01*
X041980Y004246D01*
X041955Y004251D01*
X041930Y004260D01*
X041908Y004272D01*
X041887Y004288D01*
X041868Y004306D01*
X041853Y004327D01*
X041840Y004350D01*
X041831Y004374D01*
X041826Y004399D01*
X041824Y004425D01*
X041826Y004451D01*
X041831Y004476D01*
X041840Y004500D01*
X041853Y004523D01*
X041868Y004544D01*
X041887Y004562D01*
X041908Y004578D01*
X041930Y004590D01*
X041955Y004599D01*
X041980Y004604D01*
X041980Y004557D01*
X041959Y004551D01*
X041939Y004542D01*
X041921Y004530D01*
X041905Y004515D01*
X041892Y004497D01*
X041882Y004478D01*
X041875Y004457D01*
X041871Y004436D01*
X041871Y004414D01*
X041875Y004393D01*
X041882Y004372D01*
X041892Y004353D01*
X041905Y004335D01*
X041921Y004320D01*
X041939Y004308D01*
X041959Y004299D01*
X041980Y004293D01*
X041980Y004342D01*
X041964Y004348D01*
X041950Y004357D01*
X041938Y004370D01*
X041928Y004384D01*
X041922Y004400D01*
X041918Y004416D01*
X041918Y004434D01*
X041922Y004450D01*
X041928Y004466D01*
X041938Y004480D01*
X041950Y004493D01*
X041964Y004502D01*
X041980Y004508D01*
X041982Y004457D01*
X041974Y004450D01*
X041968Y004441D01*
X041965Y004430D01*
X041965Y004420D01*
X041968Y004409D01*
X041974Y004400D01*
X041982Y004393D01*
X043337Y003700D02*
X043487Y003700D01*
X043412Y003700D02*
X043412Y003250D01*
X043487Y003250D02*
X043337Y003250D01*
X043705Y003250D02*
X043705Y003325D01*
X043780Y003400D01*
X044155Y003400D01*
X044155Y003325D02*
X044155Y003475D01*
X044155Y003635D02*
X044155Y003861D01*
X044080Y003936D01*
X043930Y003936D01*
X043855Y003861D01*
X043855Y003635D01*
X043797Y003700D02*
X043647Y003700D01*
X043722Y003700D02*
X043722Y003325D01*
X043797Y003250D01*
X043872Y003250D01*
X043947Y003325D01*
X043780Y003175D02*
X043705Y003250D01*
X043705Y003635D02*
X044155Y003635D01*
X043855Y003786D02*
X043705Y003936D01*
X043731Y004698D02*
X043754Y004425D01*
X043754Y004425D01*
X043731Y004152D01*
X043730Y004151D01*
X043698Y004156D01*
X043666Y004165D01*
X043636Y004177D01*
X043608Y004193D01*
X043581Y004212D01*
X043557Y004234D01*
X043536Y004258D01*
X043518Y004285D01*
X043503Y004314D01*
X043492Y004345D01*
X043484Y004376D01*
X043480Y004409D01*
X043480Y004441D01*
X043484Y004474D01*
X043492Y004505D01*
X043503Y004536D01*
X043518Y004565D01*
X043536Y004592D01*
X043557Y004616D01*
X043581Y004638D01*
X043608Y004657D01*
X043636Y004673D01*
X043666Y004685D01*
X043698Y004694D01*
X043730Y004699D01*
X043730Y004652D01*
X043702Y004647D01*
X043674Y004638D01*
X043648Y004626D01*
X043623Y004611D01*
X043600Y004593D01*
X043580Y004572D01*
X043563Y004548D01*
X043549Y004523D01*
X043538Y004496D01*
X043531Y004468D01*
X043527Y004439D01*
X043527Y004411D01*
X043531Y004382D01*
X043538Y004354D01*
X043549Y004327D01*
X043563Y004302D01*
X043580Y004278D01*
X043600Y004257D01*
X043623Y004239D01*
X043648Y004224D01*
X043674Y004212D01*
X043702Y004203D01*
X043730Y004198D01*
X043730Y004246D01*
X043705Y004251D01*
X043680Y004260D01*
X043658Y004272D01*
X043637Y004288D01*
X043618Y004306D01*
X043603Y004327D01*
X043590Y004350D01*
X043581Y004374D01*
X043576Y004399D01*
X043574Y004425D01*
X043576Y004451D01*
X043581Y004476D01*
X043590Y004500D01*
X043603Y004523D01*
X043618Y004544D01*
X043637Y004562D01*
X043658Y004578D01*
X043680Y004590D01*
X043705Y004599D01*
X043730Y004604D01*
X043730Y004557D01*
X043709Y004551D01*
X043689Y004542D01*
X043671Y004530D01*
X043655Y004515D01*
X043642Y004497D01*
X043632Y004478D01*
X043625Y004457D01*
X043621Y004436D01*
X043621Y004414D01*
X043625Y004393D01*
X043632Y004372D01*
X043642Y004353D01*
X043655Y004335D01*
X043671Y004320D01*
X043689Y004308D01*
X043709Y004299D01*
X043730Y004293D01*
X043730Y004342D01*
X043714Y004348D01*
X043700Y004357D01*
X043688Y004370D01*
X043678Y004384D01*
X043672Y004400D01*
X043668Y004416D01*
X043668Y004434D01*
X043672Y004450D01*
X043678Y004466D01*
X043688Y004480D01*
X043700Y004493D01*
X043714Y004502D01*
X043730Y004508D01*
X043732Y004457D01*
X043724Y004450D01*
X043718Y004441D01*
X043715Y004430D01*
X043715Y004420D01*
X043718Y004409D01*
X043724Y004400D01*
X043732Y004393D01*
X043979Y004152D02*
X043956Y004425D01*
X043956Y004425D01*
X043979Y004698D01*
X043980Y004699D01*
X044012Y004694D01*
X044044Y004685D01*
X044074Y004673D01*
X044102Y004657D01*
X044129Y004638D01*
X044153Y004616D01*
X044174Y004592D01*
X044192Y004565D01*
X044207Y004536D01*
X044218Y004505D01*
X044226Y004474D01*
X044230Y004441D01*
X044230Y004409D01*
X044226Y004376D01*
X044218Y004345D01*
X044207Y004314D01*
X044192Y004285D01*
X044174Y004258D01*
X044153Y004234D01*
X044129Y004212D01*
X044102Y004193D01*
X044074Y004177D01*
X044044Y004165D01*
X044012Y004156D01*
X043980Y004151D01*
X043980Y004198D01*
X044008Y004203D01*
X044036Y004212D01*
X044062Y004224D01*
X044087Y004239D01*
X044110Y004257D01*
X044130Y004278D01*
X044147Y004302D01*
X044161Y004327D01*
X044172Y004354D01*
X044179Y004382D01*
X044183Y004411D01*
X044183Y004439D01*
X044179Y004468D01*
X044172Y004496D01*
X044161Y004523D01*
X044147Y004548D01*
X044130Y004572D01*
X044110Y004593D01*
X044087Y004611D01*
X044062Y004626D01*
X044036Y004638D01*
X044008Y004647D01*
X043980Y004652D01*
X043980Y004604D01*
X044005Y004599D01*
X044030Y004590D01*
X044052Y004578D01*
X044073Y004562D01*
X044092Y004544D01*
X044107Y004523D01*
X044120Y004500D01*
X044129Y004476D01*
X044134Y004451D01*
X044136Y004425D01*
X044134Y004399D01*
X044129Y004374D01*
X044120Y004350D01*
X044107Y004327D01*
X044092Y004306D01*
X044073Y004288D01*
X044052Y004272D01*
X044030Y004260D01*
X044005Y004251D01*
X043980Y004246D01*
X043980Y004293D01*
X044001Y004299D01*
X044021Y004308D01*
X044039Y004320D01*
X044055Y004335D01*
X044068Y004353D01*
X044078Y004372D01*
X044085Y004393D01*
X044089Y004414D01*
X044089Y004436D01*
X044085Y004457D01*
X044078Y004478D01*
X044068Y004497D01*
X044055Y004515D01*
X044039Y004530D01*
X044021Y004542D01*
X044001Y004551D01*
X043980Y004557D01*
X043980Y004508D01*
X043996Y004502D01*
X044010Y004493D01*
X044022Y004480D01*
X044032Y004466D01*
X044038Y004450D01*
X044042Y004434D01*
X044042Y004416D01*
X044038Y004400D01*
X044032Y004384D01*
X044022Y004370D01*
X044010Y004357D01*
X043996Y004348D01*
X043980Y004342D01*
X043978Y004393D01*
X043986Y004400D01*
X043992Y004409D01*
X043995Y004420D01*
X043995Y004430D01*
X043992Y004441D01*
X043986Y004450D01*
X043978Y004457D01*
X042229Y002402D02*
X042206Y002675D01*
X042206Y002675D01*
X042229Y002948D01*
X042230Y002949D01*
X042262Y002944D01*
X042294Y002935D01*
X042324Y002923D01*
X042352Y002907D01*
X042379Y002888D01*
X042403Y002866D01*
X042424Y002842D01*
X042442Y002815D01*
X042457Y002786D01*
X042468Y002755D01*
X042476Y002724D01*
X042480Y002691D01*
X042480Y002659D01*
X042476Y002626D01*
X042468Y002595D01*
X042457Y002564D01*
X042442Y002535D01*
X042424Y002508D01*
X042403Y002484D01*
X042379Y002462D01*
X042352Y002443D01*
X042324Y002427D01*
X042294Y002415D01*
X042262Y002406D01*
X042230Y002401D01*
X042230Y002448D01*
X042258Y002453D01*
X042286Y002462D01*
X042312Y002474D01*
X042337Y002489D01*
X042360Y002507D01*
X042380Y002528D01*
X042397Y002552D01*
X042411Y002577D01*
X042422Y002604D01*
X042429Y002632D01*
X042433Y002661D01*
X042433Y002689D01*
X042429Y002718D01*
X042422Y002746D01*
X042411Y002773D01*
X042397Y002798D01*
X042380Y002822D01*
X042360Y002843D01*
X042337Y002861D01*
X042312Y002876D01*
X042286Y002888D01*
X042258Y002897D01*
X042230Y002902D01*
X042230Y002854D01*
X042255Y002849D01*
X042280Y002840D01*
X042302Y002828D01*
X042323Y002812D01*
X042342Y002794D01*
X042357Y002773D01*
X042370Y002750D01*
X042379Y002726D01*
X042384Y002701D01*
X042386Y002675D01*
X042384Y002649D01*
X042379Y002624D01*
X042370Y002600D01*
X042357Y002577D01*
X042342Y002556D01*
X042323Y002538D01*
X042302Y002522D01*
X042280Y002510D01*
X042255Y002501D01*
X042230Y002496D01*
X042230Y002543D01*
X042251Y002549D01*
X042271Y002558D01*
X042289Y002570D01*
X042305Y002585D01*
X042318Y002603D01*
X042328Y002622D01*
X042335Y002643D01*
X042339Y002664D01*
X042339Y002686D01*
X042335Y002707D01*
X042328Y002728D01*
X042318Y002747D01*
X042305Y002765D01*
X042289Y002780D01*
X042271Y002792D01*
X042251Y002801D01*
X042230Y002807D01*
X042230Y002758D01*
X042246Y002752D01*
X042260Y002743D01*
X042272Y002730D01*
X042282Y002716D01*
X042288Y002700D01*
X042292Y002684D01*
X042292Y002666D01*
X042288Y002650D01*
X042282Y002634D01*
X042272Y002620D01*
X042260Y002607D01*
X042246Y002598D01*
X042230Y002592D01*
X042228Y002643D01*
X042236Y002650D01*
X042242Y002659D01*
X042245Y002670D01*
X042245Y002680D01*
X042242Y002691D01*
X042236Y002700D01*
X042228Y002707D01*
X041981Y002948D02*
X042004Y002675D01*
X042004Y002675D01*
X041981Y002402D01*
X041980Y002401D01*
X041948Y002406D01*
X041916Y002415D01*
X041886Y002427D01*
X041858Y002443D01*
X041831Y002462D01*
X041807Y002484D01*
X041786Y002508D01*
X041768Y002535D01*
X041753Y002564D01*
X041742Y002595D01*
X041734Y002626D01*
X041730Y002659D01*
X041730Y002691D01*
X041734Y002724D01*
X041742Y002755D01*
X041753Y002786D01*
X041768Y002815D01*
X041786Y002842D01*
X041807Y002866D01*
X041831Y002888D01*
X041858Y002907D01*
X041886Y002923D01*
X041916Y002935D01*
X041948Y002944D01*
X041980Y002949D01*
X041980Y002902D01*
X041952Y002897D01*
X041924Y002888D01*
X041898Y002876D01*
X041873Y002861D01*
X041850Y002843D01*
X041830Y002822D01*
X041813Y002798D01*
X041799Y002773D01*
X041788Y002746D01*
X041781Y002718D01*
X041777Y002689D01*
X041777Y002661D01*
X041781Y002632D01*
X041788Y002604D01*
X041799Y002577D01*
X041813Y002552D01*
X041830Y002528D01*
X041850Y002507D01*
X041873Y002489D01*
X041898Y002474D01*
X041924Y002462D01*
X041952Y002453D01*
X041980Y002448D01*
X041980Y002496D01*
X041955Y002501D01*
X041930Y002510D01*
X041908Y002522D01*
X041887Y002538D01*
X041868Y002556D01*
X041853Y002577D01*
X041840Y002600D01*
X041831Y002624D01*
X041826Y002649D01*
X041824Y002675D01*
X041826Y002701D01*
X041831Y002726D01*
X041840Y002750D01*
X041853Y002773D01*
X041868Y002794D01*
X041887Y002812D01*
X041908Y002828D01*
X041930Y002840D01*
X041955Y002849D01*
X041980Y002854D01*
X041980Y002807D01*
X041959Y002801D01*
X041939Y002792D01*
X041921Y002780D01*
X041905Y002765D01*
X041892Y002747D01*
X041882Y002728D01*
X041875Y002707D01*
X041871Y002686D01*
X041871Y002664D01*
X041875Y002643D01*
X041882Y002622D01*
X041892Y002603D01*
X041905Y002585D01*
X041921Y002570D01*
X041939Y002558D01*
X041959Y002549D01*
X041980Y002543D01*
X041980Y002592D01*
X041964Y002598D01*
X041950Y002607D01*
X041938Y002620D01*
X041928Y002634D01*
X041922Y002650D01*
X041918Y002666D01*
X041918Y002684D01*
X041922Y002700D01*
X041928Y002716D01*
X041938Y002730D01*
X041950Y002743D01*
X041964Y002752D01*
X041980Y002758D01*
X041982Y002707D01*
X041974Y002700D01*
X041968Y002691D01*
X041965Y002680D01*
X041965Y002670D01*
X041968Y002659D01*
X041974Y002650D01*
X041982Y002643D01*
X042001Y001325D02*
X042001Y000950D01*
X042076Y000875D01*
X042151Y000875D01*
X042226Y000950D01*
X042076Y001325D02*
X041926Y001325D01*
X041765Y001250D02*
X041765Y001175D01*
X041690Y001100D01*
X041540Y001100D01*
X041465Y001025D01*
X041465Y000950D01*
X041540Y000875D01*
X041690Y000875D01*
X041765Y000950D01*
X041765Y001250D02*
X041690Y001325D01*
X041540Y001325D01*
X041465Y001250D01*
X041582Y006926D02*
X041855Y006949D01*
X041855Y006949D01*
X042128Y006926D01*
X042129Y006925D01*
X042124Y006893D01*
X042115Y006861D01*
X042103Y006831D01*
X042087Y006803D01*
X042068Y006776D01*
X042046Y006752D01*
X042022Y006731D01*
X041995Y006713D01*
X041966Y006698D01*
X041935Y006687D01*
X041904Y006679D01*
X041871Y006675D01*
X041839Y006675D01*
X041806Y006679D01*
X041775Y006687D01*
X041744Y006698D01*
X041715Y006713D01*
X041688Y006731D01*
X041664Y006752D01*
X041642Y006776D01*
X041623Y006803D01*
X041607Y006831D01*
X041595Y006861D01*
X041586Y006893D01*
X041581Y006925D01*
X041628Y006925D01*
X041633Y006897D01*
X041642Y006869D01*
X041654Y006843D01*
X041669Y006818D01*
X041687Y006795D01*
X041708Y006775D01*
X041732Y006758D01*
X041757Y006744D01*
X041784Y006733D01*
X041812Y006726D01*
X041841Y006722D01*
X041869Y006722D01*
X041898Y006726D01*
X041926Y006733D01*
X041953Y006744D01*
X041978Y006758D01*
X042002Y006775D01*
X042023Y006795D01*
X042041Y006818D01*
X042056Y006843D01*
X042068Y006869D01*
X042077Y006897D01*
X042082Y006925D01*
X042034Y006925D01*
X042029Y006900D01*
X042020Y006875D01*
X042008Y006853D01*
X041992Y006832D01*
X041974Y006813D01*
X041953Y006798D01*
X041930Y006785D01*
X041906Y006776D01*
X041881Y006771D01*
X041855Y006769D01*
X041829Y006771D01*
X041804Y006776D01*
X041780Y006785D01*
X041757Y006798D01*
X041736Y006813D01*
X041718Y006832D01*
X041702Y006853D01*
X041690Y006875D01*
X041681Y006900D01*
X041676Y006925D01*
X041723Y006925D01*
X041729Y006904D01*
X041738Y006884D01*
X041750Y006866D01*
X041765Y006850D01*
X041783Y006837D01*
X041802Y006827D01*
X041823Y006820D01*
X041844Y006816D01*
X041866Y006816D01*
X041887Y006820D01*
X041908Y006827D01*
X041927Y006837D01*
X041945Y006850D01*
X041960Y006866D01*
X041972Y006884D01*
X041981Y006904D01*
X041987Y006925D01*
X041938Y006925D01*
X041932Y006909D01*
X041923Y006895D01*
X041910Y006883D01*
X041896Y006873D01*
X041880Y006867D01*
X041864Y006863D01*
X041846Y006863D01*
X041830Y006867D01*
X041814Y006873D01*
X041800Y006883D01*
X041787Y006895D01*
X041778Y006909D01*
X041772Y006925D01*
X041823Y006927D01*
X041830Y006919D01*
X041839Y006913D01*
X041850Y006910D01*
X041860Y006910D01*
X041871Y006913D01*
X041880Y006919D01*
X041887Y006927D01*
X042128Y007174D02*
X041855Y007151D01*
X041855Y007151D01*
X041582Y007174D01*
X041581Y007175D01*
X041586Y007207D01*
X041595Y007239D01*
X041607Y007269D01*
X041623Y007297D01*
X041642Y007324D01*
X041664Y007348D01*
X041688Y007369D01*
X041715Y007387D01*
X041744Y007402D01*
X041775Y007413D01*
X041806Y007421D01*
X041839Y007425D01*
X041871Y007425D01*
X041904Y007421D01*
X041935Y007413D01*
X041966Y007402D01*
X041995Y007387D01*
X042022Y007369D01*
X042046Y007348D01*
X042068Y007324D01*
X042087Y007297D01*
X042103Y007269D01*
X042115Y007239D01*
X042124Y007207D01*
X042129Y007175D01*
X042082Y007175D01*
X042077Y007203D01*
X042068Y007231D01*
X042056Y007257D01*
X042041Y007282D01*
X042023Y007305D01*
X042002Y007325D01*
X041978Y007342D01*
X041953Y007356D01*
X041926Y007367D01*
X041898Y007374D01*
X041869Y007378D01*
X041841Y007378D01*
X041812Y007374D01*
X041784Y007367D01*
X041757Y007356D01*
X041732Y007342D01*
X041708Y007325D01*
X041687Y007305D01*
X041669Y007282D01*
X041654Y007257D01*
X041642Y007231D01*
X041633Y007203D01*
X041628Y007175D01*
X041676Y007175D01*
X041681Y007200D01*
X041690Y007225D01*
X041702Y007247D01*
X041718Y007268D01*
X041736Y007287D01*
X041757Y007302D01*
X041780Y007315D01*
X041804Y007324D01*
X041829Y007329D01*
X041855Y007331D01*
X041881Y007329D01*
X041906Y007324D01*
X041930Y007315D01*
X041953Y007302D01*
X041974Y007287D01*
X041992Y007268D01*
X042008Y007247D01*
X042020Y007225D01*
X042029Y007200D01*
X042034Y007175D01*
X041987Y007175D01*
X041981Y007196D01*
X041972Y007216D01*
X041960Y007234D01*
X041945Y007250D01*
X041927Y007263D01*
X041908Y007273D01*
X041887Y007280D01*
X041866Y007284D01*
X041844Y007284D01*
X041823Y007280D01*
X041802Y007273D01*
X041783Y007263D01*
X041765Y007250D01*
X041750Y007234D01*
X041738Y007216D01*
X041729Y007196D01*
X041723Y007175D01*
X041772Y007175D01*
X041778Y007191D01*
X041787Y007205D01*
X041800Y007217D01*
X041814Y007227D01*
X041830Y007233D01*
X041846Y007237D01*
X041864Y007237D01*
X041880Y007233D01*
X041896Y007227D01*
X041910Y007217D01*
X041923Y007205D01*
X041932Y007191D01*
X041938Y007175D01*
X041887Y007173D01*
X041880Y007181D01*
X041871Y007187D01*
X041860Y007190D01*
X041850Y007190D01*
X041839Y007187D01*
X041830Y007181D01*
X041823Y007173D01*
X041405Y007925D02*
X041330Y008000D01*
X041330Y008075D01*
X041405Y008150D01*
X041780Y008150D01*
X041780Y008075D02*
X041780Y008225D01*
X041630Y008385D02*
X041780Y008536D01*
X041330Y008536D01*
X041330Y008686D02*
X041330Y008385D01*
X042205Y008385D02*
X042205Y008686D01*
X042505Y008686D02*
X042205Y008385D01*
X042280Y008150D02*
X042655Y008150D01*
X042655Y008075D02*
X042655Y008225D01*
X042580Y008385D02*
X042655Y008460D01*
X042655Y008611D01*
X042580Y008686D01*
X042505Y008686D01*
X042280Y008150D02*
X042205Y008075D01*
X042205Y008000D01*
X042280Y007925D01*
X043128Y007174D02*
X042855Y007151D01*
X042855Y007151D01*
X042582Y007174D01*
X042581Y007175D01*
X042586Y007207D01*
X042595Y007239D01*
X042607Y007269D01*
X042623Y007297D01*
X042642Y007324D01*
X042664Y007348D01*
X042688Y007369D01*
X042715Y007387D01*
X042744Y007402D01*
X042775Y007413D01*
X042806Y007421D01*
X042839Y007425D01*
X042871Y007425D01*
X042904Y007421D01*
X042935Y007413D01*
X042966Y007402D01*
X042995Y007387D01*
X043022Y007369D01*
X043046Y007348D01*
X043068Y007324D01*
X043087Y007297D01*
X043103Y007269D01*
X043115Y007239D01*
X043124Y007207D01*
X043129Y007175D01*
X043082Y007175D01*
X043077Y007203D01*
X043068Y007231D01*
X043056Y007257D01*
X043041Y007282D01*
X043023Y007305D01*
X043002Y007325D01*
X042978Y007342D01*
X042953Y007356D01*
X042926Y007367D01*
X042898Y007374D01*
X042869Y007378D01*
X042841Y007378D01*
X042812Y007374D01*
X042784Y007367D01*
X042757Y007356D01*
X042732Y007342D01*
X042708Y007325D01*
X042687Y007305D01*
X042669Y007282D01*
X042654Y007257D01*
X042642Y007231D01*
X042633Y007203D01*
X042628Y007175D01*
X042676Y007175D01*
X042681Y007200D01*
X042690Y007225D01*
X042702Y007247D01*
X042718Y007268D01*
X042736Y007287D01*
X042757Y007302D01*
X042780Y007315D01*
X042804Y007324D01*
X042829Y007329D01*
X042855Y007331D01*
X042881Y007329D01*
X042906Y007324D01*
X042930Y007315D01*
X042953Y007302D01*
X042974Y007287D01*
X042992Y007268D01*
X043008Y007247D01*
X043020Y007225D01*
X043029Y007200D01*
X043034Y007175D01*
X042987Y007175D01*
X042981Y007196D01*
X042972Y007216D01*
X042960Y007234D01*
X042945Y007250D01*
X042927Y007263D01*
X042908Y007273D01*
X042887Y007280D01*
X042866Y007284D01*
X042844Y007284D01*
X042823Y007280D01*
X042802Y007273D01*
X042783Y007263D01*
X042765Y007250D01*
X042750Y007234D01*
X042738Y007216D01*
X042729Y007196D01*
X042723Y007175D01*
X042772Y007175D01*
X042778Y007191D01*
X042787Y007205D01*
X042800Y007217D01*
X042814Y007227D01*
X042830Y007233D01*
X042846Y007237D01*
X042864Y007237D01*
X042880Y007233D01*
X042896Y007227D01*
X042910Y007217D01*
X042923Y007205D01*
X042932Y007191D01*
X042938Y007175D01*
X042887Y007173D01*
X042880Y007181D01*
X042871Y007187D01*
X042860Y007190D01*
X042850Y007190D01*
X042839Y007187D01*
X042830Y007181D01*
X042823Y007173D01*
X042582Y006926D02*
X042855Y006949D01*
X042855Y006949D01*
X043128Y006926D01*
X043129Y006925D01*
X043124Y006893D01*
X043115Y006861D01*
X043103Y006831D01*
X043087Y006803D01*
X043068Y006776D01*
X043046Y006752D01*
X043022Y006731D01*
X042995Y006713D01*
X042966Y006698D01*
X042935Y006687D01*
X042904Y006679D01*
X042871Y006675D01*
X042839Y006675D01*
X042806Y006679D01*
X042775Y006687D01*
X042744Y006698D01*
X042715Y006713D01*
X042688Y006731D01*
X042664Y006752D01*
X042642Y006776D01*
X042623Y006803D01*
X042607Y006831D01*
X042595Y006861D01*
X042586Y006893D01*
X042581Y006925D01*
X042628Y006925D01*
X042633Y006897D01*
X042642Y006869D01*
X042654Y006843D01*
X042669Y006818D01*
X042687Y006795D01*
X042708Y006775D01*
X042732Y006758D01*
X042757Y006744D01*
X042784Y006733D01*
X042812Y006726D01*
X042841Y006722D01*
X042869Y006722D01*
X042898Y006726D01*
X042926Y006733D01*
X042953Y006744D01*
X042978Y006758D01*
X043002Y006775D01*
X043023Y006795D01*
X043041Y006818D01*
X043056Y006843D01*
X043068Y006869D01*
X043077Y006897D01*
X043082Y006925D01*
X043034Y006925D01*
X043029Y006900D01*
X043020Y006875D01*
X043008Y006853D01*
X042992Y006832D01*
X042974Y006813D01*
X042953Y006798D01*
X042930Y006785D01*
X042906Y006776D01*
X042881Y006771D01*
X042855Y006769D01*
X042829Y006771D01*
X042804Y006776D01*
X042780Y006785D01*
X042757Y006798D01*
X042736Y006813D01*
X042718Y006832D01*
X042702Y006853D01*
X042690Y006875D01*
X042681Y006900D01*
X042676Y006925D01*
X042723Y006925D01*
X042729Y006904D01*
X042738Y006884D01*
X042750Y006866D01*
X042765Y006850D01*
X042783Y006837D01*
X042802Y006827D01*
X042823Y006820D01*
X042844Y006816D01*
X042866Y006816D01*
X042887Y006820D01*
X042908Y006827D01*
X042927Y006837D01*
X042945Y006850D01*
X042960Y006866D01*
X042972Y006884D01*
X042981Y006904D01*
X042987Y006925D01*
X042938Y006925D01*
X042932Y006909D01*
X042923Y006895D01*
X042910Y006883D01*
X042896Y006873D01*
X042880Y006867D01*
X042864Y006863D01*
X042846Y006863D01*
X042830Y006867D01*
X042814Y006873D01*
X042800Y006883D01*
X042787Y006895D01*
X042778Y006909D01*
X042772Y006925D01*
X042823Y006927D01*
X042830Y006919D01*
X042839Y006913D01*
X042850Y006910D01*
X042860Y006910D01*
X042871Y006913D01*
X042880Y006919D01*
X042887Y006927D01*
X042605Y032675D02*
X043105Y033675D01*
X042105Y033675D02*
X041605Y032675D01*
X040605Y032675D02*
X041105Y033675D01*
X039605Y032675D02*
X039105Y033675D01*
X038105Y033675D02*
X038605Y032675D01*
X037605Y032675D02*
X037105Y033675D01*
X036105Y033675D02*
X036605Y032675D01*
X035605Y032675D02*
X035105Y033675D01*
X034105Y033675D02*
X034605Y032675D01*
X033605Y032675D02*
X033105Y033675D01*
X032105Y033675D02*
X032605Y032675D01*
X031605Y032675D02*
X031105Y033675D01*
X030105Y033675D02*
X030605Y032675D01*
X029605Y032675D02*
X029105Y033675D01*
X028105Y033675D02*
X028605Y032675D01*
X027605Y032675D02*
X027105Y033675D01*
X026105Y033675D02*
X026605Y032675D01*
X025605Y032675D02*
X025105Y033675D01*
X024105Y033675D02*
X024605Y032675D01*
X023605Y032675D02*
X023105Y033675D01*
X023605Y034675D02*
X024105Y035675D01*
X024605Y034675D01*
X025105Y035675D01*
X025605Y034675D01*
X026105Y035675D01*
X026605Y034675D01*
X027105Y035675D01*
X027605Y034675D01*
X028105Y035675D01*
X028605Y034675D01*
X029105Y035675D01*
X029605Y034675D01*
X030105Y035675D01*
X030605Y034675D01*
X031105Y035675D01*
X031605Y034675D01*
X032105Y035675D01*
X032605Y034675D01*
X033105Y035675D01*
X033605Y034675D01*
X034105Y035675D01*
X034605Y034675D01*
X035105Y035675D01*
X035605Y034675D01*
X036105Y035675D01*
X036605Y034675D01*
X037105Y035675D01*
X037605Y034675D01*
X038105Y035675D01*
X038605Y034675D01*
X039105Y035675D01*
X039605Y034675D01*
X040605Y034675D01*
X041105Y035675D01*
X041605Y034675D01*
X042105Y035675D01*
X042605Y034675D01*
X043105Y035675D01*
X043605Y034675D01*
X044105Y035675D01*
X044105Y033675D02*
X043605Y032675D01*
X023605Y034675D02*
X023105Y035675D01*
D11*
X024910Y016675D02*
X024910Y015920D01*
X025550Y015920D02*
X025550Y016675D01*
X028980Y018083D02*
X028980Y018643D01*
X029480Y018643D02*
X029480Y018083D01*
X026110Y023168D02*
X025355Y023168D01*
X025355Y023808D02*
X026110Y023808D01*
X025425Y025045D02*
X025425Y025800D01*
X024785Y025800D02*
X024785Y025045D01*
X012635Y024800D02*
X012075Y024800D01*
X012075Y025300D02*
X012635Y025300D01*
X010760Y025300D02*
X010200Y025300D01*
X010200Y024800D02*
X010760Y024800D01*
X038109Y018738D02*
X038432Y018738D01*
X038432Y018238D02*
X038109Y018238D01*
X043155Y018970D02*
X044055Y018970D01*
X044055Y019630D02*
X043155Y019630D01*
X044660Y017305D02*
X044660Y016550D01*
X045300Y016550D02*
X045300Y017305D01*
X048105Y018395D02*
X048105Y018955D01*
X048605Y018955D02*
X048605Y018395D01*
X048355Y020770D02*
X048355Y021330D01*
X047855Y021330D02*
X047855Y020770D01*
X054605Y013080D02*
X054605Y012520D01*
X055105Y012520D02*
X055105Y013080D01*
X059950Y016425D02*
X060510Y016425D01*
X060510Y016925D02*
X059950Y016925D01*
X060978Y016950D02*
X060978Y017659D01*
X061607Y017659D02*
X061607Y016950D01*
X058855Y016895D02*
X058855Y017455D01*
X058355Y017455D02*
X058355Y016895D01*
X060730Y012705D02*
X060730Y012145D01*
X061230Y012145D02*
X061230Y012705D01*
X060865Y011673D02*
X060345Y011673D01*
X060345Y010553D01*
X060865Y010553D01*
X060865Y011673D01*
X061230Y010370D02*
X061985Y010370D01*
X061985Y009730D02*
X061230Y009730D01*
X044505Y004725D02*
X044505Y004125D01*
X044503Y004108D01*
X044499Y004091D01*
X044492Y004075D01*
X044482Y004061D01*
X044469Y004048D01*
X044455Y004038D01*
X044439Y004031D01*
X044422Y004027D01*
X044405Y004025D01*
X043305Y004025D01*
X043288Y004027D01*
X043271Y004031D01*
X043255Y004038D01*
X043241Y004048D01*
X043228Y004061D01*
X043218Y004075D01*
X043211Y004091D01*
X043207Y004108D01*
X043205Y004125D01*
X043205Y004725D01*
X043207Y004742D01*
X043211Y004759D01*
X043218Y004775D01*
X043228Y004789D01*
X043241Y004802D01*
X043255Y004812D01*
X043271Y004819D01*
X043288Y004823D01*
X043305Y004825D01*
X044405Y004825D01*
X044422Y004823D01*
X044439Y004819D01*
X044455Y004812D01*
X044469Y004802D01*
X044482Y004789D01*
X044492Y004775D01*
X044499Y004759D01*
X044503Y004742D01*
X044505Y004725D01*
X044455Y004425D02*
X044255Y004425D01*
X043455Y004425D02*
X043255Y004425D01*
X042705Y004425D02*
X042505Y004425D01*
X042755Y004725D02*
X042753Y004742D01*
X042749Y004759D01*
X042742Y004775D01*
X042732Y004789D01*
X042719Y004802D01*
X042705Y004812D01*
X042689Y004819D01*
X042672Y004823D01*
X042655Y004825D01*
X041555Y004825D01*
X041538Y004823D01*
X041521Y004819D01*
X041505Y004812D01*
X041491Y004802D01*
X041478Y004789D01*
X041468Y004775D01*
X041461Y004759D01*
X041457Y004742D01*
X041455Y004725D01*
X041455Y004125D01*
X041457Y004108D01*
X041461Y004091D01*
X041468Y004075D01*
X041478Y004061D01*
X041491Y004048D01*
X041505Y004038D01*
X041521Y004031D01*
X041538Y004027D01*
X041555Y004025D01*
X042655Y004025D01*
X042655Y003950D02*
X041555Y003950D01*
X041538Y003948D01*
X041521Y003944D01*
X041505Y003937D01*
X041491Y003927D01*
X041478Y003914D01*
X041468Y003900D01*
X041461Y003884D01*
X041457Y003867D01*
X041455Y003850D01*
X041455Y003250D01*
X041457Y003233D01*
X041461Y003216D01*
X041468Y003200D01*
X041478Y003186D01*
X041491Y003173D01*
X041505Y003163D01*
X041521Y003156D01*
X041538Y003152D01*
X041555Y003150D01*
X042655Y003150D01*
X042655Y003075D02*
X041555Y003075D01*
X041538Y003073D01*
X041521Y003069D01*
X041505Y003062D01*
X041491Y003052D01*
X041478Y003039D01*
X041468Y003025D01*
X041461Y003009D01*
X041457Y002992D01*
X041455Y002975D01*
X041455Y002375D01*
X041457Y002358D01*
X041461Y002341D01*
X041468Y002325D01*
X041478Y002311D01*
X041491Y002298D01*
X041505Y002288D01*
X041521Y002281D01*
X041538Y002277D01*
X041555Y002275D01*
X042655Y002275D01*
X042672Y002277D01*
X042689Y002281D01*
X042705Y002288D01*
X042719Y002298D01*
X042732Y002311D01*
X042742Y002325D01*
X042749Y002341D01*
X042753Y002358D01*
X042755Y002375D01*
X042755Y002975D01*
X042753Y002992D01*
X042749Y003009D01*
X042742Y003025D01*
X042732Y003039D01*
X042719Y003052D01*
X042705Y003062D01*
X042689Y003069D01*
X042672Y003073D01*
X042655Y003075D01*
X042655Y003150D02*
X042672Y003152D01*
X042689Y003156D01*
X042705Y003163D01*
X042719Y003173D01*
X042732Y003186D01*
X042742Y003200D01*
X042749Y003216D01*
X042753Y003233D01*
X042755Y003250D01*
X042755Y003850D01*
X042753Y003867D01*
X042749Y003884D01*
X042742Y003900D01*
X042732Y003914D01*
X042719Y003927D01*
X042705Y003937D01*
X042689Y003944D01*
X042672Y003948D01*
X042655Y003950D01*
X042655Y004025D02*
X042672Y004027D01*
X042689Y004031D01*
X042705Y004038D01*
X042719Y004048D01*
X042732Y004061D01*
X042742Y004075D01*
X042749Y004091D01*
X042753Y004108D01*
X042755Y004125D01*
X042755Y004725D01*
X041705Y004425D02*
X041505Y004425D01*
X041505Y003550D02*
X041705Y003550D01*
X042505Y003550D02*
X042705Y003550D01*
X042705Y002675D02*
X042505Y002675D01*
X041705Y002675D02*
X041505Y002675D01*
X041135Y001550D02*
X040575Y001550D01*
X040575Y001050D02*
X041135Y001050D01*
X041555Y006400D02*
X042155Y006400D01*
X042172Y006402D01*
X042189Y006406D01*
X042205Y006413D01*
X042219Y006423D01*
X042232Y006436D01*
X042242Y006450D01*
X042249Y006466D01*
X042253Y006483D01*
X042255Y006500D01*
X042255Y007600D01*
X042253Y007617D01*
X042249Y007634D01*
X042242Y007650D01*
X042232Y007664D01*
X042219Y007677D01*
X042205Y007687D01*
X042189Y007694D01*
X042172Y007698D01*
X042155Y007700D01*
X041555Y007700D01*
X041538Y007698D01*
X041521Y007694D01*
X041505Y007687D01*
X041491Y007677D01*
X041478Y007664D01*
X041468Y007650D01*
X041461Y007634D01*
X041457Y007617D01*
X041455Y007600D01*
X041455Y006500D01*
X041457Y006483D01*
X041461Y006466D01*
X041468Y006450D01*
X041478Y006436D01*
X041491Y006423D01*
X041505Y006413D01*
X041521Y006406D01*
X041538Y006402D01*
X041555Y006400D01*
X041855Y006450D02*
X041855Y006650D01*
X042455Y006500D02*
X042455Y007600D01*
X042457Y007617D01*
X042461Y007634D01*
X042468Y007650D01*
X042478Y007664D01*
X042491Y007677D01*
X042505Y007687D01*
X042521Y007694D01*
X042538Y007698D01*
X042555Y007700D01*
X043155Y007700D01*
X043172Y007698D01*
X043189Y007694D01*
X043205Y007687D01*
X043219Y007677D01*
X043232Y007664D01*
X043242Y007650D01*
X043249Y007634D01*
X043253Y007617D01*
X043255Y007600D01*
X043255Y006500D01*
X043253Y006483D01*
X043249Y006466D01*
X043242Y006450D01*
X043232Y006436D01*
X043219Y006423D01*
X043205Y006413D01*
X043189Y006406D01*
X043172Y006402D01*
X043155Y006400D01*
X042555Y006400D01*
X042538Y006402D01*
X042521Y006406D01*
X042505Y006413D01*
X042491Y006423D01*
X042478Y006436D01*
X042468Y006450D01*
X042461Y006466D01*
X042457Y006483D01*
X042455Y006500D01*
X042855Y006450D02*
X042855Y006650D01*
X042855Y007450D02*
X042855Y007650D01*
X041855Y007650D02*
X041855Y007450D01*
D12*
X054855Y012460D03*
X054855Y013140D03*
X058605Y016835D03*
X058605Y017515D03*
X060980Y012765D03*
X060980Y012085D03*
X048355Y018335D03*
X048355Y019015D03*
X048105Y020710D03*
X048105Y021390D03*
X029230Y018703D03*
X029230Y018023D03*
D13*
X029256Y017218D02*
X029026Y017218D01*
X028949Y017141D01*
X028949Y016988D01*
X029026Y016911D01*
X029256Y016911D01*
X029256Y016758D02*
X029256Y017218D01*
X029563Y017218D02*
X029563Y016758D01*
X029716Y016758D02*
X029409Y016758D01*
X029102Y016911D02*
X028949Y016758D01*
X028795Y016834D02*
X028719Y016758D01*
X028565Y016758D01*
X028488Y016834D01*
X028488Y016911D01*
X028565Y016988D01*
X028642Y016988D01*
X028565Y016988D02*
X028488Y017064D01*
X028488Y017141D01*
X028565Y017218D01*
X028719Y017218D01*
X028795Y017141D01*
X029563Y017218D02*
X029716Y017064D01*
X026273Y016846D02*
X026196Y016923D01*
X026119Y016923D01*
X026043Y016846D01*
X026043Y016693D01*
X026119Y016616D01*
X026196Y016616D01*
X026273Y016693D01*
X026273Y016846D01*
X026043Y016846D02*
X025966Y016923D01*
X025889Y016923D01*
X025813Y016846D01*
X025813Y016693D01*
X025889Y016616D01*
X025966Y016616D01*
X026043Y016693D01*
X026273Y016462D02*
X026273Y016309D01*
X026273Y016386D02*
X025889Y016386D01*
X025813Y016309D01*
X025813Y016232D01*
X025889Y016155D01*
X025813Y016002D02*
X025966Y015848D01*
X025966Y015925D02*
X025966Y015695D01*
X025813Y015695D02*
X026273Y015695D01*
X026273Y015925D01*
X026196Y016002D01*
X026043Y016002D01*
X025966Y015925D01*
X025923Y024008D02*
X025846Y024008D01*
X025769Y024084D01*
X025769Y024468D01*
X025693Y024468D02*
X025846Y024468D01*
X025539Y024391D02*
X025462Y024468D01*
X025309Y024468D01*
X025232Y024391D01*
X025232Y024314D01*
X025539Y024008D01*
X025232Y024008D01*
X025923Y024008D02*
X026000Y024084D01*
X026153Y024008D02*
X026307Y024161D01*
X026230Y024161D02*
X026460Y024161D01*
X026460Y024008D02*
X026460Y024468D01*
X026230Y024468D01*
X026153Y024391D01*
X026153Y024238D01*
X026230Y024161D01*
X024585Y024820D02*
X024585Y025280D01*
X024355Y025280D01*
X024278Y025204D01*
X024278Y025050D01*
X024355Y024973D01*
X024585Y024973D01*
X024432Y024973D02*
X024278Y024820D01*
X024125Y024897D02*
X024048Y024820D01*
X023971Y024820D01*
X023894Y024897D01*
X023894Y025280D01*
X023818Y025280D02*
X023971Y025280D01*
X023664Y025127D02*
X023511Y025280D01*
X023511Y024820D01*
X023664Y024820D02*
X023357Y024820D01*
X013091Y024454D02*
X013014Y024530D01*
X012861Y024530D01*
X012784Y024454D01*
X012784Y024377D01*
X012861Y024300D01*
X012784Y024223D01*
X012784Y024147D01*
X012861Y024070D01*
X013014Y024070D01*
X013091Y024147D01*
X012938Y024300D02*
X012861Y024300D01*
X012631Y024223D02*
X012401Y024223D01*
X012324Y024300D01*
X012324Y024454D01*
X012401Y024530D01*
X012631Y024530D01*
X012631Y024070D01*
X012477Y024223D02*
X012324Y024070D01*
X012170Y024300D02*
X011863Y024300D01*
X011940Y024070D02*
X011940Y024530D01*
X012170Y024300D01*
X011216Y024147D02*
X011139Y024070D01*
X010986Y024070D01*
X010909Y024147D01*
X010909Y024223D01*
X010986Y024300D01*
X011063Y024300D01*
X010986Y024300D02*
X010909Y024377D01*
X010909Y024454D01*
X010986Y024530D01*
X011139Y024530D01*
X011216Y024454D01*
X010756Y024530D02*
X010756Y024070D01*
X010756Y024223D02*
X010526Y024223D01*
X010449Y024300D01*
X010449Y024454D01*
X010526Y024530D01*
X010756Y024530D01*
X010602Y024223D02*
X010449Y024070D01*
X010295Y024147D02*
X010219Y024070D01*
X010065Y024070D01*
X009988Y024147D01*
X009988Y024223D01*
X010065Y024300D01*
X010142Y024300D01*
X010065Y024300D02*
X009988Y024377D01*
X009988Y024454D01*
X010065Y024530D01*
X010219Y024530D01*
X010295Y024454D01*
X012025Y025405D02*
X012102Y025328D01*
X012025Y025405D02*
X012025Y025559D01*
X012102Y025635D01*
X012178Y025635D01*
X012255Y025559D01*
X012255Y025482D01*
X012255Y025559D02*
X012332Y025635D01*
X012409Y025635D01*
X012485Y025559D01*
X012485Y025405D01*
X012409Y025328D01*
X012485Y025789D02*
X012178Y025789D01*
X012025Y025942D01*
X012178Y026096D01*
X012485Y026096D01*
X012485Y026249D02*
X012485Y026479D01*
X012409Y026556D01*
X012102Y026556D01*
X012025Y026479D01*
X012025Y026249D01*
X012485Y026249D01*
X012332Y026710D02*
X012485Y026863D01*
X012025Y026863D01*
X012025Y026710D02*
X012025Y027017D01*
X012230Y027535D02*
X010730Y027535D01*
X010730Y029315D01*
X012230Y029315D01*
X012230Y027535D01*
X008960Y028947D02*
X008883Y028870D01*
X008730Y028870D01*
X008653Y028947D01*
X008653Y029023D01*
X008730Y029100D01*
X008807Y029100D01*
X008730Y029100D02*
X008653Y029177D01*
X008653Y029254D01*
X008730Y029330D01*
X008883Y029330D01*
X008960Y029254D01*
X008500Y029330D02*
X008500Y028870D01*
X008269Y028870D01*
X008193Y028947D01*
X008193Y029254D01*
X008269Y029330D01*
X008500Y029330D01*
X008039Y029177D02*
X007886Y029330D01*
X007886Y028870D01*
X008039Y028870D02*
X007732Y028870D01*
X037676Y022280D02*
X037983Y022280D01*
X037983Y022050D01*
X037829Y022127D01*
X037753Y022127D01*
X037676Y022050D01*
X037676Y021897D01*
X037753Y021820D01*
X037906Y021820D01*
X037983Y021897D01*
X038136Y021897D02*
X038213Y021820D01*
X038367Y021820D01*
X038443Y021897D01*
X038443Y022204D01*
X038367Y022280D01*
X038213Y022280D01*
X038136Y022204D01*
X038597Y021820D02*
X038904Y021820D01*
X038750Y021820D02*
X038750Y022280D01*
X038904Y022127D01*
X038693Y022790D02*
X038393Y022790D01*
X038402Y023310D02*
X038693Y023310D01*
X039652Y021622D02*
X039943Y021622D01*
X039943Y021103D02*
X039643Y021103D01*
X039838Y020843D02*
X039992Y020843D01*
X040068Y020766D01*
X040068Y020459D01*
X039992Y020383D01*
X039838Y020383D01*
X039761Y020459D01*
X039608Y020613D02*
X039301Y020613D01*
X039378Y020843D02*
X039608Y020613D01*
X039761Y020766D02*
X039838Y020843D01*
X039378Y020843D02*
X039378Y020383D01*
X040222Y020383D02*
X040529Y020383D01*
X040375Y020383D02*
X040375Y020843D01*
X040529Y020689D01*
X039041Y019774D02*
X038811Y019774D01*
X038734Y019697D01*
X038734Y019543D01*
X038811Y019467D01*
X039041Y019467D01*
X038888Y019467D02*
X038734Y019313D01*
X038581Y019313D02*
X038581Y019774D01*
X038274Y019774D01*
X038120Y019697D02*
X038120Y019620D01*
X038044Y019543D01*
X037890Y019543D01*
X037813Y019467D01*
X037813Y019390D01*
X037890Y019313D01*
X038044Y019313D01*
X038120Y019390D01*
X038274Y019313D02*
X038581Y019313D01*
X038581Y019543D02*
X038427Y019543D01*
X038120Y019697D02*
X038044Y019774D01*
X037890Y019774D01*
X037813Y019697D01*
X039041Y019774D02*
X039041Y019313D01*
X042857Y019897D02*
X042857Y019973D01*
X042934Y020050D01*
X043164Y020050D01*
X043164Y019897D01*
X043087Y019820D01*
X042934Y019820D01*
X042857Y019897D01*
X043011Y020204D02*
X043164Y020050D01*
X043318Y020050D02*
X043394Y019973D01*
X043625Y019973D01*
X043625Y019820D02*
X043625Y020280D01*
X043394Y020280D01*
X043318Y020204D01*
X043318Y020050D01*
X043471Y019973D02*
X043318Y019820D01*
X043778Y019820D02*
X044085Y019820D01*
X043932Y019820D02*
X043932Y020280D01*
X044085Y020127D01*
X043011Y020204D02*
X042857Y020280D01*
X046772Y020204D02*
X046772Y019897D01*
X046849Y019820D01*
X047002Y019820D01*
X047079Y019897D01*
X046772Y020204D01*
X046849Y020280D01*
X047002Y020280D01*
X047079Y020204D01*
X047079Y019897D01*
X047232Y019820D02*
X047539Y019820D01*
X047386Y019820D02*
X047386Y020280D01*
X047539Y020127D01*
X047693Y020204D02*
X047693Y020050D01*
X047769Y019973D01*
X048000Y019973D01*
X048065Y019905D02*
X047988Y019829D01*
X047988Y019752D01*
X048065Y019675D01*
X048219Y019675D01*
X048295Y019752D01*
X048295Y019829D01*
X048219Y019905D01*
X048065Y019905D01*
X048000Y019820D02*
X048000Y020280D01*
X047769Y020280D01*
X047693Y020204D01*
X047846Y019973D02*
X047693Y019820D01*
X047988Y019598D02*
X047988Y019522D01*
X048065Y019445D01*
X048219Y019445D01*
X048295Y019522D01*
X048295Y019598D01*
X048219Y019675D01*
X048065Y019675D02*
X047988Y019598D01*
X048153Y019820D02*
X048460Y019820D01*
X048449Y019829D02*
X048449Y019675D01*
X048526Y019598D01*
X048756Y019598D01*
X048756Y019445D02*
X048756Y019905D01*
X048526Y019905D01*
X048449Y019829D01*
X048307Y019820D02*
X048307Y020280D01*
X048460Y020127D01*
X048602Y019598D02*
X048449Y019445D01*
X048909Y019445D02*
X049216Y019445D01*
X049063Y019445D02*
X049063Y019905D01*
X049216Y019752D01*
X046591Y017002D02*
X046438Y017155D01*
X046438Y016695D01*
X046591Y016695D02*
X046284Y016695D01*
X046131Y016772D02*
X046054Y016695D01*
X045901Y016695D01*
X045824Y016772D01*
X045670Y016772D02*
X045670Y016848D01*
X045594Y016925D01*
X045440Y016925D01*
X045363Y016848D01*
X045363Y016772D01*
X045440Y016695D01*
X045594Y016695D01*
X045670Y016772D01*
X045594Y016925D02*
X045670Y017002D01*
X045670Y017079D01*
X045594Y017155D01*
X045440Y017155D01*
X045363Y017079D01*
X045363Y017002D01*
X045440Y016925D01*
X045824Y017079D02*
X045901Y017155D01*
X046054Y017155D01*
X046131Y017079D01*
X046131Y016772D01*
X046005Y016310D02*
X045715Y016310D01*
X045705Y015790D02*
X046005Y015790D01*
X044460Y016064D02*
X044460Y016294D01*
X044384Y016371D01*
X044230Y016371D01*
X044153Y016294D01*
X044153Y016064D01*
X044000Y016064D02*
X044460Y016064D01*
X044153Y016217D02*
X044000Y016371D01*
X044077Y016524D02*
X044000Y016601D01*
X044000Y016678D01*
X044077Y016754D01*
X044460Y016754D01*
X044460Y016678D02*
X044460Y016831D01*
X044384Y016985D02*
X044307Y016985D01*
X044230Y017061D01*
X044230Y017292D01*
X044077Y017292D02*
X044384Y017292D01*
X044460Y017215D01*
X044460Y017061D01*
X044384Y016985D01*
X044077Y016985D02*
X044000Y017061D01*
X044000Y017215D01*
X044077Y017292D01*
X054625Y015076D02*
X054702Y015076D01*
X055009Y015383D01*
X055085Y015383D01*
X055085Y015076D01*
X055085Y014769D02*
X054625Y014769D01*
X054625Y014616D02*
X054625Y014923D01*
X054932Y014616D02*
X055085Y014769D01*
X055009Y014462D02*
X054855Y014462D01*
X054778Y014386D01*
X054778Y014155D01*
X054625Y014155D02*
X055085Y014155D01*
X055085Y014386D01*
X055009Y014462D01*
X054778Y014309D02*
X054625Y014462D01*
X054625Y014002D02*
X054625Y013695D01*
X054625Y013848D02*
X055085Y013848D01*
X054932Y013695D01*
X057863Y015070D02*
X058170Y015070D01*
X057863Y015377D01*
X057863Y015454D01*
X057940Y015530D01*
X058094Y015530D01*
X058170Y015454D01*
X058324Y015454D02*
X058324Y015300D01*
X058401Y015223D01*
X058631Y015223D01*
X058631Y015070D02*
X058631Y015530D01*
X058401Y015530D01*
X058324Y015454D01*
X058477Y015223D02*
X058324Y015070D01*
X058784Y015070D02*
X059091Y015070D01*
X058938Y015070D02*
X058938Y015530D01*
X059091Y015377D01*
X059732Y015320D02*
X060039Y015320D01*
X059886Y015320D02*
X059886Y015780D01*
X060039Y015627D01*
X060193Y015704D02*
X060193Y015550D01*
X060269Y015473D01*
X060500Y015473D01*
X060500Y015320D02*
X060500Y015780D01*
X060269Y015780D01*
X060193Y015704D01*
X060346Y015473D02*
X060193Y015320D01*
X060653Y015320D02*
X060960Y015320D01*
X060807Y015320D02*
X060807Y015780D01*
X060960Y015627D01*
X060619Y015978D02*
X060773Y016132D01*
X060313Y016132D01*
X060313Y016285D02*
X060313Y015978D01*
X060313Y016439D02*
X060773Y016439D01*
X060773Y016669D01*
X060696Y016746D01*
X060543Y016746D01*
X060466Y016669D01*
X060466Y016439D01*
X060466Y016592D02*
X060313Y016746D01*
X060313Y016899D02*
X060619Y017206D01*
X060696Y017206D01*
X060773Y017129D01*
X060773Y016976D01*
X060696Y016899D01*
X060313Y016899D02*
X060313Y017206D01*
X060313Y017360D02*
X060313Y017667D01*
X060313Y017513D02*
X060773Y017513D01*
X060619Y017360D01*
X061702Y013383D02*
X061625Y013306D01*
X061625Y013153D01*
X061702Y013076D01*
X062009Y013383D01*
X061702Y013383D01*
X062009Y013383D02*
X062085Y013306D01*
X062085Y013153D01*
X062009Y013076D01*
X061702Y013076D01*
X061625Y012923D02*
X061625Y012616D01*
X061932Y012923D01*
X062009Y012923D01*
X062085Y012846D01*
X062085Y012693D01*
X062009Y012616D01*
X062009Y012462D02*
X061855Y012462D01*
X061778Y012386D01*
X061778Y012155D01*
X061625Y012155D02*
X062085Y012155D01*
X062085Y012386D01*
X062009Y012462D01*
X061778Y012309D02*
X061625Y012462D01*
X061625Y012002D02*
X061625Y011695D01*
X061625Y011848D02*
X062085Y011848D01*
X061932Y011695D01*
X060677Y010439D02*
X060523Y010593D01*
X060523Y010133D01*
X060370Y010133D02*
X060677Y010133D01*
X060216Y010286D02*
X060216Y010593D01*
X059909Y010593D02*
X059909Y010286D01*
X060063Y010133D01*
X060216Y010286D01*
X059756Y010593D02*
X059449Y010593D01*
X059602Y010593D02*
X059602Y010133D01*
X059295Y010133D02*
X058988Y010133D01*
X059142Y010133D02*
X059142Y010593D01*
X059295Y010439D01*
X060732Y009530D02*
X060886Y009454D01*
X061039Y009300D01*
X060809Y009300D01*
X060732Y009223D01*
X060732Y009147D01*
X060809Y009070D01*
X060962Y009070D01*
X061039Y009147D01*
X061039Y009300D01*
X061269Y009147D02*
X061269Y009530D01*
X061193Y009530D02*
X061346Y009530D01*
X061653Y009454D02*
X061653Y009300D01*
X061730Y009223D01*
X061960Y009223D01*
X061960Y009070D02*
X061960Y009530D01*
X061730Y009530D01*
X061653Y009454D01*
X061807Y009223D02*
X061653Y009070D01*
X061500Y009147D02*
X061423Y009070D01*
X061346Y009070D01*
X061269Y009147D01*
X061213Y008655D02*
X061367Y008655D01*
X061443Y008579D01*
X061443Y008272D01*
X061367Y008195D01*
X061213Y008195D01*
X061136Y008272D01*
X060983Y008195D02*
X060676Y008195D01*
X060983Y008195D02*
X060676Y008502D01*
X060676Y008579D01*
X060753Y008655D01*
X060906Y008655D01*
X060983Y008579D01*
X061136Y008579D02*
X061213Y008655D01*
X061750Y008655D02*
X061750Y008195D01*
X061597Y008195D02*
X061904Y008195D01*
X061904Y008502D02*
X061750Y008655D01*
X062393Y008540D02*
X062683Y008540D01*
X062693Y009060D02*
X062393Y009060D01*
X041335Y000627D02*
X041182Y000780D01*
X041182Y000320D01*
X041335Y000320D02*
X041028Y000320D01*
X040875Y000320D02*
X040875Y000780D01*
X040644Y000780D01*
X040568Y000704D01*
X040568Y000550D01*
X040644Y000473D01*
X040875Y000473D01*
X040721Y000473D02*
X040568Y000320D01*
X040414Y000320D02*
X040107Y000320D01*
X040261Y000320D02*
X040261Y000780D01*
X040414Y000627D01*
X039954Y000627D02*
X039954Y000704D01*
X039877Y000780D01*
X039724Y000780D01*
X039647Y000704D01*
X039647Y000627D01*
X039724Y000550D01*
X039877Y000550D01*
X039954Y000627D01*
X039877Y000550D02*
X039954Y000473D01*
X039954Y000397D01*
X039877Y000320D01*
X039724Y000320D01*
X039647Y000397D01*
X039647Y000473D01*
X039724Y000550D01*
X038307Y004383D02*
X038460Y004536D01*
X038000Y004536D01*
X038000Y004383D02*
X038000Y004689D01*
X038153Y004843D02*
X038000Y004996D01*
X038153Y005150D01*
X038460Y005150D01*
X038460Y005303D02*
X038460Y005610D01*
X038460Y005457D02*
X038000Y005457D01*
X038000Y005764D02*
X038307Y006071D01*
X038384Y006071D01*
X038460Y005994D01*
X038460Y005840D01*
X038384Y005764D01*
X038000Y005764D02*
X038000Y006071D01*
X038153Y004843D02*
X038460Y004843D01*
D14*
X040515Y001300D03*
X041195Y001300D03*
X059890Y016675D03*
X060570Y016675D03*
X012695Y025050D03*
X012015Y025050D03*
X010820Y025050D03*
X010140Y025050D03*
D15*
X060210Y011113D03*
X061000Y011483D03*
X061000Y010743D03*
D16*
X039350Y003593D03*
X038610Y003593D03*
X038980Y004383D03*
D17*
X061293Y016802D03*
X061293Y017802D03*
D18*
X011874Y028501D02*
X011480Y028098D01*
X011086Y028501D01*
X011874Y028501D01*
X008853Y028495D02*
X008853Y026605D01*
X008656Y026605D01*
X008656Y028495D01*
X007357Y028495D01*
X007357Y026605D01*
X008656Y026605D01*
X008656Y028495D02*
X008853Y028495D01*
D19*
X009109Y028300D03*
X009109Y027800D03*
X009109Y027300D03*
X009109Y026800D03*
X007101Y026800D03*
X007101Y027300D03*
X007101Y027800D03*
X007101Y028300D03*
D20*
X011480Y027430D03*
X011480Y029420D03*
D21*
X011480Y028002D03*
D22*
X038260Y023050D03*
X038830Y023050D03*
X039510Y021362D03*
X040080Y021362D03*
X045573Y016050D03*
X046143Y016050D03*
X062255Y008800D03*
X062825Y008800D03*
D23*
X044980Y016405D03*
X044980Y017445D03*
X025230Y016820D03*
X025230Y015780D03*
X025105Y024905D03*
X025105Y025945D03*
D24*
X025210Y023488D03*
X026250Y023488D03*
X061085Y010050D03*
X062125Y010050D03*
D25*
X038558Y018487D03*
X037978Y018487D03*
D26*
X043050Y019300D03*
X044160Y019300D03*
M02*
