%
M48
M72
T01C0.0315
T02C0.0320
T03C0.0360
T04C0.0394
T05C0.0400
T06C0.0591
T07C0.0960
T08C0.1260
%
T01
X18293Y11238
X18980Y13925
X18293Y30988
X44855Y19300
X46855Y19300
X46855Y14550
X44855Y14550
X48918Y11238
X48918Y30988
T02
X47105Y30050
X46105Y30050
X45105Y30050
X44105Y30050
X43105Y30050
X42105Y30050
X41105Y30050
X40105Y30050
X39105Y30050
X38105Y30050
X37105Y30050
X36105Y30050
X35105Y30050
X34105Y30050
X33105Y30050
X32105Y30050
X31105Y30050
X30105Y30050
X29105Y30050
X28105Y30050
X28105Y24050
X29105Y24050
X30105Y24050
X31105Y24050
X32105Y24050
X33105Y24050
X34105Y24050
X35105Y24050
X36105Y24050
X37105Y24050
X38105Y24050
X39105Y24050
X40105Y24050
X41105Y24050
X42105Y24050
X43105Y24050
X44105Y24050
X45105Y24050
X46105Y24050
X47105Y24050
X40805Y22250
X38905Y22250
X31105Y19800
X31105Y18800
X29855Y21050
X29855Y22050
X27605Y22175
X27605Y21175
X15855Y27300
X15855Y28300
X13480Y28100
X13480Y29500
X10230Y29925
X10230Y28175
X10230Y27175
X7355Y25425
X7043Y25925
X7355Y24488
X4355Y24488
X4355Y25425
X4293Y28100
X4293Y29500
X6230Y29925
X7043Y28925
X5230Y31613
X4230Y31613
T03
X37480Y19800
X38480Y19800
X39480Y19800
T04
X34355Y16800
X34355Y15800
X34355Y14800
X34355Y13800
X34355Y12800
X34355Y11800
X32355Y11800
X31355Y11800
X30355Y11800
X29355Y11800
X26355Y12800
X26355Y13800
X26355Y14800
X26355Y15800
X24022Y15745
X22984Y15745
X22984Y16792
X24022Y16792
X29355Y16800
X30355Y16800
X31355Y16800
X32355Y16800
T05
X33605Y20425
X33605Y21425
X33605Y22425
X34605Y22425
X34605Y21425
X34605Y20425
X42293Y20238
X42293Y19238
X44965Y18020
X46745Y18020
X46745Y15830
X44965Y15830
X44965Y13270
X46745Y13270
X46745Y20580
X44965Y20580
X43605Y32675
X42605Y32675
X41605Y32675
X40605Y32675
X39605Y32675
X38605Y32675
X37605Y32675
X36605Y32675
X35605Y32675
X34605Y32675
X33605Y32675
X32605Y32675
X31605Y32675
X30605Y32675
X29605Y32675
X28605Y32675
X27605Y32675
X26605Y32675
X25605Y32675
X24605Y32675
X23605Y32675
X23105Y33675
X24105Y33675
X25105Y33675
X26105Y33675
X27105Y33675
X28105Y33675
X29105Y33675
X30105Y33675
X31105Y33675
X32105Y33675
X33105Y33675
X34105Y33675
X35105Y33675
X36105Y33675
X37105Y33675
X38105Y33675
X39105Y33675
X38605Y34675
X37605Y34675
X36605Y34675
X35605Y34675
X34605Y34675
X33605Y34675
X32605Y34675
X31605Y34675
X30605Y34675
X29605Y34675
X28605Y34675
X27605Y34675
X26605Y34675
X25605Y34675
X24605Y34675
X23605Y34675
X23105Y35675
X24105Y35675
X25105Y35675
X26105Y35675
X27105Y35675
X28105Y35675
X29105Y35675
X30105Y35675
X31105Y35675
X32105Y35675
X33105Y35675
X34105Y35675
X35105Y35675
X36105Y35675
X37105Y35675
X38105Y35675
X39105Y35675
X39605Y34675
X40605Y34675
X41605Y34675
X42605Y34675
X43605Y34675
X43105Y35675
X42105Y35675
X41105Y35675
X41105Y33675
X42105Y33675
X43105Y33675
X44105Y33675
X44105Y35675
T06
X21980Y18670
X21980Y13930
T07
X19355Y34175
X44855Y34175
T08
X35605Y12050
M30
