G75*
G70*
%OFA0B0*%
%FSLAX24Y24*%
%IPPOS*%
%LPD*%
%AMOC8*
5,1,8,0,0,1.08239X$1,22.5*
%
%ADD10C,0.0160*%
%ADD11C,0.0180*%
%ADD12C,0.0130*%
%ADD13R,0.1500X0.2750*%
%ADD14C,0.0051*%
%ADD15C,0.0110*%
%ADD16C,0.0787*%
%ADD17C,0.1181*%
%ADD18C,0.2362*%
%ADD19OC8,0.0715*%
%ADD20OC8,0.0635*%
%ADD21C,0.0715*%
%ADD22R,0.0591X0.0512*%
%ADD23R,0.0512X0.0630*%
%ADD24R,0.0472X0.0709*%
%ADD25OC8,0.0906*%
%ADD26R,0.0800X0.0260*%
%ADD27R,0.0551X0.0394*%
%ADD28C,0.0635*%
%ADD29C,0.0715*%
%ADD30R,0.0394X0.0551*%
%ADD31R,0.0630X0.0512*%
%ADD32R,0.0630X0.0709*%
%ADD33R,0.0630X0.0460*%
%ADD34R,0.0630X0.0710*%
%ADD35OC8,0.1181*%
%ADD36R,0.0945X0.0945*%
%ADD37R,0.0512X0.0591*%
%ADD38C,0.0906*%
%ADD39C,0.0635*%
%ADD40R,0.0709X0.0472*%
%ADD41C,0.0240*%
%ADD42C,0.0120*%
%ADD43C,0.1969*%
%ADD44R,0.0760X0.0760*%
D10*
X037105Y024050D02*
X037105Y024550D01*
X037480Y024925D01*
X037480Y025960D01*
X038070Y025300D02*
X044855Y025300D01*
X045355Y025800D01*
X046605Y025800D01*
X047105Y025300D01*
X047105Y024925D01*
X043637Y021783D02*
X043637Y021223D01*
X043357Y020943D01*
X043077Y021223D01*
X043077Y021783D01*
X042716Y021783D02*
X042716Y020943D01*
X042716Y021363D02*
X042156Y021363D01*
X042156Y020943D02*
X042156Y021783D01*
X038105Y026550D02*
X038105Y027550D01*
X037855Y027800D01*
X036065Y027800D01*
X036065Y028300D02*
X036981Y028300D01*
X037981Y028425D01*
X037981Y028185D01*
X038804Y027363D01*
X038105Y030050D02*
X038105Y031175D01*
X036104Y031175D01*
X036105Y030050D01*
X035105Y030050D02*
X035356Y031175D01*
X034105Y031175D01*
X034105Y030050D01*
X033105Y031800D02*
X038855Y031800D01*
X040105Y031050D01*
X044855Y031050D01*
X045605Y032050D01*
X046043Y032100D01*
X046731Y032233D01*
X047479Y032233D02*
X047479Y032988D01*
X047480Y032988D01*
X047480Y033737D02*
X046542Y033737D01*
X044355Y031550D01*
X041355Y031550D01*
X040605Y032300D01*
X040605Y032675D01*
X042605Y032675D02*
X042605Y032050D01*
X044105Y032050D01*
X046355Y034300D01*
X046043Y031500D02*
X047105Y031367D01*
X047105Y030050D01*
X033105Y031800D02*
X032605Y032675D01*
X005150Y031435D02*
X005010Y031435D01*
X004870Y031435D02*
X004590Y031715D01*
X004449Y031715D01*
X004309Y031575D01*
X004309Y031295D01*
X004449Y031155D01*
X004449Y030794D02*
X004590Y030794D01*
X004870Y030514D01*
X005010Y030514D02*
X005150Y030514D01*
X004449Y030234D02*
X004309Y030374D01*
X004309Y030654D01*
X004449Y030794D01*
X003900Y030609D02*
X003900Y030328D01*
X003760Y030188D01*
X003480Y030328D02*
X003340Y030188D01*
X003199Y030188D01*
X003059Y030328D01*
X003059Y030609D01*
X003199Y030749D01*
X003480Y030609D02*
X003620Y030749D01*
X003760Y030749D01*
X003900Y030609D01*
X003480Y030609D02*
X003480Y030328D01*
X003620Y031109D02*
X003620Y031529D01*
X003480Y031669D01*
X003199Y031669D01*
X003059Y031529D01*
X003059Y031109D01*
X003900Y031109D01*
X002650Y031249D02*
X002650Y031529D01*
X002510Y031669D01*
X002230Y031669D01*
X002230Y031389D01*
X002510Y031109D02*
X002650Y031249D01*
X002510Y031109D02*
X001949Y031109D01*
X001809Y031249D01*
X001809Y031529D01*
X001949Y031669D01*
X001949Y030749D02*
X001809Y030609D01*
X001809Y030328D01*
X001949Y030188D01*
X002510Y030188D01*
X002650Y030328D01*
X002650Y030609D01*
X002510Y030749D01*
X001949Y030749D01*
X001949Y029828D02*
X001809Y029688D01*
X001809Y029267D01*
X002650Y029267D01*
X002370Y029267D02*
X002370Y029688D01*
X002230Y029828D01*
X001949Y029828D01*
X002370Y029548D02*
X002650Y029828D01*
X003480Y029828D02*
X003480Y029267D01*
X003620Y028907D02*
X003760Y028907D01*
X003900Y028767D01*
X003900Y028347D01*
X003059Y028347D01*
X003059Y028767D01*
X003199Y028907D01*
X003340Y028907D01*
X003480Y028767D01*
X003480Y028347D01*
X003620Y027986D02*
X003760Y027986D01*
X003900Y027846D01*
X003900Y027566D01*
X003760Y027426D01*
X003480Y027566D02*
X003480Y027846D01*
X003620Y027986D01*
X003199Y027986D02*
X003059Y027846D01*
X003059Y027566D01*
X003199Y027426D01*
X003340Y027426D01*
X003480Y027566D01*
X003760Y027065D02*
X003059Y027065D01*
X002650Y027065D02*
X001809Y027065D01*
X001809Y027426D02*
X002650Y027426D01*
X002370Y027706D01*
X002650Y027986D01*
X001809Y027986D01*
X001809Y028347D02*
X001809Y028767D01*
X001949Y028907D01*
X002230Y028907D01*
X002370Y028767D01*
X002370Y028347D01*
X002650Y028347D02*
X001809Y028347D01*
X002230Y027065D02*
X002230Y026505D01*
X002650Y026505D02*
X001809Y026505D01*
X003059Y026505D02*
X003760Y026505D01*
X003900Y026645D01*
X003900Y026925D01*
X003760Y027065D01*
X004309Y026831D02*
X005150Y026831D01*
X005150Y026551D02*
X005150Y027111D01*
X005150Y027472D02*
X005010Y027472D01*
X004449Y028032D01*
X004309Y028032D01*
X004309Y027472D01*
X004309Y026831D02*
X004590Y026551D01*
X005150Y026190D02*
X005150Y025630D01*
X005150Y025910D02*
X004309Y025910D01*
X004590Y025630D01*
X004449Y028392D02*
X004309Y028532D01*
X004309Y028813D01*
X004449Y028953D01*
X004590Y028953D01*
X004870Y028673D01*
X005010Y028673D02*
X005150Y028673D01*
X004730Y029313D02*
X004730Y029874D01*
X003620Y028907D02*
X003480Y028767D01*
D11*
X001390Y028904D02*
X000980Y028493D01*
X001116Y028357D02*
X000569Y028904D01*
X000569Y029277D02*
X000980Y029277D01*
X000843Y029551D01*
X000843Y029688D01*
X000980Y029824D01*
X001253Y029824D01*
X001390Y029688D01*
X001390Y029414D01*
X001253Y029277D01*
X000569Y029277D02*
X000569Y029824D01*
X000706Y030198D02*
X000569Y030335D01*
X000569Y030608D01*
X000706Y030745D01*
X001253Y030198D01*
X001390Y030335D01*
X001390Y030608D01*
X001253Y030745D01*
X000706Y030745D01*
X000706Y031119D02*
X000569Y031256D01*
X000569Y031529D01*
X000706Y031666D01*
X001253Y031119D01*
X001390Y031256D01*
X001390Y031529D01*
X001253Y031666D01*
X000706Y031666D01*
X000706Y031119D02*
X001253Y031119D01*
X001253Y030198D02*
X000706Y030198D01*
X000569Y028357D02*
X001390Y028357D01*
X001390Y027709D02*
X000569Y027709D01*
X000569Y027436D02*
X000569Y027983D01*
X000706Y027062D02*
X000569Y026925D01*
X000569Y026652D01*
X000706Y026515D01*
X000843Y026515D01*
X000980Y026652D01*
X000980Y026925D01*
X001116Y027062D01*
X001253Y027062D01*
X001390Y026925D01*
X001390Y026652D01*
X001253Y026515D01*
D12*
X043670Y015435D02*
X043670Y014865D01*
X043670Y015055D02*
X043955Y015055D01*
X044050Y015150D01*
X044050Y015340D01*
X043955Y015435D01*
X043670Y015435D01*
X044048Y020053D02*
X044048Y020623D01*
X043858Y020623D02*
X044238Y020623D01*
D13*
X018730Y020050D03*
D14*
X013105Y029253D02*
X013105Y031300D01*
X013207Y030276D01*
X013231Y030276D02*
X013105Y031300D01*
X013003Y030276D01*
X012979Y030276D02*
X013231Y030276D01*
X013156Y030276D02*
X013105Y031300D01*
X013054Y030276D01*
X012979Y030276D02*
X013105Y031300D01*
X012318Y031300D02*
X014105Y031300D01*
X013605Y036800D02*
X012318Y036800D01*
X013105Y036800D02*
X013207Y037824D01*
X013231Y037824D02*
X013105Y036800D01*
X013003Y037824D01*
X012979Y037824D02*
X013231Y037824D01*
X013156Y037824D02*
X013105Y036800D01*
X013054Y037824D01*
X012979Y037824D02*
X013105Y036800D01*
X013105Y042757D01*
D15*
X012656Y042319D02*
X012445Y042319D01*
X011599Y043165D01*
X011387Y043165D01*
X011387Y042319D01*
X011599Y041897D02*
X011387Y041685D01*
X011387Y041262D01*
X011599Y041051D01*
X011810Y041051D01*
X012022Y041262D01*
X012022Y041897D01*
X012445Y041897D02*
X011599Y041897D01*
X012445Y041897D02*
X012656Y041685D01*
X012656Y041262D01*
X012445Y041051D01*
X012445Y040628D02*
X012656Y040628D01*
X012656Y040416D01*
X012445Y040416D01*
X012445Y040628D01*
X012445Y039993D02*
X012656Y039782D01*
X012656Y039359D01*
X012445Y039147D01*
X012656Y038725D02*
X012656Y037879D01*
X012656Y038302D02*
X011387Y038302D01*
X011810Y037879D01*
X011599Y039147D02*
X011387Y039359D01*
X011387Y039782D01*
X011599Y039993D01*
X011810Y039993D01*
X012022Y039782D01*
X012233Y039993D01*
X012445Y039993D01*
X012022Y039782D02*
X012022Y039570D01*
D16*
X022984Y016792D03*
X024022Y016792D03*
X024022Y015745D03*
X022984Y015745D03*
X026355Y015800D03*
X026355Y014800D03*
X026355Y013800D03*
X026355Y012800D03*
X029355Y011800D03*
X030355Y011800D03*
X031355Y011800D03*
X032355Y011800D03*
X034355Y011800D03*
X034355Y012800D03*
X034355Y013800D03*
X034355Y014800D03*
X034355Y015800D03*
X034355Y016800D03*
X032355Y016800D03*
X031355Y016800D03*
X030355Y016800D03*
X029355Y016800D03*
D17*
X021980Y018670D03*
X013480Y028100D03*
X004293Y028100D03*
D18*
X021980Y013930D03*
D19*
X033605Y020425D03*
X033605Y021425D03*
X033605Y022425D03*
X034605Y022425D03*
X034605Y021425D03*
X034605Y032675D03*
X033605Y032675D03*
X032605Y032675D03*
X031605Y032675D03*
X030605Y032675D03*
X029605Y032675D03*
X028605Y032675D03*
X027605Y032675D03*
X026605Y032675D03*
X025605Y032675D03*
X024605Y032675D03*
X023605Y032675D03*
X023105Y033675D03*
X024105Y033675D03*
X025105Y033675D03*
X026105Y033675D03*
X027105Y033675D03*
X028105Y033675D03*
X029105Y033675D03*
X030105Y033675D03*
X031105Y033675D03*
X032105Y033675D03*
X033105Y033675D03*
X034105Y033675D03*
X035105Y033675D03*
X036105Y033675D03*
X037105Y033675D03*
X038105Y033675D03*
X039105Y033675D03*
X038605Y032675D03*
X037605Y032675D03*
X036605Y032675D03*
X035605Y032675D03*
X035605Y034675D03*
X036605Y034675D03*
X037605Y034675D03*
X038605Y034675D03*
X039605Y034675D03*
X040605Y034675D03*
X041605Y034675D03*
X042605Y034675D03*
X043605Y034675D03*
X043105Y035675D03*
X042105Y035675D03*
X041105Y035675D03*
X039105Y035675D03*
X038105Y035675D03*
X037105Y035675D03*
X036105Y035675D03*
X035105Y035675D03*
X034105Y035675D03*
X033105Y035675D03*
X032105Y035675D03*
X031105Y035675D03*
X030105Y035675D03*
X029105Y035675D03*
X028105Y035675D03*
X027105Y035675D03*
X026105Y035675D03*
X025105Y035675D03*
X024105Y035675D03*
X023105Y035675D03*
X023605Y034675D03*
X024605Y034675D03*
X025605Y034675D03*
X026605Y034675D03*
X027605Y034675D03*
X028605Y034675D03*
X029605Y034675D03*
X030605Y034675D03*
X031605Y034675D03*
X032605Y034675D03*
X033605Y034675D03*
X034605Y034675D03*
X039605Y032675D03*
X040605Y032675D03*
X041605Y032675D03*
X042605Y032675D03*
X043605Y032675D03*
X043105Y033675D03*
X042105Y033675D03*
X041105Y033675D03*
X044105Y033675D03*
X044105Y035675D03*
D20*
X027605Y022175D03*
X027605Y021175D03*
X029855Y021050D03*
X029855Y022050D03*
X031105Y019800D03*
X031105Y018800D03*
X015855Y027300D03*
X015855Y028300D03*
X010230Y028175D03*
X010230Y027175D03*
X007355Y025425D03*
X007043Y025925D03*
X007355Y024488D03*
X004355Y024488D03*
X004355Y025425D03*
X007043Y028925D03*
X006230Y029925D03*
X005230Y031613D03*
X004230Y031613D03*
X010230Y029925D03*
D21*
X044965Y020937D02*
X044965Y020223D01*
X046745Y020223D02*
X046745Y020937D01*
X046745Y018377D02*
X046745Y017663D01*
X046745Y016187D02*
X046745Y015473D01*
X044965Y015473D02*
X044965Y016187D01*
X044965Y017663D02*
X044965Y018377D01*
X044965Y013627D02*
X044965Y012913D01*
X046745Y012913D02*
X046745Y013627D01*
D22*
X050980Y024926D03*
X050980Y025674D03*
X030855Y027926D03*
X030855Y028674D03*
D23*
X035356Y031175D03*
X036104Y031175D03*
X045043Y027675D03*
X045792Y027675D03*
X046793Y026425D03*
X047542Y026425D03*
X033917Y018425D03*
X033168Y018425D03*
D24*
X037480Y025960D03*
X037480Y027140D03*
X032105Y026835D03*
X032105Y028015D03*
X046043Y026453D03*
X046043Y025272D03*
D25*
X039480Y019800D03*
X038480Y019800D03*
X037480Y019800D03*
D26*
X036065Y025300D03*
X036065Y025800D03*
X036065Y026300D03*
X036065Y026800D03*
X036065Y027300D03*
X036065Y027800D03*
X036065Y028300D03*
X036065Y028800D03*
X033645Y028800D03*
X033645Y028300D03*
X033645Y027800D03*
X033645Y027300D03*
X033645Y026800D03*
X033645Y026300D03*
X033645Y025800D03*
X033645Y025300D03*
D27*
X046672Y027550D03*
X047538Y027176D03*
X047538Y027924D03*
X050172Y027050D03*
X051038Y026676D03*
X051038Y027424D03*
D28*
X040805Y022250D03*
X038905Y022250D03*
D29*
X034605Y020425D03*
D30*
X050106Y030617D03*
X050854Y030617D03*
X050480Y031483D03*
X047479Y032233D03*
X046731Y032233D03*
X047105Y031367D03*
D31*
X047480Y032988D03*
X047480Y033737D03*
X048355Y027924D03*
X048355Y027176D03*
D32*
X039906Y027363D03*
X038804Y027363D03*
D33*
X046043Y031500D03*
X046043Y032100D03*
X051980Y030725D03*
X051980Y030125D03*
D34*
X048040Y034675D03*
X046920Y034675D03*
G36*
X056431Y025479D02*
X056098Y024945D01*
X055497Y025321D01*
X055830Y025855D01*
X056431Y025479D01*
G37*
G36*
X055838Y024529D02*
X055505Y023995D01*
X054904Y024371D01*
X055237Y024905D01*
X055838Y024529D01*
G37*
G36*
X039216Y018440D02*
X039661Y017995D01*
X039160Y017494D01*
X038715Y017939D01*
X039216Y018440D01*
G37*
G36*
X038425Y019231D02*
X038870Y018786D01*
X038369Y018285D01*
X037924Y018730D01*
X038425Y019231D01*
G37*
D35*
X013480Y029500D03*
X004293Y029500D03*
D36*
X011114Y033425D03*
X012846Y033425D03*
X034989Y019738D03*
X036721Y019738D03*
D37*
X037981Y028425D03*
X038729Y028425D03*
D38*
X042293Y020238D03*
X042293Y019238D03*
X044855Y019300D03*
X046855Y019300D03*
X046855Y014550D03*
X044855Y014550D03*
D39*
X045105Y023733D02*
X045105Y024367D01*
X046105Y024367D02*
X046105Y023733D01*
X047105Y023733D02*
X047105Y024367D01*
X044105Y024367D02*
X044105Y023733D01*
X043105Y023733D02*
X043105Y024367D01*
X042105Y024367D02*
X042105Y023733D01*
X041105Y023733D02*
X041105Y024367D01*
X040105Y024367D02*
X040105Y023733D01*
X039105Y023733D02*
X039105Y024367D01*
X038105Y024367D02*
X038105Y023733D01*
X037105Y023733D02*
X037105Y024367D01*
X036105Y024367D02*
X036105Y023733D01*
X035105Y023733D02*
X035105Y024367D01*
X034105Y024367D02*
X034105Y023733D01*
X033105Y023733D02*
X033105Y024367D01*
X032105Y024367D02*
X032105Y023733D01*
X031105Y023733D02*
X031105Y024367D01*
X030105Y024367D02*
X030105Y023733D01*
X029105Y023733D02*
X029105Y024367D01*
X028105Y024367D02*
X028105Y023733D01*
X028105Y029733D02*
X028105Y030367D01*
X029105Y030367D02*
X029105Y029733D01*
X030105Y029733D02*
X030105Y030367D01*
X031105Y030367D02*
X031105Y029733D01*
X032105Y029733D02*
X032105Y030367D01*
X033105Y030367D02*
X033105Y029733D01*
X034105Y029733D02*
X034105Y030367D01*
X035105Y030367D02*
X035105Y029733D01*
X036105Y029733D02*
X036105Y030367D01*
X037105Y030367D02*
X037105Y029733D01*
X038105Y029733D02*
X038105Y030367D01*
X039105Y030367D02*
X039105Y029733D01*
X040105Y029733D02*
X040105Y030367D01*
X041105Y030367D02*
X041105Y029733D01*
X042105Y029733D02*
X042105Y030367D01*
X043105Y030367D02*
X043105Y029733D01*
X044105Y029733D02*
X044105Y030367D01*
X045105Y030367D02*
X045105Y029733D01*
X046105Y029733D02*
X046105Y030367D01*
X047105Y030367D02*
X047105Y029733D01*
D40*
X038070Y025300D03*
X036890Y025300D03*
D41*
X036065Y025300D01*
X036065Y025800D02*
X035105Y025800D01*
X034480Y025300D01*
X033645Y025300D01*
X032855Y025300D01*
X032105Y026050D01*
X032105Y026835D01*
X033645Y026800D02*
X034480Y026800D01*
X036065Y026800D01*
X036605Y026800D01*
X037480Y027140D01*
X037105Y026550D02*
X036855Y026300D01*
X036065Y026300D01*
X034480Y026800D02*
X034480Y027300D01*
X033645Y027300D01*
X033645Y027800D02*
X034480Y027800D01*
X034480Y027300D01*
X035230Y027300D02*
X035230Y027800D01*
X036065Y027800D01*
X036065Y027300D02*
X035230Y027300D01*
X034355Y028300D02*
X033645Y028300D01*
X033645Y028800D02*
X032105Y028800D01*
X032105Y030050D01*
X036105Y030050D02*
X036065Y028800D01*
X037105Y030050D02*
X037981Y028425D01*
X038729Y028425D02*
X039104Y028426D01*
X039355Y028175D01*
X040480Y028175D01*
X040980Y027675D01*
X045043Y027675D01*
X045792Y027675D02*
X046672Y027550D01*
X047538Y027176D02*
X047542Y026425D01*
X046793Y026425D02*
X046043Y026453D01*
X040816Y026453D01*
X039906Y027363D01*
X039355Y028175D02*
X039355Y026300D01*
X039015Y025960D01*
X037480Y025960D01*
X038729Y028425D02*
X038105Y030050D01*
X046043Y025272D02*
X046105Y024050D01*
X047105Y024050D02*
X047105Y024925D01*
X047538Y027176D02*
X048355Y027176D01*
X048355Y027924D02*
X047538Y027924D01*
D42*
X038105Y026550D02*
X037105Y026550D01*
X034355Y028300D02*
X034355Y029175D01*
X033480Y029175D01*
X033105Y030050D01*
D43*
X018980Y013925D03*
D44*
X018293Y011238D03*
X018293Y030988D03*
X048918Y030988D03*
X048918Y011238D03*
M02*
